<svg xmlns="http://www.w3.org/2000/svg" xmlns:xlink="http://www.w3.org/1999/xlink" width="310.527" height="50.8" viewBox="0 0 310.527 50.8">
  <defs>
    <clipPath id="clip-path">
      <path id="Path_330" data-name="Path 330" d="M5175.17,433.831l-25.125,42.82h16.428a1.692,1.692,0,0,0,1.459-.836l16.95-28.886a1.8,1.8,0,0,0,0-1.822l-6.6-11.275A1.8,1.8,0,0,0,5175.17,433.831Z" transform="translate(-5150.045 -432.941)" fill="none"/>
    </clipPath>
  </defs>
  <g id="Group_35904" data-name="Group 35904" transform="translate(-140 -46.29)">
    <text id="Verified_Resume" data-name="Verified Resume" transform="translate(198.527 90.09)" fill="#2a313f" font-size="34" font-family="ProximaNova-Bold, Proxima Nova" font-weight="700"><tspan x="0" y="0">Verified Resume</tspan></text>
    <g id="Group_140" data-name="Group 140" transform="translate(140 46.29)">
      <circle id="Ellipse_18" data-name="Ellipse 18" cx="1.56" cy="1.56" r="1.56" transform="translate(0 14.948)" fill="#0071b9"/>
      <path id="Path_324" data-name="Path 324" d="M5117.017,455.627" transform="translate(-5112.991 -445.412)" fill="#0071b9"/>
      <circle id="Ellipse_19" data-name="Ellipse 19" cx="1.74" cy="1.74" r="1.74" transform="translate(6.787 4.682)" fill="#0071b9"/>
      <rect id="Rectangle_68" data-name="Rectangle 68" width="8.407" height="0.45" transform="translate(6.524 19.057) rotate(-19.161)" fill="#0071b9"/>
      <path id="Path_325" data-name="Path 325" d="M5127.834,481.237c-.651-.3-4.114-4.857-4.8-5.767l.358-.271a51.489,51.489,0,0,0,4.633,5.63Z" transform="translate(-5116.298 -456.171)" fill="#0071b9"/>
      <rect id="Rectangle_69" data-name="Rectangle 69" width="0.45" height="6.011" transform="translate(8.669 15.191) rotate(-75.219)" fill="#0071b9"/>
      <path id="Path_326" data-name="Path 326" d="M5120.427,472.74l-9.575-15.957,2.834-6.116,4.488-4.488.146.26c2.418,4.319,6.487,11.292,7.108,11.616l.173.09-.062.186Zm-9.067-15.984,8.962,14.934,4.741-13.361c-1.207-1.179-5.729-9.164-6.99-11.411l-4.039,4.039Z" transform="translate(-5109.602 -440.218)" fill="#0071b9"/>
      <circle id="Ellipse_20" data-name="Ellipse 20" cx="1.339" cy="1.339" r="1.339" transform="translate(5.633 17.934)" fill="#0071b9"/>
      <circle id="Ellipse_21" data-name="Ellipse 21" cx="1.339" cy="1.339" r="1.339" transform="translate(2.931 8.929)" fill="#0071b9"/>
      <ellipse id="Ellipse_22" data-name="Ellipse 22" cx="2.081" cy="2.003" rx="2.081" ry="2.003" transform="translate(6.575 16.847) rotate(-87.817)" fill="#0071b9"/>
      <ellipse id="Ellipse_23" data-name="Ellipse 23" cx="0.743" cy="0.753" rx="0.743" ry="0.753" transform="translate(5.06 22.882)" fill="#0071b9"/>
      <ellipse id="Ellipse_24" data-name="Ellipse 24" cx="0.743" cy="0.753" rx="0.743" ry="0.753" transform="translate(10.914 10.724)" fill="#0071b9"/>
      <path id="Path_327" data-name="Path 327" d="M5116.288,461.123l-6.167-3.386,7.366-1.576-4.18-4.415.328-.31,4.052,4.28-.184-7.515.451-.011.2,8.015.217.228-.274.059Zm-4.891-3.2,4.658,2.557,1.508-3.877Z" transform="translate(-5109.199 -441.324)" fill="#0071b9"/>
      <rect id="Rectangle_70" data-name="Rectangle 70" width="4.318" height="0.45" transform="matrix(0.27, -0.963, 0.963, 0.27, 5.587, 23.574)" fill="#0071b9"/>
      <path id="Path_328" data-name="Path 328" d="M5175.17,433.831l-25.125,42.82h16.428a1.692,1.692,0,0,0,1.459-.836l16.95-28.886a1.8,1.8,0,0,0,0-1.822l-6.6-11.275A1.8,1.8,0,0,0,5175.17,433.831Z" transform="translate(-5131.146 -432.941)" fill="#0071b9"/>
      <g id="Group_139" data-name="Group 139" transform="translate(18.898)" opacity="0.21" style="mix-blend-mode: multiply;isolation: isolate">
        <g id="Group_138" data-name="Group 138" clip-path="url(#clip-path)">
          <path id="Path_329" data-name="Path 329" d="M5150.719,491.229l-3.1-7.9-6.3-16.055c-.437-1.11-2.056-1.111-2.934,0l-9.045,11.437a1.76,1.76,0,0,0-.339,1.7l5.75,14.648,19.7,0C5153.057,494.926,5152.4,494.645,5150.719,491.229Z" transform="translate(-5138.423 -451.357)" fill="#000508"/>
        </g>
      </g>
      <path id="Path_331" data-name="Path 331" d="M5146.461,491.185l-4.648-7.934-9.353-15.968a1.8,1.8,0,0,0-3.108,0l-6.616,11.277a1.8,1.8,0,0,0,0,1.822l8.587,14.66h19.608C5149.519,494.9,5148.814,494.616,5146.461,491.185Z" transform="translate(-5115.998 -451.329)" fill="#33a8f2"/>
      <rect id="Rectangle_71" data-name="Rectangle 71" width="4.563" height="0.45" transform="matrix(0.643, -0.766, 0.766, 0.643, 8.553, 14.828)" fill="#0071b9"/>
    </g>
  </g>
</svg>
