<svg id="Group_35754" data-name="Group 35754" xmlns="http://www.w3.org/2000/svg" xmlns:xlink="http://www.w3.org/1999/xlink" width="589.952" height="348.321" viewBox="0 0 589.952 348.321">
  <defs>
    <linearGradient id="linear-gradient" x1="0.501" y1="1.189" x2="0.499" y2="-0.385" gradientUnits="objectBoundingBox">
      <stop offset="0" stop-color="#510394"/>
      <stop offset="0.121" stop-color="#4a0387"/>
      <stop offset="0.342" stop-color="#370367"/>
      <stop offset="0.635" stop-color="#1a0332"/>
      <stop offset="0.849" stop-color="#030408"/>
    </linearGradient>
    <linearGradient id="linear-gradient-2" x1="75.983" y1="0.319" x2="75.111" y2="0.567" gradientUnits="objectBoundingBox">
      <stop offset="0" stop-color="#4e9cff"/>
      <stop offset="1" stop-color="#176ad4"/>
    </linearGradient>
    <linearGradient id="linear-gradient-3" x1="90.252" y1="0.299" x2="90.084" y2="1.029" gradientUnits="objectBoundingBox">
      <stop offset="0" stop-color="#f2be3c"/>
      <stop offset="1" stop-color="#ffac00"/>
    </linearGradient>
    <linearGradient id="linear-gradient-4" x1="65.931" y1="0.319" x2="65.059" y2="0.567" xlink:href="#linear-gradient-2"/>
    <linearGradient id="linear-gradient-5" x1="77.975" y1="0.299" x2="77.806" y2="1.029" xlink:href="#linear-gradient-3"/>
    <linearGradient id="linear-gradient-6" x1="0.297" y1="-0.265" x2="0.623" y2="0.645" gradientUnits="objectBoundingBox">
      <stop offset="0" stop-color="#2a313f"/>
      <stop offset="1" stop-color="#176ad4"/>
    </linearGradient>
    <linearGradient id="linear-gradient-7" x1="0.429" y1="-0.856" x2="0.495" y2="0.407" xlink:href="#linear-gradient-3"/>
    <linearGradient id="linear-gradient-8" x1="0.396" y1="-0.503" x2="0.49" y2="0.424" xlink:href="#linear-gradient-2"/>
    <linearGradient id="linear-gradient-9" x1="0.733" y1="1.095" x2="0.279" y2="0.303" xlink:href="#linear-gradient-2"/>
    <linearGradient id="linear-gradient-10" x1="0.482" y1="-0.342" x2="0.507" y2="0.542" xlink:href="#linear-gradient-2"/>
    <linearGradient id="linear-gradient-11" x1="0.562" y1="0.221" x2="0.467" y2="1.074" xlink:href="#linear-gradient-2"/>
    <linearGradient id="linear-gradient-12" x1="0.18" y1="0.679" x2="0.965" y2="0.193" gradientUnits="objectBoundingBox">
      <stop offset="0" stop-color="#f2bfad"/>
      <stop offset="0.745" stop-color="#f2dad4"/>
    </linearGradient>
    <linearGradient id="linear-gradient-13" x1="0.183" y1="0.359" x2="0.897" y2="0.887" gradientUnits="objectBoundingBox">
      <stop offset="0" stop-color="#4e9cff"/>
      <stop offset="0.799" stop-color="#176ad4"/>
    </linearGradient>
    <linearGradient id="linear-gradient-14" x1="0.25" y1="0.49" x2="0.802" y2="0.515" gradientUnits="objectBoundingBox">
      <stop offset="0" stop-color="#4e9cff"/>
      <stop offset="0.991" stop-color="#176ad4"/>
    </linearGradient>
    <linearGradient id="linear-gradient-15" y1="0.5" x2="1" y2="0.5" gradientUnits="objectBoundingBox">
      <stop offset="0" stop-color="#f2bfad"/>
      <stop offset="1" stop-color="#f2dad4"/>
    </linearGradient>
  </defs>
  <path id="Path_37868" data-name="Path 37868" d="M-1051.124,1638.609c0,6.179-132.065,11.189-294.976,11.189s-294.976-5.01-294.976-11.189,132.066-11.188,294.976-11.188S-1051.124,1632.43-1051.124,1638.609Z" transform="translate(1641.076 -1301.477)" opacity="0.1" fill="url(#linear-gradient)"/>
  <g id="Group_35744" data-name="Group 35744" transform="translate(40.078 225.257)">
    <path id="Path_37869" data-name="Path 37869" d="M-1574.84,1527.618c-3.057.8-14.633.329-12.422-5.383,2.458-6.351,9.021-.8,11.836,2.722a78.9,78.9,0,0,1-1.2-14.4c-2.081-2.5-6.478-18.389,2.183-17.6,11.349,1.032,1.294,16.072-1.32,17.778a72.917,72.917,0,0,0,1.9,17.227c.353-4,4.345-15.392,9.652-11.376,7.7,5.825-7.031,12.856-9.264,12.735a21.846,21.846,0,0,0,2.8,6.111c.853,1.219,1.8,2.631,2.775,4.169l.052.056c.494-4.215,4.428-15.041,9.623-11.11,7.188,5.439-5.173,11.927-8.665,12.668a99.993,99.993,0,0,1,6.119,11.427c.243-3.807,7.712-11.589,10.68-7.139,1.654,2.481-7.1,10.567-9.987,8.755,1.646,4.021,2.636,7.78,2.294,10.522-.126,1.011-.312,2.2-.525,3.5,2.046-2.262,9.435-9.846,11.636-3.977,1.824,4.866-4.272,7.69-6.836,7.69-2.006,0-4.132-1.9-4.965-2.726-.118.7-.243,1.419-.369,2.154-1.032,5.989-2.269,13.2-1.905,17.533,1.745-3.386,9.541-17.483,14.075-8.417,2.324,4.648-4.272,8.544-6.836,9.4-2.1.7-5.863.071-7.149-.178a7.917,7.917,0,0,0,.292,1.324,50.445,50.445,0,0,0,5.076,10.151.427.427,0,0,1-.118.592.427.427,0,0,1-.237.072.427.427,0,0,1-.356-.19,55.288,55.288,0,0,1-4.332-8.126c-2.012-.254-9.75-1.309-11.974-2.792-2.563-1.708-7.152-7.324-3.417-9.4,5.779-3.211,11.839,5.323,14.493,9.762-.988-3.312-.113-9.939.915-16.162-2.069.62-8.794-.582-11.137-2.144-2.563-1.708-6.981-6.136-4.272-8.544,6.792-6.038,13.969,6.753,15.552,9.82.162-.968.327-1.922.487-2.847.427-2.482.831-4.825,1.052-6.6.318-2.547-.63-6.21-2.322-10.317a26.091,26.091,0,0,1-10.924.972c-5.981-.855-9.013-5.511-6.836-7.69,3.708-3.708,14.664,3.974,17.495,6.068a94.883,94.883,0,0,0-6.792-12.7c-3.486.807-17.371.511-15.492-5s8.986-1.8,13.163,1.428c-.344-.508-.688-1.014-1.035-1.508A25.426,25.426,0,0,1-1574.84,1527.618Z" transform="translate(1587.54 -1492.925)" fill="url(#linear-gradient-2)"/>
    <path id="Path_37870" data-name="Path 37870" d="M-1538.812,1592.433c7.172-2.869,8.925,8.108,9.3,11.707a42.2,42.2,0,0,0,1.537-16.838c-1.091-.027-5.322-.227-8.277-1.7-3.418-1.708-5.526-8.552-2.563-9.4,4.976-1.422,9.358,7.207,10.69,10.147-.117-.663-.256-1.306-.423-1.917a76.255,76.255,0,0,1-2.222-14.216,30.151,30.151,0,0,1-7.191-.848c-2.563-.854-6.9-7.548-3.417-8.544,4.8-1.372,9.053,5.518,10.541,8.286-.287-5.282-.07-10.366.829-13.829a33.771,33.771,0,0,1-1.117-7.273c0-3.418,3.966-10.145,7.69-6.836,6.8,6.047-3.392,13.114-5.836,14.665a49.762,49.762,0,0,0-.713,13.445c1.527-3.843,7.7-17.677,15.092-11.021,2.84,2.556-3.417,8.544-7.69,10.253a24.323,24.323,0,0,1-7.343,1.707,75.632,75.632,0,0,0,2.2,13.986,22.13,22.13,0,0,1,.48,2.255c1.62-3.268,9.157-17.164,17.478-11.113,3.455,2.512-3.418,8.544-6.836,10.252-2.934,1.467-8.906,1.544-10.539,1.536a43.164,43.164,0,0,1-1.47,16.843c2.51-3.8,9.849-13.547,15.427-7.271,3.31,3.724-5.258,6.879-7.689,7.69-2.142.713-6.722.927-8.173.978-1.215,3.669-2.869,6.714-4.8,8.322a.425.425,0,0,1-.273.1.428.428,0,0,1-.329-.154.427.427,0,0,1,.055-.6c1.84-1.533,3.417-4.439,4.579-7.95a43.819,43.819,0,0,1-6.441-3.256C-1538.812,1600.122-1542.779,1594.019-1538.812,1592.433Z" transform="translate(1576.263 -1504.828)" fill="url(#linear-gradient-3)"/>
    <path id="Path_37871" data-name="Path 37871" d="M-1562.2,1638.191h38.875a.427.427,0,0,0,.427-.428.427.427,0,0,0-.427-.427H-1562.2a.427.427,0,0,0-.427.427A.427.427,0,0,0-1562.2,1638.191Z" transform="translate(1581.277 -1529.227)" fill="#7500b2"/>
    <path id="Path_37872" data-name="Path 37872" d="M-1580.457,1638.191h8.972a.427.427,0,0,0,.427-.428.427.427,0,0,0-.427-.427h-8.972a.427.427,0,0,0-.427.427A.427.427,0,0,0-1580.457,1638.191Z" transform="translate(1585.867 -1529.227)" fill="#7500b2"/>
  </g>
  <g id="Group_35745" data-name="Group 35745" transform="translate(480.202 214.981)">
    <path id="Path_37873" data-name="Path 37873" d="M-985.733,1517.163c-3.344.871-16.012.36-13.593-5.891,2.69-6.95,9.872-.874,12.953,2.978a86.371,86.371,0,0,1-1.312-15.759c-2.277-2.736-7.089-20.123,2.389-19.262,12.42,1.13,1.416,17.587-1.444,19.455a79.775,79.775,0,0,0,2.084,18.85c.385-4.382,4.755-16.843,10.562-12.448,8.424,6.375-7.694,14.069-10.139,13.936a23.945,23.945,0,0,0,3.059,6.688c.934,1.334,1.967,2.88,3.037,4.562l.057.061c.541-4.612,4.846-16.459,10.53-12.158,7.865,5.952-5.661,13.052-9.482,13.862a109.662,109.662,0,0,1,6.7,12.505c.265-4.167,8.439-12.682,11.686-7.813,1.81,2.715-7.77,11.564-10.928,9.581,1.8,4.4,2.885,8.513,2.51,11.515-.138,1.106-.341,2.412-.574,3.825,2.238-2.475,10.323-10.774,12.733-4.351,2,5.325-4.675,8.414-7.48,8.414-2.2,0-4.523-2.077-5.434-2.983-.13.766-.265,1.553-.4,2.357-1.129,6.553-2.482,14.442-2.085,19.186,1.91-3.706,10.441-19.133,15.4-9.211,2.543,5.087-4.675,9.35-7.48,10.285-2.3.767-6.417.078-7.823-.195a8.682,8.682,0,0,0,.319,1.449,55.17,55.17,0,0,0,5.556,11.108.468.468,0,0,1-.13.648.467.467,0,0,1-.259.079.465.465,0,0,1-.389-.208,60.4,60.4,0,0,1-4.74-8.892c-2.2-.278-10.67-1.432-13.1-3.054-2.8-1.87-7.826-8.014-3.74-10.285,6.325-3.514,12.956,5.826,15.861,10.682-1.082-3.624-.124-10.876,1-17.685-2.265.678-9.624-.638-12.187-2.346-2.8-1.87-7.64-6.714-4.675-9.349,7.433-6.607,15.287,7.388,17.019,10.746.178-1.06.358-2.1.532-3.117.468-2.715.909-5.279,1.152-7.221.348-2.787-.69-6.8-2.542-11.29a28.526,28.526,0,0,1-11.954,1.064c-6.545-.935-9.864-6.031-7.48-8.415,4.057-4.058,16.047,4.348,19.145,6.64a103.825,103.825,0,0,0-7.432-13.9c-3.814.883-19.009.559-16.953-5.475s9.833-1.973,14.4,1.563c-.377-.556-.753-1.11-1.132-1.651A27.83,27.83,0,0,1-985.733,1517.163Z" transform="translate(999.63 -1479.199)" fill="url(#linear-gradient-4)"/>
    <path id="Path_37874" data-name="Path 37874" d="M-946.307,1588.091c7.849-3.139,9.767,8.873,10.181,12.811a46.2,46.2,0,0,0,1.681-18.426c-1.194-.029-5.824-.248-9.058-1.865-3.74-1.87-6.046-9.359-2.805-10.285,5.445-1.556,10.241,7.886,11.7,11.1-.127-.725-.28-1.428-.463-2.1a83.478,83.478,0,0,1-2.432-15.557,33.006,33.006,0,0,1-7.87-.929c-2.805-.935-7.554-8.26-3.739-9.35,5.256-1.5,9.906,6.038,11.535,9.067-.314-5.779-.076-11.342.907-15.132a36.925,36.925,0,0,1-1.222-7.959c0-3.74,4.34-11.1,8.415-7.479,7.444,6.616-3.712,14.35-6.386,16.047-.9,3.733-1.1,9.123-.78,14.714,1.671-4.206,8.424-19.344,16.515-12.061,3.108,2.8-3.74,9.35-8.414,11.22a26.611,26.611,0,0,1-8.036,1.869,82.8,82.8,0,0,0,2.409,15.306,24.318,24.318,0,0,1,.525,2.468c1.773-3.576,10.021-18.784,19.127-12.161,3.781,2.75-3.74,9.349-7.48,11.22-3.21,1.6-9.746,1.689-11.533,1.681a47.238,47.238,0,0,1-1.61,18.43c2.747-4.156,10.777-14.824,16.882-7.956,3.622,4.075-5.754,7.527-8.414,8.415-2.344.781-7.356,1.014-8.943,1.07-1.33,4.016-3.14,7.348-5.25,9.106a.462.462,0,0,1-.3.109.471.471,0,0,1-.36-.168.469.469,0,0,1,.06-.659c2.014-1.678,3.739-4.858,5.011-8.7a48.027,48.027,0,0,1-7.049-3.563C-946.307,1596.505-950.647,1589.827-946.307,1588.091Z" transform="translate(987.289 -1492.225)" fill="url(#linear-gradient-5)"/>
    <path id="Path_37875" data-name="Path 37875" d="M-971.9,1638.164h42.541a.467.467,0,0,0,.468-.467.468.468,0,0,0-.468-.468H-971.9a.467.467,0,0,0-.467.468A.467.467,0,0,0-971.9,1638.164Z" transform="translate(992.776 -1518.924)" fill="#7500b2"/>
    <path id="Path_37876" data-name="Path 37876" d="M-991.878,1638.164h9.817a.467.467,0,0,0,.468-.467.468.468,0,0,0-.468-.468h-9.817a.468.468,0,0,0-.468.468A.467.467,0,0,0-991.878,1638.164Z" transform="translate(997.799 -1518.924)" fill="#7500b2"/>
  </g>
  <g id="Group_35752" data-name="Group 35752" transform="translate(84.347)">
    <g id="Group_35747" data-name="Group 35747" transform="translate(76.612)">
      <path id="Path_37877" data-name="Path 37877" d="M-1238.272,1320.027a10.237,10.237,0,0,1-10.237-10.237v-41.575a55.775,55.775,0,0,0-55.712-55.713,55.775,55.775,0,0,0-55.711,55.713v41.575a10.237,10.237,0,0,1-10.237,10.237,10.237,10.237,0,0,1-10.237-10.237v-41.575a76.271,76.271,0,0,1,76.184-76.186,76.272,76.272,0,0,1,76.185,76.186v41.575A10.237,10.237,0,0,1-1238.272,1320.027Z" transform="translate(1414.59 -1192.03)" fill="#0071b9"/>
      <rect id="Rectangle_1322" data-name="Rectangle 1322" width="221.699" height="221.699" rx="52.629" transform="translate(0 112.523)" fill="#33a8f2"/>
      <g id="Group_35746" data-name="Group 35746" transform="translate(82.577 175.348)">
        <path id="Path_37878" data-name="Path 37878" d="M-1272.131,1520.176h-30.721a4.617,4.617,0,0,1-3.535-1.646,4.618,4.618,0,0,1-1.017-3.765l6.175-35.535a28.065,28.065,0,0,1-14.535-24.7,28.305,28.305,0,0,1,28.273-28.273,28.306,28.306,0,0,1,28.273,28.273,28.067,28.067,0,0,1-14.535,24.7l6.174,35.535a4.618,4.618,0,0,1-1.017,3.765A4.617,4.617,0,0,1-1272.131,1520.176Z" transform="translate(1315.764 -1426.257)" fill="#fff"/>
      </g>
    </g>
    <g id="Group_35748" data-name="Group 35748" transform="translate(0 172.61)">
      <path id="Path_37879" data-name="Path 37879" d="M-1401.785,1437.667l-62.554-15.067-62.553,15.067s-6.508,62.012,7.456,89.938,46.795,56.607,55.1,56.607,41.135-28.681,55.1-56.607S-1401.785,1437.667-1401.785,1437.667Z" transform="translate(1528.406 -1422.6)" fill="url(#linear-gradient-6)"/>
      <path id="Path_37880" data-name="Path 37880" d="M-1461.954,1578.071c-2.038,0-5.228-1.51-9.481-4.487a114.348,114.348,0,0,1-13.457-11.372c-11.15-10.815-20.66-23.248-26.09-34.109-5.126-10.251-7.794-26.679-7.932-48.828-.1-16.432,1.307-30.065,1.321-30.2a1.1,1.1,0,0,1,.839-.958l54.542-13.138a1.1,1.1,0,0,1,.516,0l54.542,13.138a1.1,1.1,0,0,1,.839.958c.014.135,1.423,13.768,1.321,30.2-.138,22.149-2.807,38.577-7.932,48.828-5.431,10.861-14.94,23.293-26.09,34.109a114.419,114.419,0,0,1-13.457,11.372C-1456.726,1576.561-1459.916,1578.071-1461.954,1578.071Zm-53.52-127.991c-.291,3.1-1.322,15.114-1.234,29.205.136,21.489,2.8,38.029,7.7,47.831,5.324,10.648,14.674,22.863,25.653,33.511,10.312,10,18.572,15.236,21.4,15.236s11.089-5.233,21.4-15.236c10.979-10.648,20.329-22.863,25.652-33.511,4.9-9.8,7.563-26.342,7.7-47.831.089-14.091-.942-26.107-1.234-29.205l-53.52-12.891Z" transform="translate(1526.022 -1425.704)" fill="#fff"/>
    </g>
    <g id="Group_35750" data-name="Group 35750" transform="translate(223.406 255.644)">
      <rect id="Rectangle_1323" data-name="Rectangle 1323" width="192.643" height="78.578" rx="23.894" fill="url(#linear-gradient-7)"/>
      <g id="Group_35749" data-name="Group 35749" transform="translate(90.092 29.176)">
        <path id="Path_37881" data-name="Path 37881" d="M-1033.4,1581.521h-71.72a4.516,4.516,0,0,1-4.516-4.516,4.516,4.516,0,0,1,4.516-4.516h71.72a4.516,4.516,0,0,1,4.516,4.516A4.516,4.516,0,0,1-1033.4,1581.521Z" transform="translate(1109.64 -1572.488)" fill="#fff"/>
        <path id="Path_37882" data-name="Path 37882" d="M-1033.4,1607.239h-71.72a4.516,4.516,0,0,1-4.516-4.516,4.516,4.516,0,0,1,4.516-4.516h71.72a4.516,4.516,0,0,1,4.516,4.516A4.516,4.516,0,0,1-1033.4,1607.239Z" transform="translate(1109.64 -1578.953)" fill="#fff"/>
      </g>
      <path id="Path_37883" data-name="Path 37883" d="M-1191.149,1597.951a10.956,10.956,0,0,1-10.944-10.943,10.956,10.956,0,0,1,10.944-10.943,10.956,10.956,0,0,1,10.943,10.943A10.956,10.956,0,0,1-1191.149,1597.951Zm0-15.407a4.468,4.468,0,0,0-4.464,4.463,4.469,4.469,0,0,0,4.464,4.463,4.469,4.469,0,0,0,4.463-4.463A4.468,4.468,0,0,0-1191.149,1582.544Z" transform="translate(1222.973 -1544.211)" fill="#fff"/>
      <path id="Path_37884" data-name="Path 37884" d="M-1150.569,1597.951a10.956,10.956,0,0,1-10.944-10.943,10.956,10.956,0,0,1,10.944-10.943,10.956,10.956,0,0,1,10.943,10.943A10.956,10.956,0,0,1-1150.569,1597.951Zm0-15.407a4.469,4.469,0,0,0-4.464,4.463,4.469,4.469,0,0,0,4.464,4.463,4.469,4.469,0,0,0,4.463-4.463A4.468,4.468,0,0,0-1150.569,1582.544Z" transform="translate(1212.772 -1544.211)" fill="#fff"/>
    </g>
    <g id="Group_35751" data-name="Group 35751" transform="translate(292.15 163.614)">
      <path id="Path_37885" data-name="Path 37885" d="M-1049.8,1584.441c-.576-.081.4,1.119-.144,1.732s-3.645,2.2-5.233,1.371-.866-2.923-.758-3.5,6.712-4.907,7.218-4.907a6.9,6.9,0,0,1,2.745.782c.352.371.362-.005.524.489s.329,2.441-.135,2.739S-1048.771,1584.586-1049.8,1584.441Z" transform="translate(1117.553 -1452.954)" fill="url(#linear-gradient-8)"/>
      <path id="Path_37886" data-name="Path 37886" d="M-1059,1571.064c0,1.965-.079,3.794.756,4.907s1.312,5.845,1.351,6.244,3.326-2.082,4.314-2.917,3.52-2.69,4.674-2.411,1.75,1.193,1.75.676a3.246,3.246,0,0,0-2.506-2.107c-1.352-.159-1.431,1.193-1.948.477a7.924,7.924,0,0,1-1.352-3.539c-.159-1.471.119-4.414-.835-4.573S-1059,1571.064-1059,1571.064Z" transform="translate(1118.259 -1450.107)" fill="url(#linear-gradient-9)"/>
      <path id="Path_37887" data-name="Path 37887" d="M-1134.026,1584.395c-.877,1.458-.227,2.792.839,3.012s6.156.457,6.156.6-.3.476,0,.535,5.231.357,5.856.327.654-.475.654-.892.118-1.071.113-2.366S-1134.026,1584.395-1134.026,1584.395Z" transform="translate(1137.222 -1454.275)" fill="url(#linear-gradient-10)"/>
      <path id="Path_37888" data-name="Path 37888" d="M-1127.253,1573.687a14.139,14.139,0,0,1-1.558,5.085,6.815,6.815,0,0,1-1.878,2.107c-.275.046-2.748-.5-3.206.824s7.055,3.3,7.833,2.978.932-1.106,3.062-1.106,2.544.119,2.721-.651-.532-6.27-.473-7.631S-1127.253,1573.687-1127.253,1573.687Z" transform="translate(1137.091 -1451.584)" fill="url(#linear-gradient-11)"/>
      <path id="Path_37889" data-name="Path 37889" d="M-1109.995,1516.74c-1.151,1.275-11.535,5.316-13.534,9.052s-2.137,11.643-2.082,15.193-.887,16.976.032,18.742,6.658,2.464,7.21,2.207,1.177-8.828,1.288-10.925-.532-14.181,1.394-16.91,4.817-4.977,6.208-4.977h23.921s4.924,2.729,5.245,3.853.752,9.57,1.365,12.7,2.024,12.387,2.786,13.054,6.95-.667,7.045-3.238-1.047-10.213-1.047-13.953.057-11.9-2.38-15.357-12.013-8.86-14-9.445S-1109.995,1516.74-1109.995,1516.74Z" transform="translate(1135.097 -1437.203)" fill="#192b59"/>
      <path id="Path_37890" data-name="Path 37890" d="M-1136.276,1412.113a1.666,1.666,0,0,0-1.216,1.147,10.565,10.565,0,0,0-.665,1.765c0,.482,2.637,4.357,3.531,4.839s9.851,15.42,10.865,16.959,11.428,17.986,12.319,18.347,6.067-2.431,6.067-2.431-7.681-10.392-9.365-12.486-9.488-12.116-10.268-13.513-6.486-8.285-6.556-8.98-.043-3.525-.174-4.049a5.583,5.583,0,0,0-1.735-2.506c-.737-.41-2.1-.835-2.621-.508S-1136.276,1412.113-1136.276,1412.113Z" transform="translate(1138.157 -1410.583)" fill="#f2dad4"/>
      <path id="Path_37891" data-name="Path 37891" d="M-1134.257,1412.711c-.4.243.352.619.437.886a5.067,5.067,0,0,0,.558,1.494.749.749,0,0,0,.692.279c.267-.037.461-1,.267-1.494S-1133.723,1412.383-1134.257,1412.711Z" transform="translate(1137.205 -1411.102)" fill="url(#linear-gradient-12)"/>
      <path id="Path_37892" data-name="Path 37892" d="M-1094.453,1461.641c-3,1.256-10.393,5.893-10.393,6.691s1.81-.007,2.413,1.753,1.716,13.652.714,17.128-4.889,15.787-4.006,16.082,10.722,1.885,13.549,1.708,9.013-1.178,10.073-2.062,2.331-17.737,4.019-18.376,4.791-1.187,4.927-2.144,1.231-10.539-.228-12.136-5.246-4.2-6.615-4.425-2.488-2.828-3.092-3.191a22.649,22.649,0,0,0-7.227-1.714A18.9,18.9,0,0,0-1094.453,1461.641Z" transform="translate(1130.037 -1423.245)" fill="url(#linear-gradient-13)"/>
      <path id="Path_37893" data-name="Path 37893" d="M-1066.824,1485.317s-5.232,3.33-4.913,4.1a3.689,3.689,0,0,0,1.863,1.661.838.838,0,0,1,.364-.391c1.688-.639,4.791-1.187,4.927-2.144A5.493,5.493,0,0,0-1066.824,1485.317Z" transform="translate(1121.464 -1429.369)" fill="url(#linear-gradient-14)"/>
      <path id="Path_37894" data-name="Path 37894" d="M-1089.7,1462.547c1.333,1.179,3.332,3.64,3.716,5.1s.951,4.27.429,5.574-.978,2.249-.554,2.51a4.46,4.46,0,0,0,2.836.2c.847-.326,1.955-3.488,2.542-5.7s.815-7.008-.685-8.149-2.151-1.858-3.031-1.858S-1089.7,1462.547-1089.7,1462.547Z" transform="translate(1125.976 -1423.06)" fill="url(#linear-gradient-15)"/>
      <path id="Path_37895" data-name="Path 37895" d="M-1097.169,1440.531c-1.887-.29-4.052,2.5-4.767,5.064a43.588,43.588,0,0,1-3.426,8.58c-1.132,1.848-1.221,7.15,4.1,8.014s7.724-5.819,9.037-6.05,4.829,2.665,7.03,1.159,3.206-5.061.889-8.576-3.52-6.2-4.724-7.533a6.111,6.111,0,0,0-4.506-2.379C-1096.34,1438.786-1097.169,1440.531-1097.169,1440.531Z" transform="translate(1130.07 -1417.678)" fill="#e64d4e"/>
      <path id="Path_37896" data-name="Path 37896" d="M-1095.172,1444.591c-.478,6.359-2.7,5.286-1.245,8.4.8,1.708,3.23,6.047,7.592,6.7s4.8-6.759,4.579-8.068-3.053-7.414-4.579-7.85S-1095.053,1443-1095.172,1444.591Z" transform="translate(1127.787 -1418.835)" fill="#f2dad4"/>
      <path id="Path_37897" data-name="Path 37897" d="M-1075.667,1486.988c-1.024,2.441-4.144,11.345-4.144,12.873s-.281,14.4-.442,15.809-.332,2.843-1.157,3.182-2.767.947-2.791,3.228,2.111,5.339,2.888,5.533,2.292.276,2.725-.518-.036-2.6.939-2.6,1.66-.867,1.589-2.419-1.047-2.527-.722-4.512,3.919-19.854,4.088-21.886,1.354-5.529,2.328-6.574,1.439-2.653.761-3.542-1.27.8-2.667.847S-1075.291,1486.093-1075.667,1486.988Z" transform="translate(1124.594 -1429.367)" fill="#f2dad4"/>
    </g>
  </g>
  <g id="Group_35753" data-name="Group 35753" transform="translate(114.179 52.956)">
    <path id="Path_37898" data-name="Path 37898" d="M-1414.21,1266.511h-4.492a1.871,1.871,0,0,1-1.872-1.872,1.871,1.871,0,0,1,1.872-1.872h4.492a1.871,1.871,0,0,1,1.872,1.872A1.871,1.871,0,0,1-1414.21,1266.511Z" transform="translate(1471.468 -1262.768)" fill="#6c7890"/>
    <path id="Path_37899" data-name="Path 37899" d="M-1440.447,1266.511h-9.281a1.871,1.871,0,0,1-1.871-1.872,1.871,1.871,0,0,1,1.871-1.872h9.281a1.871,1.871,0,0,1,1.871,1.872A1.871,1.871,0,0,1-1440.447,1266.511Zm-18.562,0h-9.281a1.872,1.872,0,0,1-1.872-1.872,1.872,1.872,0,0,1,1.872-1.872h9.281a1.871,1.871,0,0,1,1.872,1.872A1.871,1.871,0,0,1-1459.009,1266.511Z" transform="translate(1483.933 -1262.768)" fill="#6c7890"/>
    <path id="Path_37900" data-name="Path 37900" d="M-1486.687,1271a1.872,1.872,0,0,1-1.871-1.872v-4.492a1.872,1.872,0,0,1,1.871-1.872h4.492a1.871,1.871,0,0,1,1.872,1.872,1.871,1.871,0,0,1-1.872,1.872h-2.62v2.62A1.871,1.871,0,0,1-1486.687,1271Z" transform="translate(1488.558 -1262.768)" fill="#6c7890"/>
    <path id="Path_37901" data-name="Path 37901" d="M-1486.687,1358.808a1.872,1.872,0,0,1-1.871-1.872v-8.35a1.872,1.872,0,0,1,1.871-1.872,1.871,1.871,0,0,1,1.872,1.872v8.35A1.872,1.872,0,0,1-1486.687,1358.808Zm0-16.7a1.872,1.872,0,0,1-1.871-1.872v-8.349a1.872,1.872,0,0,1,1.871-1.872,1.871,1.871,0,0,1,1.872,1.872v8.349A1.871,1.871,0,0,1-1486.687,1342.108Zm0-16.7a1.872,1.872,0,0,1-1.871-1.872v-8.349a1.872,1.872,0,0,1,1.871-1.872,1.871,1.871,0,0,1,1.872,1.872v8.349A1.871,1.871,0,0,1-1486.687,1325.41Zm0-16.7a1.872,1.872,0,0,1-1.871-1.872v-8.349a1.872,1.872,0,0,1,1.871-1.872,1.871,1.871,0,0,1,1.872,1.872v8.349A1.871,1.871,0,0,1-1486.687,1308.712Zm0-16.7a1.872,1.872,0,0,1-1.871-1.871v-8.349a1.872,1.872,0,0,1,1.871-1.871,1.871,1.871,0,0,1,1.872,1.871v8.349A1.871,1.871,0,0,1-1486.687,1292.013Z" transform="translate(1488.558 -1267.08)" fill="#6c7890"/>
    <path id="Path_37902" data-name="Path 37902" d="M-1486.687,1399.684a1.872,1.872,0,0,1-1.871-1.872v-4.492a1.872,1.872,0,0,1,1.871-1.872,1.871,1.871,0,0,1,1.872,1.872v4.492A1.871,1.871,0,0,1-1486.687,1399.684Z" transform="translate(1488.558 -1295.115)" fill="#6c7890"/>
  </g>
  <path id="Path_37903" data-name="Path 37903" d="M-1059.567,1436.5a1.871,1.871,0,0,1-1.871-1.872v-8.983a1.871,1.871,0,0,1,1.871-1.872,1.871,1.871,0,0,1,1.872,1.872v8.983A1.871,1.871,0,0,1-1059.567,1436.5Zm0-17.967a1.871,1.871,0,0,1-1.871-1.872v-8.984a1.871,1.871,0,0,1,1.871-1.872,1.871,1.871,0,0,1,1.872,1.872v8.984A1.871,1.871,0,0,1-1059.567,1418.536Zm0-17.967a1.871,1.871,0,0,1-1.871-1.872v-8.983a1.871,1.871,0,0,1,1.871-1.872,1.871,1.871,0,0,1,1.872,1.872v8.983A1.871,1.871,0,0,1-1059.567,1400.569Zm0-17.967a1.871,1.871,0,0,1-1.871-1.872v-8.984a1.871,1.871,0,0,1,1.871-1.872,1.871,1.871,0,0,1,1.872,1.872v8.984A1.871,1.871,0,0,1-1059.567,1382.6Zm0-17.967a1.871,1.871,0,0,1-1.871-1.872v-8.983a1.871,1.871,0,0,1,1.871-1.872,1.871,1.871,0,0,1,1.872,1.872v8.983A1.871,1.871,0,0,1-1059.567,1364.635Zm0-17.967a1.871,1.871,0,0,1-1.871-1.872v-8.984a1.871,1.871,0,0,1,1.871-1.872,1.871,1.871,0,0,1,1.872,1.872v8.984A1.871,1.871,0,0,1-1059.567,1346.668Zm0-17.967a1.871,1.871,0,0,1-1.871-1.872v-8.984a1.871,1.871,0,0,1,1.871-1.872,1.871,1.871,0,0,1,1.872,1.872v8.984A1.871,1.871,0,0,1-1059.567,1328.7Zm0-17.967a1.871,1.871,0,0,1-1.871-1.871v-8.984a1.871,1.871,0,0,1,1.871-1.872,1.871,1.871,0,0,1,1.872,1.872v8.984A1.871,1.871,0,0,1-1059.567,1310.734Zm0-17.967a1.871,1.871,0,0,1-1.871-1.872v-8.984a1.871,1.871,0,0,1,1.871-1.872,1.871,1.871,0,0,1,1.872,1.872v8.984A1.871,1.871,0,0,1-1059.567,1292.767Zm0-17.967a1.871,1.871,0,0,1-1.871-1.871v-6.833a1.869,1.869,0,0,1-.695-1.455,1.871,1.871,0,0,1,1.871-1.872h.695a1.871,1.871,0,0,1,1.872,1.872v8.289A1.871,1.871,0,0,1-1059.567,1274.8Zm-9.678-8.289h-8.984a1.871,1.871,0,0,1-1.872-1.872,1.871,1.871,0,0,1,1.872-1.872h8.984a1.871,1.871,0,0,1,1.871,1.872A1.871,1.871,0,0,1-1069.245,1266.511Zm-17.967,0h-8.984a1.871,1.871,0,0,1-1.871-1.872,1.871,1.871,0,0,1,1.871-1.872h8.984a1.871,1.871,0,0,1,1.872,1.872A1.871,1.871,0,0,1-1087.212,1266.511Zm-17.967,0h-8.984a1.871,1.871,0,0,1-1.872-1.872,1.871,1.871,0,0,1,1.872-1.872h8.984a1.871,1.871,0,0,1,1.871,1.872A1.871,1.871,0,0,1-1105.179,1266.511Zm-17.967,0h-8.984a1.871,1.871,0,0,1-1.871-1.872,1.871,1.871,0,0,1,1.871-1.872h8.984a1.871,1.871,0,0,1,1.872,1.872A1.871,1.871,0,0,1-1123.146,1266.511Zm-17.967,0h-8.984a1.871,1.871,0,0,1-1.872-1.872,1.871,1.871,0,0,1,1.872-1.872h8.984a1.871,1.871,0,0,1,1.871,1.872A1.871,1.871,0,0,1-1141.113,1266.511Z" transform="translate(1518.126 -1209.812)" fill="#6c7890"/>
</svg>
