<svg xmlns="http://www.w3.org/2000/svg" xmlns:xlink="http://www.w3.org/1999/xlink" width="948" height="840" viewBox="0 0 948 840">
  <defs>
    <clipPath id="clip-path">
      <rect id="Rectangle_1393" data-name="Rectangle 1393" width="948" height="840" transform="translate(972)" fill="#fff" stroke="#707070" stroke-width="1"/>
    </clipPath>
    <clipPath id="clip-path-2">
      <path id="Path_198" data-name="Path 198" d="M1284.506,880.134c151.393-19.683,157.752-124.781,109.68-183.233-68.12-82.795-130.3-69.314-35.3-205.619,32.251-46.3,44.664-105.429,20.219-156.552-17.573-36.779-53.9-67.009-97.8-78.235-24.407-6.218-50.242-6.633-75.24-10.778s-50.7-12.934-65.263-31.108c-14.031-17.494-15.231-40.51-11.842-61.652,8.091-50.841,39.98-97.387,42.855-149.024,2.4-43.512-14.127-93.474-49.4-125.129-46.187-41.455-118.038-50.36-181.055-53.56-74.021-3.731-148.633,5.92-218.941,25.935-90.166,25.619-173.439,67.9-247.5,119.392C408.951,16.452,349.266,70.41,307.134,134.1c-66.844,100.836-105.492,265,30.519,337.082,163.73,86.774,269.393-63.659,278.284,84.353,5.312,88.582,78.152,227.176,276.818,158.094S1066.479,908.49,1284.506,880.134Z" transform="translate(-246.293 175.546)" fill="#33a8f2"/>
    </clipPath>
    <linearGradient id="linear-gradient" x1="1.63" y1="-0.826" x2="0.696" y2="0.315" gradientUnits="objectBoundingBox">
      <stop offset="0" stop-color="#9feab2"/>
      <stop offset="1" stop-color="#6ad4ab"/>
    </linearGradient>
    <linearGradient id="linear-gradient-2" x1="0.44" y1="0.662" x2="1.479" y2="-0.006" gradientUnits="objectBoundingBox">
      <stop offset="0" stop-color="#67d690"/>
      <stop offset="1" stop-color="#00a99d"/>
    </linearGradient>
    <linearGradient id="linear-gradient-3" x1="0.652" y1="1.355" x2="0.308" y2="-0.317" xlink:href="#linear-gradient-2"/>
    <linearGradient id="linear-gradient-4" x1="1.569" y1="-3.264" x2="0.443" y2="0.681" xlink:href="#linear-gradient-2"/>
    <linearGradient id="linear-gradient-5" x1="1.766" y1="-0.739" x2="-1.475" y2="2.363" xlink:href="#linear-gradient"/>
    <linearGradient id="linear-gradient-6" x1="-3.291" y1="6.066" x2="2.371" y2="-2.148" xlink:href="#linear-gradient"/>
    <linearGradient id="linear-gradient-7" x1="-1.921" y1="6.567" x2="2.646" y2="-4.883" xlink:href="#linear-gradient"/>
    <linearGradient id="linear-gradient-8" x1="2.952" y1="-6.137" x2="-0.281" y2="2.587" xlink:href="#linear-gradient-2"/>
    <linearGradient id="linear-gradient-9" x1="-117.261" y1="0.959" x2="-116.1" y2="-0.256" xlink:href="#linear-gradient-2"/>
    <linearGradient id="linear-gradient-10" x1="-129.104" y1="-17.527" x2="-127.821" y2="-18.589" xlink:href="#linear-gradient-2"/>
    <linearGradient id="linear-gradient-11" x1="-139.485" y1="-39.281" x2="-138.088" y2="-40.278" xlink:href="#linear-gradient-2"/>
    <linearGradient id="linear-gradient-12" x1="-115.277" y1="-65.352" x2="-113.98" y2="-66.453" xlink:href="#linear-gradient-2"/>
    <linearGradient id="linear-gradient-13" x1="1.161" y1="1.496" x2="0.332" y2="0.412" xlink:href="#linear-gradient-2"/>
    <linearGradient id="linear-gradient-14" x1="-216.312" y1="-1.209" x2="-216.312" y2="-3.204" gradientUnits="objectBoundingBox">
      <stop offset="0" stop-color="#fe4500"/>
      <stop offset="1" stop-color="#efdb29"/>
    </linearGradient>
    <linearGradient id="linear-gradient-15" x1="0.073" y1="1.6" x2="0.879" y2="-0.476" gradientUnits="objectBoundingBox">
      <stop offset="0" stop-color="#36078b"/>
      <stop offset="1" stop-color="#16b1ff"/>
    </linearGradient>
    <linearGradient id="linear-gradient-16" x1="0.5" y1="1.777" x2="0.5" y2="-0.088" gradientUnits="objectBoundingBox">
      <stop offset="0" stop-color="#00fef6"/>
      <stop offset="1" stop-color="#29a0ef" stop-opacity="0"/>
    </linearGradient>
    <linearGradient id="linear-gradient-17" x1="0.5" y1="0.946" x2="0.5" y2="-3.795" xlink:href="#linear-gradient-15"/>
    <linearGradient id="linear-gradient-18" x1="0.278" y1="11.89" x2="0.565" y2="7.965" xlink:href="#linear-gradient-15"/>
    <clipPath id="clip-path-3">
      <circle id="Ellipse_26" data-name="Ellipse 26" cx="12.462" cy="12.462" r="12.462" fill="none"/>
    </clipPath>
  </defs>
  <g id="Mask_Group_2" data-name="Mask Group 2" transform="translate(-972)" clip-path="url(#clip-path)">
    <g id="Group_135" data-name="Group 135" transform="translate(278.5 192)">
      <path id="Path_195" data-name="Path 195" d="M1284.506,880.134c151.393-19.683,157.752-124.781,109.68-183.233-68.12-82.795-130.3-69.314-35.3-205.619,32.251-46.3,44.664-105.429,20.219-156.552-17.573-36.779-53.9-67.009-97.8-78.235-24.407-6.218-50.242-6.633-75.24-10.778s-50.7-12.934-65.263-31.108c-14.031-17.494-15.231-40.51-11.842-61.652,8.091-50.841,39.98-97.387,42.855-149.024,2.4-43.512-14.127-93.474-49.4-125.129-46.187-41.455-118.038-50.36-181.055-53.56-74.021-3.731-148.633,5.92-218.941,25.935-90.166,25.619-173.439,67.9-247.5,119.392C408.951,16.452,349.266,70.41,307.134,134.1c-66.844,100.836-105.492,265,30.519,337.082,163.73,86.774,269.393-63.659,278.284,84.353,5.312,88.582,78.152,227.176,276.818,158.094S1066.479,908.49,1284.506,880.134Z" transform="translate(717.012 -114.501)" fill="#0071b9"/>
      <g id="Group_100" data-name="Group 100" transform="translate(963.305 -290.046)" clip-path="url(#clip-path-2)">
        <path id="Path_196" data-name="Path 196" d="M259.264,157.025C262.329,67.8,342.043,55.874,390.457,79.089c68.538,32.9,63.207,69.977,159.789,4.162,32.8-22.4,76.953-34.259,117.9-24.144,29.471,7.263,55.345,25.918,67.377,50.443,6.682,13.647,9.062,28.571,14.184,42.716s13.879,28.339,28.9,35.337c14.45,6.749,32.118,5.6,48,1.99,38.077-8.722,71.165-30.876,110.423-36.613,33.031-4.842,72.479.779,99.437,18.7,35.278,23.464,47.767,64.322,55.211,100.6a304.168,304.168,0,0,1-2.475,128.86c-12.413,54.24-38.077,105.794-71.6,152.788-29.8,41.82-66.273,80.606-111.546,110.089-71.6,46.629-193.887,81.982-259.645,8.921-79.2-87.885,27.282-161.013-86.415-154.463-68.024,3.93-179.513-27.294-142.559-147.78S254.885,285.52,259.264,157.025Z" transform="translate(-234.633 327.598)" fill="#33a8f2"/>
        <path id="Path_197" data-name="Path 197" d="M269.38,148.008c35.335-78.417,110.537-66.959,145.072-32.916,48.929,48.254,30.595,79.694,140.465,48.088,37.3-10.745,80.856-9.037,113.564,11.292,23.512,14.625,39.695,38.388,41.408,63.51.952,13.979-2.38,27.891-3.008,41.887s1.9,29.019,12.756,39.416c10.376,9.949,26.5,13.879,41.884,15.073,37.087,2.836,74.516-7.694,111.432-1.923,31.109,4.858,64.1,20.794,81.5,44.191,22.846,30.644,18.924,70.391,12.261,104.7a303.981,303.981,0,0,1-49.309,113.8c-30.861,44.772-72.536,83.425-119.466,115.893-41.884,28.886-88.357,53.229-139.361,66.876-80.665,21.557-202.244,19.07-233.962-64.09-38.21-100.107,83.1-135.493-20.295-161.2-61.894-15.372-149.527-74.039-72.65-170.8S218.51,260.966,269.38,148.008Z" transform="translate(-233.365 349.665)" fill="#1785cb"/>
      </g>
      <rect id="Rectangle_34" data-name="Rectangle 34" width="1142.054" height="761.382" transform="translate(502.019 -112.523)" fill="none"/>
      <ellipse id="Ellipse_17" data-name="Ellipse 17" cx="238.71" cy="5.52" rx="238.71" ry="5.52" transform="translate(869.905 604.38)" fill="#ccd9f8"/>
      <path id="Path_199" data-name="Path 199" d="M138.4,380.118c0,1.594,16.073,2.878,35.9,2.878s35.881-1.284,35.881-2.878-16.059-2.878-35.881-2.878S138.4,378.524,138.4,380.118Z" transform="translate(690.325 204.587)" fill="#ccd9f8"/>
      <path id="Path_202" data-name="Path 202" d="M442.491,231.169c-9.432,13.786-12.487,23.173-.546,24.354S469.25,226,460.394,220.1C454.151,215.952,446.992,224.6,442.491,231.169Z" transform="translate(831.094 129.276)" fill="url(#linear-gradient)"/>
      <path id="Path_200" data-name="Path 200" d="M468.991,194.556c7.232-2.258,10.125,2.952,9.432,7.011-.989,5.712-4.088,6.361,3.528,11.291,5.623,3.631,6.952,11.173.605,14.952-8.856,5.284.59,9.372,2.642,13.9,4.266,9.343-2.716,11.631-13.992,16.236-11.587,4.826-20.206,2.465-28.339-4.915-5.978-5.446-9.535-11.586-5.9-17.136,5.151-7.985,13.594-2.568,10.332-10.332-1.963-4.649-2.155-13.284,8.413-14.066S458.57,197.818,468.991,194.556Z" transform="translate(831.737 117.373)" fill="url(#linear-gradient-2)"/>
      <path id="Path_201" data-name="Path 201" d="M435.061,184.386c-9.107-1.9-12.015,4.856-10.686,9.7,1.874,6.849,5.742,7.277-2.952,14.2-6.435,5.122-7.159,14.494,1.033,18.346,11.454,5.4.4,11.527-1.579,17.3-4.088,11.926,4.708,13.889,19.04,18.228,14.76,4.428,25.092.576,34.036-9.387,6.642-7.38,10.332-15.276,5.225-21.638-7.247-9.136-16.9-1.476-13.83-11.395,1.845-5.9,1.033-16.516-11.956-16.236S448.256,187.132,435.061,184.386Z" transform="translate(822.672 112.636)" fill="url(#linear-gradient-3)"/>
      <path id="Path_203" data-name="Path 203" d="M440.137,280.188h27.055a6.893,6.893,0,0,0,6.789-5.771l5.9-36.412a1.358,1.358,0,0,0-1.343-1.594H428.684A1.373,1.373,0,0,0,427.326,238l5.9,36.412a6.863,6.863,0,0,0,6.908,5.771Z" transform="translate(827.839 137.555)" fill="#0050c8"/>
      <path id="Path_204" data-name="Path 204" d="M433.435,211.109c8.428,2.553,15.439,6.066,9.992,8.546s-24.4-5.4-21.756-8.856C423.545,208.5,429.42,209.884,433.435,211.109Z" transform="translate(825.037 124.775)" fill="url(#linear-gradient-4)"/>
      <path id="Path_205" data-name="Path 205" d="M429.512,194.707c1.934,5.3,3.926,8,6.6,4.945s-2.745-13.284-6.111-12.059C427.622,188.493,428.6,192.168,429.512,194.707Z" transform="translate(828.413 114.27)" fill="url(#linear-gradient-5)"/>
      <path id="Path_206" data-name="Path 206" d="M459.748,201.121c-2.066,5.254-2.362,8.59,1.668,8.074s6.775-11.808,3.41-13.077C462.449,195.217,460.737,198.612,459.748,201.121Z" transform="translate(842.575 118.306)" fill="url(#linear-gradient-6)"/>
      <path id="Path_207" data-name="Path 207" d="M467.942,218.687c3.66-3.262,5.2-5.727,1.874-6.908s-9.874,6.48-7.764,8.782C463.528,222.2,466.185,220.237,467.942,218.687Z" transform="translate(844.181 125.773)" fill="url(#linear-gradient-7)"/>
      <path id="Path_208" data-name="Path 208" d="M439.814,209.791c-3.321-1.122-5.387-1.2-4.945,1.269s7.513,3.838,8.206,1.712C443.563,211.267,441.393,210.323,439.814,209.791Z" transform="translate(831.41 124.528)" fill="url(#linear-gradient-8)"/>
      <path id="Path_209" data-name="Path 209" d="M107,337.617H464.276V123.6H107Zm351.682-5.594H112.609V129.238H458.682Z" transform="translate(675.379 83.859)" fill="#99c1f9"/>
      <rect id="Rectangle_35" data-name="Rectangle 35" width="351.682" height="208.379" transform="translate(1142.075 418.687) rotate(180)" fill="#d8e7fc"/>
      <path id="Path_210" data-name="Path 210" d="M276.672,161.738a3.439,3.439,0,0,1-.915-2.745c.339-1.476,2.332-2.435,5.328-2.7a3.616,3.616,0,0,1-.517-2.553c.886-4.059,10.981-4.782,22.538-1.638a56.333,56.333,0,0,1,10.966,4.207,2.627,2.627,0,0,1,0-1.476c1.048-2.952,8.856-2.45,17.49,1.284a47.526,47.526,0,0,1,5.815,2.952c.664-1.2,4.059-1.122,7.837.207a17.475,17.475,0,0,1,4.885,2.539l30.08,1.86H246.68Z" transform="translate(741.864 96.495)" fill="#fff"/>
      <path id="Path_211" data-name="Path 211" d="M201.607,218.128a2.362,2.362,0,0,1-.635-1.874c.236-1.033,1.609-1.668,3.66-1.845a2.539,2.539,0,0,1-.354-1.756c.605-2.775,7.513-3.277,15.424-1.107a38.377,38.377,0,0,1,7.513,2.863,1.786,1.786,0,0,1,0-1c.708-2.066,6.081-1.668,11.97.871a34.594,34.594,0,0,1,3.985,2.052c.458-.812,2.775-.768,5.358.148a11.97,11.97,0,0,1,3.35,1.742l20.59,1.269H181.12Z" transform="translate(710.659 125.077)" fill="#fff"/>
      <path id="Path_212" data-name="Path 212" d="M166.084,201.485a4.029,4.029,0,0,1-.4-2.45c.517-2.642,4.428-3.911,9.83-3.7a7.778,7.778,0,0,1-.207-3.7c1.86-9.461,23.011-11.173,47.231-3.823a117.5,117.5,0,0,1,12.989,4.782,6.952,6.952,0,0,1-.221-3.365c1.3-6.612,13.49-8.856,29.195-6.125a2.266,2.266,0,0,1,.148-.605c2.3-7.38,19.04-6.273,37.859,2.332,4.694-1.9,14.258-.59,24.6,3.823a64.666,64.666,0,0,1,14.937,8.738,2.952,2.952,0,0,1-.251-1.919c.753-2.7,6.981-2.494,13.918.458a28.516,28.516,0,0,1,9.432,6.184l39.025,2.952H122.41Z" transform="translate(682.714 109.558)" fill="#fff"/>
      <path id="Path_213" data-name="Path 213" d="M245.329,333.914H305.8L197.891,125.52H137.42Z" transform="translate(689.858 84.773)" fill="#f8fff8" opacity="0.3"/>
      <path id="Path_214" data-name="Path 214" d="M227.959,333.914h14.878L134.928,125.52H120.05Z" transform="translate(681.59 84.773)" fill="#f8fff8" opacity="0.3"/>
      <path id="Path_215" data-name="Path 215" d="M367.964,333.914h14.878L274.933,125.52H260.04Z" transform="translate(748.223 84.773)" fill="#f8fff8" opacity="0.3"/>
      <path id="Path_216" data-name="Path 216" d="M110.54,337.617H467.816V123.6H110.54Zm351.682-5.594H116.134V129.238H462.222Z" transform="translate(677.064 83.859)" fill="#d8e7fc"/>
      <rect id="Rectangle_36" data-name="Rectangle 36" width="37.003" height="49.165" transform="translate(884.325 366.718)" fill="#56a8ed"/>
      <rect id="Rectangle_37" data-name="Rectangle 37" width="29.933" height="27.188" transform="translate(811.146 388.695)" fill="#62afef"/>
      <rect id="Rectangle_38" data-name="Rectangle 38" width="16.634" height="49.165" transform="translate(878.082 366.718)" fill="#7abaf9"/>
      <rect id="Rectangle_39" data-name="Rectangle 39" width="37.003" height="81.489" transform="translate(841.093 334.394)" fill="#56a8ed"/>
      <rect id="Rectangle_40" data-name="Rectangle 40" width="3.926" height="49.165" transform="translate(878.082 366.718)" fill="#62afef"/>
      <rect id="Rectangle_41" data-name="Rectangle 41" width="16.62" height="81.489" transform="translate(834.865 334.394)" fill="#7abaf9"/>
      <rect id="Rectangle_42" data-name="Rectangle 42" width="26.597" height="5.638" transform="translate(878.082 354.319) rotate(180)" fill="#7abaf9"/>
      <rect id="Rectangle_43" data-name="Rectangle 43" width="26.597" height="5.638" transform="translate(878.082 364.577) rotate(180)" fill="#7abaf9"/>
      <rect id="Rectangle_44" data-name="Rectangle 44" width="26.597" height="5.638" transform="translate(878.082 374.85) rotate(180)" fill="#7abaf9"/>
      <rect id="Rectangle_45" data-name="Rectangle 45" width="26.597" height="5.638" transform="translate(878.082 385.094) rotate(180)" fill="#7abaf9"/>
      <rect id="Rectangle_46" data-name="Rectangle 46" width="26.597" height="5.638" transform="translate(878.082 395.366) rotate(180)" fill="#7abaf9"/>
      <rect id="Rectangle_47" data-name="Rectangle 47" width="26.597" height="5.638" transform="translate(878.082 405.624) rotate(180)" fill="#7abaf9"/>
      <rect id="Rectangle_48" data-name="Rectangle 48" width="26.597" height="5.638" transform="translate(851.484 410.244)" fill="#7abaf9"/>
      <rect id="Rectangle_49" data-name="Rectangle 49" width="26.597" height="5.638" transform="translate(878.082 344.047) rotate(180)" fill="#7abaf9"/>
      <path id="Path_217" data-name="Path 217" d="M203.65,251.874v24.678h36.988V240.14h-26.6Z" transform="translate(721.383 139.33)" fill="#56a8ed"/>
      <path id="Path_218" data-name="Path 218" d="M199.43,258.914v17.638h16.62V240.14l-10.391,11.734-3.719,4.207Z" transform="translate(719.374 139.33)" fill="#7abaf9"/>
      <rect id="Rectangle_50" data-name="Rectangle 50" width="26.597" height="5.638" transform="translate(962.035 385.094) rotate(180)" fill="#7abaf9"/>
      <rect id="Rectangle_51" data-name="Rectangle 51" width="26.597" height="5.638" transform="translate(962.035 395.366) rotate(180)" fill="#7abaf9"/>
      <rect id="Rectangle_52" data-name="Rectangle 52" width="26.597" height="5.638" transform="translate(962.035 405.624) rotate(180)" fill="#7abaf9"/>
      <rect id="Rectangle_53" data-name="Rectangle 53" width="26.597" height="5.638" transform="translate(935.438 410.244)" fill="#7abaf9"/>
      <rect id="Rectangle_54" data-name="Rectangle 54" width="33.298" height="6.524" transform="translate(917.623 366.718) rotate(180)" fill="#56a8ed"/>
      <rect id="Rectangle_55" data-name="Rectangle 55" width="20.619" height="6.524" transform="translate(911.291 360.828) rotate(180)" fill="#56a8ed"/>
      <rect id="Rectangle_56" data-name="Rectangle 56" width="25.254" height="12.664" transform="translate(975.792 403.233)" fill="#56a8ed"/>
      <rect id="Rectangle_57" data-name="Rectangle 57" width="11.35" height="12.664" transform="translate(971.541 403.233)" fill="#7abaf9"/>
      <rect id="Rectangle_58" data-name="Rectangle 58" width="24.324" height="6.671" transform="translate(998.536 403.219) rotate(180)" fill="#56a8ed"/>
      <rect id="Rectangle_59" data-name="Rectangle 59" width="7.852" height="8.28" transform="translate(991.083 396.99) rotate(180)" fill="#56a8ed"/>
      <rect id="Rectangle_60" data-name="Rectangle 60" width="1.963" height="7.941" transform="translate(993.046 407.942)" fill="#62afef"/>
      <path id="Path_219" data-name="Path 219" d="M165.7,355.082c8.369-5.343-2.347-21.653-21.845-23.232a39.129,39.129,0,0,0-.177,16.236C145.315,354.58,153.964,362.536,165.7,355.082Z" transform="translate(692.472 182.982)" fill="url(#linear-gradient-9)"/>
      <path id="Path_220" data-name="Path 220" d="M171.809,358.018c9.756-1.889,5.742-21-11.808-29.608a39.025,39.025,0,0,0-6.1,15.025C152.961,350.092,158.1,360.675,171.809,358.018Z" transform="translate(697.653 181.345)" fill="url(#linear-gradient-10)"/>
      <path id="Path_221" data-name="Path 221" d="M173.99,358.622c8.649,2.435,13.166-14.656,2.45-28.752a35.424,35.424,0,0,0-11.04,9.682C162.005,344.586,161.857,355.242,173.99,358.622Z" transform="translate(702.232 182.04)" fill="url(#linear-gradient-11)"/>
      <path id="Path_222" data-name="Path 222" d="M174.683,355.058c6.037,5.358,16.4-6.657,13.284-22.258a31.807,31.807,0,0,0-12.723,3.469C170.536,339,166.226,347.545,174.683,355.058Z" transform="translate(705.302 183.434)" fill="url(#linear-gradient-12)"/>
      <path id="Path_223" data-name="Path 223" d="M208.488,351.844c33.165-13,6.642-77.828-60.914-96.824,0,0-13.284,28.811-11.808,56.988C136.992,336.066,161.98,370.117,208.488,351.844Z" transform="translate(689.017 146.413)" fill="url(#linear-gradient-13)"/>
      <path id="Path_224" data-name="Path 224" d="M148.25,260.756a60.028,60.028,0,0,1,15.439,16.236,43.024,43.024,0,0,1,2.952,4.694,53.382,53.382,0,0,1,2.76,4.812c.782,1.7,1.609,3.35,2.435,5l1.225,2.48.974,2.613a143.419,143.419,0,0,1,6.539,21.225c.694,3.66,1.476,7.291,2.244,10.937l1.314,11.129c.207,1.86.576,3.69.679,5.564l.28,5.623c.207,3.749.354,7.5.605,11.262-.1,7.542,0,15.1-.221,22.686-.207,3.793-.487,7.572-.62,11.38l-.236,5.727-.118,2.863-.266,2.849-.915,11.468-.458,5.756-.28,5.8.546.1,3.985-22.7.5-2.849.31-2.863.635-5.727,1.255-11.468.31-2.863.118-2.878.221-5.771.443-11.527-.428-11.527-.221-5.771c-.089-1.919-.428-3.823-.62-5.742l-1.476-11.454-2.494-11.277a128,128,0,0,0-7.646-21.785l-1.151-2.642-1.4-2.524-2.834-5.048c-.915-1.7-2.17-3.188-3.232-4.8a43.862,43.862,0,0,0-3.469-4.62,56.441,56.441,0,0,0-17.49-14.952Z" transform="translate(695.013 148.869)" fill="#e2e2e2"/>
      <path id="Path_225" data-name="Path 225" d="M174.257,322.85c-25.239-9.9-5.048-59.261,46.375-73.71,0,0,10.081,21.918,8.959,43.379C228.632,310.836,209.621,336.71,174.257,322.85Z" transform="translate(702.231 143.614)" fill="#39c296"/>
      <path id="Path_226" data-name="Path 226" d="M214.014,253.14a150.2,150.2,0,0,0-13.653,19.616c-1.948,3.469-3.9,6.952-5.653,10.539l-2.7,5.343-2.494,5.446A267.6,267.6,0,0,0,174.045,339.4c-.9,3.882-1.653,7.808-2.48,11.719l-1.2,5.9-.915,5.9-1.668,11.808c-.384,3.956-.679,7.941-.959,11.926l-.428,5.9c-.089,1.993-.089,3.985-.148,5.978l-.221,11.926c0,3.97.4,7.956.576,11.926s.487,7.911.841,11.808h.428c.148-7.9,0-15.793.384-23.689l.753-11.808c.133-1.963.221-3.941.4-5.9l.679-5.9,1.358-11.808,1.919-11.454.974-5.83,1.24-5.8c.856-3.852,1.638-7.719,2.553-11.557a332.09,332.09,0,0,1,14.42-45.121,225.178,225.178,0,0,1,21.785-41.933Z" transform="translate(703.476 145.518)" fill="#e2e2e2"/>
      <path id="Path_227" data-name="Path 227" d="M192.7,325.254c47.674-14.612,17.579-107.938-74.685-141.694,0,0-21.549,38.774-22.494,78.227C94.757,295.587,125.944,345.711,192.7,325.254Z" transform="translate(669.91 112.399)" fill="#5ed291"/>
      <path id="Path_228" data-name="Path 228" d="M116.5,191.892q2.627,3.646,4.989,7.468c1.683,2.48,3.232,5.033,4.767,7.587s3.041,5.136,4.428,7.764,2.952,5.151,4.221,7.867c2.7,5.3,5.55,10.494,7.911,15.955,1.225,2.7,2.524,5.358,3.793,8.029l3.424,8.206,3.41,8.192,3.085,8.31,3.1,8.31c1.033,2.775,1.8,5.638,2.7,8.443s1.815,5.623,2.716,8.443l1.373,4.207c.428,1.476.768,2.849,1.151,4.28l4.516,17.136c1.358,5.742,2.494,11.557,3.764,17.328.59,2.952,1.3,5.771,1.8,8.679s.841,5.9,1.343,8.767c.915,5.9,2.007,11.69,2.79,17.549.546,5.9,1.21,11.808,1.889,17.712l1,8.856.472,8.856,1.107,17.845c.723,11.941.266,23.881.959,35.955h.649l1.048-17.977.531-8.989c.192-2.952.4-5.992.3-8.989l-.148-18.022v-9l-.664-8.974L187.6,373.7c-.649-5.9-1.609-11.9-2.391-17.859l-1.24-8.856c-.472-2.952-1.166-5.9-1.742-8.856-1.225-5.9-2.332-11.808-3.66-17.712a382.644,382.644,0,0,0-23.734-67.9c-10.155-21.741-22.14-42.8-37.8-61.135Z" transform="translate(679.901 116.126)" fill="#e2e2e2"/>
      <path id="Path_229" data-name="Path 229" d="M170.687,334.574c29.151-21.092-13.166-77.8-84.028-79.3,0,0-5.668,31.5,2.952,58.7C96.888,337.113,129.876,364.094,170.687,334.574Z" transform="translate(664.827 146.532)" fill="#3cc395"/>
      <path id="Path_230" data-name="Path 230" d="M91.9,259.6a148.686,148.686,0,0,1,20.029,16.236l4.694,4.428,4.428,4.605c3.041,2.952,5.756,6.3,8.531,9.535a288.576,288.576,0,0,1,29.18,41.859l6.14,11.217a62.4,62.4,0,0,1,2.849,5.712l2.716,5.8,2.775,5.786c.458.959.945,1.919,1.373,2.952l1.2,2.952c1.55,3.985,3.2,7.926,4.9,11.882s3.07,8,4.428,12.059l4.236,12.206c2.731,8.177,4.9,16.531,7.749,24.782l.458-.089c-1.933-8.443-3.7-16.929-5.786-25.343l-3.675-12.472c-1.255-4.147-2.362-8.354-3.985-12.384l-4.516-12.192-1.137-3.055c-.413-1-.886-1.978-1.314-2.952l-2.672-5.9-2.672-5.9a64.772,64.772,0,0,0-2.849-5.9l-6.081-11.586a242.058,242.058,0,0,0-30.582-42.006c-2.952-3.159-5.9-6.376-9.107-9.284l-4.738-4.428-4.974-4.207a129.1,129.1,0,0,0-21.431-14.76Z" transform="translate(668.192 148.374)" fill="#e2e2e2"/>
      <path id="Path_231" data-name="Path 231" d="M152.725,252.951a43.984,43.984,0,0,0-11.173-5.978c-1.919-.827-3.926-1.343-5.9-1.978s-4.044-.945-6.081-1.4a65.359,65.359,0,0,0-12.5-.959,36.648,36.648,0,0,0-12.546,2.332v.443a124.082,124.082,0,0,1,24.324,2.524,232.006,232.006,0,0,1,23.837,5.446Z" transform="translate(674.199 140.511)" fill="#e2e2e2"/>
      <path id="Path_232" data-name="Path 232" d="M144.561,235.767a32.811,32.811,0,0,0-8.369-6.671,47.677,47.677,0,0,0-4.649-2.391c-1.594-.694-3.232-1.269-4.856-1.889a48.531,48.531,0,0,0-10.332-2.1,27.837,27.837,0,0,0-10.745.974v.443a105.742,105.742,0,0,1,19.763,4.856,194.83,194.83,0,0,1,19.055,7.173Z" transform="translate(674.717 130.966)" fill="#e2e2e2"/>
      <path id="Path_233" data-name="Path 233" d="M154.82,253.35a34.981,34.981,0,0,0,3.247-6.273c.812-2.022,1.565-3.956,2.2-5.815.236-.989.635-1.86.945-2.775l.458-1.373a9.537,9.537,0,0,0,.517-1.328,29.37,29.37,0,0,1,2.952-5.712l-.148-.384a12.738,12.738,0,0,0-5.4,4.177,21.609,21.609,0,0,0-3.159,6.066,41.077,41.077,0,0,0-2.037,13.417Z" transform="translate(697.934 134.356)" fill="#e2e2e2"/>
      <path id="Path_234" data-name="Path 234" d="M144.441,232.307a24.224,24.224,0,0,0,1.314-5.284c.3-1.653.4-3.262.576-4.8s.236-3.041.384-4.428a19.189,19.189,0,0,1,1.137-4.8l-.177-.251a9.314,9.314,0,0,0-3.173,4.162,17.062,17.062,0,0,0-1.21,5.122,37.963,37.963,0,0,0,.856,10.42Z" transform="translate(692.624 126.293)" fill="#e2e2e2"/>
      <path id="Path_235" data-name="Path 235" d="M151.328,397.916h41.017a4.015,4.015,0,0,0,3.985-3.557l5.653-47.5a4.029,4.029,0,0,0-4-4.5H145.675a4.015,4.015,0,0,0-3.985,4.5l5.638,47.5A4.044,4.044,0,0,0,151.328,397.916Z" transform="translate(691.876 187.985)" fill="#3f71e2"/>
      <path id="Path_236" data-name="Path 236" d="M142.018,353.062h62.877a2.657,2.657,0,0,0,2.627-2.243l1.225-8.074a2.642,2.642,0,0,0-2.612-3.055H140.852a2.657,2.657,0,0,0-2.612,3.055l1.24,8.074a2.627,2.627,0,0,0,2.539,2.243Z" transform="translate(690.234 186.714)" fill="#0050c8"/>
      <path id="Path_237" data-name="Path 237" d="M176.331,281.273H633.767a7.616,7.616,0,0,0,7.6-7.6h0a7.616,7.616,0,0,0-7.6-7.6H176.331a7.6,7.6,0,0,0-7.6,7.6h0A7.6,7.6,0,0,0,176.331,281.273Z" transform="translate(704.761 151.672)" fill="#d8e7fc"/>
      <path id="Path_238" data-name="Path 238" d="M405.331,281.273H524.768a7.616,7.616,0,0,0,7.6-7.6h0a7.616,7.616,0,0,0-7.6-7.6H405.331a7.6,7.6,0,0,0-7.6,7.6h0A7.6,7.6,0,0,0,405.331,281.273Z" transform="translate(813.761 151.672)" fill="#99c1f9"/>
      <rect id="Rectangle_61" data-name="Rectangle 61" width="15.217" height="176.94" transform="translate(1320.064 432.93)" fill="#99c1f9"/>
      <rect id="Rectangle_62" data-name="Rectangle 62" width="15.217" height="176.911" transform="translate(1222.398 432.96)" fill="#99c1f9"/>
      <rect id="Rectangle_63" data-name="Rectangle 63" width="7.616" height="176.911" transform="translate(1222.398 432.96)" fill="#d8e7fc"/>
      <rect id="Rectangle_64" data-name="Rectangle 64" width="15.217" height="176.911" transform="translate(884.34 432.96)" fill="#99c1f9"/>
      <rect id="Rectangle_65" data-name="Rectangle 65" width="15.188" height="176.94" transform="translate(982.02 432.93)" fill="#d8e7fc"/>
      <rect id="Rectangle_66" data-name="Rectangle 66" width="7.616" height="176.911" transform="translate(884.34 432.96)" fill="#d8e7fc"/>
      <path id="Path_239" data-name="Path 239" d="M486.5,276.37v4.871L471.3,292.1V276.37Z" transform="translate(848.778 156.575)" fill="#d8e7fc"/>
      <path id="Path_240" data-name="Path 240" d="M405.12,276.37h15.2v4.871L405.12,292.1Z" transform="translate(817.278 156.575)" fill="#d8e7fc"/>
      <path id="Path_241" data-name="Path 241" d="M242.26,276.37h15.2v4.871L242.26,292.1Z" transform="translate(739.76 156.575)" fill="url(#linear-gradient-14)"/>
      <path id="Path_242" data-name="Path 242" d="M191.283,276.37v4.871L176.08,292.1V276.37Z" transform="translate(708.26 156.575)" fill="#d8e7fc"/>
      <path id="Path_243" data-name="Path 243" d="M466.419,264.892H325.92l10.332-91.452H476.736Z" transform="translate(779.58 107.582)" fill="#55a4ff" opacity="0.3"/>
      <path id="Path_244" data-name="Path 244" d="M339.1,177.9l-1.491,13.2L327.28,282.532h140.5L478.11,191.1l1.476-13.2Z" transform="translate(780.228 109.705)" fill="#99c1f9" opacity="0.4"/>
      <path id="Path_245" data-name="Path 245" d="M466.419,276.922H325.92l10.332-91.452H476.736Z" transform="translate(779.58 113.308)" opacity="0.6" fill="url(#linear-gradient-15)"/>
      <path id="Path_246" data-name="Path 246" d="M461.607,258.189H328.99l4.989-44.279H466.61Z" transform="translate(781.042 126.845)" fill="#fff"/>
      <path id="Path_247" data-name="Path 247" d="M369.359,251.995H331.5l4.059-35.955h37.859Z" transform="translate(782.236 127.859)" fill="#57afff"/>
      <path id="Path_248" data-name="Path 248" d="M374.864,240.329H344.4l3.277-28.929h30.449Z" transform="translate(788.377 125.65)" fill="#164dd6" opacity="0.7"/>
      <path id="Path_251" data-name="Path 251" d="M431.264,232.4H393.42l2.288-20.339h37.859Z" transform="translate(811.709 125.965)" fill="#57afff"/>
      <path id="Path_252" data-name="Path 252" d="M430.919,229.431H393.06l.177-1.461h37.844Z" transform="translate(811.538 133.537)" fill="#33333d"/>
      <path id="Path_253" data-name="Path 253" d="M430.689,231.471H392.83l.177-1.461h37.844Z" transform="translate(811.428 134.508)" fill="#33333d"/>
      <path id="Path_265" data-name="Path 265" d="M401.094,241.364H363.25l2.288-20.324h37.844Z" transform="translate(797.349 130.239)" fill="#57afff"/>
      <path id="Path_266" data-name="Path 266" d="M400.749,238.4H362.89l.162-1.461h37.859Z" transform="translate(797.178 137.807)" fill="#33333d"/>
      <path id="Path_267" data-name="Path 267" d="M400.519,240.436H362.66l.162-1.446h37.859Z" transform="translate(797.068 138.783)" fill="#33333d"/>
      <path id="Path_268" data-name="Path 268" d="M392.789,231.614H378.28l1.432-12.664h14.509Z" transform="translate(804.503 129.244)" fill="#164dd6" opacity="0.7"/>
      <path id="Path_269" data-name="Path 269" d="M473.4,189.721H332.92l1.491-13.181H474.894Z" transform="translate(830.912 110.058)" fill="#d3d3d3"/>
      <path id="Path_270" data-name="Path 270" d="M470.178,185H334.89l.487-4.354h135.3Z" transform="translate(783.85 111.014)" fill="#f2f2f2"/>
      <path id="Path_271" data-name="Path 271" d="M337.588,180.388H335.33l.266-2.258h2.258Z" transform="translate(784.06 109.815)" fill="#f9f4ea"/>
      <path id="Path_272" data-name="Path 272" d="M340.318,180.388H338.06l.251-2.258h2.258Z" transform="translate(785.359 109.815)" fill="#f9f4ea"/>
      <path id="Path_273" data-name="Path 273" d="M343.038,180.388H340.78l.251-2.258H343.3Z" transform="translate(786.654 109.815)" fill="#f9f4ea"/>
      <path id="Path_274" data-name="Path 274" d="M349.663,294.517,328.01,177.59H479.239L373.072,294.517Z" transform="translate(779.575 109.558)" fill="url(#linear-gradient-16)"/>
      <path id="Path_275" data-name="Path 275" d="M365.955,258.43H351.889a22.821,22.821,0,0,0-18.881,10l-.868,1.28h53.578l-.871-1.284A22.819,22.819,0,0,0,365.955,258.43Z" transform="translate(782.541 148.036)" fill="#3f71e2"/>
      <path id="Path_276" data-name="Path 276" d="M361.787,259.887c0,.458-3.9.827-8.694.827s-8.694-.369-8.694-.827,3.9-.827,8.694-.827S361.787,259.429,361.787,259.887Z" transform="translate(788.377 148.336)" opacity="0.4" fill="url(#linear-gradient-17)"/>
      <path id="Path_286" data-name="Path 286" d="M298.307,385.354c.915,1.476,1.018,3.941,6.686,6.051s17.476,2.672,11.04,5.092a31.069,31.069,0,0,1-15.365,1.609c-3.882-.4-6.17.207-10.73.4-5.992.266-6.066-.089-5.579-6.657C285.038,382.815,295.355,380.409,298.307,385.354Z" transform="translate(759.711 207.248)" fill="#231a66"/>
      <path id="Path_287" data-name="Path 287" d="M284.78,426.26c9.786-33.593,14.332-96.441,31.188-121.03,10.716-15.6,31.527-9.446,23.822,11.483-8.251,22.361-29.136,64.131-40.84,108.691C297.8,429.817,283.659,430.2,284.78,426.26Z" transform="translate(759.969 166.15)" fill="#0071b9"/>
      <path id="Path_288" data-name="Path 288" d="M354.015,325.2c8.959-3.306,16.708-33.948-16.236-29.8-14.627,1.83-66.3,5.742-74.094,6.686s-19.188,2.849-20.369,6.834c-6.214,19.911,17.963,37.815,47.054,31.306C309.736,335.876,335.388,332.053,354.015,325.2Z" transform="translate(739.796 165.451)" fill="#1785cb"/>
      <path id="Path_289" data-name="Path 289" d="M279.529,269.233c-4.782,3.646-9.9,3.572-23.94,5.254-20.206,2.421-25.165,1.7-38.021-1.24-8.384-1.919-1.786-20.221,9.83-20.664,9.815-.428,44,9.919,49.977,9.638C281.33,261.971,283.47,266.281,279.529,269.233Z" transform="translate(726.21 145.247)" fill="url(#linear-gradient-18)"/>
      <path id="Path_290" data-name="Path 290" d="M214.435,279.951c.871-4.62,4.428-14.6,18.937-35.807a165.313,165.313,0,0,1,16.841-21.416c5.8-6.376,14.435-4.207,16.457-.148,3.232,6.539,3.2,17.594.354,21.121-16.014,19.926-29.52,34.258-32.575,39.763C230.051,291.464,213.4,285.427,214.435,279.951Z" transform="translate(726.494 129.127)" fill="#ccd9f8"/>
      <path id="Path_291" data-name="Path 291" d="M315.418,387.3c.915,1.476,5.092,4.959,10.76,7.07s17.476,2.672,11.055,5.092-14.11,1.476-18.007,1.107a80.8,80.8,0,0,0-12.177-.118c-6.007.266-6.066-.089-5.579-6.657C302.148,384.765,312.466,382.359,315.418,387.3Z" transform="translate(767.855 208.176)" fill="#231a66"/>
      <path id="Path_292" data-name="Path 292" d="M247.308,206.471c1.21,12.147,1.565,14.76,6.878,19.808s13.594,5.7,19.35,5.7c6.214,0,10.332-7.5,11.719-12.634a74.8,74.8,0,0,0,1.21-28.619c-.886-6.745-9.2-14.922-17.786-14.922S244.342,176.8,247.308,206.471Z" transform="translate(741.988 108.706)" fill="#f0bc99"/>
      <path id="Path_293" data-name="Path 293" d="M251.634,213.628c-.325,4.207-.635,9.048-.782,13.476a11.6,11.6,0,0,0,10.125,11.808,5.335,5.335,0,0,0,.664,0c5.24,0,11.409-4.753,10.952-10.007-.31-3.41-.413-6.849-.428-9.874a13.682,13.682,0,0,0-9.107-12.811h0a8.59,8.59,0,0,0-11.424,7.409Z" transform="translate(743.847 122.95)" fill="#f0bc99"/>
      <path id="Path_294" data-name="Path 294" d="M235.808,260.589c9.756,32.043,12.959,51.2,11.04,73.592h73.415s-.428-54.478-5.343-92.131a28.206,28.206,0,0,0-15.513-21.594c-5.52-2.952-15.513-4.325-19.572-4.325H266.272a51.659,51.659,0,0,0-14.317,1.771C231.941,224.044,230.17,242.021,235.808,260.589Z" transform="translate(735.364 127.899)" fill="#ccd9f8"/>
      <path id="Path_295" data-name="Path 295" d="M243.54,341.024s-6.347-15.409-.31-44.914h73.415a418.8,418.8,0,0,1,2.671,44.914Z" transform="translate(738.982 165.971)" fill="#0050c8"/>
      <path id="Path_296" data-name="Path 296" d="M301.822,427.279c12.487-32.678,22.14-94.95,40.973-118.078,11.955-14.671,32.191-6.834,22.789,13.4-10.037,21.623-34.272,61.534-49.578,104.986C314.5,431.9,300.405,431.116,301.822,427.279Z" transform="translate(768.063 168.6)" fill="#0071b9"/>
      <path id="Path_297" data-name="Path 297" d="M376.155,330.783c9.2-2.568,19.424-32.472-13.756-31-14.76.635-66.552.3-74.375.62s-19.306,1.255-20.87,5.122c-7.823,19.35,14.76,39.173,44.279,35.055C331.227,337.808,357.1,336.081,376.155,330.783Z" transform="translate(750.865 167.696)" fill="#0071b9"/>
      <path id="Path_298" data-name="Path 298" d="M271.893,196.834c-1.712,4.207-1.314,8.339.886,9.24s5.373-1.786,7.085-5.978,1.328-8.339-.871-9.24S273.62,192.627,271.893,196.834Z" transform="translate(753.359 115.789)" fill="#f0bc99"/>
      <path id="Path_299" data-name="Path 299" d="M253.03,196.834c1.727,4.207,1.328,8.339-.871,9.24s-5.373-1.786-7.085-5.978-1.328-8.339.871-9.24S251.377,192.627,253.03,196.834Z" transform="translate(740.591 115.789)" fill="#f0bc99"/>
      <path id="Path_300" data-name="Path 300" d="M249.92,184.53c4.723,7.055,27.586,7.719,35.055,5.107s6.937-17.018-3.734-18.007c-6.007,0-1.653,1.476-6.524,3.41C272.251,176.028,244.872,176.988,249.92,184.53Z" transform="translate(743.111 106.721)" fill="#21283a"/>
      <path id="Path_301" data-name="Path 301" d="M339.761,234.288c3.055-1.919,29.21-18.509,28.9-12.014-.339,7.2-9.313,14.952-12.561,17.166-5.9,4.044-12.339,5.358-14.76,2.17C339.6,239.351,336.853,236.1,339.761,234.288Z" transform="translate(785.562 130.112)" fill="#f0bc99"/>
      <path id="Path_302" data-name="Path 302" d="M379.78,234.146c-5.535,1.21-38.877,11.247-49.313,16.5-6.022-3.306-19.055-16.752-40.25-29.52-7.867-4.723-15.04-3.129-21.431.413-3.956,2.184-5.727,10.907.9,16.428a165.305,165.305,0,0,0,22.14,15.837c21.844,13.55,31.984,16.634,36.634,17.3a2.507,2.507,0,0,0,.576,0h.177a2.436,2.436,0,0,0,.472-.1,5.112,5.112,0,0,0,.9-.177,187.1,187.1,0,0,0,36.132-17.033c13.417-7.9,14.848-7.188,17.564-12.457a4.694,4.694,0,0,0-4.5-7.188Z" transform="translate(750.708 128.882)" fill="#ccd9f8"/>
      <path id="Path_303" data-name="Path 303" d="M277.662,180.433c7.026,4.251,8.664,7.97,8.472,16.679s-3.926,23.616-19.941,26.863-19.808-12.575-20.782-23.616-.339-19.188,7.764-21.136C265.2,176.359,273.4,177.85,277.662,180.433Z" transform="translate(741.095 109.593)" fill="#21283a"/>
      <path id="Path_304" data-name="Path 304" d="M341.011,394.834a5.328,5.328,0,0,1-5.21-4.251H245.014a5.314,5.314,0,0,1-10.524-1.063A9.579,9.579,0,0,1,244.1,380H336.8a9.564,9.564,0,0,1,9.564,9.564,5.314,5.314,0,0,1-5.358,5.269Z" transform="translate(736.062 205.901)" fill="#f1d27f"/>
      <path id="Path_305" data-name="Path 305" d="M377.1,359.676H349.053c-14.76,0-24.206-7.808-26.464-22.007-2.76-17.387-7.9-74.257-7.956-74.817a6.627,6.627,0,0,0-8.133-5.9H222.118a8.443,8.443,0,0,0-6.8,8.753c.207,2.362,5.225,57.917,8.074,75.777,3.291,20.664,18.14,33.106,39.7,33.106H375.517a8.516,8.516,0,0,0,8.251-7.468,6.583,6.583,0,0,0-6.671-7.439Z" transform="translate(726.928 147.245)" fill="#f1d27f"/>
      <path id="Path_306" data-name="Path 306" d="M263.85,336.6h25.092v10.775a2.066,2.066,0,0,1-2.066,2.066H265.931a2.066,2.066,0,0,1-2.066-2.066V336.6Z" transform="translate(750.036 185.243)" fill="#f1d27f"/>
      <rect id="Rectangle_67" data-name="Rectangle 67" width="16.885" height="50.021" transform="translate(1018.034 534.684)" fill="#d8e7fc"/>
      <path id="Path_307" data-name="Path 307" d="M266.727,373h18.627a2.037,2.037,0,0,1,2.037,2.037v13.55h-22.7v-13.55A2.037,2.037,0,0,1,266.727,373Z" transform="translate(750.436 202.569)" fill="#d8b058"/>
      <path id="Path_308" data-name="Path 308" d="M304.076,394.834a5.328,5.328,0,0,1-5.21-4.251H263.929a5.314,5.314,0,0,1-10.509-1.063,9.564,9.564,0,0,1,9.564-9.52h36.9a9.579,9.579,0,0,1,9.564,9.564,5.313,5.313,0,0,1-5.373,5.269Z" transform="translate(745.072 205.901)" fill="#d8b058"/>
      <path id="Path_309" data-name="Path 309" d="M267.794,393.682a7.247,7.247,0,1,1-7.247-7.232,7.247,7.247,0,0,1,7.247,7.232Z" transform="translate(745.015 208.971)" fill="#d8b058"/>
      <path id="Path_310" data-name="Path 310" d="M265.385,393.682a7.232,7.232,0,1,1-7.232-7.232A7.232,7.232,0,0,1,265.385,393.682Z" transform="translate(743.882 208.971)" fill="#f1d27f"/>
      <path id="Path_311" data-name="Path 311" d="M298.514,393.682a7.247,7.247,0,1,1-7.232-7.232A7.247,7.247,0,0,1,298.514,393.682Z" transform="translate(759.637 208.971)" fill="#d8b058"/>
      <path id="Path_312" data-name="Path 312" d="M296.124,393.682a7.247,7.247,0,1,1-7.247-7.232,7.247,7.247,0,0,1,7.247,7.232Z" transform="translate(758.499 208.971)" fill="#f1d27f"/>
      <path id="Path_313" data-name="Path 313" d="M248.874,393.682a7.247,7.247,0,1,1-7.247-7.232A7.247,7.247,0,0,1,248.874,393.682Z" transform="translate(736.009 208.971)" fill="#d8b058"/>
      <path id="Path_314" data-name="Path 314" d="M246.474,393.682a7.247,7.247,0,1,1-7.232-7.232A7.247,7.247,0,0,1,246.474,393.682Z" transform="translate(734.867 208.971)" fill="#f1d27f"/>
      <path id="Path_315" data-name="Path 315" d="M317.425,393.682a7.232,7.232,0,1,1-7.232-7.232A7.232,7.232,0,0,1,317.425,393.682Z" transform="translate(768.652 208.971)" fill="#d8b058"/>
      <path id="Path_316" data-name="Path 316" d="M315.044,393.682a7.247,7.247,0,1,1-7.232-7.232,7.247,7.247,0,0,1,7.232,7.232Z" transform="translate(767.505 208.971)" fill="#f1d27f"/>
      <path id="Path_317" data-name="Path 317" d="M283.545,351.278l-16.885-4.723V345.3h16.885Z" transform="translate(751.374 189.384)" fill="#cecece"/>
      <path id="Path_318" data-name="Path 318" d="M289.015,342.563l-25.165-4.708V336.6h25.165Z" transform="translate(750.036 185.243)" fill="#d8b058"/>
      <path id="Path_319" data-name="Path 319" d="M348.305,374.593H320.262c-21.564,0-36.412-12.384-39.7-33.106-2.849-17.859-7.867-73.415-8.074-75.777a8.443,8.443,0,0,1,6.8-8.753,6.627,6.627,0,0,1,8.133,5.9c0,.561,5.2,57.43,7.956,74.817,2.258,14.2,11.66,22.007,26.464,22.007h28.044a6.583,6.583,0,0,1,6.671,7.454A8.517,8.517,0,0,1,348.305,374.593Z" transform="translate(754.14 147.25)" fill="#d8b058"/>
      <path id="Path_321" data-name="Path 321" d="M399.1,257.713h0c-11.306,3.2-35.527,10.789-44.147,15.129-6.022-3.306-19.055-16.752-40.25-29.52a19.321,19.321,0,0,0-8.944-2.952,57.679,57.679,0,0,0-15.941-3.085v-2.1a13.146,13.146,0,0,0-.118-1.314c6.007-.3,9.978-7.572,11.35-12.6a51.536,51.536,0,0,0,1.269-6.406,10.848,10.848,0,0,0,4.708-5.756c1.727-4.207,1.328-8.339-.871-9.24a3.454,3.454,0,0,0-3.218.708c-.1-2.494-.31-5.122-.679-7.926a11.808,11.808,0,0,0-.812-2.952.582.582,0,0,0,.443-.133c7.38-2.6,6.937-17.018-3.734-18.007-6.007,0-1.653,1.476-6.524,3.41-2.273.915-25.461,1.786-25.4,7.749-5.638,2.435-6.627,8.856-6.14,17.3-1.963,1.122-2.273,5.048-.62,9.077a13.461,13.461,0,0,0,2.6,4.147,29,29,0,0,0,2.539,6.317,15.454,15.454,0,0,0,5.048,8.339,8.575,8.575,0,0,0-.369,1.889c-.192,2.45-.369,5.122-.517,7.793a40.141,40.141,0,0,0-7.631,1.476c-7.631,2.347-12.59,6.406-15.527,11.542a193.486,193.486,0,0,0-11.941,15.926c-12.9,18.833-17.121,28.8-18.524,34.021-1.993,4.516-1.86,9.21,1.373,10.789,1.343,14.553,5.225,55.748,7.6,70.655,3.291,20.664,18.14,33.106,39.7,33.106h23.867v9.254a3.587,3.587,0,0,0,3.587,3.587h.561V468.9a3.527,3.527,0,0,0-2.952,3.469v6.849H253.933a9.579,9.579,0,0,0-9.564,9.564,4.692,4.692,0,0,0,.1.915,7.218,7.218,0,0,0,3.454,13.564,6.913,6.913,0,0,0,1.756-.251,7.132,7.132,0,0,0,1.771.251,7.218,7.218,0,0,0,3.734-13.417h16.929a7.2,7.2,0,0,0,5.505,13.166,6.908,6.908,0,0,0,1.756.251,7.218,7.218,0,0,0,3.734-13.417H317.4a7.218,7.218,0,0,0,3.719,13.417,6.936,6.936,0,0,0,1.771-.251,7.03,7.03,0,0,0,1.771.251,7.218,7.218,0,0,0,6.745-4.679,25.649,25.649,0,0,1,2.716.133,36.749,36.749,0,0,0,8.266.118,6.422,6.422,0,0,0,.561,1.033,2.022,2.022,0,0,0,1.963,2.066,7.159,7.159,0,0,0,4.147,1.328,6.909,6.909,0,0,0,1.756-.251,7.028,7.028,0,0,0,1.771.251,7.277,7.277,0,0,0,4.236-1.387c1.343,0,2.672.1,4,.236,3.9.413,11.572,1.314,18.007-1.107s-5.387-2.952-11.055-5.092a28.458,28.458,0,0,1-10.051-6.184.526.526,0,0,0,.089-.148c14.612-41.5,37.342-79.7,48.1-101.916a20.9,20.9,0,0,0,3.867-12.339,11.2,11.2,0,0,0-3.542-8.989c-3.35-3.587-9.358-5.9-19.188-5.52-3.1.133-7.867.221-13.505.28a9.992,9.992,0,0,0-2.642-2.952c-3.631-3.291-9.815-5.151-19.616-3.926-4.517.576-12.575,1.328-21.771,2.14-.074-.59-.1-.915-.1-.915s-.31-38.833-3.365-73.578c15.247,8.679,23.025,10.952,26.922,11.513a2.509,2.509,0,0,0,.576,0h.177a2.436,2.436,0,0,0,.472-.1,5.108,5.108,0,0,0,.9-.177,187.1,187.1,0,0,0,36.1-17.107c9.933-5.9,13.284-6.981,15.483-9.313a22.363,22.363,0,0,0,8.782-3.808c3.232-2.214,12.221-9.963,12.561-17.166C428.3,239.2,402.15,255.794,399.1,257.713ZM247.364,289.978c.458,1.594.9,3.144,1.314,4.664l-4.428-1ZM370,400.234h-6.347l.886-2.081,6.524-.827C370.7,398.285,370.343,399.259,370,400.234Zm-61.312,68.722V428h.546a3.587,3.587,0,0,0,3.587-3.587v-9.254h19.97c-4.531,22.14-8.029,46.021-12.516,64.013H311.6v-6.745a3.528,3.528,0,0,0-2.908-3.468Zm29.785,23.011a13.754,13.754,0,0,1-4.015-2.17h9.107a1.564,1.564,0,0,0,.5.974,7.143,7.143,0,0,0-1.624,2.317,30.84,30.84,0,0,1-3.97-1.122Zm8.649-12.752H334.27A560.564,560.564,0,0,1,357.34,415.2H365.1c-6.539,21.446-12.059,45.519-17.977,64.013Z" transform="translate(726.228 106.687)" fill="none"/>
      <path id="Path_277" data-name="Path 277" d="M470.28,135.195H111.53l2.614-5.535H472.879Z" transform="translate(672 77.888)" fill="#99c1f9"/>
      <path id="Path_278" data-name="Path 278" d="M147.489,179.2a1.284,1.284,0,0,1-1.269-1.284V131.9a1.284,1.284,0,0,1,2.553,0v46.021a1.284,1.284,0,0,1-1.284,1.284Z" transform="translate(688.512 78.409)" fill="#99c1f9"/>
      <path id="Path_279" data-name="Path 279" d="M316.049,179.2a1.269,1.269,0,0,1-1.269-1.284V131.9a1.284,1.284,0,0,1,2.553,0v46.021a1.284,1.284,0,0,1-1.284,1.284Z" transform="translate(775.105 78.409)" fill="#99c1f9"/>
      <path id="Path_280" data-name="Path 280" d="M470.28,140.4H111.53l2.614-5.55H472.879Z" transform="translate(672 80.359)" fill="#99c1f9"/>
      <path id="Path_281" data-name="Path 281" d="M470.28,145.585H111.53l2.614-5.535H472.879Z" transform="translate(672 82.834)" fill="#99c1f9"/>
      <path id="Path_282" data-name="Path 282" d="M470.28,150.785H111.53l2.614-5.535H472.879Z" transform="translate(672 85.309)" fill="#99c1f9"/>
      <path id="Path_283" data-name="Path 283" d="M470.28,155.99H111.53l2.614-5.55H472.879Z" transform="translate(672 87.779)" fill="#99c1f9"/>
      <path id="Path_284" data-name="Path 284" d="M470.28,161.175H111.53l2.614-5.535H472.879Z" transform="translate(672 90.254)" fill="#99c1f9"/>
      <path id="Path_285" data-name="Path 285" d="M470.28,166.375H111.53l2.614-5.535H472.879Z" transform="translate(672 92.729)" fill="#99c1f9"/>
      <path id="Path_322" data-name="Path 322" d="M101.266,132.893a16.1,16.1,0,1,1-16.059-16.1,16.1,16.1,0,0,1,16.059,16.1Z" transform="translate(820.83 80.618)" fill="#f1d27f"/>
      <path id="Path_323" data-name="Path 323" d="M106.56,160.409V147.126a7.144,7.144,0,0,0-7.114-7.114H92.833v7.07h-4.8v-7.114H81.409a7.144,7.144,0,0,0-7.173,7.114v13.284A32.383,32.383,0,0,0,58,188.409h64.766a32.353,32.353,0,0,0-16.206-28Z" transform="translate(815.565 25.028)" fill="#0071b9"/>
      <g id="Group_148" data-name="Group 148" transform="translate(-30.486 156.427)">
        <circle id="Ellipse_25" data-name="Ellipse 25" cx="14.046" cy="14.046" r="14.046" transform="translate(1153.177 146.51)" fill="#fff"/>
        <g id="Group_152" data-name="Group 152" transform="translate(1154.761 148.094)">
          <g id="Group_151" data-name="Group 151" clip-path="url(#clip-path-3)">
            <g id="Group_150" data-name="Group 150" transform="translate(1.929 1.471)">
              <path id="Path_356" data-name="Path 356" d="M1169.035,168.946l2.631,3.3L1170,174.561l-1.562-4.912Z" transform="translate(-1161.138 -156.104)" fill="#fff"/>
              <path id="Path_357" data-name="Path 357" d="M1172.637,173.6l-.885,1.269.406.886-.326,5.16h.8Z" transform="translate(-1162.104 -157.459)" fill="#424442"/>
              <path id="Path_358" data-name="Path 358" d="M1175.639,168.946l-2.631,3.3,1.665,2.312,1.562-4.912Z" transform="translate(-1162.469 -156.104)" fill="#fff"/>
              <path id="Path_359" data-name="Path 359" d="M1173,173.6l.885,1.269-.406.886.327,5.16h-.8Z" transform="translate(-1162.467 -157.459)" fill="#424442"/>
              <g id="Group_149" data-name="Group 149" transform="translate(7.658 12.08)">
                <path id="Path_360" data-name="Path 360" d="M1174.082,174.268l-.406.886.2,3.579,2.2-1.689-.107-5.5-1.392,3.427Z" transform="translate(-1170.322 -168.942)" fill="#fff"/>
                <path id="Path_361" data-name="Path 361" d="M1171.339,175.154l-.406-.886-.492.706-1.392-3.427-.107,5.5,2.2,1.689Z" transform="translate(-1168.942 -168.942)" fill="#fff"/>
                <path id="Path_362" data-name="Path 362" d="M1171.977,171.928l0,.007,0-.007,2.487-3.014h0a2.331,2.331,0,0,1-.182-1.044h-4.609a2.328,2.328,0,0,1-.182,1.044h0Z" transform="translate(-1169.102 -167.871)" fill="#f8cfaa"/>
              </g>
              <path id="Path_363" data-name="Path 363" d="M1175.237,157.89c.211-2.494.049-4.385-1.424-4.645.061-.966-1.194-1.985-4.035-1.459-3.045.564-4.059,2.816-3.258,6.1-.631-.013-.969.658-.716,1.336a2.705,2.705,0,0,0,.757,1.108.765.765,0,0,0,.5.146,14.454,14.454,0,0,0,1.255,2.8,3.616,3.616,0,0,0,5.135,0,14.438,14.438,0,0,0,1.256-2.8.766.766,0,0,0,.5-.146,2.706,2.706,0,0,0,.757-1.108C1176.206,158.549,1175.868,157.877,1175.237,157.89Z" transform="translate(-1160.345 -151.061)" fill="#f5d4b5"/>
              <path id="Path_364" data-name="Path 364" d="M1173.894,152.815c-.118.016-.031-2.674-3.13-1.829s-4.474,1.388-4.675,3.361.061,3.164.32,3.325.612.519.653.358-.282-2.173.443-2.656,2.736-.14,4.789-.935c0,0,1.444-1.278,1.547.855s.838,1.988.908,2.768c.04.453.322-.3.654-.383C1175.314,157.045,1177.357,152.346,1173.894,152.815Z" transform="translate(-1160.432 -150.822)" fill="#605236"/>
              <path id="Path_365" data-name="Path 365" d="M1181.622,172.086c.9.8,1.911,7.76,1.911,7.76H1173l.028-1.889,3.2-8.02C1177.827,170.422,1180.772,171.332,1181.622,172.086Z" transform="translate(-1162.467 -156.393)" fill="#424442"/>
              <path id="Path_366" data-name="Path 366" d="M1160.046,172.086c-.9.8-1.911,7.76-1.911,7.76h10.533l-.028-1.889-3.2-8.02C1163.842,170.422,1160.9,171.332,1160.046,172.086Z" transform="translate(-1158.135 -156.393)" fill="#424442"/>
            </g>
          </g>
        </g>
      </g>
      <g id="Group_149-2" data-name="Group 149" transform="translate(-40.263 169.65)">
        <rect id="Rectangle_82" data-name="Rectangle 82" width="29.674" height="9.616" rx="4.808" transform="translate(1202.828 135.829)" fill="#fff"/>
        <rect id="Rectangle_83" data-name="Rectangle 83" width="38.431" height="9.616" rx="4.808" transform="translate(1235.849 135.829)" fill="#fff"/>
      </g>
      <g id="Group_150-2" data-name="Group 150" transform="translate(-40.263 169.65)">
        <path id="Path_367" data-name="Path 367" d="M1225.027,153.306h-21.3a.9.9,0,0,1-.9-.9h0a.9.9,0,0,1,.9-.9h21.3a.9.9,0,0,1,.9.9h0A.9.9,0,0,1,1225.027,153.306Z" fill="#fff"/>
        <path id="Path_368" data-name="Path 368" d="M1250.889,153.306h-21.3a.9.9,0,0,1-.9-.9h0a.9.9,0,0,1,.9-.9h21.3a.9.9,0,0,1,.9.9h0A.9.9,0,0,1,1250.889,153.306Z" fill="#fff"/>
        <path id="Path_369" data-name="Path 369" d="M1273.381,153.306h-17.315a.9.9,0,0,1-.9-.9h0a.9.9,0,0,1,.9-.9h17.315a.9.9,0,0,1,.9.9h0A.9.9,0,0,1,1273.381,153.306Z" fill="#fff"/>
        <path id="Path_370" data-name="Path 370" d="M1214.953,158.777h-11.226a.9.9,0,0,1-.9-.9h0a.9.9,0,0,1,.9-.9h11.226a.9.9,0,0,1,.9.9h0A.9.9,0,0,1,1214.953,158.777Z" fill="#fff"/>
        <path id="Path_371" data-name="Path 371" d="M1231.539,158.777h-11.227a.9.9,0,0,1-.9-.9h0a.9.9,0,0,1,.9-.9h11.227a.9.9,0,0,1,.9.9h0A.9.9,0,0,1,1231.539,158.777Z" fill="#fff"/>
        <path id="Path_372" data-name="Path 372" d="M1258.939,158.777h-21.275a.9.9,0,0,1-.9-.9h0a.9.9,0,0,1,.9-.9h21.275a.9.9,0,0,1,.9.9h0A.9.9,0,0,1,1258.939,158.777Z" fill="#fff"/>
        <path id="Path_373" data-name="Path 373" d="M1273.381,158.777h-8.9a.9.9,0,0,1-.9-.9h0a.9.9,0,0,1,.9-.9h8.9a.9.9,0,0,1,.9.9h0A.9.9,0,0,1,1273.381,158.777Z" fill="#fff"/>
      </g>
      <rect id="Rectangle_84" data-name="Rectangle 84" width="6" height="357" transform="translate(902.5 -192)" fill="#eff5ff"/>
    </g>
  </g>
</svg>
