<svg xmlns="http://www.w3.org/2000/svg" width="1203.362" height="842.822" viewBox="0 0 1203.362 842.822">
  <g id="Group_35821" data-name="Group 35821" transform="translate(-3622 -2424)">
    <g id="Group_35768" data-name="Group 35768" transform="translate(3622 2424)" opacity="0.3">
      <path id="Path_37905" data-name="Path 37905" d="M4695.02,2424s-134.744-1.686-126.321,135.694-139.815,75.854-218.987,118.837-23.584,120.524-53.9,166.879-129.708,21.07-149.922,99.453-48.852,112.938-149.08,122.209-144.026,42.141-162.557,89.339-36.564,110.41-129.46,110.41h1164.6V2424Z" transform="translate(-3666.024 -2424)" fill="#33a8f2" opacity="0.21"/>
      <path id="Path_37906" data-name="Path 37906" d="M4636.079,2424s-146.271-1.686-137.128,135.694-151.777,75.854-237.723,118.837-25.6,120.524-58.517,166.879-114.115,21.07-136.059,99.453-79.72,112.938-188.523,122.209-95.478,42.141-115.593,89.339-39.693,110.41-140.537,110.41H4825.362V2424Z" transform="translate(-3622 -2424)" fill="#33a8f2" opacity="0.15"/>
    </g>
    <ellipse id="Ellipse_232" data-name="Ellipse 232" cx="277.663" cy="16.204" rx="277.663" ry="16.204" transform="translate(4152.509 3123.911)" opacity="0.15"/>
    <g id="Group_35799" data-name="Group 35799" transform="translate(4217.325 2588.62)">
      <g id="Group_35797" data-name="Group 35797" transform="translate(0 29.637)">
        <g id="Group_35770" data-name="Group 35770" transform="translate(20.99 212.567)">
          <g id="Group_35769" data-name="Group 35769">
            <path id="Path_37907" data-name="Path 37907" d="M4966.1,3355.145l-.745-.812-.578-.645-1.07-1.221c-.7-.8-1.36-1.588-2.021-2.377-1.311-1.572-2.568-3.139-3.8-4.715-2.467-3.151-4.816-6.34-7.08-9.592a222.971,222.971,0,0,1-12.555-20.232l41.508-22.7a175.547,175.547,0,0,0,9.855,15.874c1.784,2.564,3.64,5.082,5.542,7.511.95,1.213,1.909,2.409,2.868,3.559l1.421,1.672.682.778.461.512Z" transform="translate(-4938.252 -3292.848)" fill="none"/>
          </g>
          <path id="Path_37908" data-name="Path 37908" d="M4988.289,3327.9l-4.014,2.5c-1.4-2.272-2.781-4.562-4.1-6.888l4.113-2.339C4985.574,3323.446,4986.919,3325.682,4988.289,3327.9Z" transform="translate(-4960.545 -3307.913)" fill="#3c415e" fill-rule="evenodd"/>
          <path id="Path_37909" data-name="Path 37909" d="M5004.715,3353.089l-3.828,2.782c-1.577-2.156-3.094-4.354-4.583-6.571l3.934-2.629C5001.693,3348.836,5003.175,3350.984,5004.715,3353.089Z" transform="translate(-4969.122 -3321.469)" fill="#3c415e" fill-rule="evenodd"/>
          <path id="Path_37910" data-name="Path 37910" d="M5022.858,3376.955l-3.588,3.084c-1.755-2.041-3.436-4.123-5.081-6.231l3.735-2.9C5019.527,3372.958,5021.166,3374.986,5022.858,3376.955Z" transform="translate(-4978.633 -3334.355)" fill="#3c415e" fill-rule="evenodd"/>
        </g>
        <g id="Group_35772" data-name="Group 35772" transform="translate(3.306 179.164)">
          <g id="Group_35771" data-name="Group 35771">
            <path id="Path_37911" data-name="Path 37911" d="M4918.17,3277.616a194.637,194.637,0,0,1-10.292-21.89,161.927,161.927,0,0,1-7.392-23.695l46.127-10.521a131.486,131.486,0,0,0,13.064,33.4Z" transform="translate(-4900.486 -3221.51)" fill="none"/>
          </g>
          <path id="Path_37912" data-name="Path 37912" d="M4951.713,3245.879l-4.51,1.43c-.434-1.272-.775-2.575-1.161-3.863s-.717-2.592-1.05-3.9l4.586-1.164c.321,1.258.632,2.518,1.014,3.761S4951.292,3244.648,4951.713,3245.879Z" transform="translate(-4924.153 -3230.484)" fill="#3c415e" fill-rule="evenodd"/>
          <path id="Path_37913" data-name="Path 37913" d="M4961.434,3274.161l-4.357,1.845c-.521-1.235-1.048-2.466-1.522-3.722s-.993-2.492-1.43-3.762l4.444-1.623c.422,1.23.919,2.434,1.387,3.647S4960.928,3272.962,4961.434,3274.161Z" transform="translate(-4929.009 -3245.647)" fill="#3c415e" fill-rule="evenodd"/>
          <path id="Path_37914" data-name="Path 37914" d="M4973.683,3301.415l-4.19,2.2-1.825-3.574-1.745-3.616,4.285-2.008,1.7,3.52Z" transform="translate(-4935.283 -3260.278)" fill="#3c415e" fill-rule="evenodd"/>
        </g>
        <g id="Group_35774" data-name="Group 35774" transform="translate(0 132.338)">
          <g id="Group_35773" data-name="Group 35773">
            <path id="Path_37915" data-name="Path 37915" d="M4896.731,3178.852c-.455-2.056-.918-4.107-1.272-6.205-.186-1.044-.384-2.084-.555-3.134l-.454-3.17c-.328-2.043-.512-4.423-.729-6.669-.127-1.115-.139-2.335-.2-3.507-.037-1.19-.107-2.347-.1-3.565l.085-3.688c.027-.621.017-1.213.082-1.858l.169-1.91.184-1.909c.068-.639.112-1.262.234-1.926q.315-1.965.667-3.926c.061-.327.114-.651.183-.98l.243-1,.5-2,.523-1.991c.178-.662.433-1.336.651-2,.468-1.333.905-2.665,1.443-3.984q.857-1.974,1.77-3.927l42.47,20.848a8.837,8.837,0,0,1-.42.915c-.131.321-.214.686-.349,1.018a4.716,4.716,0,0,0-.187.519c-.041.2-.085.391-.133.584s-.1.386-.154.578l-.085.287c-.021.1-.032.219-.049.328-.062.44-.139.877-.226,1.313a4.5,4.5,0,0,0-.079.711l-.064.736-.079.736a7.5,7.5,0,0,0-.025.8q-.012.813-.046,1.625c-.009.553.05,1.166.063,1.745.033.6,0,1.152.094,1.8l.182,1.882c.036.325.037.6.1.968l.151,1.044.293,2.091c.115.7.255,1.4.379,2.1.226,1.4.554,2.8.86,4.206Z" transform="translate(-4893.425 -3121.504)" fill="none"/>
          </g>
          <path id="Path_37916" data-name="Path 37916" d="M4944.107,3156.52l-4.65-.88.179-1.035.256-1.025.523-2.047a19.323,19.323,0,0,1,.638-2.02l.7-2,4.4,1.729-.622,1.785a16.132,16.132,0,0,0-.57,1.8l-.468,1.837-.232.919Z" transform="translate(-4917.903 -3135.332)" fill="#3c415e" fill-rule="evenodd"/>
          <path id="Path_37917" data-name="Path 37917" d="M4942.275,3186.917l-4.723.278c-.044-1.373-.128-2.74-.135-4.117.041-1.381.047-2.761.123-4.144l4.722.3c-.068,1.274-.072,2.556-.113,3.834C4942.155,3184.349,4942.236,3185.634,4942.275,3186.917Z" transform="translate(-4916.818 -3152.044)" fill="#3c415e" fill-rule="evenodd"/>
          <path id="Path_37918" data-name="Path 37918" d="M4945.007,3216.6l-4.638.933-.725-3.98c-.236-1.328-.394-2.671-.593-4.006l4.69-.621c.193,1.282.343,2.57.569,3.847Z" transform="translate(-4917.687 -3167.994)" fill="#3c415e" fill-rule="evenodd"/>
        </g>
        <g id="Group_35776" data-name="Group 35776" transform="translate(6.738 95.452)">
          <g id="Group_35775" data-name="Group 35775">
            <path id="Path_37919" data-name="Path 37919" d="M4907.815,3079.614a63.84,63.84,0,0,1,9.63-14.2c.94-1.035,1.921-1.992,2.9-2.975.491-.479.979-.991,1.481-1.433l1.518-1.313,1.531-1.3c.512-.435,1.026-.865,1.544-1.233q1.553-1.154,3.126-2.282c.261-.185.524-.384.787-.554l.784-.5,1.574-.995c1.049-.647,2.114-1.351,3.156-1.893l3.149-1.708.79-.42.779-.372,1.561-.739c1.039-.48,2.093-1,3.123-1.435l3.088-1.268,1.547-.627c.512-.2,1.017-.37,1.526-.555l3.051-1.085,15.273,44.778-1.956.7c-.324.116-.66.226-.974.347l-.913.379-1.831.743c-.6.248-1.13.533-1.7.791l-.843.392-.422.194-.38.21-1.521.826a15.453,15.453,0,0,0-1.4.845l-.677.418-.34.205c-.111.07-.2.146-.294.219q-.576.438-1.167.85a3.461,3.461,0,0,0-.529.427l-.491.426-.5.411c-.168.136-.273.288-.416.426-.26.284-.57.545-.821.818a16.6,16.6,0,0,0-2.266,3.333Z" transform="translate(-4907.815 -3042.728)" fill="none"/>
          </g>
          <path id="Path_37920" data-name="Path 37920" d="M5001.135,3094.131l-2.045-4.266c2.457-1.208,4.982-2.215,7.512-3.189l1.657,4.432C5005.847,3092.037,5003.443,3093,5001.135,3094.131Z" transform="translate(-4956.352 -3066.098)" fill="#3c415e" fill-rule="evenodd"/>
          <path id="Path_37921" data-name="Path 37921" d="M4975.142,3108.452l-2.987-3.669a20.392,20.392,0,0,1,1.656-1.281l1.688-1.231c.552-.429,1.157-.762,1.737-1.14l1.759-1.1,2.421,4.065-1.623,1.02c-.535.349-1.1.655-1.6,1.049l-1.542,1.126A17.6,17.6,0,0,0,4975.142,3108.452Z" transform="translate(-4942.029 -3073.198)" fill="#3c415e" fill-rule="evenodd"/>
          <path id="Path_37922" data-name="Path 37922" d="M4954.928,3129.087l-4.053-2.441a17.591,17.591,0,0,1,1.155-1.791l1.219-1.75c.423-.57.9-1.1,1.347-1.645s.895-1.1,1.382-1.612l3.474,3.213c-.437.455-.816.96-1.228,1.436s-.825.953-1.2,1.459l-1.075,1.549A14.323,14.323,0,0,0,4954.928,3129.087Z" transform="translate(-4930.712 -3083.738)" fill="#3c415e" fill-rule="evenodd"/>
        </g>
        <g id="Group_35778" data-name="Group 35778" transform="translate(53.381 85.794)">
          <g id="Group_35777" data-name="Group 35777">
            <path id="Path_37923" data-name="Path 37923" d="M5007.429,3031.759a179.166,179.166,0,0,1,23.655-6.153c7.7-1.5,15.252-2.6,22.729-3.506l5.641,46.974c-6.589.8-13.067,1.754-19.28,2.962a132.823,132.823,0,0,0-17.471,4.5Z" transform="translate(-5007.429 -3022.1)" fill="none"/>
          </g>
          <path id="Path_37924" data-name="Path 37924" d="M5088.9,3072.4l-.722-4.677c2.626-.429,5.258-.762,7.889-1.115l.6,4.693C5094.075,3071.651,5091.477,3071.979,5088.9,3072.4Z" transform="translate(-5050.367 -3045.769)" fill="#3c415e" fill-rule="evenodd"/>
          <path id="Path_37925" data-name="Path 37925" d="M5059.056,3077.358l-1-4.626,3.922-.8c1.306-.28,2.621-.481,3.93-.725l.831,4.658c-1.284.24-2.577.437-3.853.71Z" transform="translate(-5034.353 -3048.211)" fill="#3c415e" fill-rule="evenodd"/>
          <path id="Path_37926" data-name="Path 37926" d="M5029.751,3084.223l-1.408-4.517c2.565-.839,5.166-1.489,7.756-2.194l1.155,4.589C5034.745,3082.785,5032.218,3083.415,5029.751,3084.223Z" transform="translate(-5018.551 -3051.566)" fill="#3c415e" fill-rule="evenodd"/>
        </g>
        <g id="Group_35780" data-name="Group 35780" transform="translate(99.765 82.344)">
          <g id="Group_35779" data-name="Group 35779">
            <path id="Path_37927" data-name="Path 37927" d="M5106.491,3018.182c14.943-1.785,29.565-2.745,44.086-3.45l2.226,47.259c-13.787.667-27.466,1.583-40.67,3.165Z" transform="translate(-5106.491 -3014.732)" fill="none"/>
          </g>
          <path id="Path_37928" data-name="Path 37928" d="M5179.384,3064.174l-.285-4.723,3.955-.237,3.954-.2.239,4.726-3.934.2Z" transform="translate(-5145.102 -3038.279)" fill="#3c415e" fill-rule="evenodd"/>
          <path id="Path_37929" data-name="Path 37929" d="M5149.192,3066.121l-.387-4.716c2.635-.238,5.271-.4,7.908-.6l.327,4.721C5154.424,3065.723,5151.8,3065.883,5149.192,3066.121Z" transform="translate(-5128.993 -3039.233)" fill="#3c415e" fill-rule="evenodd"/>
          <path id="Path_37930" data-name="Path 37930" d="M5119.149,3068.759l-.526-4.7c2.634-.324,5.27-.54,7.9-.814l.443,4.71C5124.363,3068.226,5121.748,3068.439,5119.149,3068.759Z" transform="translate(-5112.942 -3040.529)" fill="#3c415e" fill-rule="evenodd"/>
        </g>
        <g id="Group_35782" data-name="Group 35782" transform="translate(143.851 79.629)">
          <g id="Group_35781" data-name="Group 35781">
            <path id="Path_37931" data-name="Path 37931" d="M5200.644,3011.649l10.467-.523c3.463-.191,6.929-.379,10.37-.607,3.455-.2,6.87-.469,10.3-.712,3.4-.282,6.821-.54,10.184-.873l4.428,47.1c-3.689.363-7.337.641-11,.942-3.639.259-7.29.539-10.908.754-3.631.241-7.241.436-10.852.635l-10.765.538Z" transform="translate(-5200.644 -3008.935)" fill="none"/>
          </g>
          <path id="Path_37932" data-name="Path 37932" d="M5270,3058.712l-.359-4.718,7.829-.641.416,4.713Z" transform="translate(-5237.335 -3032.555)" fill="#3c415e" fill-rule="evenodd"/>
          <path id="Path_37933" data-name="Path 37933" d="M5239.873,3060.9l-.281-4.723,7.849-.5.321,4.721Z" transform="translate(-5221.355 -3033.792)" fill="#3c415e" fill-rule="evenodd"/>
          <path id="Path_37934" data-name="Path 37934" d="M5209.806,3062.609l-.225-4.726c2.621-.134,5.244-.244,7.863-.4l.253,4.725C5215.068,3062.364,5212.437,3062.474,5209.806,3062.609Z" transform="translate(-5205.397 -3034.753)" fill="#3c415e" fill-rule="evenodd"/>
        </g>
        <g id="Group_35784" data-name="Group 35784" transform="translate(185.17 73.732)">
          <g id="Group_35783" data-name="Group 35783">
            <path id="Path_37935" data-name="Path 37935" d="M5288.889,3002.238c6.743-.638,13.421-1.371,19.872-2.33a187,187,0,0,0,18.45-3.567l11.722,45.836a233,233,0,0,1-23.268,4.535c-7.569,1.123-14.985,1.932-22.349,2.629Z" transform="translate(-5288.889 -2996.341)" fill="none"/>
          </g>
          <path id="Path_37936" data-name="Path 37936" d="M5359.9,3046.741l-.88-4.649c1.28-.216.723-.334,1.993-.588l3.716-.571,1.883-.443,1.079,4.607-1.94.456-1.949.405C5362.5,3046.219,5361.209,3046.52,5359.9,3046.741Z" transform="translate(-5326.184 -3019.818)" fill="#3c415e" fill-rule="evenodd"/>
          <path id="Path_37937" data-name="Path 37937" d="M5330.15,3052.012l-.634-4.689,3.872-.539,3.854-.605.758,4.671-5.736.792Z" transform="translate(-5310.493 -3022.843)" fill="#3c415e" fill-rule="evenodd"/>
          <path id="Path_37938" data-name="Path 37938" d="M5300.287,3055.833l-.47-4.708c2.6-.286,5.2-.535,7.791-.854l.554,4.7C5305.539,3055.293,5302.912,3055.544,5300.287,3055.833Z" transform="translate(-5294.7 -3025.019)" fill="#3c415e" fill-rule="evenodd"/>
        </g>
        <g id="Group_35786" data-name="Group 35786" transform="translate(223.492 64.488)">
          <g id="Group_35785" data-name="Group 35785">
            <path id="Path_37939" data-name="Path 37939" d="M5370.733,2985.842c2.811-.759,5.6-1.531,8.014-2.436l.924-.328.462-.163.42-.177,1.682-.694a7.7,7.7,0,0,0,.78-.356l.745-.359.75-.349c.234-.119.428-.245.646-.364l.641-.354a4.7,4.7,0,0,0,.6-.348c.344-.238.693-.463,1.052-.677.292-.222.534-.436.821-.631.065-.05.15-.1.2-.145l.138-.145q.141-.141.293-.268a4.829,4.829,0,0,0,1.137-1.451l42.711,20.352q-.536,1.126-1.1,2.239-.62,1.078-1.264,2.144t-1.312,2.115c-.461.677-.951,1.323-1.437,1.979s-.984,1.3-1.485,1.94-1.037,1.195-1.563,1.79a44.129,44.129,0,0,1-3.25,3.332l-1.675,1.518-.846.749c-.282.241-.562.448-.844.673-1.126.873-2.271,1.762-3.413,2.579q-1.69,1.127-3.4,2.22c-.578.384-1.127.675-1.688,1l-1.682.938c-.56.305-1.129.631-1.684.914l-1.647.8-1.651.788c-.552.262-1.107.529-1.639.741l-3.229,1.338-.809.329-.789.286-1.577.57c-4.232,1.552-8.281,2.68-12.312,3.755Z" transform="translate(-5370.733 -2976.597)" fill="none"/>
          </g>
          <path id="Path_37940" data-name="Path 37940" d="M5440.51,3009.781l-1.388-3.66a29.69,29.69,0,0,0,2.485-2.546c.384-.447.71-.934,1.071-1.4l.532-.7c.157-.245.3-.5.454-.748l4.007,2.517c-.183.3-.358.6-.548.892l-.627.835c-.426.551-.823,1.127-1.275,1.654C5444.275,3007.642,5441.568,3008.893,5440.51,3009.781Z" transform="translate(-5407.1 -2989.43)" fill="#3c415e" fill-rule="evenodd"/>
          <path id="Path_37941" data-name="Path 37941" d="M5417.456,3027.611l-1.984-4.3c1.12-.553.467-.869,1.528-1.5l3.439-1.079c.533-.311,1.032-.663,1.55-.992l2.594,3.958c-.576.366-1.138.758-1.724,1.1l-1.778.99C5419.908,3026.485,5418.668,3027.015,5417.456,3027.611Z" transform="translate(-5394.524 -2999.541)" fill="#3c415e" fill-rule="evenodd"/>
          <path id="Path_37942" data-name="Path 37942" d="M5389.4,3039.088l-1.285-4.553c1.249-.316,2.452-.737,3.676-1.107s2.417-.808,3.614-1.235l1.626,4.443c-1.261.451-4.333,1.1-5.613,1.475S5390.689,3038.761,5389.4,3039.088Z" transform="translate(-5379.976 -3006.161)" fill="#3c415e" fill-rule="evenodd"/>
        </g>
        <g id="Group_35788" data-name="Group 35788" transform="translate(242.608 16.615)">
          <g id="Group_35787" data-name="Group 35787">
            <path id="Path_37943" data-name="Path 37943" d="M5411.751,2922.229a6.619,6.619,0,0,0,.521-2.214c0-.34.054-.639.067-1.009-.02-.407-.025-.812-.015-1.22a1.636,1.636,0,0,0-.015-.333l-.035-.357-.057-.715-.022-.358-.01-.179-.021-.139c-.029-.183-.054-.366-.075-.55a10.423,10.423,0,0,0-.353-1.594c-.127-.367-.194-.535-.171-.476-.014.011,0,0,0,0l27.188-38.728a46.7,46.7,0,0,1,14.112,15.638q.631,1.169,1.228,2.357c.381.784.714,1.56,1.059,2.347s.624,1.543.909,2.309.561,1.534.779,2.276a57.357,57.357,0,0,1,2.021,8.754l.283,2.083.065.519.042.483.082.967.153,1.934.07.968c.026.317.044.646.046.993q.04,2.047.036,4.095c-.036,1.4-.153,2.866-.256,4.294l-.091,1.08-.157,1.125-.343,2.249a43.669,43.669,0,0,1-.988,4.573c-.207.771-.372,1.527-.634,2.3s-.526,1.548-.8,2.317-.549,1.537-.864,2.3q-.509,1.137-1.044,2.263Z" transform="translate(-5411.559 -2874.357)" fill="none"/>
          </g>
          <path id="Path_37944" data-name="Path 37944" d="M5447.7,2923.917l-4.169,2.239c-1.052-2.037-4.3-3.686-5.984-5.24l5.025-3.658A24.433,24.433,0,0,1,5447.7,2923.917Z" transform="translate(-5425.377 -2897.17)" fill="#3c415e" fill-rule="evenodd"/>
          <path id="Path_37945" data-name="Path 37945" d="M5460.444,2952.787l-4.721.313a30.274,30.274,0,0,0-1.1-7.194l4.568-1.229A40.345,40.345,0,0,1,5460.444,2952.787Z" transform="translate(-5434.458 -2911.751)" fill="#3c415e" fill-rule="evenodd"/>
          <path id="Path_37946" data-name="Path 37946" d="M5458.462,2983.469l-4.479-1.523.3-.827.212-.86c.138-.575.295-1.144.423-1.722l.27-1.771c.041-.3.1-.587.128-.887l.06-.9,4.716.375-.069,1.028c-.03.342-.1.683-.146,1.024l-2.13,2.225c-.147.677,1.486,1.172,1.322,1.846l-.254,1.01Z" transform="translate(-5434.118 -2927.862)" fill="#3c415e" fill-rule="evenodd"/>
        </g>
        <g id="Group_35790" data-name="Group 35790" transform="translate(211.166 6.526)">
          <g id="Group_35789" data-name="Group 35789">
            <path id="Path_37947" data-name="Path 37947" d="M5375.859,2901.626s-.009.014,0,0-.049-.011-.062-.032-.09-.044-.149-.076a.9.9,0,0,1-.091-.053c-.046-.015-.09-.031-.135-.049a9.3,9.3,0,0,0-1.542-.511,23.431,23.431,0,0,0-2.473-.472c-.971-.12-2.032-.22-3.185-.273a63.893,63.893,0,0,0-7.713.188c-2.771.213-5.7.584-8.711,1.059l-7.387-46.731c3.991-.63,8.093-1.159,12.386-1.494a110.759,110.759,0,0,1,13.526-.287c2.387.108,4.857.318,7.4.651a70.486,70.486,0,0,1,7.957,1.543,56.438,56.438,0,0,1,8.512,2.9l1.086.473,1.1.532c.734.363,1.451.709,2.21,1.144s1.484.819,2.236,1.3,1.494.952,2.222,1.457Z" transform="translate(-5344.409 -2852.809)" fill="none"/>
          </g>
          <path id="Path_37948" data-name="Path 37948" d="M5366.392,2900.348l.354,4.719c-4.367.328-6.9.724-7.655.827l-.646-4.687C5361.078,2900.843,5363.729,2900.548,5366.392,2900.348Z" transform="translate(-5351.872 -2878.088)" fill="#3c415e" fill-rule="evenodd"/>
          <path id="Path_37949" data-name="Path 37949" d="M5395.027,2900.3l-.513,4.7a63.989,63.989,0,0,0-7.521-.349l-1.855-4.555C5387.822,2900.076,5392.333,2900.009,5395.027,2900.3Z" transform="translate(-5366.067 -2877.944)" fill="#3c415e" fill-rule="evenodd"/>
          <path id="Path_37950" data-name="Path 37950" d="M5426.284,2905.739l-2.187,4.195a30.622,30.622,0,0,0-6.7-2.458l1.123-4.6A31.179,31.179,0,0,1,5426.284,2905.739Z" transform="translate(-5383.22 -2879.434)" fill="#3c415e" fill-rule="evenodd"/>
        </g>
        <g id="Group_35792" data-name="Group 35792" transform="translate(167.16 8.397)">
          <g id="Group_35791" data-name="Group 35791">
            <path id="Path_37951" data-name="Path 37951" d="M5301.818,2903.537c-6.024.953-12.346,2.335-18.8,3.938s-13.058,3.431-19.862,5.333l-12.732-45.566c6.845-1.912,13.9-3.877,21.2-5.686s14.831-3.484,22.807-4.75Z" transform="translate(-5250.425 -2856.806)" fill="none"/>
          </g>
          <path id="Path_37952" data-name="Path 37952" d="M5276.526,2918.031l-.581,4.745-7.586,2.084.545-4.734Z" transform="translate(-5259.961 -2889.364)" fill="#3c415e" fill-rule="evenodd"/>
          <path id="Path_37953" data-name="Path 37953" d="M5304.649,2910.906l2.9,4.428q-3.8.9-7.6,1.884l-1.183-4.582C5301.327,2911.977,5302.076,2911.515,5304.649,2910.906Z" transform="translate(-5276.134 -2885.575)" fill="#3c415e" fill-rule="evenodd"/>
          <path id="Path_37954" data-name="Path 37954" d="M5336.028,2904.322l-.992,4.836c-2.549.449-3.279.775-5.821,1.32l-.99-4.626Q5332.109,2905.019,5336.028,2904.322Z" transform="translate(-5291.797 -2882.073)" fill="#3c415e" fill-rule="evenodd"/>
        </g>
        <g id="Group_35794" data-name="Group 35794" transform="translate(120.504 18.833)">
          <g id="Group_35793" data-name="Group 35793">
            <path id="Path_37955" data-name="Path 37955" d="M5210.171,2924.66l-10.431,2.887-1.345.361-.681.182-1,.235q-2,.465-4.005.886c-1.366.247-2.781.425-4.173.614-1.38.214-2.842.273-4.283.351a59.451,59.451,0,0,1-17.547-1.737,61.188,61.188,0,0,1-15.925-6.649l24.065-40.734a13.9,13.9,0,0,0,3.609,1.554,12.072,12.072,0,0,0,3.527.309,18.026,18.026,0,0,0,2.1-.226q.586-.159,1.18-.274l.3-.055.6-.161,1.22-.328,10.056-2.785Z" transform="translate(-5150.783 -2879.093)" fill="none"/>
          </g>
          <path id="Path_37956" data-name="Path 37956" d="M5188.653,2929.333l-1.123,4.6c-.7-.151-1.374-.389-2.062-.582s-3.187-.22-3.845-.5l-.179-.947c-.649-.289-1.286-.6-1.928-.9l2.08-4.25c.57.266,1.134.546,1.707.8l1.756.676a16.044,16.044,0,0,0,1.785.59C5187.449,2928.988,5188.04,2929.2,5188.653,2929.333Z" transform="translate(-5166.063 -2904.435)" fill="#3c415e" fill-rule="evenodd"/>
          <path id="Path_37957" data-name="Path 37957" d="M5218.793,2933.365l.7,4.679-2.1.289c-.7.076-1.419.087-2.128.132l-1.065.054-.532.025-.535-.017-2.141-.075.288-4.723,1.879.066.471.018-1.345.152,2.756-.227c.627-.041,1.256-.045,1.881-.114Z" transform="translate(-5182.799 -2907.953)" fill="#3c415e" fill-rule="evenodd"/>
          <path id="Path_37958" data-name="Path 37958" d="M5247.147,2926.159l-.543,4.734-7.635,2.1.584-4.745Z" transform="translate(-5197.678 -2904.121)" fill="#3c415e" fill-rule="evenodd"/>
        </g>
        <g id="Group_35796" data-name="Group 35796" transform="translate(84.447)">
          <g id="Group_35795" data-name="Group 35795">
            <path id="Path_37959" data-name="Path 37959" d="M5109.834,2900.4a71.358,71.358,0,0,1-12.651-9.6,87.468,87.468,0,0,1-9.692-10.887,102.633,102.633,0,0,1-7.518-11.514c-1.116-1.966-2.158-3.958-3.154-6.012-.25-.51-.5-1.027-.739-1.556s-.486-1.051-.726-1.6c-.238-.531-.481-1.1-.721-1.673l-.375-.912-.205-.517-.276-.721,44.375-16.406-.051-.139.015.037.04.1.13.317.332.766c.115.265.241.54.374.821s.261.559.4.844c.55,1.134,1.148,2.284,1.785,3.4a55.442,55.442,0,0,0,4.087,6.278,31.72,31.72,0,0,0,8.633,8.237Z" transform="translate(-5073.777 -2838.872)" fill="none"/>
          </g>
          <path id="Path_37960" data-name="Path 37960" d="M5123.583,2868.283l-4.11,2.344c-1.35-2.367-4.407-4.612-5.537-7.106l6.128-2.122C5121.126,2863.742,5122.3,2866.043,5123.583,2868.283Z" transform="translate(-5095.132 -2850.852)" fill="#52298a" fill-rule="evenodd"/>
          <path id="Path_37961" data-name="Path 37961" d="M5141.644,2893.375l-3.61,3.058a73.18,73.18,0,0,1-4.954-6.559l3.921-2.649A53.341,53.341,0,0,0,5141.644,2893.375Z" transform="translate(-5105.312 -2864.584)" fill="#3c415e" fill-rule="evenodd"/>
          <path id="Path_37962" data-name="Path 37962" d="M5162.329,2914.643l-2.705,3.882a57.635,57.635,0,0,1-6.449-5.328l3.281-3.41A43.413,43.413,0,0,0,5162.329,2914.643Z" transform="translate(-5115.998 -2876.582)" fill="#3c415e" fill-rule="evenodd"/>
        </g>
      </g>
      <g id="Group_35798" data-name="Group 35798" transform="translate(34.287 0)">
        <path id="Path_37963" data-name="Path 37963" d="M5061.791,2784.427l-13.155,15.021-81.984-23.87Z" transform="translate(-4966.652 -2775.577)" fill="#ffd844"/>
        <path id="Path_37964" data-name="Path 37964" d="M5045.052,2830.814l3.583-31.367-81.984-23.87,69.869,36.99Z" transform="translate(-4966.652 -2775.577)" fill="#f6af00"/>
        <path id="Path_37965" data-name="Path 37965" d="M5014.368,2835.008l22.152-22.442-69.868-36.99Z" transform="translate(-4966.652 -2775.576)" fill="#ffd844"/>
      </g>
    </g>
    <g id="Group_35800" data-name="Group 35800" transform="translate(4241.666 2751.662)">
      <path id="Path_37966" data-name="Path 37966" d="M5326.875,3639.592a16.155,16.155,0,0,1-4.74,11.916,17.209,17.209,0,0,1-11.107,3.989l-349.281.646a18.976,18.976,0,0,1-11.122-3.948,16.158,16.158,0,0,1-4.785-11.9l-.429-232.59,381.034-.7.43,232.59Z" transform="translate(-4945.411 -3274.389)" fill="#738598"/>
      <path id="Path_37967" data-name="Path 37967" d="M5328.057,3748.372a17.212,17.212,0,0,1-11.106,3.989l-349.282.646a18.971,18.971,0,0,1-11.121-3.948l185.46-159.9Z" transform="translate(-4951.333 -3371.253)" fill="#3c415e"/>
      <path id="Path_37968" data-name="Path 37968" d="M5326.445,3256.4l-53.908,39-126.05,90.729a17.862,17.862,0,0,1-21.434.04l-125.59-90.265-54.052-38.8,53.908-39,117.33-84.362,8.721-6.367a17.862,17.862,0,0,1,21.433-.04l8.744,6.334,56.437,40.381,27.819,19.794,32.591,23.754Z" transform="translate(-4945.411 -3123.782)" fill="#3c415e"/>
      <path id="Path_37969" data-name="Path 37969" d="M5333.407,3193.759l.208,112.722-126.05,90.729a17.862,17.862,0,0,1-21.433.04l-125.591-90.265-.271-146.063a15.924,15.924,0,0,1,15.848-15.906l207.187-.382Z" transform="translate(-5006.489 -3134.871)" fill="#faf9f9"/>
      <path id="Path_37970" data-name="Path 37970" d="M5538.364,3181.147a12.537,12.537,0,0,0,12.724,12.677l36.515-.067L5538.3,3144.63l.069,36.517Z" transform="translate(-5260.687 -3134.868)" fill="#afb9ca"/>
    </g>
    <g id="Group_35805" data-name="Group 35805" transform="translate(4177.154 3014.319)">
      <path id="Path_37971" data-name="Path 37971" d="M4972.275,3753.154c-3.289-.5-6.852,1.4-9.765,2.677-.312.137-.967.5-1.646.857q1.744-2,3.512-3.97c.783-.873,1.578-1.74,2.371-2.609.85.132,2.634-.172,4.669.056,2.407.271,3.427,1.212,5.624-.616,2.071-1.724,2.948-4.73-.327-5.224-2.785-.42-5.366,1.4-7.669,3.233a49.785,49.785,0,0,0,6.439-8.724c8.656-4.387,12.769-17.251,11.535-26.22a4.059,4.059,0,0,0-.922-2.39c-1.336-1.333-3.687-.4-4.939,1.014a12.908,12.908,0,0,0-2.813,7.274c-.28,2.628-.117,5.283-.25,7.922a29.771,29.771,0,0,1-1.111,6.327.575.575,0,0,0-.069.108,35.952,35.952,0,0,1-5.667,9.229,28.625,28.625,0,0,0,1.412-6.362,15.553,15.553,0,0,0-1.745-9.84,2.154,2.154,0,0,0-1.386-1.192c-.786-.109-1.445.578-1.876,1.244a11.209,11.209,0,0,0-1.6,8.021c.644,3.517,2.513,6.737,3.3,10.226a1.179,1.179,0,0,0,.131-.018c-1.43,1.623-2.925,3.2-4.417,4.751a23.94,23.94,0,0,0,.248-7.98,6.585,6.585,0,0,0-1.572-3.458,3.1,3.1,0,0,0-3.517-.754,3.252,3.252,0,0,0-1.406,1.695c-.9,2.224-.107,4.735.687,7s1.5,4.608,2.387,6.841c-.176.189-.354.378-.528.568q-3.8,4.14-7.49,8.389a41.1,41.1,0,0,0,1.88-6.032,24.3,24.3,0,0,0-.2-12.549,8.856,8.856,0,0,0-2.545-4.246,1.9,1.9,0,0,0-1.846-.517,2.005,2.005,0,0,0-.812.726,9.353,9.353,0,0,0-1.224,6.64c.451,3.609,1.855,6.987,2.854,10.466a20.347,20.347,0,0,1,1.067,6.464q-3.8,4.417-7.4,8.989a42.888,42.888,0,0,0,2.9-11.82c.4-3.326.063-7.183-2.57-9.253a3.137,3.137,0,0,0-1.294-.655c-1.5-.3-2.866,1.059-3.379,2.5a9.5,9.5,0,0,0,.112,5.77c.541,1.879,1.383,3.659,1.971,5.525a24.451,24.451,0,0,1,.689,9.95q-2.748,3.577-5.361,7.262a33.927,33.927,0,0,0,.761-4.891,23.548,23.548,0,0,0-1.285-10c-.391-1.078-1.011-2.257-2.129-2.511a3.076,3.076,0,0,0-2.663,1.06,8.15,8.15,0,0,0-2.334,7,16.08,16.08,0,0,0,1.764,4.625l2.318,4.591a10.938,10.938,0,0,1,1.135,3.644q-2.8,4.132-5.373,8.4a28.959,28.959,0,0,0,.792-4.074,15.65,15.65,0,0,0-1.4-9.09,3.95,3.95,0,0,0-2.252-2.162,3.073,3.073,0,0,0-3.434,2.261,6.5,6.5,0,0,0,.585,4.413,15.553,15.553,0,0,0,2.216,3.6,12.435,12.435,0,0,1,1.8,2.417,8.912,8.912,0,0,1,.6,3.66c.006.257.011.517.017.776-1.322,2.239-2.634,4.52-3.88,6.842a15.8,15.8,0,0,0-2.112-8.083c-.831-1.424-2.3-2.858-3.894-2.431a2.512,2.512,0,0,0-1.276.857c-1.187,1.464-.69,3.712.417,5.237s2.708,2.621,3.927,4.059c.7.825.969,2.188,1.532,3.061a75.7,75.7,0,0,0-4.762,11.471.918.918,0,0,0,1.718.646c1.451-2.806,2.85-5.625,4.262-8.434,1.422.686,7.376,1.873,8.292,2.117,1.46.391,3.274.2,4.1-1.065a3.1,3.1,0,0,0-.848-3.9,6.043,6.043,0,0,0-4.133-1.1,20.915,20.915,0,0,0-6.4,1.958c1.46-2.878,2.957-5.738,4.549-8.555a11.939,11.939,0,0,1,2.834.014c1.494.272,2.885.976,4.384,1.218s3.277-.135,4.01-1.465c.873-1.588-.331-3.7-2.025-4.347a7.3,7.3,0,0,0-5.282.5c-.53.219-1.291.514-2.053.886.136-.227.266-.456.405-.682.753-1.227,1.525-2.442,2.306-3.651,1.967.42,4.745-.213,6.836-.158,1.967.053,4.029.215,5.811-.621s3.065-3.112,2.08-4.815c-.895-1.543-3.05-1.769-4.8-1.427a21.487,21.487,0,0,0-7.6,3.5q2.566-3.806,5.28-7.51c3.419-.406,7.846,2.233,11.516.918,1.482-.531,3.523-2.236,2.777-4.128-.587-1.489-3.133-1.6-4.468-1.723a14.139,14.139,0,0,0-7.447,1.725q1.088-1.445,2.191-2.879,1.422-1.844,2.878-3.661a26.888,26.888,0,0,1,5.651.218c2.7.444,5.532,1.495,7.7-.979,1.986-2.262,2.889-6.972-1.271-6.721-2.339.142-5.921,1.546-8.8,3.433q2.845-3.451,5.78-6.827c2.047.25,3.814-.1,6.742.9,2.372.81,5.231,3.062,7.424,1.039C4976.787,3757.192,4975.545,3753.652,4972.275,3753.154Z" transform="translate(-4866.318 -3697.948)" fill="#ffda32"/>
      <path id="Path_37972" data-name="Path 37972" d="M4926.337,3729.572c-3.187.956-5.593,4.2-7.679,6.6-.223.257-.661.862-1.119,1.479q.722-2.55,1.474-5.091c.335-1.125.681-2.249,1.025-3.374.825-.245,2.307-1.284,4.244-1.949,2.289-.787,3.614-.372,4.817-2.965,1.134-2.445.639-5.537-2.532-4.581-2.7.813-4.251,3.561-5.547,6.206a49.745,49.745,0,0,0,2.084-10.64c5.943-7.671,4.15-21.058-.806-28.634a4.051,4.051,0,0,0-1.856-1.765c-1.777-.632-3.5,1.22-4.029,3.032a12.914,12.914,0,0,0,.574,7.779c.871,2.494,2.155,4.823,3.165,7.265a29.777,29.777,0,0,1,1.706,6.193.526.526,0,0,0-.016.127,36.049,36.049,0,0,1-1.169,10.767,28.584,28.584,0,0,0-1.45-6.354,15.549,15.549,0,0,0-5.791-8.145,2.155,2.155,0,0,0-1.763-.483c-.758.238-1.058,1.141-1.163,1.928a11.2,11.2,0,0,0,1.99,7.934c2.087,2.9,5.155,5.011,7.36,7.827a1.011,1.011,0,0,0,.111-.072c-.6,2.079-1.274,4.141-1.955,6.185a23.946,23.946,0,0,0-3.194-7.317,6.586,6.586,0,0,0-2.9-2.452,3.1,3.1,0,0,0-3.5.824,3.258,3.258,0,0,0-.546,2.134c.14,2.4,1.932,4.325,3.619,6.03s3.327,3.522,5.087,5.159c-.078.247-.158.494-.234.74q-1.66,5.368-3.176,10.788a41.132,41.132,0,0,0-.884-6.255,24.289,24.289,0,0,0-5.557-11.254,8.844,8.844,0,0,0-4.118-2.747,1.9,1.9,0,0,0-1.89.323,2.015,2.015,0,0,0-.422,1,9.353,9.353,0,0,0,1.737,6.524c1.952,3.068,4.669,5.519,7.061,8.235a20.361,20.361,0,0,1,3.734,5.384q-1.541,5.617-2.839,11.292a42.838,42.838,0,0,0-2.438-11.925c-1.06-3.178-3.018-6.518-6.284-7.26a3.143,3.143,0,0,0-1.449-.038c-1.485.369-2.137,2.184-1.984,3.706a9.5,9.5,0,0,0,2.573,5.166c1.293,1.467,2.816,2.714,4.146,4.148a24.43,24.43,0,0,1,4.885,8.7q-.951,4.409-1.733,8.858a34.058,34.058,0,0,0-1.407-4.745,23.525,23.525,0,0,0-5.445-8.487c-.814-.807-1.88-1.608-3-1.357a3.075,3.075,0,0,0-1.952,2.1,8.149,8.149,0,0,0,.89,7.329,16.073,16.073,0,0,0,3.575,3.424l4.061,3.155a10.946,10.946,0,0,1,2.586,2.807q-.757,4.931-1.257,9.894a29.084,29.084,0,0,0-1.029-4.021,15.653,15.653,0,0,0-5.161-7.614,3.952,3.952,0,0,0-2.961-.989,3.073,3.073,0,0,0-2.134,3.514,6.509,6.509,0,0,0,2.419,3.737,15.6,15.6,0,0,0,3.544,2.3,12.487,12.487,0,0,1,2.658,1.414,8.91,8.91,0,0,1,2.113,3.049c.115.229.231.461.349.693-.236,2.589-.445,5.212-.576,7.845a15.8,15.8,0,0,0-5.371-6.4c-1.36-.932-3.3-1.6-4.56-.529a2.509,2.509,0,0,0-.785,1.321c-.446,1.832.966,3.65,2.62,4.554s3.569,1.209,5.286,1.986c.985.446,1.813,1.562,2.7,2.11a75.548,75.548,0,0,0,.608,12.406.918.918,0,0,0,1.829-.151c.11-3.157.167-6.3.239-9.447,1.58.011,7.468-1.467,8.4-1.638,1.486-.272,3.043-1.223,3.252-2.72a3.1,3.1,0,0,0-2.437-3.165,6.039,6.039,0,0,0-4.207.775,20.925,20.925,0,0,0-4.95,4.511c.088-3.226.215-6.451.448-9.679a11.956,11.956,0,0,1,2.566-1.2c1.467-.393,3.025-.354,4.483-.776s2.9-1.526,3-3.042c.108-1.809-1.886-3.2-3.691-3.062a7.293,7.293,0,0,0-4.561,2.71c-.386.424-.947,1.016-1.477,1.68.026-.263.045-.526.074-.789.155-1.432.332-2.86.52-4.288,1.957-.463,4.2-2.225,6.109-3.07,1.8-.795,3.734-1.531,4.985-3.049s1.438-4.125-.183-5.242c-1.469-1.012-3.513-.293-4.949.766a21.478,21.478,0,0,0-5.372,6.416q.687-4.539,1.555-9.047c2.915-1.831,8.046-1.342,10.8-4.1,1.113-1.115,2.227-3.529.742-4.919-1.169-1.094-3.518-.1-4.776.356a14.15,14.15,0,0,0-5.99,4.748q.363-1.772.748-3.541c.33-1.516.678-3.029,1.032-4.54a26.879,26.879,0,0,1,5.2-2.223c2.631-.756,5.639-1.018,6.541-4.183.826-2.895-.375-7.537-4.027-5.529-2.052,1.129-4.687,3.934-6.483,6.872q1.094-4.337,2.3-8.644c1.958-.651,3.4-1.726,6.477-2.076,2.491-.285,6.039.526,7.154-2.241C4932.144,3731.288,4929.5,3728.622,4926.337,3729.572Z" transform="translate(-4853.655 -3684.734)" fill="#ffda32"/>
      <g id="Group_35801" data-name="Group 35801" transform="translate(32.833 73.109)">
        <path id="Path_37973" data-name="Path 37973" d="M4885.884,3891.438s-13.4-20.867-5.789-50.568c0,0,21.933,4.875,29.244,50.568Z" transform="translate(-4877.755 -3840.87)" fill="#00b256"/>
        <path id="Path_37974" data-name="Path 37974" d="M4906.317,3911.5s-5.726-27.416-8.925-32.9c0,0,9.625,17.363,11.057,32.9Z" transform="translate(-4888.197 -3860.936)" fill="#00663e"/>
      </g>
      <g id="Group_35802" data-name="Group 35802" transform="translate(54.561 73.504)">
        <path id="Path_37975" data-name="Path 37975" d="M4947.615,3892.281s13.4-20.866,5.788-50.567c0,0-21.932,4.874-29.243,50.567Z" transform="translate(-4924.159 -3841.714)" fill="#00b256"/>
        <path id="Path_37976" data-name="Path 37976" d="M4950.5,3912.346s5.725-27.416,8.924-32.9c0,0-9.624,17.363-11.058,32.9Z" transform="translate(-4937.03 -3861.78)" fill="#00663e"/>
      </g>
      <g id="Group_35803" data-name="Group 35803" transform="translate(73.129 58.887)">
        <path id="Path_37977" data-name="Path 37977" d="M4994.05,3875.681s17.278-26.9,7.46-65.184c0,0-28.272,6.283-37.7,65.184Z" transform="translate(-4963.814 -3810.497)" fill="#aaff6e"/>
        <path id="Path_37978" data-name="Path 37978" d="M4997.762,3901.546s7.381-35.34,11.5-42.409c0,0-12.407,22.382-14.253,42.409Z" transform="translate(-4980.405 -3836.363)" fill="#00663e"/>
      </g>
      <g id="Group_35804" data-name="Group 35804" transform="translate(0 58.887)">
        <path id="Path_37979" data-name="Path 37979" d="M4818.112,3875.681s-17.278-26.9-7.461-65.184c0,0,28.272,6.283,37.7,65.184Z" transform="translate(-4807.633 -3810.497)" fill="#aaff6e"/>
        <path id="Path_37980" data-name="Path 37980" d="M4844.452,3901.546s-7.382-35.34-11.5-42.409c0,0,12.406,22.382,14.253,42.409Z" transform="translate(-4821.094 -3836.363)" fill="#00663e"/>
      </g>
    </g>
    <g id="Group_35807" data-name="Group 35807" transform="translate(4542.544 2996.021)">
      <circle id="Ellipse_233" data-name="Ellipse 233" cx="56.87" cy="56.87" r="56.87" transform="translate(0 80.426) rotate(-45)" fill="#faf9f9"/>
      <circle id="Ellipse_234" data-name="Ellipse 234" cx="32.809" cy="32.809" r="32.809" transform="translate(47.617 47.616)" fill="#3c415e"/>
      <path id="Path_37981" data-name="Path 37981" d="M5682.529,3933.479a2.188,2.188,0,0,1-1.547-3.734l8.6-8.6a2.187,2.187,0,0,1,3.093,3.093l-8.6,8.6A2.18,2.18,0,0,1,5682.529,3933.479Z" transform="translate(-5637.1 -3791.808)" fill="#ff666a"/>
      <path id="Path_37982" data-name="Path 37982" d="M5822.168,3933.4a2.183,2.183,0,0,1-1.547-.641l-8.667-8.668a2.187,2.187,0,0,1,3.092-3.093l8.668,8.668a2.188,2.188,0,0,1-1.546,3.734Z" transform="translate(-5706.746 -3791.734)" fill="#ff666a"/>
      <path id="Path_37983" data-name="Path 37983" d="M5841.794,3721.913a2.187,2.187,0,0,1-1.546-3.733l6.562-6.562a2.187,2.187,0,0,1,3.093,3.093l-6.562,6.562A2.179,2.179,0,0,1,5841.794,3721.913Z" transform="translate(-5721.791 -3680.39)" fill="#fcc072"/>
      <path id="Path_37984" data-name="Path 37984" d="M5665.3,3721.913a2.179,2.179,0,0,1-1.546-.641l-6.562-6.562a2.187,2.187,0,0,1,3.093-3.093l6.563,6.563a2.187,2.187,0,0,1-1.547,3.733Z" transform="translate(-5624.448 -3680.39)" fill="#fcc072"/>
      <path id="Path_37985" data-name="Path 37985" d="M5690.2,3809.109a61.244,61.244,0,1,1,61.244-61.244A61.314,61.314,0,0,1,5690.2,3809.109Zm0-113.739a52.5,52.5,0,1,0,52.5,52.5A52.555,52.555,0,0,0,5690.2,3695.37Z" transform="translate(-5609.775 -3667.439)" fill="#ffda32"/>
      <g id="Group_35806" data-name="Group 35806" transform="translate(30.118 29.854)">
        <path id="Path_37986" data-name="Path 37986" d="M5757.271,3709.412a2.186,2.186,0,0,0-2.187,2.187v2.188a2.188,2.188,0,0,0,4.375,0V3711.6A2.185,2.185,0,0,0,5757.271,3709.412Z" transform="translate(-5706.963 -3709.412)" fill="#fb7668"/>
        <path id="Path_37987" data-name="Path 37987" d="M5757.271,3910.281a2.186,2.186,0,0,0-2.187,2.187v2.188a2.188,2.188,0,0,0,4.375,0v-2.187A2.185,2.185,0,0,0,5757.271,3910.281Z" transform="translate(-5706.963 -3816.228)" fill="#fb7668"/>
        <path id="Path_37988" data-name="Path 37988" d="M5857.557,3812.182h-2.187a2.187,2.187,0,1,0,0,4.375h2.187a2.187,2.187,0,1,0,0-4.375Z" transform="translate(-5759.128 -3764.062)" fill="#fb7668"/>
        <path id="Path_37989" data-name="Path 37989" d="M5656.688,3812.182H5654.5a2.187,2.187,0,1,0,0,4.375h2.187a2.187,2.187,0,1,0,0-4.375Z" transform="translate(-5652.313 -3764.062)" fill="#fb7668"/>
        <path id="Path_37990" data-name="Path 37990" d="M5826.635,3740.15l-1.546,1.546a2.187,2.187,0,1,0,3.092,3.092l1.547-1.546a2.187,2.187,0,0,0-3.094-3.092Z" transform="translate(-5743.849 -3725.417)" fill="#fb7668"/>
        <path id="Path_37991" data-name="Path 37991" d="M5684.6,3882.189l-1.546,1.546a2.187,2.187,0,1,0,3.093,3.093l1.546-1.546a2.187,2.187,0,0,0-3.093-3.093Z" transform="translate(-5668.32 -3800.948)" fill="#fb7668"/>
        <path id="Path_37992" data-name="Path 37992" d="M5828.182,3882.188a2.187,2.187,0,0,0-3.092,3.092l1.546,1.546a2.187,2.187,0,1,0,3.094-3.093Z" transform="translate(-5743.849 -3800.948)" fill="#fb7668"/>
        <path id="Path_37993" data-name="Path 37993" d="M5686.15,3740.15a2.187,2.187,0,0,0-3.093,3.092l1.546,1.546a2.187,2.187,0,0,0,3.093-3.092Z" transform="translate(-5668.32 -3725.417)" fill="#fb7668"/>
      </g>
      <path id="Path_37994" data-name="Path 37994" d="M5703.7,3780.158a2.185,2.185,0,0,0,2.188,2.187h15.621a8.731,8.731,0,1,0,10.627-10.626v-22.184a2.188,2.188,0,1,0-4.375,0v22.184a8.734,8.734,0,0,0-6.252,6.251h-15.621A2.187,2.187,0,0,0,5703.7,3780.158Zm21.873,0a4.375,4.375,0,1,1,4.374,4.374A4.379,4.379,0,0,1,5725.574,3780.158Z" transform="translate(-5649.521 -3699.731)" fill="#fb7668"/>
      <path id="Path_37995" data-name="Path 37995" d="M5855.795,3685.779a15.577,15.577,0,0,1,0,22.028l-22.031-22.028A15.579,15.579,0,0,1,5855.795,3685.779Z" transform="translate(-5718.685 -3664.565)" fill="#ff666a"/>
      <path id="Path_37996" data-name="Path 37996" d="M5633.521,3685.779a15.576,15.576,0,0,0,0,22.028l22.028-22.028A15.576,15.576,0,0,0,5633.521,3685.779Z" transform="translate(-5609.776 -3664.565)" fill="#ff666a"/>
    </g>
    <g id="Group_35809" data-name="Group 35809" transform="translate(4587.987 2860.644)">
      <path id="Path_37997" data-name="Path 37997" d="M5754.608,3429.327c-.248.113-1.045-5.206-1.045-5.206h-7.181v5.319Z" transform="translate(-5717.661 -3392.474)" fill="#fccb95"/>
      <path id="Path_37998" data-name="Path 37998" d="M5689.564,3356.534s-3.724,2.66-4.521,8.777C5685.043,3365.311,5690.894,3366.639,5689.564,3356.534Z" transform="translate(-5685.043 -3356.534)" fill="#fcc072"/>
      <path id="Path_37999" data-name="Path 37999" d="M5739.572,3521.81l-3.191,27.923,14.361,42.019h-7.181l-16.631-35.782a9.889,9.889,0,0,1-.921-4.167l-1.329-10.846-2.926,12.233,1.6,38.561h-6.382l-7.712-42.04a11.339,11.339,0,0,1,.419-5.7l7.558-22.2Z" transform="translate(-5697.82 -3444.422)" fill="#3c415e"/>
      <path id="Path_38000" data-name="Path 38000" d="M5740.291,3472.279h-26.859l2.925-29.253-11.436-5.053,7.181-9.308,18.309,2.538a10.252,10.252,0,0,1,8.838,9.813Z" transform="translate(-5695.613 -3394.891)" fill="#fb7668"/>
      <path id="Path_38001" data-name="Path 38001" d="M5744.836,3407.653s-3.723-1.862-5.053-3.458,1.862-9.307,5.053-11.169,8.511-2.127,8.511,1.063,2.659,8.51,0,9.84S5749.889,3407.918,5744.836,3407.653Z" transform="translate(-5713.988 -3375.208)" fill="#ffe1bd"/>
      <path id="Path_38002" data-name="Path 38002" d="M5752.1,3385.915s-4.255-5.319-1.6-10.637a6.418,6.418,0,0,0,4.521,3.457c3.457.8,7.41,1.562,8.776,5.319,2.127,5.851,2.254,12.518-9.308,14.1,0,0,4.787-4.255,3.723-7.181S5753.958,3387.51,5752.1,3385.915Z" transform="translate(-5719.387 -3366.501)" fill="#3c415e"/>
      <path id="Path_38003" data-name="Path 38003" d="M5715.36,3374.352l-25.8-17.818s-1.33,7.181-4.521,8.777Z" transform="translate(-5685.043 -3356.534)" fill="#ffd200"/>
      <g id="Group_35808" data-name="Group 35808" transform="translate(3.148 5.319)">
        <path id="Path_38004" data-name="Path 38004" d="M5691.775,3398.39l2.069-25.081-.01,0c.006-.04.014-.077.02-.118l.014-.164.014.005c.725-4.191,2.466-5.136,3.247-5.136a3.12,3.12,0,0,1,2.394,2.66c.249,1.494-1.491,4.076-1.716,4.4l.119,20.067,7.181,1.33-6.382,8.244-3.561-1.187A4.97,4.97,0,0,1,5691.775,3398.39Z" transform="translate(-5691.766 -3367.893)" fill="#ffe1bd"/>
        <path id="Path_38005" data-name="Path 38005" d="M5725.31,3387.31l1.192,19.747-6.244-.866.98-19.788Z" transform="translate(-5706.917 -3377.736)" fill="#ffe1bd"/>
      </g>
      <path id="Path_38006" data-name="Path 38006" d="M5781.318,3671.183h-7.181l-7.106,5.57a1.2,1.2,0,0,0,.739,2.142h12.348a1.2,1.2,0,0,0,1.2-1.2Z" transform="translate(-5728.396 -3523.854)" fill="#3c415e"/>
      <path id="Path_38007" data-name="Path 38007" d="M5722.854,3671.183h-6.382l-7.825,5.535a1.2,1.2,0,0,0,.692,2.177h12.315a1.2,1.2,0,0,0,1.2-1.2Z" transform="translate(-5697.325 -3523.854)" fill="#3c415e"/>
    </g>
    <path id="Path_38008" data-name="Path 38008" d="M4821.169,3244.614l4.4-3.275a27.284,27.284,0,0,0-8.4-8.4l-3.276,4.4a21.57,21.57,0,0,0-6.123-2.539l.795-5.433a26.611,26.611,0,0,0-11.875,0l.8,5.433a21.552,21.552,0,0,0-6.123,2.539l-3.276-4.4a27.283,27.283,0,0,0-8.395,8.4l4.4,3.275a21.558,21.558,0,0,0-2.539,6.123l-5.433-.795a26.628,26.628,0,0,0,0,11.875l5.433-.795a21.552,21.552,0,0,0,2.539,6.123l-4.4,3.275a27.289,27.289,0,0,0,8.395,8.4l3.276-4.4a21.538,21.538,0,0,0,6.123,2.539l-.8,5.433a26.63,26.63,0,0,0,11.875,0l-.795-5.433a21.556,21.556,0,0,0,6.123-2.539l3.276,4.4a27.286,27.286,0,0,0,8.4-8.4l-4.4-3.275a21.539,21.539,0,0,0,2.539-6.123l5.433.795a26.628,26.628,0,0,0,0-11.875l-5.433.795A21.545,21.545,0,0,0,4821.169,3244.614Zm-18.538,25.692a14.426,14.426,0,1,1,14.427-14.426A14.427,14.427,0,0,1,4802.631,3270.305Z" transform="translate(-613.366 -427.911)" fill="#738598" opacity="0.1"/>
    <g id="Group_35811" data-name="Group 35811" transform="translate(4222.96 2649.622)" opacity="0.1">
      <g id="Group_35810" data-name="Group 35810" transform="translate(0)">
        <rect id="Rectangle_1326" data-name="Rectangle 1326" width="56.027" height="36.426" transform="translate(11.517 12.992) rotate(18.432)" fill="#3c415e"/>
        <path id="Path_38009" data-name="Path 38009" d="M4983.212,2936.564l-53.153-17.715,33.858-12.992Z" transform="translate(-4918.542 -2905.857)" fill="#3c415e"/>
        <rect id="Rectangle_1327" data-name="Rectangle 1327" width="44.851" height="37.886" transform="translate(17.568 12.028) rotate(18.433)" fill="#fff"/>
        <path id="Path_38010" data-name="Path 38010" d="M4916.979,2933.6l-11.518,34.558,31.928-7.2Z" transform="translate(-4905.462 -2920.612)" fill="#738598"/>
        <path id="Path_38011" data-name="Path 38011" d="M5006.393,2971.438l-11.518,34.557-21.224-24.915Z" transform="translate(-4941.722 -2940.73)" fill="#738598"/>
        <path id="Path_38012" data-name="Path 38012" d="M4958.615,3010.367l-53.153-17.715,33.858-12.993Z" transform="translate(-4905.462 -2945.102)" fill="#3c415e"/>
      </g>
      <path id="Path_38013" data-name="Path 38013" d="M4905.461,2992.246l8.415-3.38,8.435-3.323,8.45-3.287,8.456-3.272.222-.087.127.2,4.8,7.69c1.6,2.567,3.21,5.121,4.789,7.7l4.755,7.72,4.7,7.752-4.944-7.6-4.892-7.634c-1.637-2.54-3.238-5.1-4.858-7.655l-4.845-7.663.349.116-8.474,3.224-8.48,3.209-8.494,3.173Z" transform="translate(-4905.461 -2944.697)" fill="#3c415e"/>
    </g>
    <g id="Group_35814" data-name="Group 35814" transform="translate(4537.007 2648.869)" opacity="0.1">
      <g id="Group_35812" data-name="Group 35812" transform="translate(0 42.021)">
        <path id="Path_38014" data-name="Path 38014" d="M5583.839,2997.829a3.837,3.837,0,1,1-3.834-3.836A3.837,3.837,0,0,1,5583.839,2997.829Z" transform="translate(-5576.164 -2993.993)" fill="#738598"/>
      </g>
      <g id="Group_35813" data-name="Group 35813" transform="translate(0)">
        <path id="Path_38015" data-name="Path 38015" d="M5576.164,2970.17a16.057,16.057,0,0,1,16.038,16.038h5.251a21.313,21.313,0,0,0-21.289-21.289Z" transform="translate(-5576.164 -2936.511)" fill="#738598"/>
        <path id="Path_38016" data-name="Path 38016" d="M5576.164,2940.11a29.747,29.747,0,0,1,29.714,29.712h6a35.753,35.753,0,0,0-35.715-35.712Z" transform="translate(-5576.164 -2920.129)" fill="#738598"/>
        <path id="Path_38017" data-name="Path 38017" d="M5576.164,2910.711a43.283,43.283,0,0,1,43.235,43.233h6.462a49.752,49.752,0,0,0-49.7-49.694Z" transform="translate(-5576.164 -2904.25)" fill="#738598"/>
      </g>
    </g>
    <g id="Group_35817" data-name="Group 35817" transform="translate(4620.848 2744.799)" opacity="0.1">
      <g id="Group_35815" data-name="Group 35815" transform="translate(13.343 30.887)">
        <path id="Path_38018" data-name="Path 38018" d="M5835.391,3206.6v-11.34h-5.171a21.2,21.2,0,0,0-2.048-4.928l3.661-3.66-8.018-8.021-3.662,3.662a21.287,21.287,0,0,0-4.928-2.047v-5.171h-11.341v5.171a21.224,21.224,0,0,0-4.929,2.047l-3.661-3.662-8.021,8.021,3.662,3.66a21.333,21.333,0,0,0-2.049,4.928h-5.171v11.34h5.171a21.3,21.3,0,0,0,2.049,4.928l-3.662,3.662,8.021,8.021,3.661-3.663a21.273,21.273,0,0,0,4.929,2.049v5.169h11.341v-5.169a21.336,21.336,0,0,0,4.928-2.049l3.662,3.663,8.018-8.021-3.661-3.662a21.168,21.168,0,0,0,2.048-4.928Zm-25.837,4.423a10.092,10.092,0,1,1,10.093-10.093A10.1,10.1,0,0,1,5809.554,3211.019Z" transform="translate(-5783.717 -3175.091)" fill="#738598"/>
      </g>
      <g id="Group_35816" data-name="Group 35816" transform="translate(0)">
        <path id="Path_38019" data-name="Path 38019" d="M5775.83,3142.924v-3.381a13.993,13.993,0,0,0,3.224-1.341l2.393,2.394,5.246-5.244-2.394-2.394a14.01,14.01,0,0,0,1.339-3.223h3.383v-7.421h-3.383a13.988,13.988,0,0,0-1.339-3.222l2.394-2.4-5.246-5.245-2.4,2.394a13.918,13.918,0,0,0-3.222-1.34v-3.381h-7.417v3.381a13.955,13.955,0,0,0-3.224,1.34l-2.395-2.394-5.247,5.245,2.4,2.394a14.033,14.033,0,0,0-1.34,3.223h-3.382v7.421h3.382a14.012,14.012,0,0,0,1.34,3.223l-2.4,2.394,5.247,5.244,2.395-2.394a13.98,13.98,0,0,0,3.224,1.341v3.381Zm-10.311-16.9a6.6,6.6,0,1,1,6.6,6.6A6.609,6.609,0,0,1,5765.52,3126.024Z" transform="translate(-5755.222 -3109.125)" fill="#738598"/>
      </g>
    </g>
    <g id="Group_35819" data-name="Group 35819" transform="translate(4632.785 2641.09)" opacity="0.1">
      <path id="Path_38020" data-name="Path 38020" d="M5780.716,2900.064l5.723,17.849h32.236l-5.724-17.849Z" transform="translate(-5780.716 -2894.245)" fill="#738598"/>
      <g id="Group_35818" data-name="Group 35818" transform="translate(5.723)">
        <path id="Path_38021" data-name="Path 38021" d="M5819.451,2892.389h.777l.237.742,4.709,14.684v-17.854H5799.7l-1.378-2.325h-5.387v4.752Z" transform="translate(-5792.938 -2887.636)" fill="#738598"/>
      </g>
    </g>
    <path id="Path_38022" data-name="Path 38022" d="M5297.811,2682.137l-29.312-45.543-28.8,45.543h16.234V2719.8h25.651v-37.665Z" transform="translate(-860.235 -113.05)" fill="#738598" opacity="0.1"/>
    <g id="Group_35820" data-name="Group 35820" transform="translate(4509.059 2549.927)" opacity="0.1">
      <path id="Path_38023" data-name="Path 38023" d="M5516.476,2722.364l34.068,17.283,29.445-46.706Z" transform="translate(-5516.476 -2692.941)" fill="#738598"/>
      <path id="Path_38024" data-name="Path 38024" d="M5594.888,2692.941l-50.394,36.078V2748.1l8.678-14.675Z" transform="translate(-5531.375 -2692.941)" fill="#04659b"/>
      <path id="Path_38025" data-name="Path 38025" d="M5594.888,2692.941l-50.394,36.078V2748.1l8.678-14.675Z" transform="translate(-5531.375 -2692.941)" fill="#3c415e"/>
    </g>
  </g>
</svg>
