<svg xmlns="http://www.w3.org/2000/svg" width="874.897" height="589.85" viewBox="0 0 874.897 589.85">
  <g id="Group_179" data-name="Group 179" transform="translate(0 0.5)">
    <g id="Group_35685" data-name="Group 35685" transform="translate(0 0)">
      <g id="Group_35651" data-name="Group 35651" transform="translate(0 251.659)">
        <path id="Path_37661" data-name="Path 37661" d="M-419.956,118.644c-3.779-5.525-15.117-19.127-12.376-25.253,5.9-13.183,52.864-22.687,96.255,28.318" transform="translate(563.459 179.079)" fill="#33a8f2"/>
        <path id="Path_37662" data-name="Path 37662" d="M-208.736,305.656c-46.958,5.988-102.393,10.856-146.848-14.572-29.457-16.843-5.281-40.507,21.061-39.487-33.237-3.992-75.427-30.027-84.693-64.277a14.667,14.667,0,0,1,10.468-17.788c3.191-.857,17.588,1.652,20.766,1.314-28.425-9.629-83.4-71.341-60.01-101.73,21.373-27.768,59.809,15.229,76.9,25.5-9.692-15.386-13.127-41.865,9.154-42.985,31.91-1.6,62.231,68.857,75.946,90.562.582-9.054-.144-33.024,7.9-37.266,17.294-9.129,75.308,19.966,78.974,110.584C-198.469,231.437-193.595,281.072-208.736,305.656Z" transform="translate(453.644 14.342)" fill="#33a8f2"/>
        <path id="Path_37663" data-name="Path 37663" d="M-342.674,307.8c-33.018-18.508-70.953-41.771-87.414-79.274-10.9-24.846,15.892-28.538,32.342-15.342-19.459-18.4-34.169-55.2-23.82-81.621a11.731,11.731,0,0,1,15.2-6.445c2.459.97,10.512,9.435,12.714,10.73-13.677-19.722-19.621-85.544,9.88-93.934,26.948-7.658,31.172,38.267,37.272,53,1.095-14.5,11.494-33.149,26.341-23.263,21.267,14.166,7.2,73.868,5.681,94.341,4.686-5.537,15.63-21.28,22.819-20.178,15.46,2.371,38.88,48.685-1.908,108.65C-300.74,265-321.238,299.223-342.674,307.8Z" transform="translate(564.156 -41.061)" fill="#33a8f2"/>
        <path id="Path_37664" data-name="Path 37664" d="M-365.278,251.93c-8.14-36.965-15.986-80.77,1.07-118,11.306-24.664,31.885-7.114,32.967,13.947.794-26.761,18.5-62.231,45.112-72.066a11.731,11.731,0,0,1,14.923,7.058c.907,2.484-.056,14.128.438,16.637,5.631-23.332,50.843-71.541,76.722-55.092,23.644,15.035-7.84,48.728-14.791,63.082,11.557-8.828,32.4-13.459,34.888,4.2,3.56,25.3-50.374,54.5-66.679,66.98,7.252-.181,26.291-2.478,30.246,3.623,8.509,13.121-10.5,61.411-82.409,70.828C-305.431,254.79-344.618,262.236-365.278,251.93Z" transform="translate(870.452 -41.052)" fill="#33a8f2"/>
      </g>
      <path id="Path_37665" data-name="Path 37665" d="M-326.4,88.517l1.307,10.142c-3.942-.213-6.82-1.608-8.115-3.2a3.055,3.055,0,0,1-.582-3.153C-332.96,89.937-329.619,88.911-326.4,88.517Z" transform="translate(1082.633 460.065)" fill="none"/>
      <g id="Group_35653" data-name="Group 35653" transform="translate(701.044 363.392)">
        <g id="Group_35652" data-name="Group 35652" transform="translate(0 133.34)">
          <path id="Path_37666" data-name="Path 37666" d="M-337.908,112.438c4.836,5.963,13.865,9.454,24.064,9.642l2.152,16.706h40.251l3.554-20.929c-12.22-.732-34.532-6.307-52.389-34.238-8.165,1.239-17.294,4.611-20.379,13.4A15.569,15.569,0,0,0-337.908,112.438Zm6.645-12.126c1.539-4.386,7.734-6.288,13.709-7.014l2.428,18.808c-7.314-.394-12.651-2.972-15.054-5.931A5.724,5.724,0,0,1-331.263,100.312Z" transform="translate(341.6 -62.415)" fill="#65b8e5"/>
          <path id="Path_37667" data-name="Path 37667" d="M-337.353,101.434c.482-.069.976-.163,1.452-.225l-2.434-18.877a1.864,1.864,0,0,1,1.846-2.1h58.477a2.084,2.084,0,0,1,2.052,2.428l-9,53.014C-297.185,134.94-319.5,129.365-337.353,101.434Z" transform="translate(358.677 -80.23)" fill="#a3d0ec"/>
        </g>
        <path id="Path_37668" data-name="Path 37668" d="M-319.774,184.419c5.813-3.091,11.356-14.228,13.646-19.377s2.959-11.319.419-16.349c-2.14-4.255-6.251-7.183-8.81-11.2a18.177,18.177,0,0,1-2.234-14.147c1.74-6.7,7.239-12.044,8.5-18.852,1.477-7.984-3.16-15.661-5.193-23.526A37.56,37.56,0,0,1-312.4,58.919c-5.675,3.372-9.066,9.454-12.195,15.26-2.859,5.306-5.8,10.975-5.387,16.981.263,3.779,1.84,7.314,3.166,10.862,2.4,6.42,4.035,13.465,2.327,20.1-2.59,10.036-12.476,17.882-12.088,28.237.231,6.138,4.211,11.581,9,15.417,3.122,2.5,6.732,4.586,8.922,7.934s2.265,8.578-1.12,10.705" transform="translate(367.933 -58.919)" fill="#f9fbff"/>
      </g>
      <g id="Group_35665" data-name="Group 35665" transform="translate(262.898 144.63)">
        <path id="Path_37669" data-name="Path 37669" d="M-344.482,30.464c4.655,10.8,8.222,21.236,9.955,31.966s2.328,21.661,4.993,32.2c2.359,9.31,6.295,18.145,10.524,26.767a5.74,5.74,0,0,1,.776,2.484c-.006,1.708-1.477,3.01-2.859,4.017-20.967,15.329-50.049,18.8-74.031,8.816" transform="translate(498.373 10.259)" fill="#0e77ff"/>
        <ellipse id="Ellipse_217" data-name="Ellipse 217" cx="20.668" cy="25.697" rx="20.668" ry="25.697" transform="translate(133.612 62.29)" fill="#65b8e5"/>
        <path id="Path_37670" data-name="Path 37670" d="M-361.382,66.226c-1.952,10.987-3.567,23.451,3.253,32.279,1.5,1.933,3.442,3.823,3.548,6.269.138,3.2-2.922,5.556-5.788,6.989a45.687,45.687,0,0,1-36.1,1.871,5.933,5.933,0,0,1-2.6-1.583c-1.458-1.808-.519-4.461.375-6.6a79.536,79.536,0,0,0-.632-62.156" transform="translate(473.697 77.709)" fill="#e8a17e"/>
        <path id="Path_37671" data-name="Path 37671" d="M-372.957,53.451c-1.908,7.715-3.16,15.142-2.315,23.038a.99.99,0,0,1-.137.776c-.25.269-.688.163-1.033.038a31.911,31.911,0,0,1-7.314-3.36c-3.748-2.553-8.159-7.252-10.086-11.356a33.653,33.653,0,0,1-3.491-17.469" transform="translate(486.248 87.287)" fill="#d88d6c"/>
        <path id="Path_37672" data-name="Path 37672" d="M-315.891,30.7c7.827,8.741,9.654,21.186,10.68,32.88.914,10.3,1.464,20.71.006,30.946s-5.056,20.366-11.675,28.312a43.335,43.335,0,0,1-9.748,8.634,24.922,24.922,0,0,1-8.184,3.648c-5.581,1.2-11.35-.407-16.781-2.165-12.37-4.011-25.109-9.435-32.748-19.959-9.955-13.721-16.531-49.823-19.115-66.573" transform="translate(454.579 11.515)" fill="#e8a17e"/>
        <path id="Path_37673" data-name="Path 37673" d="M-310.854,33.261a83.988,83.988,0,0,1-41.02,19.227c-8.747,1.439-17.663,1.477-26.529,1.289a45.539,45.539,0,0,1-9.892-.964,18.123,18.123,0,0,1-11.175-7.527c-2.44-3.9-2.766-9.241-.175-13.046" transform="translate(465.133 19.6)" fill="#d88d6c"/>
        <path id="Path_37674" data-name="Path 37674" d="M-357.213,31.073c22.062-10.662,54-8.453,70.052.732s22.7,17.407,31.078,36.553c.5,1.145,3.4,8.184,2.96,9.354a3.375,3.375,0,0,1-2.152,2.246c-19.828,7.565-37.259,8.929-58.452,9.98-7.058.35-14.222.363-21.086-1.308-9.723,32.561-4.655,55.9,11.531,85.775-10.536,4.442-51.506,7-71-8.1-5.024-3.9-9.617-8.5-12.676-14.084-7.752-14.147-4.424-31.6-.207-47.17,3.135-11.588,6.689-23.169,12.382-33.743,8.753-16.237,20.642-32.917,37.572-40.232" transform="translate(411.626 -23.956)" fill="#0e77ff"/>
        <path id="Path_37675" data-name="Path 37675" d="M-361.022,42.168c-1.608,4.974-3.46,9.554-7.859,12.376-4.361,2.791-10.192,2.465-14.885.269S-392.919,47.1-396.2,43.1c11.387,1.064,23.92,1.051,35.182-.932" transform="translate(492.701 71.785)" fill="#fff"/>
        <g id="Group_35654" data-name="Group 35654" transform="translate(111.195 81.37)">
          <path id="Path_37676" data-name="Path 37676" d="M-392.973,40.18a9.785,9.785,0,0,1,9.761-.088l1.057-1.558a11.572,11.572,0,0,0-11.7-.019Z" transform="translate(393.855 -36.96)" fill="#161119"/>
        </g>
        <g id="Group_35655" data-name="Group 35655" transform="translate(72.625 82.095)">
          <path id="Path_37677" data-name="Path 37677" d="M-400.02,39.046l4.927-.086V37.076h-4.668Z" transform="translate(400.02 -37.076)" fill="#161119"/>
        </g>
        <path id="Path_37678" data-name="Path 37678" d="M-389.819,38.018l5.967,18.281-9.394.762" transform="translate(508.25 49.969)" fill="#d88d6c"/>
        <g id="Group_35656" data-name="Group 35656" transform="translate(75.012 68.614)">
          <path id="Path_37679" data-name="Path 37679" d="M-374.855,39.754a11.8,11.8,0,0,0-1.182-.619c-.244-.113-.488-.225-.732-.325l.269.113q-.92-.385-1.877-.695a22.329,22.329,0,0,0-2.39-.619c-.519-.106-1.039-.194-1.564-.269l.3.044a22.621,22.621,0,0,0-4.555-.15c-.469.038-.938.081-1.4.144l.3-.038a22.285,22.285,0,0,0-4.511,1.095c-.45.156-.895.332-1.333.519l.269-.119a26.552,26.552,0,0,0-4.674,2.578,1.141,1.141,0,0,1-.87.113,1.146,1.146,0,0,1-.676-.519,1.14,1.14,0,0,1-.113-.87,1.269,1.269,0,0,1,.519-.676,26.476,26.476,0,0,1,7.546-3.616,23.428,23.428,0,0,1,6.776-.92,24.338,24.338,0,0,1,5.581.732,23.346,23.346,0,0,1,3.91,1.364,14.029,14.029,0,0,1,1.533.77l.019.013a1.219,1.219,0,0,1,.519.676,1.139,1.139,0,0,1-.119.87,1.094,1.094,0,0,1-.669.519,1.157,1.157,0,0,1-.876-.113Z" transform="translate(399.638 -34.922)" fill="#3e3244"/>
        </g>
        <g id="Group_35657" data-name="Group 35657" transform="translate(128.335 66.587)">
          <path id="Path_37680" data-name="Path 37680" d="M-389.247,41.595a10.339,10.339,0,0,1,1.051-.826c.219-.156.438-.313.663-.457l-.244.163c.557-.369,1.126-.707,1.714-1.02a21.477,21.477,0,0,1,2.24-1.051c.488-.2.989-.382,1.489-.544l-.288.094a22.6,22.6,0,0,1,4.449-.976q.7-.075,1.408-.113l-.3.013a23.017,23.017,0,0,1,4.636.257c.469.075.938.163,1.4.269l-.282-.063c1.74.382-.576,1.558,2.615.726.294-.075-2.083-3.078-4.868-3.354a23.4,23.4,0,0,0-6.833.325,24.452,24.452,0,0,0-5.356,1.733,24.075,24.075,0,0,0-3.6,2.058,12.885,12.885,0,0,0-1.364,1.039l-.012.013a1.2,1.2,0,0,0-.388.763,1.154,1.154,0,0,0,.269.832,1.119,1.119,0,0,0,.757.388,1.16,1.16,0,0,0,.838-.269Z" transform="translate(391.116 -34.598)" fill="#3e3244"/>
        </g>
        <path id="Path_37681" data-name="Path 37681" d="M-384.393,40.876s-5.462-7.834-13.458-1.114" transform="translate(484.038 44.827)" fill="none" stroke="#3e3244" stroke-miterlimit="10" stroke-width="5"/>
        <path id="Path_37682" data-name="Path 37682" d="M-376.911,40.606s-5.462-7.834-13.459-1.114" transform="translate(523.37 43.407)" fill="none" stroke="#3e3244" stroke-miterlimit="10" stroke-width="5"/>
        <circle id="Ellipse_218" data-name="Ellipse 218" cx="8.075" cy="8.075" r="8.075" transform="translate(76.763 94.634)" fill="#f27b53" opacity="0.45"/>
        <circle id="Ellipse_219" data-name="Ellipse 219" cx="6.806" cy="6.806" r="6.806" transform="translate(136.138 92.762)" fill="#f27b53" opacity="0.45"/>
        <g id="Group_35658" data-name="Group 35658" transform="translate(121.706 66.588)">
          <path id="Path_37683" data-name="Path 37683" d="M-392.175,52.443A17.867,17.867,0,0,1-374.324,34.6,17.862,17.862,0,0,1-356.48,52.443a17.867,17.867,0,0,1-17.845,17.851A17.872,17.872,0,0,1-392.175,52.443Zm2.059,0a15.816,15.816,0,0,0,15.792,15.792,15.811,15.811,0,0,0,15.786-15.792,15.805,15.805,0,0,0-15.786-15.786A15.811,15.811,0,0,0-390.117,52.443Z" transform="translate(392.175 -34.598)" fill="#161119"/>
        </g>
        <g id="Group_35659" data-name="Group 35659" transform="translate(76.813 66.588)">
          <path id="Path_37684" data-name="Path 37684" d="M-399.35,52.443A17.861,17.861,0,0,1-381.505,34.6a17.867,17.867,0,0,1,17.851,17.845,17.872,17.872,0,0,1-17.851,17.851A17.867,17.867,0,0,1-399.35,52.443Zm2.059,0a15.811,15.811,0,0,0,15.786,15.792,15.816,15.816,0,0,0,15.792-15.792,15.811,15.811,0,0,0-15.792-15.786A15.805,15.805,0,0,0-397.291,52.443Z" transform="translate(399.35 -34.598)" fill="#161119"/>
        </g>
        <g id="Group_35662" data-name="Group 35662" transform="translate(50.691 109.917)">
          <g id="Group_35660" data-name="Group 35660" transform="translate(55.735 21.151)">
            <ellipse id="Ellipse_220" data-name="Ellipse 220" cx="4.857" cy="6.211" rx="4.857" ry="6.211" transform="translate(0 9.668) rotate(-84.487)" fill="#161119"/>
          </g>
          <g id="Group_35661" data-name="Group 35661">
            <path id="Path_37685" data-name="Path 37685" d="M-352.382,69.066a62.215,62.215,0,0,0,8.4.244l-.106-2.678c-32.354,1.289-57.238-24.846-57.482-25.109l-1.958,1.833C-403.287,43.607-381.757,66.231-352.382,69.066Z" transform="translate(403.525 -41.523)" fill="#161119"/>
          </g>
        </g>
        <g id="Group_35664" data-name="Group 35664" transform="translate(30.452 1.318)">
          <g id="Group_35663" data-name="Group 35663" transform="translate(14.373)">
            <path id="Path_37686" data-name="Path 37686" d="M-299.382,86.3c-2.409-18.132-11.243-38.11-25.716-48.359-12.964-9.179-30.308-9.767-44.592-3.873C-382,39.144-390.15,50.463-394.167,63.652c-3.423,11.237-3.879,22.781-4.674,34.45-.263,3.854-5.875,3.879-5.612,0,.757-11.106,1.176-22.174,4-32.98,3.685-14.059,11.225-26.967,23.438-34.031,14.541-8.409,33.806-9.3,48.822-1.9,12.213,6.025,21.142,17.769,26.811,30.609a92.812,92.812,0,0,1,7.4,24.89c.507,3.8-4.9,5.437-5.406,1.608Z" transform="translate(404.462 -24.166)" fill="#65b8e5"/>
          </g>
          <ellipse id="Ellipse_221" data-name="Ellipse 221" cx="20.668" cy="25.697" rx="20.668" ry="25.697" transform="translate(0 67.618)" fill="#65b8e5"/>
        </g>
      </g>
      <g id="Group_35669" data-name="Group 35669" transform="translate(92.349 68.951)">
        <g id="Group_35668" data-name="Group 35668" transform="translate(0)">
          <rect id="Rectangle_1319" data-name="Rectangle 1319" width="181.765" height="121.783" rx="2.833" transform="translate(181.765 121.783) rotate(-180)" fill="#f9fbff" stroke="#0e77ff" stroke-width="1"/>
          <g id="Group_35667" data-name="Group 35667" transform="translate(66.929 19.646)">
            <g id="Group_35666" data-name="Group 35666">
              <path id="Path_37687" data-name="Path 37687" d="M-403.576,15a26.222,26.222,0,0,0-13.176,3.128,21.855,21.855,0,0,0-8.321,8,22.386,22.386,0,0,0-3.151,9.936,1.911,1.911,0,0,0,.636,1.677,2.425,2.425,0,0,0,1.711.7h4.59a2.748,2.748,0,0,0,1.761-.644,2.93,2.93,0,0,0,1.013-1.733q1.482-6.044,5.331-8.966a15.428,15.428,0,0,1,9.606-2.922,17.249,17.249,0,0,1,10.236,3.028,9.553,9.553,0,0,1,4.268,8.215,11.62,11.62,0,0,1-2.187,7.076,45.222,45.222,0,0,1-6.666,6.864q-3.521,3.238-5.6,5.506a21.073,21.073,0,0,0-3.571,5.569,18.211,18.211,0,0,0-1.495,7.621v2.265a2.818,2.818,0,0,0,.853,2.052,2.746,2.746,0,0,0,2.026.863h3.947a2.757,2.757,0,0,0,2.026-.863,2.823,2.823,0,0,0,.859-2.052V68.809a13.017,13.017,0,0,1,2.236-7.777,44.009,44.009,0,0,1,6.826-7.133,58.1,58.1,0,0,0,5.5-5.243,20.731,20.731,0,0,0,3.515-5.619,18.8,18.8,0,0,0,1.446-7.615,18.338,18.338,0,0,0-3.151-10.43,21.212,21.212,0,0,0-8.636-7.346A28.289,28.289,0,0,0-403.576,15Zm5.757,73.8V82.643a2.818,2.818,0,0,0-.852-2.052,2.767,2.767,0,0,0-2.026-.863h-6.085a2.747,2.747,0,0,0-2.026.863,2.818,2.818,0,0,0-.852,2.052V88.8a2.832,2.832,0,0,0,.852,2.059,2.747,2.747,0,0,0,2.026.863h6.085a2.767,2.767,0,0,0,2.026-.863A2.832,2.832,0,0,0-397.819,88.8Z" transform="translate(428.238 -15)" fill="#0e77ff" stroke="#0e77ff" stroke-width="1"/>
            </g>
          </g>
        </g>
      </g>
      <g id="Group_35675" data-name="Group 35675" transform="translate(418.216 0)">
        <path id="Path_37688" data-name="Path 37688" d="M-368.72.84h142.005a18.083,18.083,0,0,1,18.083,18.082v83.21a18.083,18.083,0,0,1-18.083,18.082H-327.438L-365.6,147.3V120.214h-3.122A18.083,18.083,0,0,1-386.8,102.132V18.922A18.083,18.083,0,0,1-368.72.84Z" transform="translate(386.803 -0.84)" fill="#fff" stroke="#0e77ff" stroke-width="1"/>
        <g id="Group_35674" data-name="Group 35674" transform="translate(17.298 13.69)">
          <path id="Path_37689" data-name="Path 37689" d="M-361.312,3.028" transform="translate(503.507 -3.028)" fill="#0e77ff"/>
          <g id="Group_35670" data-name="Group 35670" transform="translate(0 17.131)">
            <path id="Path_37690" data-name="Path 37690" d="M-382.666,5.766h140.823a1.427,1.427,0,0,1,0,2.853H-382.666a1.428,1.428,0,0,1,0-2.853Z" transform="translate(384.038 -5.766)" fill="#0e77ff"/>
          </g>
          <g id="Group_35671" data-name="Group 35671" transform="translate(0 35.695)">
            <path id="Path_37691" data-name="Path 37691" d="M-382.666,8.733h140.823a1.424,1.424,0,0,1,0,2.847H-382.666a1.424,1.424,0,0,1,0-2.847Z" transform="translate(384.038 -8.733)" fill="#0e77ff"/>
          </g>
          <g id="Group_35672" data-name="Group 35672" transform="translate(42.066 54.253)">
            <path id="Path_37692" data-name="Path 37692" d="M-375.938,11.7h98.752a1.424,1.424,0,0,1,0,2.847h-98.752a1.424,1.424,0,0,1,0-2.847Z" transform="translate(377.315 -11.699)" fill="#0e77ff"/>
          </g>
          <g id="Group_35673" data-name="Group 35673" transform="translate(42.066 72.811)">
            <path id="Path_37693" data-name="Path 37693" d="M-375.938,14.665h98.752a1.424,1.424,0,0,1,0,2.847h-98.752a1.424,1.424,0,0,1,0-2.847Z" transform="translate(377.315 -14.665)" fill="#0e77ff"/>
          </g>
        </g>
      </g>
      <g id="Group_35681" data-name="Group 35681" transform="translate(499.111 149.676)">
        <path id="Path_37694" data-name="Path 37694" d="M-362.124,24.762h92.251a11.751,11.751,0,0,1,11.744,11.75V90.565a11.751,11.751,0,0,1-11.744,11.75h-65.434L-360.1,119.91V102.316h-2.027a11.752,11.752,0,0,1-11.75-11.75V36.512A11.752,11.752,0,0,1-362.124,24.762Z" transform="translate(373.874 -24.762)" fill="#fff" stroke="#0e77ff" stroke-width="1"/>
        <g id="Group_35680" data-name="Group 35680" transform="translate(11.238 8.891)">
          <path id="Path_37695" data-name="Path 37695" d="M-357.314,26.183" transform="translate(449.689 -26.183)" fill="#0e77ff"/>
          <g id="Group_35676" data-name="Group 35676" transform="translate(0 11.137)">
            <path id="Path_37696" data-name="Path 37696" d="M-371.184,27.963H-279.7a.923.923,0,0,1,0,1.846h-91.481a.923.923,0,0,1,0-1.846Z" transform="translate(372.078 -27.963)" fill="#0e77ff"/>
          </g>
          <g id="Group_35677" data-name="Group 35677" transform="translate(0 23.188)">
            <path id="Path_37697" data-name="Path 37697" d="M-371.184,29.889H-279.7a.927.927,0,0,1,0,1.852h-91.481a.927.927,0,0,1,0-1.852Z" transform="translate(372.078 -29.889)" fill="#0e77ff"/>
          </g>
          <g id="Group_35678" data-name="Group 35678" transform="translate(27.328 35.245)">
            <path id="Path_37698" data-name="Path 37698" d="M-366.814,31.816h64.152a.927.927,0,0,1,0,1.852h-64.152a.927.927,0,0,1,0-1.852Z" transform="translate(367.71 -31.816)" fill="#0e77ff"/>
          </g>
          <g id="Group_35679" data-name="Group 35679" transform="translate(27.328 47.302)">
            <path id="Path_37699" data-name="Path 37699" d="M-366.814,33.743h64.152a.927.927,0,0,1,0,1.852h-64.152a.927.927,0,0,1,0-1.852Z" transform="translate(367.71 -33.743)" fill="#0e77ff"/>
          </g>
        </g>
      </g>
      <g id="Group_35682" data-name="Group 35682" transform="translate(188.832 320.845)">
        <path id="Path_37700" data-name="Path 37700" d="M-328,53.327c-27.067,1.145-56.355,9.316-76.171,27.793a13.892,13.892,0,0,0-4.054,5.45c-1.07,3.172.025,6.62,1.039,9.811A200.192,200.192,0,0,1-405.4,210.774c-2.766,9.742-6.288,19.371-7.239,29.451s1.051,21,8.021,28.344a37.937,37.937,0,0,0,10.643,7.477c21.668,10.95,47.108,10.543,71.366,9.535,14.96-.619,30.064-1.4,44.461-5.493s28.225-11.826,36.971-23.97c9.029-12.532,11.851-28.45,13-43.848,2.6-34.976-2.14-70.052-2.8-105.115-.194-10.2.019-20.71,4-30.108-18.483-12.776-40.569-20.541-62.606-24.927-4.73,6.3-11.375,9.173-19.246,9.573S-322.651,59.114-328,53.327" transform="translate(479.213 -52.119)" fill="#a3d0ec"/>
        <path id="Path_37701" data-name="Path 37701" d="M-407.394,170.457c.876-10.086-6.282-21.749-3.729-31.491,6.482-24.758,18.7-48.841,16.074-74.413,5.556,2.784,10.593,6.47,13.459,11.957,2.352,4.517,2.96,9.767,3.016,14.885.113,10.217-1.789,20.354-2.2,30.565s.876,20.973,6.626,29.332c6.638,9.654,18.082,14.522,29.245,17.513a221.933,221.933,0,0,0,22.844,4.6c8.816,1.4,17.788,2.559,26.642,1.42S-277.721,170-271.9,163.087c9.223-10.968,8.947-26.892,10.606-41.258A129.069,129.069,0,0,1-247.35,76.642c2.209-4.192,4.805-8.422,8.8-10.881l.031-.019c1.37,25.609,16.193,52.5,14.434,78.048-1.057,15.4-16.631,30.027-24.965,42.553-8.078,12.151-20.848,19.884-34.144,23.976s-27.249,4.868-41.057,5.494c-22.4,1.007-45.894,1.414-65.9-9.535a35.312,35.312,0,0,1-9.83-7.477C-406.418,191.449-408.27,180.537-407.394,170.457Z" transform="translate(485.432 13.25)" fill="#65b8e5"/>
        <path id="Path_37702" data-name="Path 37702" d="M-334.841,54.992c-8.359,37.166-1.157,81.02,8.127,117.967,2.759,10.975,2.177,23.006-1.758,28.588-4.073,5.781-11.1,9.229-17.519,12.188-14.923,6.876-25.29,14.991-36.684,26.836-4.561,4.743-8.747,10.092-10.718,16.374s-1.4,13.665,2.8,18.733c4.017,4.849,10.649,6.858,16.943,6.851s12.432-1.752,18.564-3.185a194.907,194.907,0,0,1,31.234-4.68c9.1-.619,18.358-.613,27.111-3.178,12.457-3.648,23.157-12.514,29.714-23.713a62.2,62.2,0,0,0,7.746-37.5,129.716,129.716,0,0,0-4.261-20.41c-7.477-27.83-17.782-52.195-27.224-79.418-3.867-11.143-10.968-23.72-17.775-33.349s-14.673-20.116-26.3-22.1" transform="translate(575.814 -37.016)" fill="#a3d0ec"/>
        <path id="Path_37703" data-name="Path 37703" d="M-383.867,89.841S-358.99,83.665-349.68,89s23.444,13.114,23.025,23.019l.006,4.061s-66.7,1.946-72.116-4.061" transform="translate(553.305 130.338)" fill="#e8a17e"/>
        <path id="Path_37704" data-name="Path 37704" d="M-328.358,54.545c-12.207,1.414-25.553,15.636-34,27.937s-14.2,26.2-19.878,40l-31.916,77.466c-3.3,8.009-6.613,16.08-8.215,24.589a63.633,63.633,0,0,0-.357,21.449c.9,5.819,2.684,11.65,6.326,16.274,5.143,6.545,13.264,9.873,21.042,12.833,16.418,6.238,33.261,12.095,50.787,13.3a196.264,196.264,0,0,0,20.754-.031c19.1-.694,38.292-1.4,57.094-4.887a8.691,8.691,0,0,0,3.842-1.383,8.9,8.9,0,0,0,2.353-3.51l5.669-12.4c1.057-2.309,2.14-4.743,1.933-7.27-.269-3.4-2.766-6.151-5.268-8.466a83.666,83.666,0,0,0-22.493-14.866c-16.937-7.6-36.284-9.5-52.2-19.065a24.687,24.687,0,0,1-5.349-4.073c-5.869-6.232-5.519-16.262-2.228-24.158s5.594-15.436,8.829-23.363c7.183-17.619,10.774-29.119,11.168-44.18.563-21.442-1.045-45.869-7.89-66.2" transform="translate(423.464 -39.366)" fill="#a3d0ec"/>
      </g>
      <rect id="Rectangle_1320" data-name="Rectangle 1320" width="864.392" height="16.248" rx="1.248" transform="translate(874.897 589.35) rotate(-180)" fill="#33a8f2"/>
      <g id="Group_35684" data-name="Group 35684" transform="translate(242.607 393.396)">
        <rect id="Rectangle_1321" data-name="Rectangle 1321" width="303.383" height="7.547" rx="0.206" transform="translate(303.383 179.707) rotate(-180)" fill="#0e77ff"/>
        <path id="Path_37705" data-name="Path 37705" d="M-387.659,243.421h258.833l12.5-179.707H-369.97Z" transform="translate(557.913 -63.714)" fill="#0e77ff"/>
        <g id="Group_35683" data-name="Group 35683" transform="translate(179.055)">
          <path id="Path_37706" data-name="Path 37706" d="M-386.252,243.421H-127.42l12.5-179.707H-368.564Z" transform="translate(386.252 -63.714)" fill="#f9fbff"/>
          <circle id="Ellipse_222" data-name="Ellipse 222" cx="15.456" cy="15.456" r="15.456" transform="translate(120.212 74.397)" fill="#26476d" opacity="0.27"/>
          <path id="Path_37707" data-name="Path 37707" d="M-117.089,68.679l-10.33,148.494H-386.252l3.454-35.1C-246.561,164.459-152.727,98-117.089,68.679Z" transform="translate(386.253 -37.616)" fill="#26476d" opacity="0.07"/>
        </g>
      </g>
    </g>
  </g>
</svg>
