<svg xmlns="http://www.w3.org/2000/svg" width="55.47" height="41.603" viewBox="0 0 55.47 41.603">
  <path id="Icon_metro-contacts-dialer" data-name="Icon metro-contacts-dialer" d="M53.419,6.427H7.193a4.621,4.621,0,0,0-4.623,4.623V43.407A4.621,4.621,0,0,0,7.193,48.03H53.419a4.6,4.6,0,0,0,4.6-4.623l.023-32.358a4.621,4.621,0,0,0-4.623-4.623ZM21.061,13.361a6.934,6.934,0,1,1-6.934,6.934,6.939,6.939,0,0,1,6.934-6.934ZM34.928,41.1H7.193V38.784c0-4.623,9.245-7.165,13.868-7.165s13.868,2.542,13.868,7.165Zm8.9-9.245h3.79l3.49,4.623L46.5,41.084a17.357,17.357,0,0,1-6.945-13.856,16.982,16.982,0,0,1,.647-4.623,17.241,17.241,0,0,1,6.31-9.233l4.6,4.611-3.49,4.623h-3.79a13.928,13.928,0,0,0-.809,4.623,13.64,13.64,0,0,0,.809,4.623Z" transform="translate(-2.571 -6.427)" fill="#33a8f2"/>
</svg>
