<svg xmlns="http://www.w3.org/2000/svg" width="47.5" height="54.286" viewBox="0 0 47.5 54.286">
  <path id="office_address" data-name="office address" d="M46.228,50.893H44.107V2.545A2.545,2.545,0,0,0,41.563,0H5.938A2.545,2.545,0,0,0,3.393,2.545V50.893H1.272A1.272,1.272,0,0,0,0,52.165v2.121H47.5V52.165A1.272,1.272,0,0,0,46.228,50.893ZM13.571,8.058a1.272,1.272,0,0,1,1.272-1.272h4.241a1.272,1.272,0,0,1,1.272,1.272V12.3a1.272,1.272,0,0,1-1.272,1.272H14.844A1.272,1.272,0,0,1,13.571,12.3Zm0,10.179a1.272,1.272,0,0,1,1.272-1.272h4.241a1.272,1.272,0,0,1,1.272,1.272v4.241a1.272,1.272,0,0,1-1.272,1.272H14.844a1.272,1.272,0,0,1-1.272-1.272Zm5.513,15.692H14.844a1.272,1.272,0,0,1-1.272-1.272V28.415a1.272,1.272,0,0,1,1.272-1.272h4.241a1.272,1.272,0,0,1,1.272,1.272v4.241A1.272,1.272,0,0,1,19.085,33.929Zm8.058,16.964H20.357V41.987a1.272,1.272,0,0,1,1.272-1.272h4.241a1.272,1.272,0,0,1,1.272,1.272Zm6.786-18.237a1.272,1.272,0,0,1-1.272,1.272H28.415a1.272,1.272,0,0,1-1.272-1.272V28.415a1.272,1.272,0,0,1,1.272-1.272h4.241a1.272,1.272,0,0,1,1.272,1.272Zm0-10.179a1.272,1.272,0,0,1-1.272,1.272H28.415a1.272,1.272,0,0,1-1.272-1.272V18.237a1.272,1.272,0,0,1,1.272-1.272h4.241a1.272,1.272,0,0,1,1.272,1.272Zm0-10.179a1.272,1.272,0,0,1-1.272,1.272H28.415A1.272,1.272,0,0,1,27.143,12.3V8.058a1.272,1.272,0,0,1,1.272-1.272h4.241a1.272,1.272,0,0,1,1.272,1.272Z" fill="#33a8f2"/>
</svg>
