<svg id="digital_wallet" data-name="digital wallet" xmlns="http://www.w3.org/2000/svg" width="41.012" height="36.585" viewBox="0 0 41.012 36.585">
  <g id="Group_35738" data-name="Group 35738" transform="translate(0 0)">
    <path id="Path_37848" data-name="Path 37848" d="M-1506.208,1252.556c-.038.664.1,1.349-.5,1.764a1.808,1.808,0,0,1-.894.321c-.819.036-1.15-.5-1.33-2.055H-1535.3c0,.241.011.473,0,.7a1.36,1.36,0,0,1-1.4,1.365,1.341,1.341,0,0,1-1.266-1.395c-.008-.219,0-.438,0-.7-.568,0-1.083,0-1.6,0a2.833,2.833,0,0,1-3.022-3q-.008-14.193,0-28.386a2.821,2.821,0,0,1,3.132-3.1q17.374,0,34.748,0a2.852,2.852,0,0,1,3.115,2.684,7.479,7.479,0,0,1-.008.886q0,13.77,0,27.54a6.241,6.241,0,0,1-.061,1.108,2.765,2.765,0,0,1-2.8,2.264C-1505.025,1252.567-1505.588,1252.556-1506.208,1252.556Zm-33.709-31.779v.589q0,1.713,0,3.426,0,12.259-.013,24.518c0,.459.147.58.587.573,1.408-.024,2.817-.009,4.226-.009l30.168,0c.673,0,.674,0,.675-.694v-28.407Z" transform="translate(1542.593 -1218.07)" fill="#fff"/>
    <path id="Path_37850" data-name="Path 37850" d="M-1346.943,1324.97q-3.159,0-6.317,0a1.306,1.306,0,0,1-1.437-1.459q0-2.38,0-4.76a1.375,1.375,0,0,1,1.561-1.552q6.273,0,12.545,0c1.086,0,1.584.492,1.588,1.567q.008,2.336,0,4.671a1.361,1.361,0,0,1-1.533,1.532Q-1343.74,1324.972-1346.943,1324.97Zm-5.062-5.083v2.38h10.3v-2.38Z" transform="translate(1371.455 -1308.357)" fill="#fff"/>
    <path id="Path_37851" data-name="Path 37851" d="M-1443.874,1352.764c0,1.409,0,2.818,0,4.227a1.387,1.387,0,0,1-1.378,1.525,1.38,1.38,0,0,1-1.29-1.513q0-4.227,0-8.454a1.365,1.365,0,0,1,1.374-1.517,1.362,1.362,0,0,1,1.294,1.5C-1443.871,1349.946-1443.874,1351.355-1443.874,1352.764Z" transform="translate(1455.111 -1335.531)" fill="#fff"/>
    <path id="Path_37852" data-name="Path 37852" d="M-1352.622,1430.3c-.266,0-.533.017-.8,0a1.332,1.332,0,0,1-1.24-1.278,1.27,1.27,0,0,1,1.116-1.328,9.607,9.607,0,0,1,1.856,0,1.309,1.309,0,0,1,1.111,1.387,1.323,1.323,0,0,1-1.2,1.215c-.278.025-.561,0-.842,0Z" transform="translate(1371.421 -1408.958)" fill="#fff"/>
    <path id="Path_37853" data-name="Path 37853" d="M-1287.6,1430.27c-.251,0-.5.013-.754,0a1.351,1.351,0,0,1-1.287-1.33,1.293,1.293,0,0,1,1.169-1.289,9.807,9.807,0,0,1,1.768,0,1.3,1.3,0,0,1,1.146,1.353,1.309,1.309,0,0,1-1.2,1.257c-.278.026-.561,0-.841,0Z" transform="translate(1312.195 -1408.922)" fill="#fff"/>
    <path id="Path_37854" data-name="Path 37854" d="M-1352.613,1475.637c.266,0,.533-.018.8,0a1.34,1.34,0,0,1,1.247,1.319,1.287,1.287,0,0,1-1.16,1.294,10.416,10.416,0,0,1-1.813-.005,1.3,1.3,0,0,1-1.114-1.34,1.315,1.315,0,0,1,1.113-1.25c.306-.042.619-.032.929-.046Z" transform="translate(1371.415 -1452.644)" fill="#fff"/>
    <path id="Path_37855" data-name="Path 37855" d="M-1287.577,1475.825c.266,0,.533-.018.8,0a1.325,1.325,0,0,1,1.23,1.327,1.272,1.272,0,0,1-1.161,1.287,10.356,10.356,0,0,1-1.768,0,1.322,1.322,0,0,1-1.153-1.355,1.325,1.325,0,0,1,1.169-1.248,8.393,8.393,0,0,1,.885-.005Z" transform="translate(1312.191 -1452.833)" fill="#fff"/>
    <path id="Path_37856" data-name="Path 37856" d="M-1222.445,1478.41c-.316-.015-.6-.01-.878-.047a1.336,1.336,0,0,1-1.162-1.355,1.3,1.3,0,0,1,1.207-1.258,12.543,12.543,0,0,1,1.688,0,1.289,1.289,0,0,1,1.174,1.287,1.282,1.282,0,0,1-1.089,1.313A9.31,9.31,0,0,1-1222.445,1478.41Z" transform="translate(1252.853 -1452.746)" fill="#fff"/>
    <path id="Path_37857" data-name="Path 37857" d="M-1222.476,1430.346c-.267,0-.535.019-.8,0a1.329,1.329,0,0,1-1.2-1.272,1.253,1.253,0,0,1,1.075-1.321,9.516,9.516,0,0,1,1.948,0,1.273,1.273,0,0,1,1.044,1.351,1.3,1.3,0,0,1-1.131,1.232,8.4,8.4,0,0,1-.933.006Z" transform="translate(1252.85 -1409.005)" fill="#fff"/>
  </g>
</svg>
