<svg xmlns="http://www.w3.org/2000/svg" width="106.606" height="106.606" viewBox="0 0 106.606 106.606">
  <g id="basic" transform="translate(-398.707 -951.58)">
    <circle id="Ellipse_279" data-name="Ellipse 279" cx="53.303" cy="53.303" r="53.303" transform="translate(398.707 951.58)" fill="#3297d8"/>
    <path id="Path_38691" data-name="Path 38691" d="M-435.459,160.276a13.673,13.673,0,0,0-13.66,13.657,13.675,13.675,0,0,0,13.66,13.66,13.676,13.676,0,0,0,13.66-13.66A13.673,13.673,0,0,0-435.459,160.276Zm0,24.776a11.132,11.132,0,0,1-11.119-11.119,11.13,11.13,0,0,1,11.119-11.116,11.13,11.13,0,0,1,11.119,11.116A11.132,11.132,0,0,1-435.459,185.052Z" transform="translate(887.468 830.949)" fill="#fff"/>
    <path id="Path_38692" data-name="Path 38692" d="M-387.735,180.168a1.272,1.272,0,0,0-1.271-1.271h-2.859a31.321,31.321,0,0,0-3.162-7.636l2.019-2.019a1.269,1.269,0,0,0,0-1.8l-9.731-9.733a1.274,1.274,0,0,0-1.8,0l-2.022,2.022a31.3,31.3,0,0,0-7.634-3.162v-2.857a1.27,1.27,0,0,0-1.271-1.27h-13.764a1.27,1.27,0,0,0-1.271,1.27v2.857a31.319,31.319,0,0,0-7.636,3.162l-2.019-2.019a1.271,1.271,0,0,0-.9-.372,1.265,1.265,0,0,0-.9.372l-9.734,9.733a1.266,1.266,0,0,0,0,1.795l2.019,2.022a31.214,31.214,0,0,0-3.161,7.634h-2.857a1.27,1.27,0,0,0-1.271,1.271v13.764a1.268,1.268,0,0,0,1.271,1.271h2.857a31.275,31.275,0,0,0,3.161,7.636l-2.019,2.019a1.271,1.271,0,0,0-.372.9,1.271,1.271,0,0,0,.372.9l9.734,9.733a1.27,1.27,0,0,0,1.795,0l2.022-2.022a31.257,31.257,0,0,0,7.636,3.162v2.859a1.27,1.27,0,0,0,1.27,1.271h13.762a1.272,1.272,0,0,0,1.271-1.271v-2.859a31.211,31.211,0,0,0,7.636-3.162l2.019,2.022a1.274,1.274,0,0,0,1.8,0l9.733-9.733a1.272,1.272,0,0,0,.372-.9,1.271,1.271,0,0,0-.372-.9l-2.022-2.022a31.329,31.329,0,0,0,3.164-7.634h2.857a1.271,1.271,0,0,0,.9-.372,1.271,1.271,0,0,0,.372-.9Zm-5.12,12.494a1.271,1.271,0,0,0-1.238.982,28.736,28.736,0,0,1-3.611,8.72,1.27,1.27,0,0,0,.179,1.57l1.824,1.824-7.936,7.936-1.824-1.824a1.27,1.27,0,0,0-1.57-.179,28.778,28.778,0,0,1-8.717,3.611,1.267,1.267,0,0,0-.984,1.236v2.581h-11.223v-2.581a1.268,1.268,0,0,0-.982-1.236,28.874,28.874,0,0,1-8.72-3.611,1.271,1.271,0,0,0-1.57.179l-1.824,1.824-7.936-7.936,1.824-1.824a1.271,1.271,0,0,0,.182-1.57,28.709,28.709,0,0,1-3.611-8.717,1.273,1.273,0,0,0-1.239-.984h-2.581V181.438h2.581a1.271,1.271,0,0,0,1.239-.982,28.654,28.654,0,0,1,3.611-8.717,1.271,1.271,0,0,0-.182-1.57l-1.824-1.824,7.936-7.939,1.824,1.824a1.267,1.267,0,0,0,1.57.182,28.7,28.7,0,0,1,8.72-3.611,1.271,1.271,0,0,0,.982-1.238v-2.578h11.223v2.578a1.271,1.271,0,0,0,.982,1.238,28.693,28.693,0,0,1,8.72,3.608,1.27,1.27,0,0,0,1.57-.179l1.824-1.824,7.936,7.936-1.824,1.824a1.27,1.27,0,0,0-.179,1.57,28.764,28.764,0,0,1,3.611,8.72,1.268,1.268,0,0,0,1.236.982h2.581v11.223Z" transform="translate(874.353 817.832)" fill="#fff"/>
    <path id="Path_38693" data-name="Path 38693" d="M-432.242,158.353a18.823,18.823,0,0,0-18.8,18.8,18.821,18.821,0,0,0,18.8,18.8,18.821,18.821,0,0,0,18.8-18.8A18.823,18.823,0,0,0-432.242,158.353Zm0,35.061a16.278,16.278,0,0,1-16.26-16.26,16.278,16.278,0,0,1,16.26-16.26,16.278,16.278,0,0,1,16.26,16.26A16.278,16.278,0,0,1-432.242,193.414Z" transform="translate(884.251 827.728)" fill="#fff"/>
  </g>
</svg>
