<svg xmlns="http://www.w3.org/2000/svg" width="106.606" height="106.606" viewBox="0 0 106.606 106.606">
  <g id="executive" transform="translate(-1413.687 -951.58)">
    <circle id="Ellipse_285" data-name="Ellipse 285" cx="53.303" cy="53.303" r="53.303" transform="translate(1413.687 951.58)" fill="#132b50"/>
    <path id="Path_38703" data-name="Path 38703" d="M-84.107,174.21c.013-.029.029-.059.04-.088a1.062,1.062,0,0,0,.04-.131l.019-.064a1.056,1.056,0,0,0,.021-.206v-.013l0-.048a1.416,1.416,0,0,0-.016-.15l-.016-.072a.9.9,0,0,0-.04-.128l-.029-.072c-.019-.04-.04-.078-.062-.115l-.043-.067-.016-.027-13.582-18.111-.013-.013a1.083,1.083,0,0,0-.152-.16l-.021-.019a1.169,1.169,0,0,0-.211-.142,1.036,1.036,0,0,0-.241-.086l-.027,0a1,1,0,0,0-.219-.027l-.021,0h-45.273l-.037.005a.98.98,0,0,0-.152.016c-.029.005-.059.008-.088.016a1.069,1.069,0,0,0-.214.075l-.016.008h0a1.185,1.185,0,0,0-.206.134c-.019.016-.032.032-.051.048a1.343,1.343,0,0,0-.12.128l-.021.021-13.582,18.111-.013.021c-.019.027-.032.053-.048.078a.992.992,0,0,0-.056.1l-.032.08a.941.941,0,0,0-.04.123l-.016.075a1.432,1.432,0,0,0-.016.15l0,.048v.013a1.053,1.053,0,0,0,.021.206c.005.027.013.048.021.075a1.032,1.032,0,0,0,.037.12c.013.032.029.064.045.1a.633.633,0,0,0,.045.083.755.755,0,0,0,.067.094l.027.04,36.2,42.983.011.013.013.016.016.013a.706.706,0,0,0,.088.091l.056.048.027.024c.027.019.056.035.083.053l.064.037.037.019.054.024c.029.011.061.027.094.037l.005,0,.064.013.054.013.04.011h.005a1.308,1.308,0,0,0,.177.013,1.308,1.308,0,0,0,.177-.013l.043-.011.062-.013a1.142,1.142,0,0,0,.16-.056l.051-.019.054-.029.013-.008a1.115,1.115,0,0,0,.118-.078l.029-.021.019-.016.013-.013a1.511,1.511,0,0,0,.115-.112l.011-.011,36.222-43.013.032-.045c.021-.029.04-.056.059-.086A.646.646,0,0,0-84.107,174.21Zm-60.062-16.466,7.414,14.832h-18.539Zm34.871,17.094-12.039,38.126-12.039-38.126Zm-23.356-2.263,11.317-15.091,11.32,15.091Zm13.58-15.848h18.544l-7.417,14.834Zm-15.653,14.837-7.417-14.837H-123.6Zm-1.022,3.274,11.625,36.813-31-36.813Zm28.823,0h19.373l-31,36.813Zm1-2.263,7.417-14.834,11.124,14.834Z" transform="translate(1588.326 821.216)" fill="#fff"/>
  </g>
</svg>
