<svg xmlns="http://www.w3.org/2000/svg" width="106.606" height="106.606" viewBox="0 0 106.606 106.606">
  <g id="premium" transform="translate(-905.985 -951.58)">
    <circle id="Ellipse_282" data-name="Ellipse 282" cx="53.303" cy="53.303" r="53.303" transform="translate(905.985 951.58)" fill="#2a313f" opacity="0.154"/>
    <path id="Path_38698" data-name="Path 38698" d="M-235.62,178.737a1.144,1.144,0,0,0-.982-.786l-24.4-2.236-9.669-22.519a1.14,1.14,0,0,0-1.049-.693,1.143,1.143,0,0,0-1.051.693l-9.669,22.519-24.4,2.236a1.144,1.144,0,0,0-.984.786,1.138,1.138,0,0,0,.334,1.212l18.429,16.156-5.416,23.9a1.146,1.146,0,0,0,.444,1.177,1.143,1.143,0,0,0,1.257.059l21.058-12.537,21.056,12.537a1.158,1.158,0,0,0,.586.16,1.126,1.126,0,0,0,.671-.219,1.142,1.142,0,0,0,.444-1.177l-5.414-23.9,18.429-16.156A1.142,1.142,0,0,0-235.62,178.737Zm-36.1-22.19,8.6,20.034-8.6,9.878-8.6-9.878Zm-32.263,23.439,21.847-2,8.554,9.822-14.024,6.537Zm17.175,16.506,13.944-6.5v16.731l-18.8,11.189Zm35.026,21.419-18.8-11.189V189.992l13.944,6.5Zm-4.055-23.57-14.024-6.537,8.554-9.822,21.847,2Z" transform="translate(1231.013 817.931)" fill="#fff"/>
  </g>
</svg>
