<svg xmlns="http://www.w3.org/2000/svg" xmlns:xlink="http://www.w3.org/1999/xlink" width="456.392" height="431.69" viewBox="0 0 456.392 431.69">
  <defs>
    <linearGradient id="linear-gradient" x1="0.491" y1="1.111" x2="0.525" y2="-0.378" gradientUnits="objectBoundingBox">
      <stop offset="0" stop-color="#ffd571"/>
      <stop offset="0.251" stop-color="#ffbc60"/>
      <stop offset="0.778" stop-color="#ff7f34"/>
      <stop offset="1" stop-color="#ff6421"/>
    </linearGradient>
    <linearGradient id="linear-gradient-2" x1="0.487" y1="-0.244" x2="0.529" y2="2.105" xlink:href="#linear-gradient"/>
    <linearGradient id="linear-gradient-3" x1="-0.974" y1="0.016" x2="2.405" y2="1.129" gradientUnits="objectBoundingBox">
      <stop offset="0.003" stop-color="#fff"/>
      <stop offset="0.367" stop-color="#f2f2ff"/>
      <stop offset="1" stop-color="#d2d2ff"/>
    </linearGradient>
    <linearGradient id="linear-gradient-6" x1="-0.974" y1="0.016" x2="2.405" y2="1.129" xlink:href="#linear-gradient-3"/>
    <linearGradient id="linear-gradient-10" x1="-0.012" y1="0.169" x2="1.672" y2="1.382" xlink:href="#linear-gradient"/>
    <linearGradient id="linear-gradient-11" x1="-0.086" y1="0.46" x2="1.885" y2="0.594" gradientUnits="objectBoundingBox">
      <stop offset="0" stop-color="#f5f5f5"/>
      <stop offset="0.405" stop-color="#ddd"/>
      <stop offset="1" stop-color="#b3b3b3"/>
    </linearGradient>
    <linearGradient id="linear-gradient-12" x1="-0.136" y1="0.339" x2="2.344" y2="0.974" xlink:href="#linear-gradient-11"/>
    <linearGradient id="linear-gradient-13" x1="57.578" y1="0.428" x2="57.818" y2="0.813" xlink:href="#linear-gradient-3"/>
    <linearGradient id="linear-gradient-14" x1="227.283" y1="0.076" x2="227.839" y2="1.026" gradientUnits="objectBoundingBox">
      <stop offset="0" stop-color="#ffecdc"/>
      <stop offset="0.238" stop-color="#f6dac3"/>
      <stop offset="0.737" stop-color="#dfac86"/>
      <stop offset="1" stop-color="#d39364"/>
    </linearGradient>
    <linearGradient id="linear-gradient-15" x1="-0.033" y1="-0.02" x2="1.49" y2="1.361" gradientUnits="objectBoundingBox">
      <stop offset="0.003" stop-color="#c662c2"/>
      <stop offset="0.124" stop-color="#b85dbb"/>
      <stop offset="0.349" stop-color="#9650aa"/>
      <stop offset="0.653" stop-color="#5e3c8f"/>
      <stop offset="1" stop-color="#17236d"/>
    </linearGradient>
    <linearGradient id="linear-gradient-16" x1="122.778" y1="0.5" x2="123.778" y2="0.5" xlink:href="#linear-gradient-14"/>
    <linearGradient id="linear-gradient-17" x1="239.147" y1="0.5" x2="240.147" y2="0.5" xlink:href="#linear-gradient-14"/>
    <linearGradient id="linear-gradient-18" x1="85.605" y1="0.5" x2="86.605" y2="0.5" gradientUnits="objectBoundingBox">
      <stop offset="0" stop-color="gray"/>
      <stop offset="0.639" stop-color="#51514c"/>
      <stop offset="1" stop-color="#3c3c35"/>
    </linearGradient>
    <linearGradient id="linear-gradient-19" x1="53.079" y1="-0.503" x2="56.014" y2="1.658" gradientUnits="objectBoundingBox">
      <stop offset="0" stop-color="#7de1f6"/>
      <stop offset="0.069" stop-color="#73d8f3"/>
      <stop offset="0.708" stop-color="#208be2"/>
      <stop offset="1" stop-color="#006ddb"/>
    </linearGradient>
    <linearGradient id="linear-gradient-20" x1="103.849" y1="-9.632" x2="104.855" y2="-9.632" xlink:href="#linear-gradient-3"/>
    <linearGradient id="linear-gradient-21" x1="119.082" y1="37.675" x2="120.155" y2="37.675" xlink:href="#linear-gradient-3"/>
    <linearGradient id="linear-gradient-22" x1="385.257" y1="0.5" x2="386.257" y2="0.5" xlink:href="#linear-gradient-3"/>
    <linearGradient id="linear-gradient-23" x1="45.808" y1="0.5" x2="46.808" y2="0.5" xlink:href="#linear-gradient-18"/>
    <linearGradient id="linear-gradient-24" x1="49.719" y1="0.5" x2="50.719" y2="0.5" xlink:href="#linear-gradient-18"/>
    <linearGradient id="linear-gradient-25" x1="177.375" y1="0.094" x2="177.876" y2="1.001" xlink:href="#linear-gradient-14"/>
    <linearGradient id="linear-gradient-26" x1="709.258" y1="0.5" x2="710.258" y2="0.5" gradientUnits="objectBoundingBox">
      <stop offset="0" stop-color="#be73de"/>
      <stop offset="1" stop-color="#514eb7"/>
    </linearGradient>
    <linearGradient id="linear-gradient-27" x1="423.518" y1="0.5" x2="424.518" y2="0.5" xlink:href="#linear-gradient-26"/>
    <linearGradient id="linear-gradient-28" x1="39.628" y1="0.497" x2="39.888" y2="0.678" xlink:href="#linear-gradient-3"/>
    <linearGradient id="linear-gradient-29" y1="0.5" x2="1" y2="0.5" gradientUnits="objectBoundingBox">
      <stop offset="0" stop-color="#e3cbba"/>
      <stop offset="0.253" stop-color="#dbbaa1"/>
      <stop offset="0.784" stop-color="#c78e64"/>
      <stop offset="1" stop-color="#bf7c4a"/>
    </linearGradient>
    <linearGradient id="linear-gradient-30" x1="14.448" y1="-1.685" x2="14.458" y2="-1.125" gradientUnits="objectBoundingBox">
      <stop offset="0" stop-color="#30944c"/>
      <stop offset="0.389" stop-color="#31944c"/>
      <stop offset="0.529" stop-color="#38974e"/>
      <stop offset="0.628" stop-color="#449c51"/>
      <stop offset="0.709" stop-color="#55a455"/>
      <stop offset="0.778" stop-color="#6bad5a"/>
      <stop offset="0.839" stop-color="#86b961"/>
      <stop offset="0.895" stop-color="#a7c769"/>
      <stop offset="0.946" stop-color="#ccd772"/>
      <stop offset="0.991" stop-color="#f5e97c"/>
      <stop offset="1" stop-color="#ffed7f"/>
    </linearGradient>
    <linearGradient id="linear-gradient-31" x1="0.745" y1="0.783" x2="-0.048" y2="-0.132" gradientUnits="objectBoundingBox">
      <stop offset="0" stop-color="#30944c"/>
      <stop offset="0.41" stop-color="#8aba62"/>
      <stop offset="0.816" stop-color="#dede76"/>
      <stop offset="1" stop-color="#ffed7f"/>
    </linearGradient>
    <linearGradient id="linear-gradient-32" x1="43.918" y1="-6.537" x2="44.918" y2="-6.537" gradientUnits="objectBoundingBox">
      <stop offset="0" stop-color="#30944c"/>
      <stop offset="0.273" stop-color="#32954c"/>
      <stop offset="0.419" stop-color="#3a984e"/>
      <stop offset="0.535" stop-color="#479e51"/>
      <stop offset="0.635" stop-color="#5ba656"/>
      <stop offset="0.725" stop-color="#74b15c"/>
      <stop offset="0.808" stop-color="#92be64"/>
      <stop offset="0.885" stop-color="#b7ce6d"/>
      <stop offset="0.955" stop-color="#e0df77"/>
      <stop offset="1" stop-color="#ffed7f"/>
    </linearGradient>
    <linearGradient id="linear-gradient-33" x1="52.916" y1="-8.401" x2="52.948" y2="-7.402" gradientUnits="objectBoundingBox">
      <stop offset="0" stop-color="#f7f7f7"/>
      <stop offset="1" stop-color="#fff"/>
    </linearGradient>
    <linearGradient id="linear-gradient-34" x1="74.37" y1="-14.737" x2="74.982" y2="-14.737" xlink:href="#linear-gradient-33"/>
    <linearGradient id="linear-gradient-35" x1="155.873" y1="-28.417" x2="155.792" y2="-29.485" xlink:href="#linear-gradient-32"/>
    <linearGradient id="linear-gradient-36" x1="168.908" y1="-21.581" x2="168.827" y2="-22.649" xlink:href="#linear-gradient-32"/>
    <linearGradient id="linear-gradient-37" x1="18.307" y1="-4.321" x2="18.324" y2="-3.734" xlink:href="#linear-gradient-30"/>
    <linearGradient id="linear-gradient-38" x1="0.473" y1="0.8" x2="0.554" y2="-0.099" xlink:href="#linear-gradient-31"/>
    <linearGradient id="linear-gradient-39" x1="31.391" y1="-15.276" x2="32.391" y2="-15.276" xlink:href="#linear-gradient-32"/>
    <linearGradient id="linear-gradient-40" x1="37.947" y1="-18.827" x2="37.979" y2="-17.827" xlink:href="#linear-gradient-33"/>
    <linearGradient id="linear-gradient-41" x1="47.347" y1="-41.875" x2="47.89" y2="-41.875" xlink:href="#linear-gradient-33"/>
    <linearGradient id="linear-gradient-42" x1="112.381" y1="-61.342" x2="112.3" y2="-62.41" xlink:href="#linear-gradient-32"/>
    <linearGradient id="linear-gradient-43" x1="120.058" y1="-53.048" x2="119.977" y2="-54.115" xlink:href="#linear-gradient-32"/>
    <linearGradient id="linear-gradient-44" x1="8.632" y1="-4.118" x2="8.643" y2="-3.567" xlink:href="#linear-gradient-30"/>
    <linearGradient id="linear-gradient-45" x1="0.277" y1="0.813" x2="0.884" y2="-0.039" xlink:href="#linear-gradient-31"/>
    <linearGradient id="linear-gradient-46" x1="22.051" y1="-15.596" x2="23.051" y2="-15.596" xlink:href="#linear-gradient-32"/>
    <linearGradient id="linear-gradient-47" x1="26.802" y1="-19.21" x2="26.834" y2="-18.21" xlink:href="#linear-gradient-33"/>
    <linearGradient id="linear-gradient-48" x1="34.76" y1="-32.354" x2="35.327" y2="-32.354" xlink:href="#linear-gradient-33"/>
    <linearGradient id="linear-gradient-49" x1="79.266" y1="-62.181" x2="79.185" y2="-63.248" xlink:href="#linear-gradient-32"/>
    <linearGradient id="linear-gradient-50" x1="84.315" y1="-54.559" x2="84.234" y2="-55.626" xlink:href="#linear-gradient-32"/>
    <linearGradient id="linear-gradient-51" x1="3.509" y1="-3.546" x2="3.517" y2="-2.939" xlink:href="#linear-gradient-30"/>
    <linearGradient id="linear-gradient-52" x1="0.203" y1="0.735" x2="1.055" y2="0.06" xlink:href="#linear-gradient-31"/>
    <linearGradient id="linear-gradient-53" x1="10.603" y1="-12.119" x2="11.603" y2="-12.119" xlink:href="#linear-gradient-32"/>
    <linearGradient id="linear-gradient-54" x1="13.144" y1="-15.067" x2="13.176" y2="-14.067" xlink:href="#linear-gradient-33"/>
    <linearGradient id="linear-gradient-55" x1="21.791" y1="-21.884" x2="22.53" y2="-21.884" xlink:href="#linear-gradient-33"/>
    <linearGradient id="linear-gradient-56" x1="38.601" y1="-48.285" x2="38.52" y2="-49.353" xlink:href="#linear-gradient-32"/>
    <linearGradient id="linear-gradient-57" x1="40.616" y1="-42.858" x2="40.535" y2="-43.926" xlink:href="#linear-gradient-32"/>
    <linearGradient id="linear-gradient-58" y1="0.5" x2="1" y2="0.5" gradientUnits="objectBoundingBox">
      <stop offset="0" stop-color="#b88561"/>
      <stop offset="1" stop-color="#ddb192"/>
    </linearGradient>
    <linearGradient id="linear-gradient-60" x1="0" y1="0.5" x2="1" y2="0.5" xlink:href="#linear-gradient-3"/>
  </defs>
  <g id="pricing" transform="translate(1705.472 1016.5)">
    <ellipse id="Ellipse_265" data-name="Ellipse 265" cx="228.196" cy="15.469" rx="228.196" ry="15.469" transform="translate(-1705.472 -615.748)" opacity="0.15"/>
    <g id="Group_36114" data-name="Group 36114" transform="translate(-1513.801 -1016.5)">
      <g id="Group_36112" data-name="Group 36112" transform="translate(0)">
        <path id="Path_38631" data-name="Path 38631" d="M-1174.116-972.955v-18.337a3.1,3.1,0,0,0-3.1-3.1,3.1,3.1,0,0,0-3.1,3.1v11.243a22.086,22.086,0,0,0-12.93-4.376V-1013.4a3.1,3.1,0,0,0-3.1-3.1,3.1,3.1,0,0,0-3.1,3.1v29.764a22.112,22.112,0,0,0-7.349,3.589V-1000.3a3.1,3.1,0,0,0-3.1-3.1,3.1,3.1,0,0,0-3.1,3.1v26.75a3.086,3.086,0,0,0,.046.514,22.085,22.085,0,0,0-2.8,10.8,22.188,22.188,0,0,0,22.188,22.189,22.188,22.188,0,0,0,22.188-22.189A22.082,22.082,0,0,0-1174.116-972.955Z" transform="translate(1216.26 1016.5)" fill="url(#linear-gradient)"/>
        <circle id="Ellipse_266" data-name="Ellipse 266" cx="18.156" cy="18.156" r="18.156" transform="translate(0 42.278) rotate(-17.187)" fill="url(#linear-gradient-2)"/>
      </g>
      <g id="Group_36113" data-name="Group 36113" transform="translate(16.16 42.304)">
        <path id="Path_38632" data-name="Path 38632" d="M-1171.387-885.206v-2.766a12.214,12.214,0,0,1-4.5-1.059l.834-3.846a10.134,10.134,0,0,0,4.476,1.116c1.408,0,2.317-.484,2.317-1.383,0-.922-.8-1.523-2.732-2.252-2.955-1.166-4.791-2.629-4.791-5.326,0-2.474,1.638-4.488,4.647-5.205V-908.7h3.151v2.507a10.318,10.318,0,0,1,3.937.859l-.861,3.715a8.466,8.466,0,0,0-3.805-.906c-1.575,0-2.133.607-2.133,1.322,0,.7.748,1.246,3.046,2.2,3.316,1.3,4.463,2.964,4.463,5.413,0,2.636-1.764,4.728-4.894,5.348v3.039Z" transform="translate(1175.892 908.705)" fill="url(#linear-gradient-3)"/>
      </g>
    </g>
    <g id="Group_36117" data-name="Group 36117" transform="translate(-1389.225 -897.306)">
      <g id="Group_36115" data-name="Group 36115" transform="translate(0 0)">
        <path id="Path_38633" data-name="Path 38633" d="M-852.672-669.233V-687.57a3.1,3.1,0,0,0-3.1-3.1,3.1,3.1,0,0,0-3.1,3.1v11.243A22.084,22.084,0,0,0-871.8-680.7V-709.68a3.1,3.1,0,0,0-3.1-3.1,3.1,3.1,0,0,0-3.1,3.1v29.764a22.1,22.1,0,0,0-7.349,3.589v-20.252a3.1,3.1,0,0,0-3.1-3.1,3.1,3.1,0,0,0-3.1,3.1v26.75a3.126,3.126,0,0,0,.046.514,22.086,22.086,0,0,0-2.8,10.8,22.188,22.188,0,0,0,22.188,22.188,22.188,22.188,0,0,0,22.188-22.188A22.084,22.084,0,0,0-852.672-669.233Z" transform="translate(896.39 712.778)" fill="url(#linear-gradient)"/>
        <circle id="Ellipse_267" data-name="Ellipse 267" cx="18.156" cy="18.156" r="18.156" transform="translate(0 45.918) rotate(-26.043)" fill="url(#linear-gradient-2)"/>
      </g>
      <g id="Group_36116" data-name="Group 36116" transform="translate(17.734 42.304)">
        <path id="Path_38634" data-name="Path 38634" d="M-849.943-581.485v-2.766a12.212,12.212,0,0,1-4.5-1.059l.834-3.846a10.135,10.135,0,0,0,4.475,1.116c1.408,0,2.317-.484,2.317-1.383,0-.922-.8-1.523-2.732-2.252-2.956-1.166-4.791-2.629-4.791-5.326,0-2.474,1.638-4.488,4.647-5.205v-2.778h3.151v2.507a10.316,10.316,0,0,1,3.937.859l-.86,3.715a8.47,8.47,0,0,0-3.805-.906c-1.575,0-2.133.607-2.133,1.322,0,.7.748,1.246,3.046,2.2,3.317,1.3,4.463,2.964,4.463,5.413,0,2.635-1.763,4.728-4.893,5.348v3.039Z" transform="translate(854.447 604.983)" fill="url(#linear-gradient-6)"/>
      </g>
    </g>
    <g id="Group_36120" data-name="Group 36120" transform="translate(-1644.716 -951.507)">
      <g id="Group_36118" data-name="Group 36118" transform="translate(0)">
        <path id="Path_38635" data-name="Path 38635" d="M-1508.394-807.344v-18.337a3.1,3.1,0,0,0-3.1-3.1,3.1,3.1,0,0,0-3.1,3.1v11.243a22.085,22.085,0,0,0-12.93-4.376v-28.977a3.1,3.1,0,0,0-3.1-3.1,3.1,3.1,0,0,0-3.1,3.1v29.764a22.1,22.1,0,0,0-7.349,3.589V-834.69a3.1,3.1,0,0,0-3.1-3.1,3.1,3.1,0,0,0-3.1,3.1v26.75a3.073,3.073,0,0,0,.046.514,22.085,22.085,0,0,0-2.8,10.8,22.188,22.188,0,0,0,22.188,22.188,22.188,22.188,0,0,0,22.188-22.188A22.086,22.086,0,0,0-1508.394-807.344Z" transform="translate(1550.268 850.889)" fill="url(#linear-gradient)"/>
        <circle id="Ellipse_268" data-name="Ellipse 268" cx="18.156" cy="18.156" r="18.156" transform="translate(0 41.78) rotate(-15.922)" fill="url(#linear-gradient-2)"/>
      </g>
      <g id="Group_36119" data-name="Group 36119" transform="translate(15.89 42.304)">
        <path id="Path_38636" data-name="Path 38636" d="M-1505.665-719.6v-2.766a12.213,12.213,0,0,1-4.5-1.059l.835-3.846a10.133,10.133,0,0,0,4.475,1.116c1.408,0,2.317-.484,2.317-1.383,0-.922-.8-1.523-2.731-2.252-2.956-1.166-4.791-2.629-4.791-5.326,0-2.474,1.639-4.488,4.647-5.205v-2.778h3.151v2.507a10.319,10.319,0,0,1,3.937.859l-.86,3.715a8.471,8.471,0,0,0-3.805-.906c-1.575,0-2.133.607-2.133,1.322,0,.7.748,1.246,3.046,2.2,3.317,1.3,4.463,2.964,4.463,5.413,0,2.635-1.764,4.727-4.893,5.348v3.039Z" transform="translate(1510.17 743.094)" fill="url(#linear-gradient-3)"/>
      </g>
    </g>
    <g id="Group_36122" data-name="Group 36122" transform="translate(-1617.549 -913.308)">
      <path id="Path_38637" data-name="Path 38637" d="M-1335.663-685.654c23.74-19.943,39.6-64.87,29.84-66.835-12.971-2.612-41.137,8.841-54.751,10.859-19.309,2.331-40.34-20.939-52.145-7.968-9.6,10.546,6.881,48.9,32.664,65.607-76.921,37.805-185.037,227.59,3.578,241.361C-1115.5-423.575-1246.179-648.814-1335.663-685.654Z" transform="translate(1481.434 753.554)" fill="url(#linear-gradient-10)"/>
      <path id="Path_38638" data-name="Path 38638" d="M-1192.145-582.689h-55.961a7.659,7.659,0,0,1-7.659-7.659h0a7.659,7.659,0,0,1,7.659-7.659h55.961a7.659,7.659,0,0,1,7.659,7.659h0A7.659,7.659,0,0,1-1192.145-582.689Z" transform="translate(1344.328 659.051)" fill="url(#linear-gradient-11)"/>
      <g id="Group_36121" data-name="Group 36121" transform="translate(94.01 144.275)">
        <path id="Path_38639" data-name="Path 38639" d="M-1220.208-272.846v-13.308c-8.615-.424-16.886-2.691-21.677-5.1l4.016-18.507a48.774,48.774,0,0,0,21.537,5.369c6.776,0,11.15-2.33,11.15-6.655,0-4.435-3.849-7.329-13.145-10.836-14.223-5.611-23.053-12.651-23.053-25.629,0-11.9,7.885-21.6,22.361-25.048v-13.368h15.161v12.064a49.635,49.635,0,0,1,18.944,4.134l-4.141,17.877a40.744,40.744,0,0,0-18.311-4.36c-7.579,0-10.267,2.92-10.267,6.362,0,3.345,3.6,5.994,14.658,10.593,15.961,6.276,21.475,14.261,21.475,26.047,0,12.682-8.486,22.751-23.547,25.737v14.626Z" transform="translate(1241.885 385.925)" fill="url(#linear-gradient-12)"/>
      </g>
    </g>
    <g id="Group_36125" data-name="Group 36125" transform="translate(-1692.761 -849.528)">
      <g id="Group_36123" data-name="Group 36123" transform="translate(96.722 56.873)">
        <path id="Path_38640" data-name="Path 38640" d="M-1426.623-427.346c3.822,2.912,6.748,4.74,7.637,4.635,3.287-.4,30.947,10.784,30.947,10.784l1.187-5.408-29.1-16.787s-3.892-5.622-8.972-11.995a73.557,73.557,0,0,1-1.279,16.484C-1426.352-428.881-1426.491-428.117-1426.623-427.346Z" transform="translate(1426.623 446.116)" fill="url(#linear-gradient-13)"/>
        <path id="Path_38641" data-name="Path 38641" d="M-1328.308-369.19s6.15,1.557,7.519,1.3,2.231-2.523,2.279-3.565-2.467-.785-3.509-1.216-.285-.612.716-1.925-1.327-1.418-2.37-.855a13.006,13.006,0,0,1-3.342.855Z" transform="translate(1366.891 403.381)" fill="url(#linear-gradient-14)"/>
      </g>
      <path id="Path_38642" data-name="Path 38642" d="M-1673.083-578.757l15.254-12.279,42.594,52.913,37.269-30,12.279,15.254-.084.067,108.87,135.247,16.874-16.874v47.675H-1487.7l16.874-16.874-110.2-136.9-37.251,29.986-12.279-15.254.066-.053Z" transform="translate(1673.083 591.036)" fill="url(#linear-gradient-15)"/>
      <g id="Group_36124" data-name="Group 36124" transform="translate(86.41 10.981)">
        <path id="Path_38643" data-name="Path 38643" d="M-1446.165-530.173a7.46,7.46,0,0,0,1.684,4.442,6.249,6.249,0,0,0,5.239,2.419l1.538,3a8.774,8.774,0,0,0,4.858,2.516,7.271,7.271,0,0,0,2.016,0c2.335-.312,3.139-7.339,3.4-13.34.035-.763.055-1.5.069-2.211-1.421-2.01-8.572-.617-9.106-.513a.123.123,0,0,1-.035.007,3.667,3.667,0,0,0-1.379,1.8c-.375,1.531.485,4.442-.832,4.726-1.012.222-2.176-2.876-3.784-4.491h-.007a2.805,2.805,0,0,0-1.719-.928C-1445.548-532.841-1446.185-531.7-1446.165-530.173Z" transform="translate(1448.808 545.662)" fill="url(#linear-gradient-16)"/>
        <path id="Path_38644" data-name="Path 38644" d="M-1436.84-500.313s1.58,3.514,3.236,7.082c.582,1.261,1.185,2.522,1.733,3.652,0,.014.007.021.014.034.4-8.836,4.678-11.047,4.678-11.047a8.775,8.775,0,0,1-4.858-2.516l-1.538-3a18.982,18.982,0,0,0-2.869,4.5c-.069.173-.139.339-.194.513A6.676,6.676,0,0,0-1436.84-500.313Z" transform="translate(1443.142 528.456)" fill="url(#linear-gradient-17)"/>
        <path id="Path_38645" data-name="Path 38645" d="M-1452.813-547.976c.423,3.507,5.69,9.37,5.849,9.55l.007.007.755,2.218a18.983,18.983,0,0,1,2.869-4.5,6.249,6.249,0,0,1-5.239-2.419,7.46,7.46,0,0,1-1.684-4.442c-.021-1.525.617-2.668,1.941-2.571a2.8,2.8,0,0,1,1.718.929h.007c1.608,1.615,2.772,4.712,3.784,4.491,1.317-.284.457-3.195.832-4.726a3.667,3.667,0,0,1,1.379-1.8.124.124,0,0,0,.035-.007c.534-.1,7.685-1.5,9.106.513-.014.707-.035,1.448-.07,2.211,0,0,2.7,2.016,2.7.554a12.387,12.387,0,0,1,.61-3.271c2.245.118,2.245-3.839,2.245-3.839-2.938-.09-5.454-7.97-10.131-7.97s-8.8,5.364-8.8,5.364C-1452.231-556.472-1453.25-551.538-1452.813-547.976Z" transform="translate(1452.899 563.056)" fill="url(#linear-gradient-18)"/>
      </g>
      <path id="Path_38646" data-name="Path 38646" d="M-1493.082-422.724s-.542-17.951,2.036-32.67c.132-.771.271-1.536.417-2.286a73.557,73.557,0,0,0,1.279-16.484,63.694,63.694,0,0,0-.723-7.631c-1.119-.577-3.21,2.259-3.21,2.259l-2.8-12.745a27,27,0,0,0-7.123,3.273,41.192,41.192,0,0,0-11.467,11.279,60.636,60.636,0,0,0-5.247,9.138c-10.424,22.238-12.738,45.867-12.738,45.867Z" transform="translate(1587.768 531.037)" fill="url(#linear-gradient-19)"/>
      <path id="Path_38647" data-name="Path 38647" d="M-1439.585,44.184s5.828.386,6.484-.145,9.293.86,12.572.353a2.925,2.925,0,0,0,2.4-4.455c-.657-1.211-9-1.448-10.463-2.946a10.96,10.96,0,0,1-1.974-2.582l-9.008.686Z" transform="translate(1531.22 211.044)" fill="url(#linear-gradient-20)"/>
      <path id="Path_38648" data-name="Path 38648" d="M-1608.022,12.386s4.757,3.389,5.595,3.282,7.456,5.613,10.514,6.9a2.925,2.925,0,0,0,4.382-2.531c.077-1.376-6.9-5.957-7.357-8a10.957,10.957,0,0,1-.324-3.234l-8.026-4.147Z" transform="translate(1633.555 229.119)" fill="url(#linear-gradient-21)"/>
      <path id="Path_38649" data-name="Path 38649" d="M-1439.462-492.841l2.8,12.745s.292-.4.723-.868c.709-.779,1.786-1.751,2.488-1.39-.223-1.39-.41-2.2-.431-2.293a.021.021,0,0,1-.007-.014c-.431-.9-.91-1.911-1.383-2.926-1.313-2.821-2.565-5.615-2.565-5.615A11.766,11.766,0,0,0-1439.462-492.841Z" transform="translate(1531.146 531.596)" fill="url(#linear-gradient-22)"/>
      <path id="Path_38650" data-name="Path 38650" d="M-1532.659-315.041c2.2,8.84,14.316,28.576,23.413,42.6,5.8,8.937,10.375,15.553,10.375,15.553l2.752,79.675,9.007-.688s4.128-76.215,5.518-81.774-11.488-55.366-11.488-55.366Z" transform="translate(1587.768 423.354)" fill="url(#linear-gradient-23)"/>
      <path id="Path_38651" data-name="Path 38651" d="M-1595.824-189.485l7.992,4.17,35.095-70.885,5.115-16.241c-9.1-14.024-21.216-33.76-23.413-42.6,0,0,5.094,52.586,2.662,56.756S-1595.824-189.485-1595.824-189.485Z" transform="translate(1626.144 423.354)" fill="url(#linear-gradient-24)"/>
      <path id="Path_38652" data-name="Path 38652" d="M-1326.714-322.9a11.352,11.352,0,0,0,4.017,1.675c2.662.639,6.776-1.1,8.047-2.606a1.469,1.469,0,0,0-1.445-2.488c-1.161.466-3.767-.167-4.809-.924s.757-.987,2.029-2.133-1.216-1.633-1.967-.994-4.906.994-4.906.994Z" transform="translate(1462.645 432.84)" fill="url(#linear-gradient-25)"/>
      <path id="Path_38653" data-name="Path 38653" d="M-1430.484-464.29l2.488,3.461.771-.347-.715-4.17-.056-.334C-1428.7-466.042-1429.775-465.069-1430.484-464.29Z" transform="translate(1525.691 514.923)" fill="url(#linear-gradient-26)"/>
      <path id="Path_38654" data-name="Path 38654" d="M-1427.9-402.471l2.245,7.471,3.2-7.756s-2.238-48.709-3.2-51.329l-.771.347S-1426.536-406.46-1427.9-402.471Z" transform="translate(1524.12 507.831)" fill="url(#linear-gradient-27)"/>
      <path id="Path_38655" data-name="Path 38655" d="M-1447.35-412.582c3.419.542,31.571,9.042,31.571,9.042l.966-6.477-26.22-13.169s-1.376-4.052-3.531-9.528a165.964,165.964,0,0,0-8.708-19.132c-2.321-4.163-4.712-7.547-6.915-9.048-4.746-3.231-9.069-2.926-12.009-1.286a23.908,23.908,0,0,0-1.07,4.468C-1474.474-448.107-1450.769-413.124-1447.35-412.582Z" transform="translate(1551.709 513.48)" fill="url(#linear-gradient-28)"/>
    </g>
    <g id="Group_36154" data-name="Group 36154" transform="translate(-1462.244 -769.477)">
      <rect id="Rectangle_1410" data-name="Rectangle 1410" width="113.169" height="87.084" rx="8.105" transform="translate(35.489 78.718)" fill="url(#linear-gradient-29)"/>
      <g id="Group_36128" data-name="Group 36128" transform="translate(0 5.198)">
        <path id="Path_38656" data-name="Path 38656" d="M-1018.554-246.553l43.834-30.38-67.143-96.879-43.834,30.38Zm-33.293-115.371a15.526,15.526,0,0,0,15.225,2.728l50.056,72.224a15.526,15.526,0,0,0-2.79,15.214l-19.215,13.317a15.526,15.526,0,0,0-15.224-2.728l-50.056-72.224a15.526,15.526,0,0,0,2.789-15.214Z" transform="translate(1085.697 373.812)" fill="url(#linear-gradient-30)"/>
        <path id="Path_38657" data-name="Path 38657" d="M-1052.721-330.2l19.215-13.317a15.526,15.526,0,0,0,15.225,2.728l50.056,72.224a15.526,15.526,0,0,0-2.789,15.214l-19.215,13.317a15.526,15.526,0,0,0-15.225-2.728l-50.056-72.224A15.526,15.526,0,0,0-1052.721-330.2Z" transform="translate(1067.357 355.408)" fill="url(#linear-gradient-31)"/>
        <circle id="Ellipse_269" data-name="Ellipse 269" cx="17.628" cy="17.628" r="17.628" transform="translate(36.724 80.043) rotate(-86.176)" fill="url(#linear-gradient-32)"/>
        <g id="Group_36126" data-name="Group 36126" transform="translate(40.723 48.864)">
          <path id="Path_38658" data-name="Path 38658" d="M-955.024-242.95A14.787,14.787,0,0,1-958.75-222.4a14.787,14.787,0,0,1-20.554-3.726,14.788,14.788,0,0,1,3.726-20.554A14.787,14.787,0,0,1-955.024-242.95Zm-23.418,16.23a13.738,13.738,0,0,0,19.094,3.462,13.738,13.738,0,0,0,3.462-19.095,13.738,13.738,0,0,0-19.094-3.462A13.738,13.738,0,0,0-978.442-226.719Z" transform="translate(981.93 249.301)" fill="url(#linear-gradient-33)"/>
        </g>
        <g id="Group_36127" data-name="Group 36127" transform="translate(45.153 55.593)">
          <path id="Path_38659" data-name="Path 38659" d="M-949.769-229.441-952-227.893a11.5,11.5,0,0,1,1.76,4.7l-3.24,1.2a10.114,10.114,0,0,0-1.671-4.621c-.929-1.34-2.082-1.9-3.023-1.248-.894.619-.937,1.764-.319,3.911.9,3.1.912,5.636-1.37,7.217-2.07,1.435-4.7,1.1-6.941-1.073l-2.235,1.549-1.6-2.3,2.07-1.435a10.3,10.3,0,0,1-1.587-3.948l3.131-1.16a9.49,9.49,0,0,0,1.547,3.941c1.06,1.529,2.061,1.567,2.719,1.11.776-.538.7-1.7.067-4.225-.952-3.483-.441-5.509,1.676-6.976,2.093-1.451,4.908-1.208,7.253,1.171l2.4-1.663Z" transform="translate(970.641 232.154)" fill="url(#linear-gradient-34)"/>
        </g>
        <circle id="Ellipse_270" data-name="Ellipse 270" cx="4.784" cy="4.784" r="4.784" transform="translate(72.475 100.016) rotate(-79.724)" fill="url(#linear-gradient-35)"/>
        <path id="Path_38660" data-name="Path 38660" d="M-1012.46-306.735a4.784,4.784,0,0,1,6.657,1.207,4.784,4.784,0,0,1-1.207,6.657,4.784,4.784,0,0,1-6.657-1.207A4.784,4.784,0,0,1-1012.46-306.735Z" transform="translate(1042.453 333.577)" fill="url(#linear-gradient-36)"/>
      </g>
      <g id="Group_36131" data-name="Group 36131" transform="translate(46.39)">
        <path id="Path_38661" data-name="Path 38661" d="M-967.489-269.524l53.179,4.048,8.948-117.532-53.178-4.049Zm46.883-110.548a15.525,15.525,0,0,0,10.1,11.715l-6.671,87.621a15.524,15.524,0,0,0-11.756,10.051l-23.311-1.775a15.525,15.525,0,0,0-10.1-11.715l6.671-87.621a15.525,15.525,0,0,0,11.756-10.051Z" transform="translate(967.489 387.056)" fill="url(#linear-gradient-37)"/>
        <path id="Path_38662" data-name="Path 38662" d="M-935.952-373.782l23.311,1.775a15.525,15.525,0,0,0,10.1,11.715l-6.671,87.621a15.525,15.525,0,0,0-11.756,10.051l-23.311-1.775a15.525,15.525,0,0,0-10.1-11.715l6.671-87.621A15.525,15.525,0,0,0-935.952-373.782Z" transform="translate(959.523 378.991)" fill="url(#linear-gradient-38)"/>
        <circle id="Ellipse_271" data-name="Ellipse 271" cx="17.628" cy="17.628" r="17.628" transform="matrix(0.785, -0.619, 0.619, 0.785, 6.306, 57.863)" fill="url(#linear-gradient-39)"/>
        <g id="Group_36129" data-name="Group 36129" transform="translate(16.292 46.019)">
          <path id="Path_38663" data-name="Path 38663" d="M-896.475-253.9a14.787,14.787,0,0,1-15.849,13.606,14.787,14.787,0,0,1-13.606-15.849,14.787,14.787,0,0,1,15.849-13.606A14.787,14.787,0,0,1-896.475-253.9Zm-28.41-2.163a13.738,13.738,0,0,0,12.641,14.724A13.738,13.738,0,0,0-897.52-253.98,13.737,13.737,0,0,0-910.161-268.7,13.738,13.738,0,0,0-924.885-256.064Z" transform="translate(925.974 269.793)" fill="url(#linear-gradient-40)"/>
        </g>
        <g id="Group_36130" data-name="Group 36130" transform="translate(19.325 54.714)">
          <path id="Path_38664" data-name="Path 38664" d="M-894.973-239.053l-2.711-.206a11.5,11.5,0,0,1-1.6,4.757l-3.273-1.11a10.108,10.108,0,0,0,1.616-4.641c.124-1.626-.419-2.787-1.56-2.874-1.084-.083-1.839.778-2.713,2.835-1.26,2.975-2.845,4.95-5.613,4.739-2.511-.191-4.345-2.111-4.712-5.209l-2.711-.206.213-2.8,2.511.191a10.3,10.3,0,0,1,1.257-4.065l3.161,1.073a9.487,9.487,0,0,0-1.283,4.035c-.141,1.855.612,2.515,1.411,2.576.942.071,1.617-.881,2.715-3.237,1.456-3.3,3.13-4.554,5.7-4.359,2.54.193,4.571,2.156,4.892,5.481l2.911.221Z" transform="translate(918.246 247.639)" fill="url(#linear-gradient-41)"/>
        </g>
        <circle id="Ellipse_272" data-name="Ellipse 272" cx="4.784" cy="4.784" r="4.784" transform="translate(21.735 97.854) rotate(-24.186)" fill="url(#linear-gradient-42)"/>
        <path id="Path_38665" data-name="Path 38665" d="M-887.647-345.9a4.784,4.784,0,0,1,4.407,5.133,4.784,4.784,0,0,1-5.133,4.407,4.784,4.784,0,0,1-4.407-5.133A4.784,4.784,0,0,1-887.647-345.9Z" transform="translate(922.108 362.059)" fill="url(#linear-gradient-43)"/>
      </g>
      <g id="Group_36134" data-name="Group 36134" transform="translate(63.21 8.391)">
        <path id="Path_38666" data-name="Path 38666" d="M-924.631-257.385l49,21.065,46.555-108.289-49-21.065Zm80.179-89.388a15.526,15.526,0,0,0,5.757,14.356l-34.707,80.73a15.526,15.526,0,0,0-14.379,5.7l-21.478-9.234a15.525,15.525,0,0,0-5.757-14.356l34.708-80.73a15.526,15.526,0,0,0,14.379-5.7Z" transform="translate(924.631 365.674)" fill="url(#linear-gradient-44)"/>
        <path id="Path_38667" data-name="Path 38667" d="M-851.044-341.04l21.478,9.234a15.526,15.526,0,0,0,5.757,14.356l-34.708,80.73a15.526,15.526,0,0,0-14.379,5.7l-21.478-9.234a15.525,15.525,0,0,0-5.757-14.356l34.708-80.73A15.525,15.525,0,0,0-851.044-341.04Z" transform="translate(909.745 350.708)" fill="url(#linear-gradient-45)"/>
        <circle id="Ellipse_273" data-name="Ellipse 273" cx="17.628" cy="17.628" r="17.628" transform="translate(24.845 74.459) rotate(-68.103)" fill="url(#linear-gradient-46)"/>
        <g id="Group_36132" data-name="Group 36132" transform="translate(33.005 49.906)">
          <path id="Path_38668" data-name="Path 38668" d="M-812.189-217.9a14.787,14.787,0,0,1-19.4,7.736,14.787,14.787,0,0,1-7.736-19.4,14.787,14.787,0,0,1,19.4-7.736A14.787,14.787,0,0,1-812.189-217.9Zm-26.176-11.253a13.738,13.738,0,0,0,7.187,18.026,13.738,13.738,0,0,0,18.026-7.187,13.738,13.738,0,0,0-7.186-18.026A13.738,13.738,0,0,0-838.365-229.156Z" transform="translate(840.529 238.507)" fill="url(#linear-gradient-47)"/>
        </g>
        <g id="Group_36133" data-name="Group 36133" transform="translate(36.479 56.414)">
          <path id="Path_38669" data-name="Path 38669" d="M-810.283-207.55l-2.5-1.074a11.491,11.491,0,0,1-3.052,3.983l-2.736-2.111a10.1,10.1,0,0,0,3.032-3.867c.644-1.5.507-2.772-.544-3.224-1-.429-1.992.141-3.486,1.8-2.156,2.406-4.3,3.76-6.845,2.664-2.314-.995-3.426-3.4-2.769-6.455l-2.5-1.074,1.107-2.576,2.314.994a10.3,10.3,0,0,1,2.507-3.439l2.643,2.04a9.492,9.492,0,0,0-2.521,3.4c-.735,1.709-.236,2.578.5,2.894.868.373,1.815-.31,3.618-2.182,2.449-2.654,4.437-3.294,6.8-2.277,2.34,1.006,3.625,3.521,2.852,6.77l2.682,1.153Z" transform="translate(831.679 221.925)" fill="url(#linear-gradient-48)"/>
        </g>
        <path id="Path_38670" data-name="Path 38670" d="M-848.247-120.014a4.784,4.784,0,0,1,2.505,6.285,4.784,4.784,0,0,1-6.284,2.505,4.784,4.784,0,0,1-2.505-6.284A4.784,4.784,0,0,1-848.247-120.014Z" transform="translate(882.279 216.659)" fill="url(#linear-gradient-49)"/>
        <circle id="Ellipse_274" data-name="Ellipse 274" cx="4.784" cy="4.784" r="4.784" transform="translate(57.984 31.777) rotate(-79.428)" fill="url(#linear-gradient-50)"/>
      </g>
      <g id="Group_36137" data-name="Group 36137" transform="translate(75.674 24.921)">
        <path id="Path_38671" data-name="Path 38671" d="M-892.87-246.615l34.812,40.4,89.3-76.939-34.812-40.4Zm111.241-45.215a15.525,15.525,0,0,0-1.116,15.427l-66.573,57.358a15.525,15.525,0,0,0-15.422-1.178L-880-237.935a15.526,15.526,0,0,0,1.116-15.427l66.572-57.358a15.525,15.525,0,0,0,15.422,1.178Z" transform="translate(892.87 323.554)" fill="url(#linear-gradient-51)"/>
        <path id="Path_38672" data-name="Path 38672" d="M-776.965-289.672l15.26,17.711a15.525,15.525,0,0,0-1.116,15.427l-66.572,57.358a15.525,15.525,0,0,0-15.422-1.178l-15.26-17.711a15.526,15.526,0,0,0,1.116-15.427l66.573-57.358A15.525,15.525,0,0,0-776.965-289.672Z" transform="translate(872.945 303.685)" fill="url(#linear-gradient-52)"/>
        <circle id="Ellipse_275" data-name="Ellipse 275" cx="17.628" cy="17.628" r="17.628" transform="translate(43.501 75.322) rotate(-86.904)" fill="url(#linear-gradient-53)"/>
        <g id="Group_36135" data-name="Group 36135" transform="translate(47.291 43.908)">
          <path id="Path_38673" data-name="Path 38673" d="M-747.961-185.718a14.787,14.787,0,0,1-20.831-1.549,14.788,14.788,0,0,1,1.549-20.831,14.788,14.788,0,0,1,20.831,1.549A14.787,14.787,0,0,1-747.961-185.718Zm-18.6-21.586A13.738,13.738,0,0,0-768-187.951a13.738,13.738,0,0,0,19.352,1.439,13.738,13.738,0,0,0,1.439-19.353A13.737,13.737,0,0,0-766.559-207.3Z" transform="translate(772.366 211.672)" fill="url(#linear-gradient-54)"/>
        </g>
        <g id="Group_36136" data-name="Group 36136" transform="translate(53.321 48.892)">
          <path id="Path_38674" data-name="Path 38674" d="M-741.867-179.273l-1.775-2.06a11.506,11.506,0,0,1-4.489,2.243l-1.535-3.1a10.109,10.109,0,0,0,4.42-2.147c1.236-1.064,1.671-2.27.924-3.137-.71-.824-1.852-.746-3.923.094-2.992,1.218-5.509,1.5-7.321-.605-1.644-1.908-1.588-4.562.339-7.015l-1.775-2.06,2.125-1.831,1.644,1.908a10.293,10.293,0,0,1,3.76-1.992l1.482,2.991a9.489,9.489,0,0,0-3.757,1.952c-1.41,1.215-1.342,2.213-.819,2.821.617.716,1.767.517,4.208-.377,3.364-1.312,5.432-1.017,7.113.934,1.663,1.93,1.716,4.754-.4,7.336l1.906,2.212Z" transform="translate(757.001 198.972)" fill="url(#linear-gradient-55)"/>
        </g>
        <circle id="Ellipse_276" data-name="Ellipse 276" cx="4.784" cy="4.784" r="4.784" transform="translate(27.204 89.21) rotate(-89.03)" fill="url(#linear-gradient-56)"/>
        <circle id="Ellipse_277" data-name="Ellipse 277" cx="4.784" cy="4.784" r="4.784" transform="translate(87.476 37.281) rotate(-89.03)" fill="url(#linear-gradient-57)"/>
      </g>
      <rect id="Rectangle_1411" data-name="Rectangle 1411" width="113.169" height="87.084" rx="10.642" transform="translate(29.068 78.718)" fill="url(#linear-gradient-58)"/>
      <g id="Group_36145" data-name="Group 36145" transform="translate(29.069 85.457)">
        <g id="Group_36138" data-name="Group 36138" transform="translate(0 0)">
          <rect id="Rectangle_1412" data-name="Rectangle 1412" width="2.286" height="1.524" fill="#fff"/>
        </g>
        <g id="Group_36139" data-name="Group 36139" transform="translate(6.722)">
          <path id="Path_38675" data-name="Path 38675" d="M-901.337-167.778h-4.436V-169.3h4.436Zm-8.872,0h-4.437V-169.3h4.437Zm-8.873,0h-4.436V-169.3h4.436Zm-8.872,0h-4.436V-169.3h4.436Zm-8.872,0h-4.436V-169.3h4.436Zm-8.872,0h-4.436V-169.3h4.436Zm-8.872,0h-4.436V-169.3h4.436Zm-8.872,0h-4.436V-169.3h4.436Zm-8.873,0h-4.436V-169.3h4.436Zm-8.872,0h-4.436V-169.3h4.436Zm-8.872,0H-994.5V-169.3h4.436Z" transform="translate(994.498 169.302)" fill="#fff"/>
        </g>
        <g id="Group_36140" data-name="Group 36140" transform="translate(104.319 0)">
          <path id="Path_38676" data-name="Path 38676" d="M-742.76-166.254h-1.524v-1.524h-1.524V-169.3h3.048Z" transform="translate(745.808 169.302)" fill="#fff"/>
        </g>
        <g id="Group_36141" data-name="Group 36141" transform="translate(105.843 7.609)">
          <path id="Path_38677" data-name="Path 38677" d="M-740.4-90.62h-1.524v-4.561h1.524Zm0-9.122h-1.524V-104.3h1.524Zm0-9.122h-1.524v-4.561h1.524Zm0-9.122h-1.524v-4.561h1.524Zm0-9.122h-1.524v-4.561h1.524Zm0-9.122h-1.524v-4.561h1.524Zm0-9.122h-1.524v-4.561h1.524Z" transform="translate(741.925 149.913)" fill="#fff"/>
        </g>
        <g id="Group_36142" data-name="Group 36142" transform="translate(104.319 71.463)">
          <path id="Path_38678" data-name="Path 38678" d="M-742.76,15.843h-3.048V14.319h1.524V12.795h1.524Z" transform="translate(745.808 -12.795)" fill="#fff"/>
        </g>
        <g id="Group_36143" data-name="Group 36143" transform="translate(6.722 72.987)">
          <path id="Path_38679" data-name="Path 38679" d="M-901.337,18.2h-4.436V16.678h4.436Zm-8.873,0h-4.436V16.678h4.436Zm-8.872,0h-4.436V16.678h4.436Zm-8.872,0h-4.436V16.678h4.436Zm-8.872,0h-4.436V16.678h4.436Zm-8.872,0h-4.436V16.678h4.436Zm-8.872,0h-4.436V16.678h4.436Zm-8.872,0h-4.436V16.678h4.436Zm-8.873,0h-4.436V16.678h4.436Zm-8.872,0h-4.436V16.678h4.436Zm-8.872,0H-994.5V16.678h4.436Z" transform="translate(994.498 -16.678)" fill="#fff"/>
        </g>
        <g id="Group_36144" data-name="Group 36144" transform="translate(0 72.987)">
          <rect id="Rectangle_1413" data-name="Rectangle 1413" width="2.286" height="1.524" transform="translate(0 0)" fill="#fff"/>
        </g>
      </g>
      <rect id="Rectangle_1414" data-name="Rectangle 1414" width="44.947" height="26.888" rx="7.471" transform="translate(105.919 110.322)" fill="url(#linear-gradient-29)"/>
      <g id="Group_36153" data-name="Group 36153" transform="translate(108.852 112.722)">
        <g id="Group_36146" data-name="Group 36146" transform="translate(40.49 0)">
          <rect id="Rectangle_1415" data-name="Rectangle 1415" width="1.524" height="1.219" fill="#fff"/>
        </g>
        <g id="Group_36147" data-name="Group 36147" transform="translate(5.084 0)">
          <path id="Path_38680" data-name="Path 38680" d="M-762.918-98.608h-2.95v-1.219h2.95Zm-5.9,0h-2.95v-1.219h2.95Zm-5.9,0h-2.951v-1.219h2.951Zm-5.9,0h-2.95v-1.219h2.95Zm-5.9,0h-2.951v-1.219h2.951Zm-5.9,0h-2.95v-1.219h2.95Z" transform="translate(795.374 99.827)" fill="#fff"/>
        </g>
        <g id="Group_36148" data-name="Group 36148" transform="translate(0 0)">
          <path id="Path_38681" data-name="Path 38681" d="M-807.11-97.693h-1.219v-2.134h2.134v1.219h-.914Z" transform="translate(808.329 99.827)" fill="#fff"/>
        </g>
        <g id="Group_36149" data-name="Group 36149" transform="translate(0 5.657)">
          <path id="Path_38682" data-name="Path 38682" d="M-807.11-74.839h-1.219v-3.524h1.219Zm0-7.048h-1.219v-3.524h1.219Z" transform="translate(808.329 85.411)" fill="#fff"/>
        </g>
        <g id="Group_36150" data-name="Group 36150" transform="translate(0 19.753)">
          <path id="Path_38683" data-name="Path 38683" d="M-806.2-47.36h-2.134v-2.134h1.219v.914h.914Z" transform="translate(808.329 49.493)" fill="#fff"/>
        </g>
        <g id="Group_36151" data-name="Group 36151" transform="translate(5.084 20.667)">
          <path id="Path_38684" data-name="Path 38684" d="M-762.918-45.945h-2.951v-1.219h2.951Zm-5.9,0h-2.95v-1.219h2.95Zm-5.9,0h-2.951v-1.219h2.951Zm-5.9,0h-2.95v-1.219h2.95Zm-5.9,0h-2.951v-1.219h2.951Zm-5.9,0h-2.95v-1.219h2.95Z" transform="translate(795.374 47.164)" fill="#fff"/>
        </g>
        <g id="Group_36152" data-name="Group 36152" transform="translate(40.49 20.668)">
          <rect id="Rectangle_1416" data-name="Rectangle 1416" width="1.524" height="1.219" fill="#fff"/>
        </g>
      </g>
      <circle id="Ellipse_278" data-name="Ellipse 278" cx="6.647" cy="6.647" r="6.647" transform="translate(113.619 116.065)" fill="url(#linear-gradient-60)"/>
    </g>
  </g>
</svg>
