<svg id="facebook" xmlns="http://www.w3.org/2000/svg" width="37.149" height="37.149" viewBox="0 0 37.149 37.149">
  <path id="Path_35919" data-name="Path 35919" d="M37.149,18.575A18.574,18.574,0,1,0,18.574,37.149,18.575,18.575,0,0,0,37.149,18.575Zm-35.46,0A16.886,16.886,0,1,1,18.574,35.461,16.886,16.886,0,0,1,1.689,18.575Z" fill="#fff"/>
  <path id="Path_35920" data-name="Path 35920" d="M229.526,151.269V140.548h3.538l.559-3.553h-4.1v-1.781c0-.927.3-1.812,1.635-1.812h2.66v-3.546h-3.776c-3.175,0-4.041,2.09-4.041,4.988v2.15h-2.178v3.554H226v10.721Z" transform="translate(-210.239 -121.974)" fill="#fff"/>
</svg>
