<svg xmlns="http://www.w3.org/2000/svg" width="37.074" height="37.074" viewBox="0 0 37.074 37.074">
  <g id="instagram" transform="translate(-236.321 -7575.662)">
    <g id="twitter-circular-button" transform="translate(236.321 7575.662)">
      <g id="Group_34323" data-name="Group 34323">
        <path id="Path_35922" data-name="Path 35922" d="M37.074,18.537A18.537,18.537,0,1,0,18.537,37.074,18.537,18.537,0,0,0,37.074,18.537Zm-35.389,0A16.852,16.852,0,1,1,18.537,35.389,16.851,16.851,0,0,1,1.685,18.537Z" fill="#fff"/>
      </g>
    </g>
    <g id="instagram-2" data-name="instagram" transform="translate(245.931 7585.273)">
      <path id="Path_35924" data-name="Path 35924" d="M96.773,80.326h-13.5a2.241,2.241,0,0,0-2.239,2.239V96.232a2.241,2.241,0,0,0,2.239,2.239h13.5a2.241,2.241,0,0,0,2.239-2.239V82.565A2.241,2.241,0,0,0,96.773,80.326Zm.118,15.906a.118.118,0,0,1-.118.118h-13.5a.118.118,0,0,1-.118-.118V82.565a.118.118,0,0,1,.118-.118h13.5a.118.118,0,0,1,.118.118Z" transform="translate(-81.034 -80.326)" fill="#fff"/>
      <rect id="Rectangle_749" data-name="Rectangle 749" width="2.429" height="2.228" transform="translate(12.083 3.71)" fill="#fff"/>
      <ellipse id="Ellipse_206" data-name="Ellipse 206" cx="2.395" cy="2.395" rx="2.395" ry="2.395" transform="translate(6.594 7.576)" fill="#fff"/>
      <path id="Path_35925" data-name="Path 35925" d="M119.8,152.113a3.82,3.82,0,1,1-7.639,0l.005-1.7h-1.708v6.334H121.5v-6.334h-1.694Z" transform="translate(-106.989 -142.153)" fill="#fff"/>
    </g>
  </g>
</svg>
