<svg id="twitter" xmlns="http://www.w3.org/2000/svg" width="37.074" height="37.074" viewBox="0 0 37.074 37.074">
  <path id="Path_35921" data-name="Path 35921" d="M159.188,169.629c0-.187,0-.372-.012-.556a8.421,8.421,0,0,0,2.044-2.2,7.849,7.849,0,0,1-2.353.644,4.2,4.2,0,0,0,1.8-2.353,7.866,7.866,0,0,1-2.6,1,4.075,4.075,0,0,0-2.99-1.411,4.138,4.138,0,0,0-4.095,4.269,4.551,4.551,0,0,0,.106.989,11.532,11.532,0,0,1-8.443-4.665,4.594,4.594,0,0,0,1.267,5.851,3.919,3.919,0,0,1-1.855-.568v.056A4.35,4.35,0,0,0,145.346,175a3.879,3.879,0,0,1-1.079.147,3.739,3.739,0,0,1-.77-.084,4.163,4.163,0,0,0,3.825,3.048,7.9,7.9,0,0,1-5.086,1.852,7.8,7.8,0,0,1-.977-.062,11.049,11.049,0,0,0,6.279,1.968C155.069,181.872,159.188,175.316,159.188,169.629Z" transform="translate(-132.702 -154.777)" fill="#fff"/>
  <path id="Path_35922" data-name="Path 35922" d="M37.074,18.537A18.537,18.537,0,1,0,18.537,37.074,18.537,18.537,0,0,0,37.074,18.537Zm-35.389,0A16.852,16.852,0,1,1,18.537,35.389,16.851,16.851,0,0,1,1.685,18.537Z" fill="#fff"/>
</svg>
