<svg xmlns="http://www.w3.org/2000/svg" width="41.733" height="41.708" viewBox="0 0 41.733 41.708">
  <g id="blockchain" transform="translate(-967.759 -2092.725)">
    <g id="Group_35736" data-name="Group 35736" transform="translate(967.759 2092.725)">
      <path id="Path_37838" data-name="Path 37838" d="M-1198.4,478.749h-1.147c-3.095,0-6.19.007-9.285-.009-.422,0-.562.1-.56.543q.027,4.98,0,9.961c0,.43.11.586.552.558.569-.036,1.141-.015,1.712-.006a1.028,1.028,0,0,1,1.082,1.024,1.044,1.044,0,0,1-1.052,1.108c-1.111.018-2.224.016-3.335,0a1.073,1.073,0,0,1-1.088-1.177c-.005-1.623,0-3.246,0-4.869v-.538h-.531q-7.775,0-15.55-.007a.8.8,0,0,0-.734.372,2.374,2.374,0,0,1-3.5.317,2.4,2.4,0,0,1,0-3.526,2.366,2.366,0,0,1,3.5.307.888.888,0,0,0,.817.4q7.707-.017,15.415-.008c.589,0,.589,0,.589-.582q0-2.389,0-4.779a1.077,1.077,0,0,1,1.2-1.237q6.468-.01,12.936,0a1.151,1.151,0,0,1,1.221,1.37c-.023.254-.029.509-.029.764q0,5.883,0,11.766c0,1.1-.334,1.43-1.42,1.43-.946,0-1.893,0-2.84,0a1.106,1.106,0,0,1-1.226-1.091,1.09,1.09,0,0,1,1.213-1.047c.586,0,1.172-.006,1.758,0,.227,0,.369-.039.368-.315q-.01-5.274-.01-10.549A.9.9,0,0,0-1198.4,478.749Z" transform="translate(1237.886 -476.597)" fill="#fff"/>
      <path id="Path_37839" data-name="Path 37839" d="M-985.943,569.2c.008-.144.023-.29.023-.436,0-3.336-.006-6.672.011-10.008,0-.432-.114-.556-.551-.553q-4.979.027-9.958,0c-.44,0-.577.128-.551.56.034.569.016,1.142.005,1.713a1.026,1.026,0,0,1-1.031,1.075,1.042,1.042,0,0,1-1.1-1.06q-.025-1.668,0-3.336a1.071,1.071,0,0,1,1.183-1.081c1.607-.005,3.215,0,4.823,0h.551c.009-.176.024-.334.024-.491q0-7.822.008-15.643a.716.716,0,0,0-.342-.659,2.352,2.352,0,0,1-.845-2.688,2.4,2.4,0,0,1,2.265-1.618,2.4,2.4,0,0,1,2.264,1.622,2.34,2.34,0,0,1-.851,2.683.792.792,0,0,0-.361.747q.012,7.754,0,15.508c0,.436.12.556.552.549,1.577-.025,3.155-.01,4.732-.01a1.191,1.191,0,0,1,1.341,1.469c-.018.194-.015.39-.015.585q0,5.928,0,11.857a2.209,2.209,0,0,1-.122.834,1.091,1.091,0,0,1-1.16.593c-2.494-.006-4.988,0-7.482,0-1.743,0-3.486,0-5.228,0-.966,0-1.333-.374-1.334-1.336,0-.977,0-1.954,0-2.93a1.106,1.106,0,0,1,1.1-1.221,1.093,1.093,0,0,1,1.042,1.219c0,.586.007,1.172,0,1.758,0,.232.049.364.32.363q5.273-.01,10.547-.01A.632.632,0,0,0-985.943,569.2Z" transform="translate(1025.464 -529.698)" fill="#fff"/>
      <path id="Path_37840" data-name="Path 37840" d="M-1282.248,491.936v.529q0,7.776-.007,15.551a.8.8,0,0,0,.368.737,2.374,2.374,0,0,1,.323,3.5,2.39,2.39,0,0,1-3.524.011,2.366,2.366,0,0,1,.3-3.5.893.893,0,0,0,.407-.815q-.019-7.731-.009-15.461v-.526c-.211-.01-.37-.024-.53-.024-1.607,0-3.215,0-4.822,0a1.086,1.086,0,0,1-1.245-1.241q-.007-6.446,0-12.892a1.047,1.047,0,0,1,1.189-1.2q6.467-.008,12.934,0a1.077,1.077,0,0,1,1.2,1.236q0,1.51,0,3.02a1.107,1.107,0,0,1-1.09,1.227,1.09,1.09,0,0,1-1.048-1.212c0-.586-.006-1.172,0-1.758,0-.226-.037-.37-.314-.369q-5.273.01-10.545.01a.742.742,0,0,0-.161.047c-.007.155-.021.316-.021.476,0,3.32.006,6.641-.01,9.962,0,.422.1.563.544.561q4.978-.027,9.957,0c.429,0,.587-.11.559-.552-.036-.569-.016-1.142-.006-1.712a1.025,1.025,0,0,1,1.024-1.082,1.043,1.043,0,0,1,1.108,1.051c.017,1.112.016,2.224,0,3.335a1.073,1.073,0,0,1-1.176,1.089c-1.622.005-3.245,0-4.867,0Z" transform="translate(1290.992 -476.6)" fill="#fff"/>
      <path id="Path_37841" data-name="Path 37841" d="M-1275.662,775.147h.572q7.752,0,15.5.006a.8.8,0,0,0,.737-.367,2.37,2.37,0,0,1,3.5-.324,2.393,2.393,0,0,1,.012,3.525,2.366,2.366,0,0,1-3.5-.3.891.891,0,0,0-.814-.408q-7.729.018-15.459.008h-.526c-.01.212-.024.371-.024.531,0,1.608,0,3.216,0,4.823a1.086,1.086,0,0,1-1.242,1.245q-6.422.007-12.845,0c-.866,0-1.241-.375-1.242-1.237q-.006-6.4,0-12.8c0-.913.385-1.29,1.286-1.292.992,0,1.983,0,2.975,0a1.106,1.106,0,0,1,1.223,1.093,1.089,1.089,0,0,1-1.215,1.045c-.586,0-1.172.006-1.758,0-.228,0-.367.042-.367.317q.01,5.274.01,10.548a.731.731,0,0,0,.047.16c.156.007.317.02.477.02,3.32,0,6.64-.006,9.96.01.422,0,.562-.1.56-.544q-.027-5,0-10.005c0-.392-.1-.535-.505-.513-.584.032-1.171.015-1.757.005a1.026,1.026,0,0,1-1.082-1.024,1.042,1.042,0,0,1,1.05-1.108q1.667-.026,3.335,0a1.074,1.074,0,0,1,1.089,1.176c.005,1.623,0,3.246,0,4.868Z" transform="translate(1290.994 -742.187)" fill="#fff"/>
    </g>
  </g>
</svg>
