<svg xmlns="http://www.w3.org/2000/svg" width="42.758" height="41.179" viewBox="0 0 42.758 41.179">
  <g id="choose-multiple-designs" transform="translate(0 0)">
    <path id="Path_37824" data-name="Path 37824" d="M-630.074,621.01h10.694a4.093,4.093,0,0,1,4.308,4.319q0,7.524,0,15.047a4.1,4.1,0,0,1-4.358,4.37h-21.635a4.1,4.1,0,0,1-4.087-4.1q0-7.746,0-15.493a4.1,4.1,0,0,1,4.136-4.148Q-635.544,621.009-630.074,621.01Zm-.038,1.554q-5.522,0-11.043,0a2.265,2.265,0,0,0-2.441,2.441q0,7.823,0,15.645a2.283,2.283,0,0,0,2.541,2.541q10.969,0,21.938,0a2.28,2.28,0,0,0,2.492-2.493q0-7.823,0-15.645a2.269,2.269,0,0,0-2.492-2.488Q-624.615,622.562-630.111,622.565Z" transform="translate(657.828 -603.582)" fill="#fff"/>
    <path id="Path_37825" data-name="Path 37825" d="M-707.5,465.9q0,8.243,0,16.487a2.286,2.286,0,0,0,2.541,2.54c.462,0,.925-.008,1.386.006a.789.789,0,0,1,.824.752.78.78,0,0,1-.786.789,13.694,13.694,0,0,1-1.929-.023,4.09,4.09,0,0,1-3.588-4.069q0-16.462,0-32.924a4.1,4.1,0,0,1,4.145-4.14h21.64a4.093,4.093,0,0,1,4.293,4.285q0,5.545,0,11.09c0,.116,0,.231,0,.347a.811.811,0,0,1-.8.881.8.8,0,0,1-.749-.877c-.008-1.584,0-3.169,0-4.753q0-3.441,0-6.882a2.284,2.284,0,0,0-2.545-2.535q-10.993,0-21.987,0a2.265,2.265,0,0,0-2.439,2.443Q-707.5,457.608-707.5,465.9Z" transform="translate(715.389 -445.317)" fill="#fff"/>
    <path id="Path_37826" data-name="Path 37826" d="M-772.946,571.9q0-5.4,0-10.791a4.176,4.176,0,0,1,4.778-4.241.764.764,0,0,1,.728.744.77.77,0,0,1-.724.795c-.262.025-.528.006-.792.009a2.263,2.263,0,0,0-2.436,2.447q-.009,6.534,0,13.068,0,4.455,0,8.91a2.293,2.293,0,0,0,2.54,2.542c.479,0,.958-.014,1.436.007a.773.773,0,0,1,.776.748.765.765,0,0,1-.734.785,12.417,12.417,0,0,1-2.171-.06,4.038,4.038,0,0,1-3.4-4.023Q-772.95,577.373-772.946,571.9Z" transform="translate(772.947 -545.775)" fill="#fff"/>
    <path id="Path_37827" data-name="Path 37827" d="M-648.435,499.55c-1.237,0-2.474,0-3.711,0-.71,0-.991-.285-.992-.986q0-2.177,0-4.354c0-.68.282-.963.961-.964q3.785-.005,7.571,0c.649,0,.938.289.94.935q.008,2.226,0,4.453a.8.8,0,0,1-.911.914c-1.286.007-2.573,0-3.86,0Zm3.193-4.715h-6.309v3.133h6.309Z" transform="translate(665.024 -488.488)" fill="#fff"/>
    <path id="Path_37828" data-name="Path 37828" d="M-650.81,573.086h9.206c.083,0,.165,0,.247,0a.8.8,0,0,1,.831.8.786.786,0,0,1-.827.75c-1.072.013-2.145.007-3.217.007l-15.443,0c-.082,0-.165,0-.247,0a.805.805,0,0,1-.83-.8.776.776,0,0,1,.825-.747c1.2-.012,2.409-.006,3.613-.006h5.841Z" transform="translate(672.186 -560.408)" fill="#fff"/>
    <path id="Path_37829" data-name="Path 37829" d="M-536.952,542.7c-1.121,0-2.242,0-3.364,0-.59,0-.951-.3-.952-.773s.364-.775.949-.776q3.388-.005,6.777,0c.584,0,.953.309.954.774s-.374.776-.951.778c-1.138,0-2.275,0-3.413,0Z" transform="translate(564.25 -531.644)" fill="#fff"/>
    <path id="Path_37830" data-name="Path 37830" d="M-480.7,675.238q-1.856,0-3.711,0c-.713,0-1-.275-1-.976q-.007-2.177,0-4.354c0-.705.279-.974,1-.975q3.761,0,7.521,0c.653,0,.947.285.95.925q.01,2.226,0,4.453c0,.633-.305.925-.952.927C-478.158,675.241-479.428,675.238-480.7,675.238Zm3.189-4.719h-6.319v3.123h6.319Z" transform="translate(513.937 -646.748)" fill="#fff"/>
    <path id="Path_37831" data-name="Path 37831" d="M-591.63,764.762q2.251,0,4.5,0c.617,0,.995.312.98.795-.014.464-.38.754-.973.755q-4.552,0-9.1,0c-.616,0-1-.318-.98-.8.015-.464.383-.754.974-.754q2.3,0,4.6,0Z" transform="translate(614.638 -733.072)" fill="#fff"/>
    <path id="Path_37832" data-name="Path 37832" d="M-591.612,796.717q2.251,0,4.5,0c.6,0,.962.283.98.746.018.482-.36.8-.974.8q-4.576,0-9.152,0c-.579,0-.944-.324-.929-.8.014-.454.367-.75.923-.752C-594.713,796.714-593.163,796.717-591.612,796.717Z" transform="translate(614.621 -761.858)" fill="#fff"/>
  </g>
</svg>
