<svg xmlns="http://www.w3.org/2000/svg" xmlns:xlink="http://www.w3.org/1999/xlink" width="579.555" height="593.24" viewBox="0 0 579.555 593.24">
  <defs>
    <linearGradient id="linear-gradient" y1="0.5" x2="1" y2="0.5" gradientUnits="objectBoundingBox">
      <stop offset="0" stop-color="#fff" stop-opacity="0.2"/>
      <stop offset="1" stop-color="#fff" stop-opacity="0.702"/>
    </linearGradient>
    <clipPath id="clip-path">
      <ellipse id="Ellipse_227" data-name="Ellipse 227" cx="42.078" cy="28.168" rx="42.078" ry="28.168" transform="matrix(0.774, -0.633, 0.633, 0.774, 0, 53.291)" fill="none"/>
    </clipPath>
    <clipPath id="clip-path-2">
      <ellipse id="Ellipse_229" data-name="Ellipse 229" cx="43.003" cy="28.787" rx="43.003" ry="28.787" transform="translate(0 54.462) rotate(-39.289)" fill="none"/>
    </clipPath>
  </defs>
  <g id="design-resume" transform="translate(0.635)">
    <path id="Path_37708" data-name="Path 37708" d="M-400.956,306.826c18.624-81.868,103.748-131,183.677-105.3q2.409.772,4.857,1.615c104.484,35.918,70.2,142.034,122.443,174.687s89.792,80,66.936,142.034-161.625,120.81-271.008,53.874C-380.033,521.124-424.656,411.005-400.956,306.826Z" transform="translate(521.035 -58.78)" fill="none" stroke="#bfd9ff" stroke-miterlimit="10" stroke-width="1.109"/>
    <circle id="Ellipse_223" data-name="Ellipse 223" cx="67.752" cy="67.752" r="67.752" transform="translate(0 196.483) rotate(-80.912)" fill="none" stroke="#bfd9ff" stroke-miterlimit="10" stroke-width="1.109"/>
    <g id="Group_35732" data-name="Group 35732" transform="translate(48.382 0)">
      <path id="Path_37709" data-name="Path 37709" d="M-142.424,549.68H-379.386a7.346,7.346,0,0,1-6.709-10.338l168.133-377.125a7.35,7.35,0,0,1,6.711-4.356H25.711a7.349,7.349,0,0,1,6.711,10.34L-135.714,545.326A7.348,7.348,0,0,1-142.424,549.68Z" transform="translate(497.473 -103.289)" fill="url(#linear-gradient)"/>
      <path id="Path_37710" data-name="Path 37710" d="M-112.027,313.533l76.472-171.526a6.291,6.291,0,0,0-5.745-8.851H-255.87a20.167,20.167,0,0,0-18.421,11.955l-77.634,174.132a6.29,6.29,0,0,0,5.745,8.851h211.716A24.568,24.568,0,0,0-112.027,313.533Z" transform="translate(538.896 -133.156)" fill="#fff"/>
      <path id="Path_37711" data-name="Path 37711" d="M-124.591,366.746l76.47-171.526a6.289,6.289,0,0,0-5.745-8.851H-268.434a20.17,20.17,0,0,0-18.423,11.955l-77.632,174.132a6.29,6.29,0,0,0,5.745,8.851h211.716A24.568,24.568,0,0,0-124.591,366.746Z" transform="translate(523.706 -68.824)" fill="none" stroke="#fff" stroke-miterlimit="10" stroke-width="1.109"/>
      <path id="Path_37712" data-name="Path 37712" d="M-204.053,240.591h9.8l-26.325,51.426H-379.758l6.425-12.552" transform="translate(505.914 -3.271)" fill="none" stroke="#a1c2ff" stroke-miterlimit="10" stroke-width="0.554" opacity="0.39"/>
      <g id="Group_35693" data-name="Group 35693" transform="translate(236.343 8.361)">
        <g id="Group_35688" data-name="Group 35688" transform="translate(0 0)">
          <ellipse id="Ellipse_224" data-name="Ellipse 224" cx="48.322" cy="36.311" rx="48.322" ry="36.311" transform="translate(0 63.302) rotate(-40.92)" fill="#e6f4ff"/>
          <g id="Group_35687" data-name="Group 35687" transform="translate(7.094 6.952)">
            <ellipse id="Ellipse_225" data-name="Ellipse 225" cx="42.637" cy="32.039" rx="42.637" ry="32.039" transform="translate(0 55.855) rotate(-40.92)" fill="#94c3ff"/>
          </g>
        </g>
        <g id="Group_35692" data-name="Group 35692" transform="translate(25.373 30.334)">
          <g id="Group_35691" data-name="Group 35691">
            <g id="Group_35690" data-name="Group 35690" transform="translate(0 4.465)">
              <g id="Group_35689" data-name="Group 35689">
                <path id="Path_37713" data-name="Path 37713" d="M-282.788,167.04s-19.419,3.21-27.711,6.477c-5.631,3.393-6.528,6.088-7.871,10.133l-.02.042c4.515,7.893,13.106,12.909,24.325,12.909,14.5,0,29.406-8.365,38.944-20.512C-260.314,168.463-282.788,167.04-282.788,167.04Z" transform="translate(318.39 -135.351)" fill="#33a8f2"/>
                <path id="Path_37714" data-name="Path 37714" d="M-303.476,168.012l-3.349,14.148a2.682,2.682,0,0,0,2.134,3.521,15.886,15.886,0,0,0,11.255-2.456,5.017,5.017,0,0,0,2.344-3.689c.471-6.6,1.809-20.137,1.809-20.137Z" transform="translate(332.246 -144.588)" fill="#ff8d68"/>
                <path id="Path_37715" data-name="Path 37715" d="M-302.588,161.123s-9.119,18.469-7.345,23.428c2.054,3.386,20.393-4.217,23.4-9.169s9.9-13.919,4.528-19.525S-295.687,152.157-302.588,161.123Z" transform="translate(328.338 -152.694)" fill="#ff8d68"/>
              </g>
            </g>
            <path id="Path_37716" data-name="Path 37716" d="M-306.614,163.567s-1.606-6.523,3.917-10.367,12.6-3.075,15.153.769a42.783,42.783,0,0,1,2.77,4.42,5.2,5.2,0,0,1,3.621,3.459c.9,2.883-4.844,10.186-7.179,12.3s-1.855,2.169-1.855,2.169l-.782-1.016a45.99,45.99,0,0,1,1.575-8.84c.3-1.73-1.67-4.228-5.156-4.8S-299.318,164.324-306.614,163.567Z" transform="translate(332.364 -150.673)" fill="#7e3636"/>
            <path id="Path_37717" data-name="Path 37717" d="M-297.656,161.3s1.266-2.357,3.523-1.69c2.244.749-2.233,7.806-4.608,7.316C-301.014,166.35-297.656,161.3-297.656,161.3Z" transform="translate(341.19 -140.006)" fill="#ff8d68"/>
            <path id="Path_37718" data-name="Path 37718" d="M-289.489,167.3s-4.875,5.381-9.671,6.918c-.844.256-2.09,1.922-2.09,1.922l-.877-2.306s-3.291-1.922-2.337-5.253l-.658.512-1.763,4.356s-1.3,4.1-1.23,5.637l4.414-2.434a8.6,8.6,0,0,0,4.831.128s.912,3.075,1.734,3.331,7.493-6.022,8.5-8.2a8.168,8.168,0,0,0,.864-4.356Z" transform="translate(330.808 -130.568)" fill="#fff"/>
          </g>
        </g>
      </g>
      <g id="Group_35694" data-name="Group 35694" transform="translate(347.201 37.08)">
        <path id="Path_37719" data-name="Path 37719" d="M-183.122,196.419h-92.951c-2.852,0-4.323-2.313-3.285-5.165l13.157-36.147a8.172,8.172,0,0,1,7.044-5.165h92.951c2.852,0,4.321,2.313,3.285,5.165l-13.157,36.147A8.172,8.172,0,0,1-183.122,196.419Z" transform="translate(279.691 -149.942)" fill="#a1c2ff" opacity="0.39"/>
        <path id="Path_37720" data-name="Path 37720" d="M-189.737,159.465h-80.041l1.41-3.873h80.04Z" transform="translate(291.675 -143.112)" fill="#94c3ff"/>
        <path id="Path_37721" data-name="Path 37721" d="M-223.07,163.556h-48.2l1.41-3.873h48.2Z" transform="translate(289.875 -138.166)" fill="#94c3ff"/>
        <path id="Path_37722" data-name="Path 37722" d="M-260.134,167.257h-12.48l1.41-3.873h12.479Z" transform="translate(288.246 -133.691)" fill="#94c3ff"/>
      </g>
      <g id="Group_35697" data-name="Group 35697" transform="translate(327.88 94.367)">
        <path id="Path_37723" data-name="Path 37723" d="M-269.487,181.692c-1.3,3.212-4.955,5.816-8.167,5.816s-4.762-2.6-3.466-5.816,4.955-5.816,8.167-5.816S-268.19,178.48-269.487,181.692Z" transform="translate(296.73 -175.876)" fill="#94c3ff"/>
        <path id="Path_37724" data-name="Path 37724" d="M-260.341,181.692c-1.3,3.212-4.955,5.816-8.167,5.816s-4.763-2.6-3.466-5.816,4.955-5.816,8.167-5.816S-259.044,178.48-260.341,181.692Z" transform="translate(307.788 -175.876)" fill="#94c3ff"/>
        <path id="Path_37725" data-name="Path 37725" d="M-251.195,181.692c-1.3,3.212-4.955,5.816-8.166,5.816s-4.763-2.6-3.466-5.816,4.955-5.816,8.166-5.816S-249.9,178.48-251.195,181.692Z" transform="translate(318.845 -175.876)" fill="#94c3ff"/>
        <path id="Path_37726" data-name="Path 37726" d="M-242.049,181.692c-1.3,3.212-4.955,5.816-8.167,5.816s-4.763-2.6-3.466-5.816,4.955-5.816,8.167-5.816S-240.752,178.48-242.049,181.692Z" transform="translate(329.902 -175.876)" fill="#ff8d02"/>
        <path id="Path_37727" data-name="Path 37727" d="M-232.9,181.692c-1.3,3.212-4.955,5.816-8.167,5.816s-4.763-2.6-3.466-5.816,4.955-5.816,8.167-5.816S-231.606,178.48-232.9,181.692Z" transform="translate(340.959 -175.876)" fill="#a1c2ff" opacity="0.39"/>
        <g id="Group_35696" data-name="Group 35696" transform="translate(0 15.613)">
          <g id="Group_35695" data-name="Group 35695" transform="translate(4.981 4.162)">
            <path id="Path_37728" data-name="Path 37728" d="M-232.672,186.512l-25.646,26.654L-284.891,223.7l30.119,22.109,30.271-25.828Z" transform="translate(287.744 -182.793)" fill="#a1c2ff" opacity="0.39"/>
            <path id="Path_37729" data-name="Path 37729" d="M-244.233,193.522l-19.57,11.171-16.551,10.461,22.448,16.122,21.224-19.387Z" transform="translate(293.229 -174.318)" fill="#a1c2ff" opacity="0.7"/>
            <path id="Path_37730" data-name="Path 37730" d="M-232.672,186.512l-25.646,26.654L-284.891,223.7l30.036,22.315,30.354-26.035Z" transform="translate(287.744 -182.793)" fill="none" stroke="#4361c4" stroke-miterlimit="10" stroke-width="0.281"/>
            <path id="Path_37731" data-name="Path 37731" d="M-264.588,203.806a3.1,3.1,0,0,1-2.611,1.86c-1.027,0-1.524-.833-1.109-1.86a3.1,3.1,0,0,1,2.611-1.86C-264.67,201.946-264.175,202.779-264.588,203.806Z" transform="translate(307.615 -164.134)" fill="#4361c4"/>
            <path id="Path_37732" data-name="Path 37732" d="M-268.373,194.463l22.7,17.976-40.507,2.066" transform="translate(286.182 -173.181)" fill="none" stroke="#4361c4" stroke-miterlimit="10" stroke-width="0.281"/>
            <path id="Path_37733" data-name="Path 37733" d="M-272.053,234.238l10.122-30.167,26.707-2.686" transform="translate(303.264 -164.812)" fill="none" stroke="#4361c4" stroke-miterlimit="10" stroke-width="0.281"/>
            <line id="Line_79" data-name="Line 79" x1="15.242" y2="39.258" transform="translate(41.333)" fill="none" stroke="#4361c4" stroke-miterlimit="10" stroke-width="0.281"/>
          </g>
          <path id="Path_37734" data-name="Path 37734" d="M-273.633,196.015a5.2,5.2,0,0,1-4.383,3.121c-1.725,0-2.558-1.4-1.86-3.121a5.192,5.192,0,0,1,4.38-3.121C-273.77,192.894-272.937,194.29-273.633,196.015Z" transform="translate(298.489 -170.915)" fill="#94c3ff"/>
          <path id="Path_37735" data-name="Path 37735" d="M-281.949,205.253a5.193,5.193,0,0,1-4.383,3.121c-1.723,0-2.556-1.4-1.86-3.121a5.2,5.2,0,0,1,4.383-3.121C-282.086,202.132-281.253,203.53-281.949,205.253Z" transform="translate(288.437 -159.746)" fill="#ff8d02"/>
          <path id="Path_37736" data-name="Path 37736" d="M-267.169,218.187a5.2,5.2,0,0,1-4.38,3.121c-1.725,0-2.558-1.4-1.86-3.121a5.2,5.2,0,0,1,4.38-3.121C-267.3,215.066-266.471,216.464-267.169,218.187Z" transform="translate(306.307 -144.11)" fill="#94c3ff"/>
          <path id="Path_37737" data-name="Path 37737" d="M-250.187,203.109a5.192,5.192,0,0,1-4.38,3.121c-1.725,0-2.558-1.4-1.86-3.121a5.2,5.2,0,0,1,4.38-3.121C-250.321,199.988-249.489,201.386-250.187,203.109Z" transform="translate(326.838 -162.338)" fill="#94c3ff"/>
          <path id="Path_37738" data-name="Path 37738" d="M-255.45,186.065a5.2,5.2,0,0,1-4.383,3.121c-1.725,0-2.558-1.4-1.86-3.121a5.192,5.192,0,0,1,4.38-3.121C-255.587,182.944-254.755,184.34-255.45,186.065Z" transform="translate(320.472 -182.944)" fill="#ff8d02"/>
        </g>
      </g>
      <g id="Group_35698" data-name="Group 35698" transform="translate(230.844 124.424)">
        <path id="Path_37739" data-name="Path 37739" d="M-248.5,204.2h-77.809l5.947-14.72h77.809Z" transform="translate(339.69 -189.483)" fill="#33a8f2"/>
        <path id="Path_37740" data-name="Path 37740" d="M-288.029,214.594h-44.337l2.549-6.309h44.337Z" transform="translate(332.366 -166.752)" fill="#a1c2ff" opacity="0.39"/>
        <path id="Path_37741" data-name="Path 37741" d="M-297.462,213.486h-32.6l5.947-14.721h32.6Z" transform="translate(335.156 -178.261)" fill="#a1c2ff" opacity="0.39"/>
      </g>
      <g id="Group_35706" data-name="Group 35706" transform="translate(321.631 225.3)">
        <path id="Path_37742" data-name="Path 37742" d="M-171.551,325.678l38.074-85.4a3.131,3.131,0,0,0-2.861-4.407h-106.83a10.042,10.042,0,0,0-9.172,5.953l-38.652,86.7a3.132,3.132,0,0,0,2.861,4.407h105.409A12.231,12.231,0,0,0-171.551,325.678Z" transform="translate(291.266 -234.279)" fill="#fff"/>
        <g id="Group_35705" data-name="Group 35705" transform="translate(29.822 0)">
          <ellipse id="Ellipse_226" data-name="Ellipse 226" cx="42.078" cy="28.168" rx="42.078" ry="28.168" transform="matrix(0.774, -0.633, 0.633, 0.774, 0, 53.291)" fill="#a1c2ff" opacity="0.39"/>
          <g id="Group_35704" data-name="Group 35704" transform="translate(0)">
            <g id="Group_35703" data-name="Group 35703" transform="translate(0)" clip-path="url(#clip-path)">
              <g id="Group_35702" data-name="Group 35702" transform="translate(-2.295 22.585)">
                <path id="Path_37743" data-name="Path 37743" d="M-223.252,258.7s17.323,8.606,19.156,16.5-5.854,28.69-5.854,28.69H-278.8s11.288-24.387,20.062-30.124,25.708-10.119,25.708-10.119Z" transform="translate(278.805 -229.258)" fill="#33a8f2"/>
                <g id="Group_35701" data-name="Group 35701" transform="translate(35.269)">
                  <g id="Group_35700" data-name="Group 35700">
                    <g id="Group_35699" data-name="Group 35699" transform="translate(3.387 4.912)">
                      <path id="Path_37744" data-name="Path 37744" d="M-253.736,259.463l-5.4,11.674c-.676,1.46-.276,2.792.983,3.172a12.474,12.474,0,0,0,9.311-1.069,5.088,5.088,0,0,0,2.562-2.914c1.663-5.544,5.372-16.881,5.372-16.881Z" transform="translate(263.531 -240.528)" fill="#94c3ff"/>
                      <path id="Path_37745" data-name="Path 37745" d="M-250.936,253.573s-10.777,14.813-10.358,19.172c.945,3.048,16.823-1.743,20.15-5.666s10.5-10.892,7.385-16.121S-243.761,246.6-250.936,253.573Z" transform="translate(261.305 -247.598)" fill="#94c3ff"/>
                    </g>
                    <path id="Path_37746" data-name="Path 37746" d="M-248.627,254.086a6.956,6.956,0,0,0-.382.583c-.627,1.054-1.555,3.176,1.036,3.316l3.453.188s5.547-3.159,7.725.186c1.621,3.342-3.66,5.385-3.223,7.055s.219,1.3-.528,2.229a8.534,8.534,0,0,1-3.839,3.528c-2.494,1.116-4.462.93-6.843,2.229s-6.982-.186-7.462-1.3c-1.109-.93-1.75,1.113-2.461,2.414s-2.9,1.67-.793,3.342,3.667,2.414,7.354.186,3.8-2.043,7.515-2.971,6.481-2.805,7.9-5.118,1.873-5.282,3.066-6.395,1.858,0,1.332,1.3,4.537-1.113,5.741-5.014-.914-3.713-1.129-5.942,2.324-4.829-.38-6.872-5.24.557-6.2-.742-5.156-1.487-8.509,1.3a10.159,10.159,0,0,0-3.545,6.733" transform="translate(262.839 -245.374)" fill="#4361c4"/>
                    <path id="Path_37747" data-name="Path 37747" d="M-249.715,254.452s1.456-1.88,3.1-1.113c1.612.835-3.285,6.406-5.052,5.779C-253.338,258.421-249.715,254.452-249.715,254.452Z" transform="translate(275.811 -235.968)" fill="#94c3ff"/>
                    <path id="Path_37748" data-name="Path 37748" d="M-261.483,261.357s1.584-5.757,5.6-6.5,5.825,1.67,5.558,3.713a3.4,3.4,0,0,0,1.509,3.157S-258.94,266.557-261.483,261.357Z" transform="translate(264.477 -234.075)" fill="#4361c4"/>
                  </g>
                </g>
              </g>
            </g>
          </g>
        </g>
      </g>
      <g id="Group_35707" data-name="Group 35707" transform="translate(273.736 342.181)">
        <path id="Path_37749" data-name="Path 37749" d="M-193.233,377.869l38.074-85.4a3.131,3.131,0,0,0-2.861-4.407H-264.85a10.044,10.044,0,0,0-9.172,5.953l-38.652,86.7a3.132,3.132,0,0,0,2.861,4.407H-204.4A12.231,12.231,0,0,0-193.233,377.869Z" transform="translate(312.949 -288.062)" fill="#fff"/>
      </g>
      <g id="Group_35714" data-name="Group 35714" transform="translate(302.184 338.924)">
        <ellipse id="Ellipse_228" data-name="Ellipse 228" cx="43.003" cy="28.787" rx="43.003" ry="28.787" transform="translate(0 54.462) rotate(-39.289)" fill="#a1c2ff" opacity="0.39"/>
        <g id="Group_35713" data-name="Group 35713" transform="translate(0 0)">
          <g id="Group_35712" data-name="Group 35712" transform="translate(0)" clip-path="url(#clip-path-2)">
            <g id="Group_35711" data-name="Group 35711" transform="translate(-19.806 23.405)">
              <path id="Path_37750" data-name="Path 37750" d="M-264.112,305s5.244-2.5,5.947.532a5.793,5.793,0,0,1-1.613,5.187s4.736-1.3,6,2.744-2.543,5.971-.965,7.411,4.844,4.526.274,9.649-11.257,11-19,7.219-5.279-22.213-5.279-22.213l1.893-5.383Z" transform="translate(345.199 -288.896)" fill="#4361c4"/>
              <path id="Path_37751" data-name="Path 37751" d="M-265.641,297.477s-11.679.983-15.366,9.163,3.645,8.754,3.645,8.754Z" transform="translate(341.669 -296.827)" fill="#4361c4"/>
              <path id="Path_37752" data-name="Path 37752" d="M-308.9,335.76l.751,1.356s8.995,10.733,17.009,17.605h16.675c8.7-7.928,20.57-21.745,20.623-22.31.075-.8,10.457-12.092,8.169-16.7s-5.257-3.866-5.257-3.866-3.382.462-7.181,4.4-22.54,32.991-22.54,32.991a27.17,27.17,0,0,0-6.832-7.65c-4.431-3.311-17.391-10.292-17.391-10.292s.8-5.609.72-6.68-3.3-5.966-4.279-4.915,1.31,5.653,1.31,5.653S-309.648,334.406-308.9,335.76Z" transform="translate(309.036 -279.504)" fill="#94c3ff"/>
              <path id="Path_37753" data-name="Path 37753" d="M-287.077,348.173s.5,3.572,1.451,8.138h33.108c.733-7.473,2.282-22.5,3.207-26.061,1.244-4.793.144-15,.541-17.8s-7.608-1.774-7.608-1.774l-10.428.172-1.683.722a13.27,13.27,0,0,0-5.77,4.822c-1.29,1.977-3.192,4.855-5.75,8.633-4.12,3.123-13.2,8.549-12.529,15.394S-287.077,348.173-287.077,348.173Z" transform="translate(328.94 -281.094)" fill="#33a8f2"/>
              <path id="Path_37754" data-name="Path 37754" d="M-272.865,309.717s-9.253,11.449-11.8,25.858c3.017-.928,12.2-9.353,17.617-14.491,2.282-2.165,2.494-3.349,2.074-5.571-.208-1.093.751-4.122,2.034-7.588C-262.091,303.123-272.865,309.717-272.865,309.717Z" transform="translate(338.497 -286.313)" fill="#94c3ff"/>
              <path id="Path_37755" data-name="Path 37755" d="M-253.3,350.51s1.44,1.988,3.817,4.975h14.811c-2.856-3.784-5.125-6.839-5.829-7.908-2.421-3.669-19.357-40.6-29.677-36.006-1.906.85-8.8,6.638-5.986,13.128S-253.3,350.51-253.3,350.51Z" transform="translate(347.977 -280.267)" fill="#94c3ff"/>
              <g id="Group_35710" data-name="Group 35710" transform="translate(57.056)">
                <g id="Group_35709" data-name="Group 35709" transform="translate(0 1.076)">
                  <g id="Group_35708" data-name="Group 35708">
                    <path id="Path_37756" data-name="Path 37756" d="M-275.043,304.889a76.677,76.677,0,0,0-7.29,10.853c-1.9,3.693-.6,7.075,2.942,7.453,5.092.543,12.858-.72,15.41-3.638,3.791-4.332,11.917-12,8.619-17.961-3.2-5.787-10.5-5.187-18.365,1.88A11.5,11.5,0,0,0-275.043,304.889Z" transform="translate(283.207 -297.67)" fill="#94c3ff"/>
                  </g>
                </g>
                <path id="Path_37757" data-name="Path 37757" d="M-277.477,301.7s-5.112,8.356,9.4,13.691l1.825.824s6.342-5.036,6.435-10.367-2.655-7.27-5.427-8.429S-275.54,299.7-277.477,301.7Z" transform="translate(289.079 -297.183)" fill="#4361c4"/>
              </g>
              <path id="Path_37758" data-name="Path 37758" d="M-272.684,306.619s3.673-2.536,3.631-.2-5.2,4.844-5.741,3.868S-272.684,306.619-272.684,306.619Z" transform="translate(350.347 -287.211)" fill="#94c3ff"/>
            </g>
          </g>
        </g>
      </g>
      <g id="Group_35715" data-name="Group 35715" transform="translate(155.283 327.439)">
        <path id="Path_37759" data-name="Path 37759" d="M-244.492,315.163H-362.161c-3.609,0-5.354-2.927-3.9-6.536l8.365-20.7c1.458-3.609,5.567-6.536,9.178-6.536h117.667c3.612,0,5.355,2.927,3.9,6.536l-8.363,20.7C-236.773,312.236-240.882,315.163-244.492,315.163Z" transform="translate(366.572 -281.388)" fill="#33a8f2"/>
        <path id="Path_37760" data-name="Path 37760" d="M-256.267,292.456H-357.592l1.981-4.9h101.326Z" transform="translate(377.428 -273.934)" fill="#fff"/>
      </g>
      <g id="Group_35720" data-name="Group 35720" transform="translate(145.861 13.76)">
        <g id="Group_35716" data-name="Group 35716" transform="translate(31.497)">
          <path id="Path_37761" data-name="Path 37761" d="M-351.74,145.915h-3.978c-.7,0-1.045-.57-.76-1.275l1.608-3.981a2.123,2.123,0,0,1,1.789-1.275h3.981c.7,0,1.045.57.76,1.275l-1.608,3.981A2.123,2.123,0,0,1-351.74,145.915Z" transform="translate(356.579 -139.385)" fill="#f9fbfc"/>
          <path id="Path_37762" data-name="Path 37762" d="M-333.263,145.915h-3.978c-.7,0-1.045-.57-.76-1.275l1.606-3.981a2.123,2.123,0,0,1,1.791-1.275h3.981c.7,0,1.045.57.76,1.275l-1.608,3.981A2.123,2.123,0,0,1-333.263,145.915Z" transform="translate(378.917 -139.385)" fill="#bfd9ff"/>
        </g>
        <g id="Group_35717" data-name="Group 35717" transform="translate(23.912 18.774)">
          <path id="Path_37763" data-name="Path 37763" d="M-355.172,154.414h-3.98c-.7,0-1.045-.57-.76-1.275l1.608-3.981a2.128,2.128,0,0,1,1.789-1.275h3.981c.7,0,1.045.572.76,1.275l-1.608,3.981A2.123,2.123,0,0,1-355.172,154.414Z" transform="translate(360.013 -147.884)" fill="#bfd9ff"/>
          <path id="Path_37764" data-name="Path 37764" d="M-345.934,154.414h-3.981c-.7,0-1.045-.57-.76-1.275l1.608-3.981a2.127,2.127,0,0,1,1.791-1.275h3.978c.7,0,1.045.572.76,1.275l-1.606,3.981A2.124,2.124,0,0,1-345.934,154.414Z" transform="translate(371.181 -147.884)" fill="#f9fbfc"/>
          <path id="Path_37765" data-name="Path 37765" d="M-336.7,154.414h-3.978c-.7,0-1.045-.57-.76-1.275l1.608-3.981a2.121,2.121,0,0,1,1.789-1.275h3.981c.7,0,1.045.572.76,1.275l-1.608,3.981A2.124,2.124,0,0,1-336.7,154.414Z" transform="translate(382.351 -147.884)" fill="#f9fbfc"/>
          <path id="Path_37766" data-name="Path 37766" d="M-329.305,154.414h-3.978c-.7,0-1.045-.57-.762-1.275l1.608-3.981a2.127,2.127,0,0,1,1.791-1.275h3.978c.7,0,1.045.572.762,1.275l-1.608,3.981A2.124,2.124,0,0,1-329.305,154.414Z" transform="translate(391.285 -147.884)" fill="#f9fbfc"/>
        </g>
        <g id="Group_35718" data-name="Group 35718" transform="translate(0 37.548)">
          <path id="Path_37767" data-name="Path 37767" d="M-358.605,162.915h-3.98c-.7,0-1.045-.572-.76-1.277l1.608-3.978a2.126,2.126,0,0,1,1.792-1.277h3.978c.7,0,1.045.572.76,1.277l-1.608,3.978A2.123,2.123,0,0,1-358.605,162.915Z" transform="translate(379.773 -156.383)" fill="#f9fbfc"/>
          <path id="Path_37768" data-name="Path 37768" d="M-366,162.915h-3.981c-.7,0-1.045-.572-.76-1.277l1.608-3.978a2.126,2.126,0,0,1,1.791-1.277h3.978c.7,0,1.045.572.76,1.277l-1.606,3.978A2.126,2.126,0,0,1-366,162.915Z" transform="translate(370.837 -156.383)" fill="#f9fbfc"/>
          <path id="Path_37769" data-name="Path 37769" d="M-349.368,162.915h-3.978c-.7,0-1.045-.572-.762-1.277l1.608-3.978a2.126,2.126,0,0,1,1.791-1.277h3.978c.7,0,1.045.572.762,1.277l-1.608,3.978A2.126,2.126,0,0,1-349.368,162.915Z" transform="translate(390.942 -156.383)" fill="#f9fbfc"/>
          <path id="Path_37770" data-name="Path 37770" d="M-340.131,162.915h-3.978c-.7,0-1.045-.572-.76-1.277l1.608-3.978a2.12,2.12,0,0,1,1.789-1.277h3.98c.7,0,1.045.572.76,1.277l-1.608,3.978A2.126,2.126,0,0,1-340.131,162.915Z" transform="translate(402.111 -156.383)" fill="#bfd9ff"/>
        </g>
        <g id="Group_35719" data-name="Group 35719" transform="translate(8.741 56.324)">
          <path id="Path_37771" data-name="Path 37771" d="M-362.039,171.413h-3.981c-.7,0-1.045-.572-.76-1.275l1.608-3.981a2.123,2.123,0,0,1,1.791-1.275h3.978c.7,0,1.045.57.76,1.275l-1.608,3.981A2.122,2.122,0,0,1-362.039,171.413Z" transform="translate(366.881 -164.883)" fill="#f9fbfc"/>
        </g>
      </g>
      <g id="Group_35725" data-name="Group 35725" transform="translate(132.603 379.647)">
        <g id="Group_35721" data-name="Group 35721" transform="translate(44.394)">
          <path id="Path_37772" data-name="Path 37772" d="M-349.92,314.228h-5.609c-.992,0-1.473-.8-1.071-1.8l2.266-5.609a2.992,2.992,0,0,1,2.525-1.8h5.608c.992,0,1.471.8,1.071,1.8l-2.266,5.609A2.992,2.992,0,0,1-349.92,314.228Z" transform="translate(356.742 -305.023)" fill="#4385ff"/>
          <path id="Path_37773" data-name="Path 37773" d="M-323.877,314.228h-5.609c-.994,0-1.473-.8-1.071-1.8l2.266-5.609a2.989,2.989,0,0,1,2.523-1.8h5.609c.994,0,1.473.8,1.071,1.8l-2.264,5.609A3,3,0,0,1-323.877,314.228Z" transform="translate(388.227 -305.023)" fill="#4385ff"/>
        </g>
        <g id="Group_35722" data-name="Group 35722" transform="translate(33.702 26.463)">
          <path id="Path_37774" data-name="Path 37774" d="M-354.76,326.208h-5.608c-.992,0-1.473-.806-1.071-1.8l2.266-5.609a2.99,2.99,0,0,1,2.525-1.8h5.609c.992,0,1.471.8,1.071,1.8l-2.266,5.609A3,3,0,0,1-354.76,326.208Z" transform="translate(361.582 -317.003)" fill="#bfd9ff"/>
          <path id="Path_37775" data-name="Path 37775" d="M-341.74,326.208h-5.609c-.992,0-1.471-.806-1.071-1.8l2.266-5.609a2.993,2.993,0,0,1,2.525-1.8h5.609c.992,0,1.473.8,1.071,1.8l-2.266,5.609A2.994,2.994,0,0,1-341.74,326.208Z" transform="translate(377.325 -317.003)" fill="#ff8d02"/>
          <path id="Path_37776" data-name="Path 37776" d="M-328.717,326.208h-5.609c-.994,0-1.473-.806-1.071-1.8l2.266-5.609a2.989,2.989,0,0,1,2.523-1.8H-325c.994,0,1.473.8,1.071,1.8l-2.266,5.609A2.993,2.993,0,0,1-328.717,326.208Z" transform="translate(393.067 -317.003)" fill="#bfd9ff"/>
          <path id="Path_37777" data-name="Path 37777" d="M-318.3,326.208h-5.609c-.994,0-1.473-.806-1.071-1.8l2.266-5.609a2.989,2.989,0,0,1,2.523-1.8h5.609c.994,0,1.474.8,1.071,1.8l-2.266,5.609A2.993,2.993,0,0,1-318.3,326.208Z" transform="translate(405.661 -317.003)" fill="#bfd9ff"/>
        </g>
        <g id="Group_35723" data-name="Group 35723" transform="translate(0 52.924)">
          <path id="Path_37778" data-name="Path 37778" d="M-359.6,338.187h-5.608c-.992,0-1.473-.8-1.071-1.8l2.266-5.609a2.993,2.993,0,0,1,2.523-1.8h5.611c.992,0,1.471.806,1.071,1.8l-2.266,5.609A2.992,2.992,0,0,1-359.6,338.187Z" transform="translate(389.433 -328.982)" fill="#bfd9ff"/>
          <path id="Path_37779" data-name="Path 37779" d="M-370.017,338.187h-5.608c-.994,0-1.473-.8-1.071-1.8l2.266-5.609a2.993,2.993,0,0,1,2.523-1.8h5.611c.992,0,1.471.806,1.071,1.8l-2.266,5.609A2.992,2.992,0,0,1-370.017,338.187Z" transform="translate(376.839 -328.982)" fill="#bfd9ff"/>
          <path id="Path_37780" data-name="Path 37780" d="M-346.58,338.187h-5.609c-.992,0-1.471-.8-1.071-1.8l2.266-5.609a3,3,0,0,1,2.525-1.8h5.609c.992,0,1.473.806,1.071,1.8l-2.266,5.609A2.992,2.992,0,0,1-346.58,338.187Z" transform="translate(405.176 -328.982)" fill="#bfd9ff"/>
          <path id="Path_37781" data-name="Path 37781" d="M-333.557,338.187h-5.609c-.994,0-1.473-.8-1.071-1.8l2.264-5.609a3,3,0,0,1,2.525-1.8h5.609c.994,0,1.473.806,1.071,1.8l-2.266,5.609A2.989,2.989,0,0,1-333.557,338.187Z" transform="translate(420.918 -328.982)" fill="#ff8d02"/>
        </g>
        <g id="Group_35724" data-name="Group 35724" transform="translate(12.319 79.388)">
          <path id="Path_37782" data-name="Path 37782" d="M-364.44,350.167h-5.608c-.994,0-1.473-.806-1.071-1.8l2.266-5.609a2.989,2.989,0,0,1,2.523-1.8h5.611c.992,0,1.471.8,1.071,1.8l-2.266,5.609A3,3,0,0,1-364.44,350.167Z" transform="translate(371.262 -340.962)" fill="#ff8d02"/>
        </g>
      </g>
      <g id="Group_35731" data-name="Group 35731" transform="translate(0 70.958)">
        <path id="Path_37783" data-name="Path 37783" d="M-222.245,286.89H-381.421l26.325-51.426H-195.92Z" transform="translate(507.696 -81.186)" fill="#a1c2ff" opacity="0.39"/>
        <g id="Group_35726" data-name="Group 35726" transform="translate(229.894 150.262)">
          <ellipse id="Ellipse_230" data-name="Ellipse 230" cx="23.682" cy="18.468" rx="23.682" ry="18.468" transform="translate(0 31.352) rotate(-41.447)" fill="#33a8f2"/>
          <path id="Path_37784" data-name="Path 37784" d="M-319.327,261.954a1.986,1.986,0,0,1-1.63-.753l-5.4-7.2c-.756-1-.349-2.631.906-3.636s2.883-1,3.636,0l4.04,5.381,14.433-11.551c1.255-1.005,2.883-1.005,3.636,0s.349,2.631-.906,3.636L-317.321,261.2A3.268,3.268,0,0,1-319.327,261.954Z" transform="translate(343.909 -221.806)" fill="#fff"/>
        </g>
        <g id="Group_35730" data-name="Group 35730">
          <path id="Path_37785" data-name="Path 37785" d="M-370.519,195.169c0,4.038-2.951,7.312-6.594,7.312s-6.594-3.274-6.594-7.312,2.951-7.312,6.594-7.312S-370.519,191.131-370.519,195.169Z" transform="translate(504.934 -138.741)" fill="none" stroke="#505e83" stroke-miterlimit="10" stroke-width="0.519"/>
          <path id="Path_37786" data-name="Path 37786" d="M-397.683,209.051s-10.53.7-18.4,11.332,3.543,49.609,37.4,65.359c22.05,8.661,23.625-11.025,18.111-24.8S-382.037,212.285-397.683,209.051Z" transform="translate(462.902 -113.118)" fill="#fff"/>
          <path id="Path_37787" data-name="Path 37787" d="M-222.868,402.917c0,5-48.29,9.057-107.859,9.057s-107.859-4.053-107.859-9.057,48.29-9.057,107.859-9.057S-222.868,397.916-222.868,402.917Z" transform="translate(438.586 110.309)" fill="#bfd9ff"/>
          <g id="Group_35727" data-name="Group 35727" transform="translate(57.605 342.68)">
            <path id="Path_37788" data-name="Path 37788" d="M-405.909,386.781s2.288-4.9,10.789-3.6,9.479,2.942,10.459,7.192,3.923,8.825,5.885,9.806,9.154,5.885,15.036,6.865,6.539,4.577,5.231,6.212-23.536,2.942-28.44,2.288c0,0-16.671-.327-20.594-1.635S-406.236,388.415-405.909,386.781Z" transform="translate(416.755 -245.546)" fill="#16142a"/>
            <path id="Path_37789" data-name="Path 37789" d="M-386.627,386.781s2.288-4.9,10.786-3.6,9.481,2.942,10.462,7.192,3.923,8.825,5.882,9.806,9.154,5.885,15.039,6.865,6.536,4.577,5.229,6.212-23.534,2.942-28.438,2.288c0,0-16.671-.327-20.594-1.635S-386.954,388.415-386.627,386.781Z" transform="translate(440.065 -245.546)" fill="#16142a"/>
            <path id="Path_37790" data-name="Path 37790" d="M-409.53,340.275s-2.487-13.536,11.811-18.083,17,2.063,21.33,14.411-3.658,128.946-3.658,128.946-17.42.4-21.643-2.094c0,0-11.643-77.371-10.771-96.216S-409.53,340.275-409.53,340.275Z" transform="translate(412.508 -320.754)" fill="#2b3554"/>
          </g>
          <path id="Path_37791" data-name="Path 37791" d="M-380.209,193.417s3.347,4.528,3.347,6.89-4.526,2.361-4.526,2.361Z" transform="translate(507.735 -132.019)" fill="#ff7759"/>
          <path id="Path_37792" data-name="Path 37792" d="M-364.917,174.422s9.671,2.476,15.149,17.327,1.827,46.408-1.825,50.119-14.749,2.3-30.135-2.783c-16.256-5.366-21.749-22.266-24.654-33.415C-411.943,184.323-393.381,162.357-364.917,174.422Z" transform="translate(476.33 -159.134)" fill="#ff8d68"/>
          <path id="Path_37793" data-name="Path 37793" d="M-403.853,225.584l7.846-28.113s15.69-4.577,25.5,5.885l3.267,4.577v18.306A104.7,104.7,0,0,1-403.853,225.584Z" transform="translate(480.577 -128.323)" fill="#ff8d68"/>
          <path id="Path_37794" data-name="Path 37794" d="M-412.337,282.8a259.008,259.008,0,0,0,0,73.549c5.885,39.227,17.652,43.15,28.44,43.15s13.729-31.383,15.69-45.111,9.808-60.8-4.9-71.588S-404.491,271.032-412.337,282.8Z" transform="translate(467.159 -34.189)" fill="#2b3554"/>
          <path id="Path_37795" data-name="Path 37795" d="M-393.29,328.45s-11.767-31.381,8.827-45.111,36.284-11.767,41.188,10.789,5.883,100.028-.981,115.719S-375.639,401.021-393.29,328.45Z" transform="translate(489.301 -33.748)" fill="#2b3f63"/>
          <path id="Path_37796" data-name="Path 37796" d="M-405.732,214.673s2.189-7.7,4.151-8.352,26.152-3.269,39.227,4.577c5.885,4.577,5.231,7.846,5.231,7.846S-396.154,211.253-405.732,214.673Z" transform="translate(478.305 -117.56)" fill="#fff"/>
          <path id="Path_37797" data-name="Path 37797" d="M-322.667,278.168s1.97,4.725.789,6.3c-1.575,1.575-46.066,17.323-92.918,5.9-.786,0,1.182-7.873,1.182-7.873Z" transform="translate(467.122 -29.558)" fill="#0071b9"/>
          <path id="Path_37798" data-name="Path 37798" d="M-412.81,291.266c-1.308-9.154-5.229-54.263-3.921-60.8,1.222-6.11,6.441-17.36,17.261-20.941a21.576,21.576,0,0,1,2.353-.634s40.534-2.615,69.3,9.806c0,0,9.848,8.182,11.67,49.858,0,0-.541,7.029-2.116,21.99s.786,25.986,3.15,40.948,7.086,29.923-10.239,33.073c-16.534,3.148-62.207,11.023-88.979,3.148-5.511-3.936,2.361-22.048,2.361-36.22S-412.81,291.266-412.81,291.266Z" transform="translate(464.69 -113.591)" fill="#33a8f2"/>
          <path id="Path_37799" data-name="Path 37799" d="M-382.921,340.049s-.981-13.729,13.731-16.671,16.671,3.921,19.613,16.671-14.5,123.932-14.5,123.932-19.249,1.109-23.17-1.833c0,0-4.5-76.987-1.555-95.619S-382.921,340.049-382.921,340.049Z" transform="translate(497.564 24.281)" fill="#2b3f63"/>
          <path id="Path_37800" data-name="Path 37800" d="M-396.9,295.7s13.731,44.128,24.027,65.7" transform="translate(488.985 -8.357)" fill="none" stroke="#2a2e59" stroke-miterlimit="10" stroke-width="0.666"/>
          <path id="Path_37801" data-name="Path 37801" d="M-384.245,330.638s8.337-4.9,16.671,0" transform="translate(504.282 31.241)" fill="none" stroke="#2a2e59" stroke-miterlimit="10" stroke-width="0.666"/>
          <path id="Path_37802" data-name="Path 37802" d="M-384.911,332.392s6.865-3.923,18.633,4.411" transform="translate(503.477 34.881)" fill="none" stroke="#2a2e59" stroke-miterlimit="10" stroke-width="0.666"/>
          <path id="Path_37803" data-name="Path 37803" d="M-408.218,327.9s5.392-4.9,17.652.49" transform="translate(475.3 28.096)" fill="none" stroke="#2a2e59" stroke-miterlimit="10" stroke-width="0.666"/>
          <path id="Path_37804" data-name="Path 37804" d="M-406.443,329.7a14.748,14.748,0,0,1,15.2,1.962" transform="translate(477.446 31.196)" fill="none" stroke="#2a2e59" stroke-miterlimit="10" stroke-width="0.666"/>
          <line id="Line_80" data-name="Line 80" x1="2.942" y2="100.029" transform="translate(86.204 368.743)" fill="none" stroke="#2a2e59" stroke-miterlimit="10" stroke-width="0.666"/>
          <path id="Path_37805" data-name="Path 37805" d="M-379.879,296.742s11.113,6.536,15.69-3.923" transform="translate(509.56 -11.846)" fill="none" stroke="#2a2e59" stroke-miterlimit="10" stroke-width="0.666"/>
          <path id="Path_37806" data-name="Path 37806" d="M-374.848,295.187s5.231,40.534,3.923,67.338" transform="translate(515.643 -8.983)" fill="none" stroke="#2a2e59" stroke-miterlimit="10" stroke-width="0.666"/>
          <path id="Path_37807" data-name="Path 37807" d="M-390.127,200.144s3.431,8.827,14.955,7.356" transform="translate(497.171 -123.886)" fill="none" stroke="#e66657" stroke-miterlimit="10" stroke-width="0.666"/>
          <path id="Path_37808" data-name="Path 37808" d="M-353.81,181.477s5.584,7.681,5.933,12.218-6.98,9.077-8.027,11.869,1.352,6.3.3,8.047-1.378,5.317-1.378,5.317l.36,3.952a2.84,2.84,0,0,1-2.273,3.042l-.837.168a2.536,2.536,0,0,1-2.861-1.544c-1.255-3.154-3.848-9.046-5.885-9.556-2.792-.7-5.584,4.19-6.631,6.633-.592,1.378-2.074,5.1-3.256,8.085a7.3,7.3,0,0,1-6.276,4.588c-3.022.216-6.642.367-7.972-.013-2.445-.7-14.964-23.83-15.312-35s7.332-22.344,15.361-25.834S-368.822,166.814-353.81,181.477Z" transform="translate(475.645 -159.694)" fill="#7e3636"/>
          <path id="Path_37809" data-name="Path 37809" d="M-409.033,219.417c0,3.141,13.157,50.532,11.062,58.911s-7.875,66.931-7.875,66.931" transform="translate(474.314 -100.586)" fill="none" stroke="#0071b9" stroke-miterlimit="10" stroke-width="0.666"/>
          <path id="Path_37810" data-name="Path 37810" d="M-409.016,209.725" transform="translate(474.335 -112.303)" fill="none" stroke="#a6d0f4" stroke-miterlimit="10" stroke-width="0.535"/>
          <path id="Path_37811" data-name="Path 37811" d="M-371.19,172.2s7.676.294,10.336-3.545,11.219-4.723,17.422,1.478,5.9,17.716.59,21.851c0,0,6.2-1.182,7.086,3.247s-6.79,11.222-15.944,13.289c0,0-14.765-4.135-19.194-1.478s-34.254-.294-34.254-.294-6.5-5.907-4.725-11.222,3.543.3,3.543.3-1.476-7.382,8.268-18.014S-374.733,173.082-371.19,172.2Z" transform="translate(472.928 -165.622)" fill="#7e3636"/>
          <path id="Path_37812" data-name="Path 37812" d="M-326.894,240.248l20.965.886s-.59,2.068-3.837,2.66-15.357,2.065-15.357,2.065Z" transform="translate(573.617 -75.402)" fill="#eb7754"/>
          <path id="Path_37813" data-name="Path 37813" d="M-324.883,242.765s7.089-1.182,8.564-.886,2.953,8.858,2.953,8.858l-5.611,5.9s-2.068-.886,0-4.133l1.182-2.068-8.564-3.247Z" transform="translate(574.264 -73.488)" fill="#ff8d68"/>
          <g id="Group_35729" data-name="Group 35729" transform="translate(117.669 105.104)">
            <path id="Path_37814" data-name="Path 37814" d="M-334.914,249.724l8.858-1.182s7.382-7.382,8.858-8.268,8.86,10.632,9.746,12.107c0,1.182-4.431,5.021-8.86,5.611s-5.9-.59-5.9-.59l-9.746,3.837Z" transform="translate(446.252 -180.533)" fill="#ff8d68"/>
            <g id="Group_35728" data-name="Group 35728">
              <path id="Path_37815" data-name="Path 37815" d="M-366.115,213.2s-19.779-.2-19.189,24.011,41.933,63.784,53.152,68.509,59.059-8.268,63.192-10.632,2.953-12.4-3.543-14.765l-49.017-2.361S-352.24,215.178-366.115,213.2Z" transform="translate(385.317 -213.203)" fill="#fff"/>
              <path id="Path_37816" data-name="Path 37816" d="M-356.08,244.3s5.907,6.3,4.332,14.568" transform="translate(420.663 -175.604)" fill="none" stroke="#a6d0f4" stroke-miterlimit="10" stroke-width="0.535"/>
              <path id="Path_37817" data-name="Path 37817" d="M-354.654,243.769s9.843,3.148,10.629,13.78" transform="translate(422.387 -176.25)" fill="none" stroke="#a6d0f4" stroke-miterlimit="10" stroke-width="0.535"/>
            </g>
          </g>
          <line id="Line_81" data-name="Line 81" x1="20.473" transform="translate(113.943 56.427)" fill="none" stroke="#505e83" stroke-miterlimit="10" stroke-width="0.519"/>
          <path id="Path_37818" data-name="Path 37818" d="M-381.281,194.448s-1.394-6.033-6.5-3.247.93,17.17,5.105,16.242S-380.354,196.77-381.281,194.448Z" transform="translate(497.645 -135.586)" fill="#ff7759"/>
          <path id="Path_37819" data-name="Path 37819" d="M-405.228,179.681s14.173-3.247,24.212,7.382" transform="translate(478.914 -149.19)" fill="none" stroke="#663136" stroke-miterlimit="10" stroke-width="0.535"/>
          <path id="Path_37820" data-name="Path 37820" d="M-404.382,180.865s6.1-6.5,16.536-3.74" transform="translate(479.937 -152.539)" fill="none" stroke="#663136" stroke-miterlimit="10" stroke-width="0.535"/>
          <path id="Path_37821" data-name="Path 37821" d="M-405.006,180.673s4.332.393,7.285,5.315" transform="translate(479.183 -147.426)" fill="none" stroke="#663136" stroke-miterlimit="10" stroke-width="0.535"/>
          <path id="Path_37822" data-name="Path 37822" d="M-385.578,167.929s14.175,4.429,10.926,17.422" transform="translate(502.671 -162.833)" fill="none" stroke="#663136" stroke-miterlimit="10" stroke-width="0.535"/>
        </g>
      </g>
    </g>
  </g>
</svg>
