<svg xmlns="http://www.w3.org/2000/svg" width="41.733" height="26.238" viewBox="0 0 41.733 26.238">
  <g id="digital-b-card" transform="translate(-967.759 -2283.453)">
    <g id="Group_35739" data-name="Group 35739" transform="translate(967.759 2283.453)">
      <path id="Path_37858" data-name="Path 37858" d="M-890.5,1143.644q8.3,0,16.605,0a4.071,4.071,0,0,1,4.285,4.274q.02,8.8,0,17.6a4.2,4.2,0,0,1-4.348,4.35q-16.522.012-33.045,0a4.024,4.024,0,0,1-4.319-4.3q-.021-8.8,0-17.6a4.027,4.027,0,0,1,4.3-4.32C-901.518,1143.634-896.01,1143.643-890.5,1143.644Zm.04,24.439H-874.1a2.363,2.363,0,0,0,2.7-2.686q0-8.6,0-17.191c0-1.933-.837-2.773-2.775-2.773q-16.278,0-32.555,0c-1.984,0-2.847.85-2.848,2.81q0,8.513,0,17.025c0,1.967.859,2.815,2.844,2.816Q-898.6,1168.088-890.462,1168.083Z" transform="translate(911.336 -1143.64)" fill="#fff"/>
      <path id="Path_37859" data-name="Path 37859" d="M-760.512,1224.592c-1.851,0-3.7,0-5.554,0-1.218,0-1.437-.218-1.418-1.464a25.644,25.644,0,0,1,.134-3.388,6.461,6.461,0,0,1,6.285-5.437,8.025,8.025,0,0,1,3.96.647,6.432,6.432,0,0,1,3.709,5.75c.044.91.017,1.824.006,2.735-.01.84-.306,1.145-1.153,1.15-1.99.012-3.979,0-5.969,0Zm-5.12-1.842h10.344c.2-2.269.084-4.418-2.006-5.793a5.611,5.611,0,0,0-6.057-.189C-765.7,1218.055-765.879,1220.321-765.632,1222.75Z" transform="translate(791.473 -1202.514)" fill="#fff"/>
      <path id="Path_37860" data-name="Path 37860" d="M-749.783,1163.726a4.106,4.106,0,0,1,4.022-4.119,4.149,4.149,0,0,1,4.118,4.043,4.068,4.068,0,0,1-4.034,4.1A4.075,4.075,0,0,1-749.783,1163.726Zm6.349-.127a2.148,2.148,0,0,0-2.284-2.2,2.323,2.323,0,0,0-2.306,2.254,2.325,2.325,0,0,0,2.326,2.319A2.307,2.307,0,0,0-743.435,1163.6Z" transform="translate(776.723 -1156.945)" fill="#fff"/>
      <path id="Path_37861" data-name="Path 37861" d="M-875.03,1183.4v-1.676h12.736v1.676Z" transform="translate(881.084 -1175.372)" fill="#fff"/>
      <path id="Path_37862" data-name="Path 37862" d="M-862.131,1250.758v1.671h-12.736v-1.671Z" transform="translate(880.948 -1232.896)" fill="#fff"/>
      <path id="Path_37863" data-name="Path 37863" d="M-862.208,1216.377v1.638h-12.74v-1.638Z" transform="translate(881.015 -1204.248)" fill="#fff"/>
    </g>
  </g>
</svg>
