<svg xmlns="http://www.w3.org/2000/svg" width="36.969" height="45.866" viewBox="0 0 36.969 45.866">
  <g id="enable" transform="translate(-971.206 -2342.051)">
    <path id="Path_37864" data-name="Path 37864" d="M-2033.308,1667.707A5.1,5.1,0,0,1-2036.5,1671a4.611,4.611,0,0,1-5.475-2.561c-1.878-3.46-3.723-6.938-5.584-10.408-.174-.324-.361-.641-.576-1.022a16.311,16.311,0,0,1-13.682-1.028,15.922,15.922,0,0,1-7.3-8.283,16.394,16.394,0,0,1,6.429-19.854,16.518,16.518,0,0,1,20.646,2.508,16.6,16.6,0,0,1-.28,22.983c1.378,1.815,2.766,3.645,4.156,5.473,1.125,1.479,2.281,2.937,3.368,4.444.557.771,1,1.628,1.487,2.446Zm-5.987-25.954a14.581,14.581,0,0,0-14.513-14.7,14.636,14.636,0,0,0-14.75,14.6,14.706,14.706,0,0,0,14.6,14.664A14.644,14.644,0,0,0-2039.3,1641.753Zm-7.2,14.577c.451.842.885,1.655,1.319,2.466q2.445,4.564,4.892,9.128a2.669,2.669,0,0,0,2.746,1.523,2.592,2.592,0,0,0,2.323-1.817,2.939,2.939,0,0,0-.6-2.912c-2.313-3-4.6-6.021-6.9-9.034-.308-.4-.62-.8-.937-1.212Z" transform="translate(3041.483 716.728)" fill="#fff"/>
    <path id="Path_37865" data-name="Path 37865" d="M-2040.267,1642.778a12.388,12.388,0,0,1,12.413,12.391,12.4,12.4,0,0,1-12.445,12.474,12.442,12.442,0,0,1-12.422-12.4A12.406,12.406,0,0,1-2040.267,1642.778Zm-10.712,12.359a10.621,10.621,0,0,0,10.618,10.759,10.7,10.7,0,0,0,10.8-10.62,10.8,10.8,0,0,0-10.882-10.8A10.721,10.721,0,0,0-2050.979,1655.137Z" transform="translate(3027.86 703.184)" fill="#fff"/>
    <path id="Path_37866" data-name="Path 37866" d="M-2018.6,1703.019c-1.6,0-3.2.009-4.795,0-1.265-.01-1.538-.311-1.434-1.518a6.281,6.281,0,0,1,6.218-5.559,6.245,6.245,0,0,1,6.122,5.654c.079,1.009-.3,1.451-1.316,1.434C-2015.406,1703-2017,1703.019-2018.6,1703.019Zm4.219-1.777a4.3,4.3,0,0,0-4.548-3.55,4.176,4.176,0,0,0-3.965,3.55Z" transform="translate(3006.236 661.937)" fill="#fff"/>
    <path id="Path_37867" data-name="Path 37867" d="M-2005.344,1667.727a3.268,3.268,0,0,1-3.235,3.279,3.318,3.318,0,0,1-3.292-3.355,3.306,3.306,0,0,1,3.312-3.218A3.253,3.253,0,0,1-2005.344,1667.727Zm-3.2-1.549a1.531,1.531,0,0,0-1.56,1.528,1.431,1.431,0,0,0,1.41,1.541,1.521,1.521,0,0,0,1.636-1.45A1.566,1.566,0,0,0-2008.547,1666.178Z" transform="translate(2996.166 686.381)" fill="#fff"/>
  </g>
</svg>
