<svg xmlns="http://www.w3.org/2000/svg" width="130.318" height="129.211" viewBox="0 0 130.318 129.211">
  <g id="research-projec" transform="translate(-348 -1121.219)">
    <g id="Group_161" data-name="Group 161" transform="translate(-4226 91.045)">
      <path id="Path_374" data-name="Path 374" d="M4704.318,1037.254v90.614c-.053.065-.134.121-.157.194-1.532,4.99-4.082,6.883-9.282,6.883q-55.466,0-110.932.05c-4.554.011-8.638-1.714-9.859-7.037-.008-.035-.057-.061-.087-.091v-90.614c.054-.064.134-.121.156-.194,1.542-5,4.072-6.883,9.28-6.883h45.8q33.2,0,66.408,0a8.188,8.188,0,0,1,8.416,6.514A3.179,3.179,0,0,0,4704.318,1037.254Zm-65.162,85.572q28.245,0,56.49,0c1.886,0,2.611-.723,2.611-2.607q0-40.46,0-80.919c0-2.5-.634-3.11-3.179-3.11q-41.413,0-82.826,0-14.759,0-29.518-.006a2.266,2.266,0,0,0-2.356,1.141,4.512,4.512,0,0,0-.3,1.842q-.021,40.4-.01,80.794c0,2.25.612,2.863,2.857,2.863Q4611.039,1122.824,4639.156,1122.826Z" fill="#0071b9"/>
      <path id="Path_375" data-name="Path 375" d="M4708.053,1473.7V1462.6h12.108V1473.7h1.9c8.992,0,17.985.026,26.977-.024a2.8,2.8,0,0,1,3.1,2.013c.37,1.078.937,2.087,1.335,3.157a1.993,1.993,0,0,1-1.929,2.9c-.338.019-.679.005-1.018.005h-72.913c-2.853,0-3.7-1.218-2.541-3.848,2.1-4.793,1.456-4.185,6.251-4.194q12.724-.024,25.45,0Z" transform="translate(-74.972 -322.365)" fill="#0071b9"/>
      <path id="Path_376" data-name="Path 376" d="M4717.621,1089.3c4.331,0,8.444,0,12.556,0,2.059,0,2.707.667,2.707,2.764q0,29.711,0,59.421c0,2.253-.621,2.879-2.86,2.879q-39.952,0-79.9,0c-1.978,0-2.643-.681-2.652-2.693-.007-1.43,0-2.861,0-4.431h-1.5c-3.732,0-7.464.009-11.2,0-1.837,0-2.58-.729-2.58-2.515q-.007-30.029,0-60.057c0-1.774.761-2.493,2.6-2.493q40.08,0,80.16,0c1.96,0,2.652.7,2.662,2.692C4717.626,1086.3,4717.621,1087.726,4717.621,1089.3Zm-81.4,53.875h77.346v-50.811h-77.346Zm81.394-43.718v2.552q0,21.125,0,42.251c0,2.419-.562,2.974-3.006,2.974h-63.088v3.076h77.321v-50.854Zm-74.293-10.169c1.606,0,3.213.012,4.819,0a2.1,2.1,0,0,0,2.374-2.063,2.063,2.063,0,0,0-2.32-2.1q-4.819-.026-9.639,0c-1.473.007-2.365.8-2.381,2.047a2.106,2.106,0,0,0,2.328,2.122C4640.11,1089.311,4641.716,1089.292,4643.323,1089.289Zm65.711-4.173v0c-.887,0-1.775-.038-2.659.009a2.071,2.071,0,0,0-.033,4.136c1.77.064,3.546.061,5.316,0a2.074,2.074,0,0,0-.093-4.146C4710.725,1085.083,4709.878,1085.116,4709.035,1085.116Zm15.273,11.294v-.008c.891,0,1.786.053,2.671-.013a2.027,2.027,0,0,0,1.927-2.122,2,2,0,0,0-2.027-2.01c-1.7-.044-3.394-.042-5.089,0a2.076,2.076,0,1,0-.026,4.151C4722.61,1096.443,4723.46,1096.41,4724.308,1096.41Z" transform="translate(-43.382 -38.762)" fill="#33a8f2"/>
      <path id="Path_377" data-name="Path 377" d="M4684.189,1220.147l3.5,9.127.526-.063c.159-.914.331-1.826.473-2.742.175-1.127.251-2.276.522-3.378.108-.438.624-.776.953-1.16.362.4.96.758,1.047,1.213.378,1.981.607,3.99,1.083,6.043,1.858-2.721,2.726-5.851,3.824-9.272,1.972.985,3.871,1.781,5.6,2.851,1.164.72,1.485,2.084,1.611,3.448.426,4.581.888,9.158,1.35,13.872-.538.036-.945.087-1.352.087q-13.033.007-26.067,0c-1.606,0-1.542,0-1.383-1.543.4-3.909.823-7.819,1.083-11.739.172-2.6,1.247-4.425,3.7-5.378Z" transform="translate(-75.89 -141.447)" fill="#33a8f2"/>
      <path id="Path_378" data-name="Path 378" d="M4706.188,1145.56a7.121,7.121,0,0,1,1.463-5.013c2.067-2.413,4.755-2.568,7.571-1.876a5.943,5.943,0,0,1,4.264,5.471,13.479,13.479,0,0,1-2.921,9.989c-2.212,2.716-5.058,2.785-7.33.111A12.986,12.986,0,0,1,4706.188,1145.56Z" transform="translate(-98.54 -80.614)" fill="#33a8f2"/>
      <path id="Path_379" data-name="Path 379" d="M4844.383,1204.144c-3.223,0-6.446.008-9.67,0-1.509-.006-2.472-.79-2.476-1.968s.961-2,2.447-2q9.733-.011,19.466,0c1.475,0,2.439.837,2.406,2.032-.032,1.157-.952,1.927-2.376,1.933C4850.914,1204.153,4847.648,1204.143,4844.383,1204.144Z" transform="translate(-192.508 -126.723)" fill="#33a8f2"/>
      <path id="Path_380" data-name="Path 380" d="M4844.422,1260.153c-3.223,0-6.446.006-9.669,0-1.527,0-2.474-.748-2.506-1.935-.033-1.227.95-2.032,2.538-2.033q9.669-.01,19.338,0c1.5,0,2.45.8,2.439,2s-.958,1.965-2.471,1.97C4850.869,1260.159,4847.646,1260.153,4844.422,1260.153Z" transform="translate(-192.515 -168.479)" fill="#33a8f2"/>
      <path id="Path_381" data-name="Path 381" d="M4841.778,1164.138c-2.375,0-4.75.012-7.125,0-1.476-.01-2.454-.85-2.416-2.026a2.111,2.111,0,0,1,2.377-1.943q7.252-.017,14.5,0a2.007,2.007,0,1,1,.039,3.964C4846.7,1164.152,4844.237,1164.138,4841.778,1164.138Z" transform="translate(-192.508 -96.899)" fill="#33a8f2"/>
      <path id="Path_382" data-name="Path 382" d="M4841.729,1232.144c-2.375,0-4.75.01-7.125,0a2.1,2.1,0,0,1-2.356-1.957,2.073,2.073,0,0,1,2.306-2.006q7.315-.022,14.631,0a2.056,2.056,0,0,1,2.291,2.017c-.032,1.157-.954,1.94-2.367,1.949-2.46.017-4.92,0-7.379,0Z" transform="translate(-192.516 -147.596)" fill="#33a8f2"/>
      <path id="Path_383" data-name="Path 383" d="M4839.248,1288.135c-1.563,0-3.127.017-4.69,0a2.105,2.105,0,0,1-2.324-1.986,2.082,2.082,0,0,1,2.314-1.984q4.753-.023,9.508,0a2.008,2.008,0,1,1,.01,3.97C4842.459,1288.147,4840.854,1288.134,4839.248,1288.135Z" transform="translate(-192.506 -189.331)" fill="#33a8f2"/>
    </g>
  </g>
</svg>
