<svg xmlns="http://www.w3.org/2000/svg" width="33.022" height="36.469" viewBox="0 0 33.022 36.469">
  <g id="share" transform="translate(-971.355 -2028.532)">
    <path id="Path_37833" data-name="Path 37833" d="M32.841,8.17A5.17,5.17,0,1,1,27.67,3a5.17,5.17,0,0,1,5.17,5.17Z" transform="translate(970.536 2026.532)" fill="none" stroke="#fff" stroke-linecap="round" stroke-linejoin="round" stroke-width="2"/>
    <path id="Path_37834" data-name="Path 37834" d="M14.841,18.67A5.17,5.17,0,1,1,9.67,13.5,5.17,5.17,0,0,1,14.841,18.67Z" transform="translate(967.855 2028.097)" fill="none" stroke="#fff" stroke-linecap="round" stroke-linejoin="round" stroke-width="2"/>
    <path id="Path_37835" data-name="Path 37835" d="M32.841,29.17A5.17,5.17,0,1,1,27.67,24,5.17,5.17,0,0,1,32.841,29.17Z" transform="translate(970.536 2029.661)" fill="none" stroke="#fff" stroke-linecap="round" stroke-linejoin="round" stroke-width="2"/>
    <path id="Path_37836" data-name="Path 37836" d="M12.885,20.265l11.771,6.859" transform="translate(969.104 2029.104)" fill="none" stroke="#fff" stroke-linecap="round" stroke-linejoin="round" stroke-width="2"/>
    <path id="Path_37837" data-name="Path 37837" d="M24.639,9.765,12.885,16.624" transform="translate(969.104 2027.54)" fill="none" stroke="#fff" stroke-linecap="round" stroke-linejoin="round" stroke-width="2"/>
  </g>
</svg>
