<svg id="affordable_pricing" data-name="affordable pricing" xmlns="http://www.w3.org/2000/svg" width="128.764" height="126.553" viewBox="0 0 128.764 126.553">
  <path id="Path_384" data-name="Path 384" d="M5324.683,1201.316h-22.472c.741,1.279,1.414,2.445,2.089,3.609,1.5,2.593,3.046,5.167,4.5,7.786a2.091,2.091,0,0,1-1.919,3.316,21.648,21.648,0,0,0-14.947,6.155,5.7,5.7,0,0,1-.562.418l-3.007-2.814a25.748,25.748,0,0,1,15.043-7.742c-.27-.516-.472-.945-.711-1.354-1.926-3.317-3.871-6.624-5.785-9.948-1.235-2.144-.354-3.684,2.108-3.686q14.419-.015,28.838,0c2.448,0,3.354,1.553,2.145,3.669-2.12,3.71-4.263,7.408-6.455,11.213,12.732,2.713,20.113,10.345,22.154,23.013h2.659c.443-2.664,1.811-5.1.973-8.174-4.068-14.916-7.912-29.893-11.8-44.856a19.637,19.637,0,0,1-.061-8.824l4.118.849c-.072.677-.135,1.313-.208,1.949-.367,3.229.6,6.267,1.4,9.324q5.226,19.949,10.448,39.9c.287,1.1.689,1.577,1.948,1.506,2.272-.127,4.558-.039,6.839-.035,1.911,0,2.513.481,2.973,2.332.423,1.705.887,3.4,1.25,5.119.154.731.416,1.034,1.22,1.005,1.738-.062,3.479-.019,5.379-.019-6.75-24.5-13.465-48.871-20.2-73.317a17.048,17.048,0,0,0-9.874,8.865l-3.867-1.7c.2-.428.36-.814.56-1.177a20.729,20.729,0,0,1,13.581-10.515c1.936-.493,2.817.022,3.346,1.948q2.974,10.8,5.934,21.6c.116.422.24.841.469,1.639.262-.838.436-1.346.578-1.862q2.943-10.671,5.879-21.344c.56-2.029,1.387-2.49,3.427-1.953,11.436,3.008,18.12,14.047,15.23,25.436q-5.77,22.732-11.79,45.4c-.53,2.012.5,3.668.747,5.5.151,1.139.686,1.529,1.934,1.517a48.3,48.3,0,0,1,9.22.332c6.941,1.29,11.694,5.433,13.669,12.117,1.59,5.385,2.66,10.918,3.934,16.392a15.2,15.2,0,0,1,.19,2.07h-4.02c-1.27-5.318-2.535-10.6-3.791-15.886-1.615-6.8-6.766-10.841-13.862-10.847-5.45,0-10.9,0-16.549,0,.245,1.111.448,2.118.691,3.115q3.182,13.057,6.374,26.113c1.477,6.082,5.779,10.015,11.852,10.79,5.526.7,10.826-2.228,13.686-7.572.082-.152.191-.289.339-.511l3.9,1.6c-2.74,5.8-7.134,9.441-13.443,10.475a17.608,17.608,0,0,1-20.35-13.247c-2.535-10.142-4.975-20.306-7.46-30.459-.078-.319-.2-.627-.419-1.31-1.191,4.887-2.286,9.392-3.387,13.9-1.513,6.186-2.917,12.4-4.614,18.538a23.529,23.529,0,0,1-2.907,5.866,39.048,39.048,0,0,1-3.5,4.453,7.3,7.3,0,0,1-5.914,2.565q-16.029-.024-32.058-.007c-8.673,0-17.347.016-26.021-.007-4.355-.012-7.658-3.275-7.276-7.367a7.4,7.4,0,0,1,1.478-3.857c2.284-2.754,2.89-5.759,2.809-9.249-.2-8.566-.065-17.14-.064-25.71a24.989,24.989,0,0,1,4.364-14.3l3.258,2.132c-.962,2.49-2.043,4.8-2.726,7.224a20.189,20.189,0,0,0-.579,5.347c-.051,10.021,0,20.042-.065,30.063a6.541,6.541,0,0,1-.905,2.921,39.921,39.921,0,0,1-2.5,3.741c-.754,1.077-1.192,2.192-.461,3.434a3.2,3.2,0,0,0,3.1,1.417q24.882-.022,49.762-.009c2.638,0,5.276-.016,7.914.005a2.977,2.977,0,0,0,2.834-1.411,2.8,2.8,0,0,0-.313-3.21c-4.182-6.108-3.559-4.691-3.583-12.236-.027-8.263-.007-16.526-.006-24.789a21.139,21.139,0,0,0-12.208-19.54,23.141,23.141,0,0,0-8.906-2.11c-2.2-.1-3.076-1.6-1.988-3.522,1.955-3.452,3.951-6.882,5.929-10.322C5324.353,1201.975,5324.463,1201.74,5324.683,1201.316Zm48.39-39.61c-.126.311-.225.5-.281.7q-3.773,13.723-7.518,27.454a3.537,3.537,0,0,0,.053,1.779q3.831,14.048,7.721,28.081c.083.3.224.592.4,1.045.156-.485.264-.773.341-1.069q4.877-18.611,9.757-37.22a17.225,17.225,0,0,0,.5-7.948C5382.778,1168.318,5379.106,1164.1,5373.073,1161.707Zm-23.789,111.444a38.6,38.6,0,0,0,1.5-4.021c1.659-6.6,3.243-13.209,4.854-19.817.807-3.315,1.615-6.629,2.436-10h-12.293v4.154c1.42,0,2.755-.041,4.085.011a2.105,2.105,0,0,1,2.125,2.679c-.058.3-.125.6-.2.9q-2.224,9.077-4.446,18.155c-1.012,4.145-1.005,4.146,1.534,7.6C5348.9,1272.85,5348.943,1272.872,5349.284,1273.151Zm10.87-42.341c-1.946,0-3.769-.015-5.591.017-.254,0-.672.19-.729.376-.375,1.222-.672,2.468-1.013,3.78h6.306C5359.463,1233.614,5359.794,1232.268,5360.153,1230.81Zm-14.4,16.914v5.27l.156.018c.414-1.738.826-3.475,1.258-5.288Z" transform="translate(-5277.048 -1157.008)" fill="#0071b9"/>
  <path id="Path_385" data-name="Path 385" d="M5384.389,1444.3c4.617.566,7.518,3.559,7.5,7.694-.018,4.064-2.926,7.027-7.562,7.6v3.667h-3.755V1459.6a7.957,7.957,0,0,1-6.232-3.273,7.05,7.05,0,0,1-1.379-4.339h3.688a4,4,0,0,0,3.861,3.755v-7.54a7.889,7.889,0,0,1-6.109-3.167,7.469,7.469,0,0,1-1.459-5.011c.237-3.848,3.106-6.584,7.545-7.118v-3.668h3.753v3.656a7.928,7.928,0,0,1,6.23,3.267,7.058,7.058,0,0,1,1.383,4.341h-3.689a3.981,3.981,0,0,0-3.774-3.748Zm-3.954-.006v-7.476a3.738,3.738,0,0,0,0,7.476Zm3.908,11.37a3.746,3.746,0,0,0,3.742-3.944c-.13-2.119-2.132-3.754-3.742-3.444Z" transform="translate(-5346.61 -1351.954)" fill="#33a8f2"/>
  <path id="Path_386" data-name="Path 386" d="M5643.153,1484.956c1.225,0,2.449-.016,3.674,0a8.039,8.039,0,0,1,7.769,5.986c1.093,4.238,2.114,8.5,3.012,12.782a8.1,8.1,0,0,1-15.7,3.874c-1.39-5.1-2.522-10.263-3.766-15.4-.372-1.533-.759-3.063-1.107-4.6a1.942,1.942,0,0,1,2.093-2.64C5640.466,1484.939,5641.81,1484.956,5643.153,1484.956Zm-1.923,3.824c.48,2.018.939,3.967,1.408,5.913.94,3.908,1.837,7.827,2.846,11.718a4.248,4.248,0,0,0,5.122,3.089,4.311,4.311,0,0,0,3.332-4.99c-.936-4.192-1.948-8.368-3-12.532a3.952,3.952,0,0,0-3.7-3.163C5645.275,1488.661,5643.3,1488.78,5641.229,1488.78Z" transform="translate(-5536.663 -1394.458)" fill="#0071b9"/>
  <path id="Path_387" data-name="Path 387" d="M5331.694,1440.723H5327.9c.166-5.4-.863-10.846,2.361-15.687.393-.589.82-1.157,1.257-1.715.264-.337.578-.635.909-.994l2.679,2.653a11.771,11.771,0,0,0-3.414,8.464c.007,1.972,0,3.943,0,5.915Z" transform="translate(-5315.82 -1351.025)" fill="#0071b9"/>
  <path id="Path_388" data-name="Path 388" d="M5572.586,1376.637a3.766,3.766,0,1,1,3.632,3.887A3.779,3.779,0,0,1,5572.586,1376.637Z" transform="translate(-5492.661 -1315.615)" fill="#0071b9"/>
  <path id="Path_389" data-name="Path 389" d="M5362.7,1409.526l-1.846-3.308,4.336-1.667c.285,1.388.524,2.558.768,3.749Z" transform="translate(-5338.253 -1338.992)" fill="#0071b9"/>
</svg>
