<svg xmlns="http://www.w3.org/2000/svg" width="136.104" height="128.992" viewBox="0 0 136.104 128.992">
  <g id="secure" transform="translate(-6146.922 -1225.88)">
    <path id="Path_390" data-name="Path 390" d="M6320.186,1417.548q9.353,0,18.706,0c2.414,0,3.21.785,3.211,3.159q.009,17.409,0,34.818c0,2.69-.721,3.4-3.433,3.405q-18.628.007-37.258,0c-2.291,0-3.136-.842-3.137-3.089q0-17.561,0-35.121c0-2.354.832-3.177,3.205-3.177Q6310.833,1417.545,6320.186,1417.548Zm7.306,27.994c0-1.876-.064-3.755.031-5.627a4.566,4.566,0,0,1,.682-2.215,9.746,9.746,0,1,0-16.1-.11,5.007,5.007,0,0,1,.753,2.493c.08,3.7.023,7.4.039,11.1.009,1.976.9,2.862,2.893,2.872,2.992.015,5.984.024,8.977-.008a2.435,2.435,0,0,0,2.723-2.728C6327.517,1449.4,6327.492,1447.469,6327.491,1445.542Z" transform="translate(-105.22 -133.245)" fill="#33a8f2"/>
    <path id="Path_391" data-name="Path 391" d="M6207.7,1235.555h-4.868c0-.813.032-1.559-.007-2.3a2.374,2.374,0,0,0-2.5-2.486q-7.225-.05-14.45.006a2.363,2.363,0,0,0-2.5,2.482c-.039.706-.007,1.417-.007,2.248h-4.833c0-2.531-.107-5.1.047-7.655a2.141,2.141,0,0,1,2.35-1.952q12.169-.028,24.338.005a2.3,2.3,0,0,1,2.418,2.4C6207.737,1230.675,6207.7,1233.051,6207.7,1235.555Z" transform="translate(-21.948 0)" fill="#0071b9"/>
    <path id="Path_392" data-name="Path 392" d="M6346.678,1235.519c-.283-4.775-.283-4.773-4.993-4.768q-5.552.006-11.1,0c-2.706,0-3.43.714-3.446,3.395,0,.444,0,.888,0,1.4h-4.828c0-2.559-.1-5.127.045-7.68a2.138,2.138,0,0,1,2.334-1.97q12.17-.033,24.34,0a2.3,2.3,0,0,1,2.436,2.383c.058,2.375.016,4.752.016,7.235Z" transform="translate(-121.902 -0.001)" fill="#0071b9"/>
    <path id="Path_393" data-name="Path 393" d="M6495.265,1235.557H6490.4c0-.81.031-1.557-.007-2.3a2.373,2.373,0,0,0-2.5-2.483q-7.227-.058-14.453,0a2.374,2.374,0,0,0-2.5,2.484c-.036.707-.006,1.417-.006,2.248h-4.829c0-2.522-.106-5.092.047-7.646a2.141,2.141,0,0,1,2.348-1.955q12.171-.028,24.342,0a2.305,2.305,0,0,1,2.418,2.4C6495.3,1230.68,6495.265,1233.056,6495.265,1235.557Z" transform="translate(-221.863 -0.004)" fill="#0071b9"/>
    <path id="Path_394" data-name="Path 394" d="M6202.784,1305.94h4.846c0,2.571.09,5.093-.039,7.6a2.134,2.134,0,0,1-2.263,2.055q-12.25.055-24.5,0a2.219,2.219,0,0,1-2.36-2.294c-.088-2.419-.024-4.843-.024-7.344h4.861c0,.713-.021,1.448,0,2.18a2.389,2.389,0,0,0,2.55,2.59q7.152.053,14.3.007a2.425,2.425,0,0,0,2.616-2.684C6202.8,1307.4,6202.784,1306.746,6202.784,1305.94Z" transform="translate(-21.899 -55.657)" fill="#0071b9"/>
    <path id="Path_395" data-name="Path 395" d="M6346.572,1305.981h4.857c0,2.536.069,5.008-.026,7.473-.057,1.45-1.144,2.188-2.928,2.191q-10.042.016-20.082,0c-1.217,0-2.436.032-3.651-.012a2.37,2.37,0,0,1-2.5-2.482c-.048-2.33-.013-4.662-.013-7.118h4.869c0,.692-.024,1.43,0,2.166a2.367,2.367,0,0,0,2.43,2.556q7.3.068,14.605,0a2.347,2.347,0,0,0,2.426-2.4C6346.609,1307.609,6346.572,1306.854,6346.572,1305.981Z" transform="translate(-121.865 -55.686)" fill="#0071b9"/>
    <path id="Path_396" data-name="Path 396" d="M6466.016,1305.949h4.867c0,.8-.029,1.548.006,2.29a2.38,2.38,0,0,0,2.485,2.5q7.226.055,14.452,0a2.412,2.412,0,0,0,2.528-2.621c.024-.695,0-1.391,0-2.161h4.828c0,2.559.105,5.128-.045,7.681a2.139,2.139,0,0,1-2.335,1.97q-12.17.032-24.34,0a2.3,2.3,0,0,1-2.436-2.383C6465.974,1310.851,6466.016,1308.474,6466.016,1305.949Z" transform="translate(-221.823 -55.664)" fill="#0071b9"/>
    <path id="Path_397" data-name="Path 397" d="M6250.466,1278.8v-4.636h29.083v4.636Z" transform="translate(-71.984 -33.568)" fill="#0071b9"/>
    <path id="Path_398" data-name="Path 398" d="M6394.263,1278.8v-4.636h29.078v4.636Z" transform="translate(-171.951 -33.569)" fill="#0071b9"/>
    <path id="Path_399" data-name="Path 399" d="M6163.777,1274.159v4.683h-16.855v-4.683Z" transform="translate(0 -33.563)" fill="#0071b9"/>
    <path id="Path_400" data-name="Path 400" d="M6538.152,1278.748v-4.694h16.856v4.694Z" transform="translate(-271.982 -33.49)" fill="#0071b9"/>
    <path id="Path_401" data-name="Path 401" d="M6367.131,1368.484h-4.69v-14.417h4.69Z" transform="translate(-149.829 -89.115)" fill="#0071b9"/>
    <path id="Path_402" data-name="Path 402" d="M6497.47,1383.449c.966,1.5,1.832,2.851,2.814,4.379l-4.194,2.429-2.571-3.951Z" transform="translate(-240.954 -109.541)" fill="#0071b9"/>
    <path id="Path_403" data-name="Path 403" d="M6413.217,1623.726l1.709,4.526-4.959,1.581c-.435-1.654-.815-3.1-1.23-4.675Z" transform="translate(-182.013 -276.581)" fill="#0071b9"/>
    <path id="Path_404" data-name="Path 404" d="M6210.533,1418.44l1.865-4.843,4.425,1.938-1.662,4.4Z" transform="translate(-44.222 -130.5)" fill="#0071b9"/>
    <path id="Path_405" data-name="Path 405" d="M6513.39,1413.115l1.86,4.847-4.586,1.525c-.581-1.476-1.127-2.862-1.726-4.381Z" transform="translate(-251.673 -130.165)" fill="#0071b9"/>
    <path id="Path_406" data-name="Path 406" d="M6316.73,1629.982l-4.957-1.582c.587-1.575,1.125-3.017,1.691-4.539l4.478,1.411C6317.55,1626.8,6317.168,1628.282,6316.73,1629.982Z" transform="translate(-114.604 -276.675)" fill="#0071b9"/>
    <path id="Path_407" data-name="Path 407" d="M6208.938,1447.121c-.266,1.642-.5,3.069-.751,4.647l-4.83-.517c.286-1.735.552-3.348.844-5.119Z" transform="translate(-39.233 -153.119)" fill="#0071b9"/>
    <path id="Path_408" data-name="Path 408" d="M6254.138,1594.7l3.357-3.515,3.564,3.1-2.974,3.814Z" transform="translate(-74.536 -253.962)" fill="#0071b9"/>
    <path id="Path_409" data-name="Path 409" d="M6519.424,1451.324c-.255-1.635-.486-3.107-.729-4.659l4.678-1.026c.292,1.647.579,3.26.9,5.087Z" transform="translate(-258.456 -152.776)" fill="#0071b9"/>
    <path id="Path_410" data-name="Path 410" d="M6238.818,1571.373l-3.683,3.147-3.193-4.1,3.987-2.774Z" transform="translate(-59.105 -237.595)" fill="#0071b9"/>
    <path id="Path_411" data-name="Path 411" d="M6521.929,1479.812h4.729v5.1l-4.729-.395Z" transform="translate(-260.704 -176.533)" fill="#0071b9"/>
    <path id="Path_412" data-name="Path 412" d="M6466.838,1598.065l-2.982-3.851,3.43-2.959,3.55,3.3Z" transform="translate(-220.331 -254.008)" fill="#0071b9"/>
    <path id="Path_413" data-name="Path 413" d="M6378.1,1632.062l4.708-.476.736,4.752-5.136.58C6378.3,1635.244,6378.2,1633.708,6378.1,1632.062Z" transform="translate(-160.713 -282.046)" fill="#0071b9"/>
    <path id="Path_414" data-name="Path 414" d="M6515.615,1515.162c.39-1.6.734-3.007,1.116-4.565l4.757.91-1.221,5.031Z" transform="translate(-256.314 -197.934)" fill="#0071b9"/>
    <path id="Path_415" data-name="Path 415" d="M6206.786,1517c-.438-1.741-.83-3.291-1.274-5.051l4.759-.939c.391,1.556.754,3,1.142,4.541Z" transform="translate(-40.731 -198.223)" fill="#0071b9"/>
    <path id="Path_416" data-name="Path 416" d="M6505.716,1540.093l4.486,1.889-2.249,4.685-4.241-2.292Z" transform="translate(-248.04 -218.44)" fill="#0071b9"/>
    <path id="Path_417" data-name="Path 417" d="M6227.226,1383.859l3.944,2.835-2.542,3.94-4.217-2.391Z" transform="translate(-53.87 -109.826)" fill="#0071b9"/>
    <path id="Path_418" data-name="Path 418" d="M6215.474,1542.448l4.481-1.883,2.061,4.227-4.229,2.32C6217.016,1545.557,6216.289,1544.093,6215.474,1542.448Z" transform="translate(-47.657 -218.769)" fill="#0071b9"/>
    <path id="Path_419" data-name="Path 419" d="M6489.857,1574.158l-3.712-3.135,2.839-3.756,4,2.744Z" transform="translate(-235.827 -237.33)" fill="#0071b9"/>
    <path id="Path_420" data-name="Path 420" d="M6285.663,1616.82l-4.538-2.536,2.583-4.13,4.1,2.313C6287.121,1613.865,6286.443,1615.239,6285.663,1616.82Z" transform="translate(-93.297 -267.147)" fill="#0071b9"/>
    <path id="Path_421" data-name="Path 421" d="M6439.867,1616.6l-2.158-4.331,4.1-2.316,2.584,4.119Z" transform="translate(-202.155 -267.007)" fill="#0071b9"/>
    <path id="Path_422" data-name="Path 422" d="M6344.884,1636.392c.264-1.725.49-3.2.736-4.813l4.491.461v4.87Z" transform="translate(-137.623 -282.041)" fill="#0071b9"/>
    <path id="Path_423" data-name="Path 423" d="M6202.277,1480.274h4.841c.07,1.489.138,2.933.218,4.628l-4.8.513C6202.451,1483.656,6202.368,1482.028,6202.277,1480.274Z" transform="translate(-38.483 -176.854)" fill="#0071b9"/>
    <path id="Path_424" data-name="Path 424" d="M6361.445,1471.349h-4.873c0-3.479-.034-6.9.017-10.322a4.652,4.652,0,0,0-1.252-3.564,4.663,4.663,0,0,1,.378-6.668,4.831,4.831,0,0,1,6.609.023,4.673,4.673,0,0,1,.332,6.674,4.488,4.488,0,0,0-1.229,3.416C6361.479,1464.34,6361.445,1467.773,6361.445,1471.349Z" transform="translate(-144.035 -155.459)" fill="#33a8f2"/>
  </g>
</svg>
