<svg id="fast_and_easy" data-name="fast and easy" xmlns="http://www.w3.org/2000/svg" width="152.505" height="119.306" viewBox="0 0 152.505 119.306">
  <path id="Path_38310" data-name="Path 38310" d="M891.063,475c1.527,1.43,3.094,2.818,4.574,4.3q18.722,18.688,37.415,37.4c1.882,1.882,1.88,2.719,0,4.6q-10.593,10.6-21.2,21.192a12.481,12.481,0,0,1-1.31,1.007l.2.441h8.621v4.311H892.778v-4.224c3.264,0,6.5-.041,9.727.022a3.447,3.447,0,0,0,2.752-1.122q11.347-11.438,22.766-22.8c.348-.348.672-.719.928-.994L890.293,480.5c-1.562,1.576-3.239,3.273-4.921,4.965-1.2,1.2-2.354,2.457-3.62,3.585a1.668,1.668,0,0,0-.369,2.5,10.838,10.838,0,1,1-19.77,8.609,10.619,10.619,0,0,1,2.2-10.561l-8.852-8.73-11.6,11.591,3.215.145v4.178H798.619V492.61c.637-.031,1.266-.089,1.9-.09q17.236-.008,34.471.019a3.343,3.343,0,0,0,2.615-1.1c4.843-4.906,9.732-9.768,14.614-14.635.631-.629,1.315-1.2,1.975-1.8ZM860.6,479.543l11.983,12.015,12.049-12.015Zm6.674,12.937a6.439,6.439,0,0,0,8.9,9.283,6.1,6.1,0,0,0,1.063-8.333c-.9.962-1.758,1.93-2.677,2.832-1.335,1.309-2.419,1.317-3.738,0C869.627,495.066,868.505,493.8,867.269,492.48Z" transform="translate(-781.958 -475)" fill="#fff"/>
  <path id="Path_38311" data-name="Path 38311" d="M955.225,776.267l-18.314-18.541c1.934,0,3.838-.043,5.736.039.351.015.7.51,1.015.822q5.572,5.555,11.124,11.131a17.24,17.24,0,0,1,1.28,1.764,13.738,13.738,0,0,1,1.208-1.792q16.727-16.763,33.461-33.52a3.651,3.651,0,0,1,3.122-1.3c1.317.11,2.65.024,4.283.024-.544.6-.85.965-1.187,1.3q-19.021,19.026-38.051,38.044c-.7.7-1.452,1.351-2.179,2.025Z" transform="translate(-878.795 -656.961)" fill="#fff"/>
  <path id="Path_38312" data-name="Path 38312" d="M1215.907,475v5.907a24.36,24.36,0,0,1-3.026-.047c-.283-.036-.68-.623-.706-.981-.117-1.622-.121-3.252-.165-4.88Z" transform="translate(-1071.429 -475)" fill="#fff"/>
  <path id="Path_38313" data-name="Path 38313" d="M847.221,628.383V632.6h-32.7v-4.189H827.91c-.6-.657-.933-1.053-1.3-1.419q-15.206-15.21-30.417-30.415c-2.142-2.142-2.134-2.871.043-5.048q13.617-13.619,27.214-27.26a3.792,3.792,0,0,1,3.267-1.313c1.28.109,2.576.023,4.064.023l-30.97,30.934c.582.618.942,1.02,1.323,1.4q16.054,16.057,32.141,32.08a3.709,3.709,0,0,0,2.318.94C839.431,628.436,843.27,628.383,847.221,628.383Z" transform="translate(-779.141 -536.581)" fill="#fff"/>
  <path id="Path_38314" data-name="Path 38314" d="M1012.637,595.464l-2.755,2.74-40.14-40.153,3.035-2.439Z" transform="translate(-901.785 -531.448)" fill="#fff"/>
  <path id="Path_38315" data-name="Path 38315" d="M897.089,630l2.68-2.721,40.183,40.212-2.8,2.563Z" transform="translate(-850.91 -581.633)" fill="#fff"/>
  <path id="Path_38316" data-name="Path 38316" d="M933.641,593.767l2.578-2.714,40.113,40.163-2.593,2.659Z" transform="translate(-876.505 -556.265)" fill="#fff"/>
  <path id="Path_38317" data-name="Path 38317" d="M1096.127,606.358l-2.676,2.554L1073.5,588.951l2.911-2.393Z" transform="translate(-974.442 -553.117)" fill="#fff"/>
  <path id="Path_38318" data-name="Path 38318" d="M861.126,482.689v-4.233h17v4.233Z" transform="translate(-825.727 -477.42)" fill="#fff"/>
  <path id="Path_38319" data-name="Path 38319" d="M817.374,785.773v-4.234h6.384v4.234Z" transform="translate(-795.09 -689.65)" fill="#fff"/>
  <path id="Path_38320" data-name="Path 38320" d="M743.037,576.029l2.436-2.394,3.859,4.029-2.63,2.286Z" transform="translate(-743.037 -544.067)" fill="#fff"/>
  <path id="Path_38321" data-name="Path 38321" d="M775.411,577.348l4.118-3.948,2.329,2.735-4.06,3.68Z" transform="translate(-765.707 -543.903)" fill="#fff"/>
  <path id="Path_38322" data-name="Path 38322" d="M747.72,607.631l2.174,2.344-3.983,3.9-2.1-2.61Z" transform="translate(-743.578 -567.873)" fill="#fff"/>
  <path id="Path_38323" data-name="Path 38323" d="M1103.616,820.9l-2.485,2.366-3.879-4.047,2.49-2.341Z" transform="translate(-991.07 -714.399)" fill="#fff"/>
  <path id="Path_38324" data-name="Path 38324" d="M1136.281,854.165l-2.339,2.469-4.062-4.067,2.518-2.435Z" transform="translate(-1013.919 -737.681)" fill="#fff"/>
  <path id="Path_38325" data-name="Path 38325" d="M1212.445,522.272h3.72v5.564c-.113.068-.193.156-.282.165-3.436.349-3.436.348-3.438-3.033C1212.445,524.089,1212.445,523.21,1212.445,522.272Z" transform="translate(-1071.733 -508.102)" fill="#fff"/>
  <path id="Path_38326" data-name="Path 38326" d="M776.306,608.847l2.365-2.457,3.924,4.177-2.658,2.24Z" transform="translate(-766.333 -567.004)" fill="#fff"/>
  <path id="Path_38327" data-name="Path 38327" d="M1136.774,820.195l-3.827,3.91-2.33-2.441,3.982-3.757Z" transform="translate(-1014.435 -715.116)" fill="#fff"/>
  <path id="Path_38328" data-name="Path 38328" d="M1097.345,854.216l3.994-3.931,1.972,2.655-3.7,3.688Z" transform="translate(-991.136 -737.788)" fill="#fff"/>
  <path id="Path_38329" data-name="Path 38329" d="M1191.833,502.365V506h-5.61v-3.639Z" transform="translate(-1053.372 -494.162)" fill="#fff"/>
  <path id="Path_38330" data-name="Path 38330" d="M1233.183,502.259h5.524v3.7h-5.524Z" transform="translate(-1086.255 -494.088)" fill="#fff"/>
  <path id="Path_38331" data-name="Path 38331" d="M831.7,478.292h4.14v4.252H831.7Z" transform="translate(-805.125 -477.305)" fill="#fff"/>
</svg>
