<svg xmlns="http://www.w3.org/2000/svg" xmlns:xlink="http://www.w3.org/1999/xlink" width="554.966" height="626.106" viewBox="0 0 554.966 626.106">
  <defs>
    <clipPath id="clip-path">
      <path id="Path_38382" data-name="Path 38382" d="M368.673,125.181c11.2,19.4,7.966,42.229-7.22,51s-36.575.151-47.774-19.246-7.966-42.23,7.22-51S357.474,105.783,368.673,125.181Z" transform="translate(-307.009 -102.503)" fill="none"/>
    </clipPath>
    <clipPath id="clip-path-2">
      <ellipse id="Ellipse_254" data-name="Ellipse 254" cx="31.751" cy="40.555" rx="31.751" ry="40.555" transform="translate(0 31.751) rotate(-30)" fill="none"/>
    </clipPath>
    <linearGradient id="linear-gradient" y1="0.5" x2="1" y2="0.5" gradientUnits="objectBoundingBox">
      <stop offset="0" stop-color="#003a94"/>
      <stop offset="0.725" stop-color="#51bfff"/>
    </linearGradient>
  </defs>
  <g id="global-career" transform="translate(-107.147 -81.431)">
    <g id="Group_35962" data-name="Group 35962" transform="translate(530.419 137.01)" style="mix-blend-mode: multiply;isolation: isolate">
      <g id="Group_35958" data-name="Group 35958">
        <path id="Path_38337" data-name="Path 38337" d="M354.373,118.248l131.694,37.025v-4.354L354.373,113.894Z" transform="translate(-354.373 -113.894)" fill="#71ccff"/>
        <path id="Path_38338" data-name="Path 38338" d="M354.373,125.925l131.694,37.025V158.6L354.373,121.571Z" transform="translate(-354.373 -108.427)" fill="#71ccff"/>
        <path id="Path_38339" data-name="Path 38339" d="M354.373,133.6l131.694,37.025v-4.354L354.373,129.248Z" transform="translate(-354.373 -102.961)" fill="#71ccff"/>
        <path id="Path_38340" data-name="Path 38340" d="M354.373,141.279,486.067,178.3V173.95L354.373,136.925Z" transform="translate(-354.373 -97.494)" fill="#71ccff"/>
      </g>
      <g id="Group_35961" data-name="Group 35961" transform="translate(0 59.002)">
        <g id="Group_35959" data-name="Group 35959">
          <path id="Path_38341" data-name="Path 38341" d="M354.373,150.429l62.707,17.63v-2.073l-62.707-17.63Z" transform="translate(-354.373 -148.356)" fill="#71ccff"/>
          <path id="Path_38342" data-name="Path 38342" d="M354.373,154.183l62.707,17.63V169.74l-62.707-17.63Z" transform="translate(-354.373 -145.683)" fill="#71ccff"/>
          <path id="Path_38343" data-name="Path 38343" d="M354.373,157.937l62.707,17.63v-2.073l-62.707-17.63Z" transform="translate(-354.373 -143.01)" fill="#71ccff"/>
          <path id="Path_38344" data-name="Path 38344" d="M354.373,161.691l62.707,17.63v-2.073l-62.707-17.63Z" transform="translate(-354.373 -140.337)" fill="#71ccff"/>
          <path id="Path_38345" data-name="Path 38345" d="M354.373,165.445l62.707,17.63V181l-62.707-17.63Z" transform="translate(-354.373 -137.664)" fill="#71ccff"/>
          <path id="Path_38346" data-name="Path 38346" d="M354.373,169.2l62.707,17.63v-2.073l-62.707-17.63Z" transform="translate(-354.373 -134.991)" fill="#71ccff"/>
          <path id="Path_38347" data-name="Path 38347" d="M354.373,172.953l62.707,17.63v-2.073l-62.707-17.63Z" transform="translate(-354.373 -132.317)" fill="#71ccff"/>
          <path id="Path_38348" data-name="Path 38348" d="M354.373,176.707l62.707,17.63v-2.073l-62.707-17.63Z" transform="translate(-354.373 -129.644)" fill="#71ccff"/>
          <path id="Path_38349" data-name="Path 38349" d="M354.373,180.461l62.707,17.63v-2.073l-62.707-17.63Z" transform="translate(-354.373 -126.971)" fill="#71ccff"/>
          <path id="Path_38350" data-name="Path 38350" d="M354.373,184.215l62.707,17.63v-2.073l-62.707-17.63Z" transform="translate(-354.373 -124.298)" fill="#71ccff"/>
          <path id="Path_38351" data-name="Path 38351" d="M354.373,187.969,417.08,205.6v-2.073L354.373,185.9Z" transform="translate(-354.373 -121.625)" fill="#71ccff"/>
          <path id="Path_38352" data-name="Path 38352" d="M354.373,191.723l62.707,17.63v-2.073l-62.707-17.63Z" transform="translate(-354.373 -118.952)" fill="#71ccff"/>
        </g>
        <g id="Group_35960" data-name="Group 35960" transform="translate(68.987 19.492)">
          <path id="Path_38353" data-name="Path 38353" d="M394.667,161.814l62.707,17.63v-2.073l-62.707-17.63Z" transform="translate(-394.667 -159.741)" fill="#71ccff"/>
          <path id="Path_38354" data-name="Path 38354" d="M394.667,165.568l62.707,17.63v-2.073L394.667,163.5Z" transform="translate(-394.667 -157.068)" fill="#71ccff"/>
          <path id="Path_38355" data-name="Path 38355" d="M394.667,169.322l62.707,17.63v-2.073l-62.707-17.63Z" transform="translate(-394.667 -154.395)" fill="#71ccff"/>
          <path id="Path_38356" data-name="Path 38356" d="M394.667,173.076l62.707,17.63v-2.073L394.667,171Z" transform="translate(-394.667 -151.722)" fill="#71ccff"/>
          <path id="Path_38357" data-name="Path 38357" d="M394.667,176.83l62.707,17.63v-2.073l-62.707-17.63Z" transform="translate(-394.667 -149.049)" fill="#71ccff"/>
          <path id="Path_38358" data-name="Path 38358" d="M394.667,180.584l62.707,17.63V196.14l-62.707-17.63Z" transform="translate(-394.667 -146.376)" fill="#71ccff"/>
          <path id="Path_38359" data-name="Path 38359" d="M394.667,184.338l62.707,17.63v-2.073l-62.707-17.63Z" transform="translate(-394.667 -143.702)" fill="#71ccff"/>
          <path id="Path_38360" data-name="Path 38360" d="M394.667,188.092l62.707,17.63v-2.073l-62.707-17.63Z" transform="translate(-394.667 -141.029)" fill="#71ccff"/>
          <path id="Path_38361" data-name="Path 38361" d="M394.667,191.846l62.707,17.63V207.4l-62.707-17.63Z" transform="translate(-394.667 -138.356)" fill="#71ccff"/>
          <path id="Path_38362" data-name="Path 38362" d="M394.667,195.6l62.707,17.63v-2.073l-62.707-17.63Z" transform="translate(-394.667 -135.683)" fill="#71ccff"/>
          <path id="Path_38363" data-name="Path 38363" d="M394.667,199.353l62.707,17.63V214.91l-62.707-17.63Z" transform="translate(-394.667 -133.01)" fill="#71ccff"/>
          <path id="Path_38364" data-name="Path 38364" d="M394.667,203.107l62.707,17.63v-2.073l-62.707-17.63Z" transform="translate(-394.667 -130.337)" fill="#71ccff"/>
        </g>
      </g>
    </g>
    <g id="Group_35966" data-name="Group 35966" transform="translate(268.722 160.868)">
      <g id="Group_35965" data-name="Group 35965" transform="translate(34.399 265.033)">
        <g id="Group_35963" data-name="Group 35963">
          <path id="Path_38365" data-name="Path 38365" d="M221.626,353.683c0,.043.031.086.092.125l0,0a.983.983,0,0,0,.279.111l55.054,14.753a4.229,4.229,0,0,0,1.818.009l19.316-5.393a.362.362,0,0,0,.024-.06,1.126,1.126,0,0,0,.024-.14,1.492,1.492,0,0,0,.029-.253l-.639-62.115a1.76,1.76,0,0,0-.019-.252l0-.022a2,2,0,0,0-.05-.228l0-.009a1.816,1.816,0,0,0-.075-.211l-.015-.038a1.7,1.7,0,0,0-.1-.192c-.031-.051-.065-.1-.1-.144-.014-.017-.024-.038-.038-.055s-.026-.026-.039-.039a1.032,1.032,0,0,0-.113-.115.5.5,0,0,0-.06-.044,1.078,1.078,0,0,0-.1-.075.831.831,0,0,0-.089-.041.85.85,0,0,0-.11-.044L241.222,283.6a.639.639,0,0,0-.159-.024l-.026,0a.588.588,0,0,0-.156.021l3.453-.948.045-.01a.873.873,0,0,1,.094-.01l.017,0,.027,0a.369.369,0,0,1,.062,0,.658.658,0,0,1,.1.019l55.484,15.609.031.009c.027.01.053.026.079.038a.846.846,0,0,1,.089.041l.014.007c.031.019.06.044.091.067s.041.027.062.045c.039.036.075.075.113.116.012.014.026.024.038.039l0,0c.014.015.024.034.036.05a1.555,1.555,0,0,1,.1.146l.005.007c.029.05.056.1.082.156l.012.029.015.038.031.072c.015.044.031.089.044.135v0l0,.007q.018.062.031.123c.009.036.014.07.019.106l0,.022,0,.014c.007.051.01.1.014.154l0,.082.633,64.7c0,.041-.033.082-.092.122-.019.012-.056.022-.082.034a.766.766,0,0,1-.152.065l-.051.014-22.476,6.277-.044.01-.082.019-.075.014-.072.01-.068.01-.068.007-.068.007-.069.005-.07.005-.068,0-.07,0-.069,0h-.14l-.074,0-.082,0c-.038,0-.075-.005-.113-.007-.116-.01-.231-.022-.337-.039q-.08-.013-.154-.031c-.031-.007-.062-.014-.092-.022l-55.052-14.751-.012,0-.075-.022-.058-.021-.046-.019-.039-.019-.033-.017-.017-.01v0l-.01-.007-.024-.017-.021-.019-.015-.019-.012-.021-.009-.021,0-.021v0Z" transform="translate(-221.612 -282.63)" fill="#566875"/>
          <path id="Path_38366" data-name="Path 38366" d="M296.7,298.819a.938.938,0,0,1,.346.192l.015.012a1.425,1.425,0,0,1,.276.33l.014.021a1.824,1.824,0,0,1,.193.445l0,0a1.836,1.836,0,0,1,.072.505l.639,62.115a1.485,1.485,0,0,1-.029.253,1.13,1.13,0,0,1-.024.14.365.365,0,0,1-.024.06l-12.228,3.414-7.088,1.979c-.048.014-.118.009-.171.019a4.216,4.216,0,0,1-1.647-.027l-55.054-14.753a.837.837,0,0,1-.139-.055,1.024,1.024,0,0,1-.14-.057l0,0c-.185-.122-.091-.265.286-.361l16.9-4.72a2.77,2.77,0,0,0,2.024-2.693l-.618-61.437c0-.69.406-1.135.909-.993Z" transform="translate(-221.606 -282.236)" fill="#3c4f5b"/>
        </g>
        <g id="Group_35964" data-name="Group 35964" transform="translate(136.777 38.387)">
          <path id="Path_38367" data-name="Path 38367" d="M301.515,376.1c0,.043.031.086.092.127h0a.991.991,0,0,0,.279.113L356.942,391.1a4.249,4.249,0,0,0,1.817.01l19.318-5.395c.007-.021.017-.038.024-.06.01-.043.015-.092.024-.14a1.338,1.338,0,0,0,.027-.253l-.639-62.115a1.773,1.773,0,0,0-.019-.252l0-.022a1.989,1.989,0,0,0-.048-.228l0-.009a2.2,2.2,0,0,0-.074-.211l-.017-.038a1.829,1.829,0,0,0-.1-.192c-.031-.051-.065-.1-.1-.144-.014-.017-.026-.038-.039-.055s-.026-.026-.038-.039a1.2,1.2,0,0,0-.113-.115c-.019-.017-.041-.029-.06-.045-.036-.027-.07-.053-.106-.075a.57.57,0,0,0-.087-.039.631.631,0,0,0-.111-.046l-55.484-15.609a.661.661,0,0,0-.159-.024l-.027,0a.6.6,0,0,0-.156.021l3.455-.947.043-.01a.6.6,0,0,1,.1-.012l.017,0,.026,0a.407.407,0,0,1,.063,0,.509.509,0,0,1,.1.021l55.485,15.607.029.01a.841.841,0,0,1,.08.036c.029.014.06.024.089.041l.014.007c.031.019.06.044.091.067s.041.027.06.045a1.457,1.457,0,0,1,.113.116c.012.014.026.026.038.039l0,0c.012.015.022.034.034.05a1.274,1.274,0,0,1,.1.146l.007.009a1.458,1.458,0,0,1,.08.154l.012.029.017.038c.01.024.021.048.029.072a1.27,1.27,0,0,1,.045.135l0,0,0,.007c.01.041.022.082.031.123s.012.07.017.106l.005.022,0,.014c.007.051.012.1.014.154,0,.027,0,.055,0,.082l.633,64.7c0,.041-.033.082-.091.122-.019.012-.058.022-.082.034a.835.835,0,0,1-.154.065l-.051.014L358.746,393.4l-.046.012-.082.017-.074.014-.072.01-.07.01-.068.007-.068.007-.068.005-.069.005-.07,0-.069,0-.07,0h-.139l-.075,0-.08,0-.113-.007c-.118-.009-.231-.022-.337-.039-.055-.009-.106-.019-.154-.029-.033-.009-.063-.015-.092-.024L301.874,378.64l-.012,0a.749.749,0,0,1-.074-.022l-.058-.021-.048-.019-.038-.019-.033-.017-.017-.01,0,0-.01-.007-.024-.017-.019-.019-.017-.019-.012-.019-.007-.021,0-.022v0Z" transform="translate(-301.501 -305.051)" fill="#566875"/>
          <path id="Path_38368" data-name="Path 38368" d="M376.589,321.24a.957.957,0,0,1,.348.192l.014.012a1.426,1.426,0,0,1,.277.331l.014.021a1.922,1.922,0,0,1,.193.445v0a1.838,1.838,0,0,1,.072.505l.639,62.115a1.34,1.34,0,0,1-.027.253c-.009.048-.014.1-.024.14-.007.022-.017.039-.024.06l-12.229,3.416-7.088,1.979c-.046.012-.118.007-.169.017a4.217,4.217,0,0,1-1.647-.027L301.882,375.95a1,1,0,0,1-.139-.056.948.948,0,0,1-.14-.056h0c-.187-.123-.092-.267.286-.363l16.9-4.72a2.768,2.768,0,0,0,2.024-2.693l-.616-61.435c0-.692.406-1.137.909-.995Z" transform="translate(-301.496 -304.657)" fill="#3c4f5b"/>
        </g>
      </g>
      <path id="Path_38369" data-name="Path 38369" d="M204.026,130.6a3.107,3.107,0,0,0-.8.1l10.238-2.768c.074-.021.149-.038.226-.053a3.083,3.083,0,0,1,.49-.053c.027,0,.058.005.086.005.045,0,.089.005.135.007.106,0,.211,0,.32.017a3.566,3.566,0,0,1,.5.1l285.054,80.189c.051.014.1.031.154.046a4.415,4.415,0,0,1,.409.19,4.335,4.335,0,0,1,.454.211c.024.012.048.019.07.033a5.472,5.472,0,0,1,.467.346c.1.079.212.144.313.233a6.523,6.523,0,0,1,.579.591c.063.072.135.13.2.205l.014.014c.065.08.118.176.18.258a8.356,8.356,0,0,1,.519.745c.009.015.021.027.029.043.151.253.291.52.419.794.022.05.041.1.062.151s.055.128.082.193c.051.123.108.245.154.37.084.226.161.457.228.692l.007.022.009.036c.058.209.113.421.159.635.038.178.065.36.092.539.007.039.015.077.021.115s.009.046.012.068c.036.265.06.531.072.8q.01.211.01.421l.551,278.57c0,.181-.005.358-.015.532a7.141,7.141,0,0,1-.132.769c-.041.243-.063.5-.125.722a5.557,5.557,0,0,1-.353.894,5.29,5.29,0,0,1-.25.555,4.079,4.079,0,0,1-.6.716,3.9,3.9,0,0,1-.3.341,3.166,3.166,0,0,1-1.145.6l-10.237,2.767a3.158,3.158,0,0,0,1.144-.6,3.677,3.677,0,0,0,.3-.342,4.018,4.018,0,0,0,.6-.716,5.9,5.9,0,0,0,.25-.555,5.71,5.71,0,0,0,.351-.894,7.11,7.11,0,0,0,.125-.723,7.617,7.617,0,0,0,.147-1.3l-.55-278.57a9.471,9.471,0,0,0-.1-1.286c-.005-.039-.014-.079-.021-.12a9.457,9.457,0,0,0-.25-1.166l-.01-.043a9.843,9.843,0,0,0-.389-1.079c-.026-.065-.053-.132-.08-.2a9.274,9.274,0,0,0-.512-.988,8,8,0,0,0-.515-.74c-.068-.089-.125-.192-.2-.277s-.13-.132-.2-.2a6.573,6.573,0,0,0-.58-.594c-.1-.087-.205-.151-.308-.229a5.379,5.379,0,0,0-.543-.382,4.656,4.656,0,0,0-.45-.209,4.38,4.38,0,0,0-.567-.238L204.98,130.729a3.5,3.5,0,0,0-.818-.122C204.117,130.606,204.071,130.6,204.026,130.6Z" transform="translate(-200.306 -127.829)" fill="#566875"/>
      <path id="Path_38370" data-name="Path 38370" d="M201.52,134.688c-.007-3.546,2.087-5.837,4.674-5.109l285.052,80.189c2.6.733,4.707,4.2,4.713,7.749l.455,264.778L201.979,400.6Z" transform="translate(-201.52 -126.679)" fill="#fffffd"/>
      <path id="Path_38371" data-name="Path 38371" d="M207.927,141.375c-.007-3.282,1.931-5.4,4.325-4.727L476.1,210.871c2.407.678,4.357,3.89,4.362,7.174l.414,243.827a3.887,3.887,0,0,1-4.926,3.751L211.192,392.165a3.887,3.887,0,0,1-2.847-3.737Z" transform="translate(-196.958 -121.638)" fill="#35b6ef"/>
      <path id="Path_38372" data-name="Path 38372" d="M491.629,388.411,206.577,308.222c-2.585-.728-4.691-4.2-4.7-7.744l-.091-12.654,294.436,81.691.094,13.793C496.325,386.853,494.231,389.144,491.629,388.411Z" transform="translate(-201.329 -13.899)" fill="#9ea6ad"/>
    </g>
    <g id="Group_35968" data-name="Group 35968" transform="translate(297.122 314.347)">
      <path id="Path_38373" data-name="Path 38373" d="M444.984,385.788l-18.292-70.639-18.237,13.417-24.106-73.1L334.794,341.8l-24.889-67.032-36.961,14.485L235.6,217.473,220.649,322.1Z" transform="translate(-216.298 -217.473)" fill="#71ccff" style="mix-blend-mode: multiply;isolation: isolate"/>
      <g id="Group_35967" data-name="Group 35967" transform="translate(0 17.838)">
        <line id="Line_111" data-name="Line 111" x1="236.162" y1="66.394" transform="translate(0 86.184)" fill="none" stroke="#f9fbfc" stroke-miterlimit="10" stroke-width="0.25"/>
        <line id="Line_112" data-name="Line 112" x1="236.162" y1="66.394" transform="translate(0 43.092)" fill="none" stroke="#f9fbfc" stroke-miterlimit="10" stroke-width="0.25"/>
        <line id="Line_113" data-name="Line 113" x1="236.162" y1="66.395" fill="none" stroke="#f9fbfc" stroke-miterlimit="10" stroke-width="0.25"/>
      </g>
      <line id="Line_114" data-name="Line 114" y2="95.615" transform="translate(232.912 76.196)" fill="none" stroke="#f9fbfc" stroke-miterlimit="10" stroke-width="0.25"/>
      <line id="Line_115" data-name="Line 115" y2="95.615" transform="translate(156.59 54.712)" fill="none" stroke="#f9fbfc" stroke-miterlimit="10" stroke-width="0.25"/>
      <line id="Line_116" data-name="Line 116" y2="95.615" transform="translate(80.269 33.228)" fill="none" stroke="#f9fbfc" stroke-miterlimit="10" stroke-width="0.25"/>
      <line id="Line_117" data-name="Line 117" y2="95.615" transform="translate(3.947 11.744)" fill="none" stroke="#f9fbfc" stroke-miterlimit="10" stroke-width="0.25"/>
    </g>
    <g id="Group_36005" data-name="Group 36005" transform="translate(285.805 81.431)">
      <g id="Group_35979" data-name="Group 35979" transform="translate(135.755)">
        <path id="Path_38374" data-name="Path 38374" d="M292.011,81.467l121.276,34.095a2.113,2.113,0,0,1,1.231,2.022l.144,236.147c0,.925-.546,1.522-1.224,1.332l-121.277-34.1a2.113,2.113,0,0,1-1.226-2.02L290.79,82.8C290.788,81.874,291.334,81.277,292.011,81.467Z" transform="translate(-290.79 -81.431)" fill="#ddd"/>
        <g id="Group_35973" data-name="Group 35973" transform="translate(27.768 36.077)">
          <path id="Path_38375" data-name="Path 38375" d="M368.673,125.181c11.2,19.4,7.966,42.229-7.22,51s-36.575.151-47.774-19.246-7.966-42.23,7.22-51S357.474,105.783,368.673,125.181Z" transform="translate(-307.009 -102.503)" fill="#d30b0b"/>
          <g id="Group_35972" data-name="Group 35972">
            <g id="Group_35971" data-name="Group 35971" clip-path="url(#clip-path)">
              <g id="Group_35970" data-name="Group 35970" transform="translate(11.534 19.099)">
                <g id="Group_35969" data-name="Group 35969" transform="translate(0 21.873)">
                  <path id="Path_38376" data-name="Path 38376" d="M314.739,142.3c1.322-9.591.565-11.574,6.67-15.7-2.392,4.564-4.479,22.295-4.479,37.2h-3.184S313.683,149.961,314.739,142.3Z" transform="translate(-313.746 -126.32)" fill="#fff"/>
                  <path id="Path_38377" data-name="Path 38377" d="M338.778,132.409c4.344,3.357,4.227,10.944,4.227,27.263h-12.2c.1-3.6.3-9.848.673-18.051C331.776,135.077,335.246,132.043,338.778,132.409Z" transform="translate(-301.598 -122.201)" fill="#fff"/>
                  <path id="Path_38378" data-name="Path 38378" d="M321.5,126.44c3.791.3,21.386,6.523,27,9.4a7.926,7.926,0,0,1,1.233.8c-3.532-.366-7,2.667-7.3,9.213-.372,8.2-.574,14.447-.673,18.051H315.732l-.3-9.1c0-14.9,2.39-23.529,4.782-28.094A2.714,2.714,0,0,1,321.5,126.44Z" transform="translate(-312.547 -126.435)" fill="#fff"/>
                </g>
                <path id="Path_38379" data-name="Path 38379" d="M332.262,125.953c-.443,4.571.517,5.677.517,5.677l-4.929,6.776a3.117,3.117,0,0,1-5.635-1.7l-.281-6.658Z" transform="translate(-307.914 -104.904)" fill="#efccb9"/>
                <path id="Path_38380" data-name="Path 38380" d="M331.944,118.307c1.289-.834-.228,1.517-.606,3.565a14.612,14.612,0,0,0,.257,4.421,1.025,1.025,0,0,0,1.806.478l.017-.022c.714-.96,1.029-1.767,2.09-1.692.625.045,1.323.647,1.156,2.258-.05.464-.255,2.6-1.678,3.07-.661.217-.471.493-.676.978-1.062,2.5-8.812,6.816-10.329,6.057a10.465,10.465,0,0,1-4.02-4.475c-.681-1.592-.834-8.115-.606-14.257,1.123.55.986,1.137,4.929,1.137S330.655,119.141,331.944,118.307Z" transform="translate(-309.821 -110.472)" fill="#f9d5bd"/>
                <path id="Path_38381" data-name="Path 38381" d="M323.133,116.258c3.162-1.743,5.092-2.431,7.425-2.575,4.037-.25,9.908,1.365,9.908,8.191,0,5.032-2.2,6.237-2.409,8.627.13-1.466-.44-2.207-1.156-2.258-1.061-.075-1.488.957-2.09,1.692l-.034.041a1.026,1.026,0,0,1-1.789-.5,14.669,14.669,0,0,1-.257-4.421c.378-2.048,1-3.018-.288-2.185s-3.017,1.212-6.961,1.212-8.221-.7-8.182-1.9C317.3,122.189,319.969,118,323.133,116.258Z" transform="translate(-311.215 -113.659)" fill="#2d1919"/>
              </g>
            </g>
          </g>
        </g>
        <g id="Group_35978" data-name="Group 35978" transform="translate(11.317 116.543)">
          <g id="Group_35974" data-name="Group 35974">
            <path id="Path_38383" data-name="Path 38383" d="M297.4,152.849l101.237,28.462v-3.347L297.4,149.5Z" transform="translate(-297.4 -149.502)" fill="#ccc"/>
            <path id="Path_38384" data-name="Path 38384" d="M297.4,158.75l101.237,28.462v-3.347L297.4,155.4Z" transform="translate(-297.4 -145.299)" fill="#ccc"/>
            <path id="Path_38385" data-name="Path 38385" d="M297.4,164.652l101.237,28.462v-3.347L297.4,161.305Z" transform="translate(-297.4 -141.097)" fill="#ccc"/>
            <path id="Path_38386" data-name="Path 38386" d="M297.4,170.554l101.237,28.462v-3.347L297.4,167.207Z" transform="translate(-297.4 -136.895)" fill="#ccc"/>
          </g>
          <g id="Group_35977" data-name="Group 35977" transform="translate(0 45.357)">
            <g id="Group_35975" data-name="Group 35975">
              <path id="Path_38387" data-name="Path 38387" d="M297.4,177.588l48.2,13.552v-1.594l-48.2-13.553Z" transform="translate(-297.4 -175.994)" fill="#ccc"/>
              <path id="Path_38388" data-name="Path 38388" d="M297.4,180.474l48.2,13.553v-1.594L297.4,178.88Z" transform="translate(-297.4 -173.939)" fill="#ccc"/>
              <path id="Path_38389" data-name="Path 38389" d="M297.4,183.359l48.2,13.552v-1.594l-48.2-13.552Z" transform="translate(-297.4 -171.884)" fill="#ccc"/>
              <path id="Path_38390" data-name="Path 38390" d="M297.4,186.245,345.6,199.8V198.2l-48.2-13.552Z" transform="translate(-297.4 -169.829)" fill="#ccc"/>
              <path id="Path_38391" data-name="Path 38391" d="M297.4,189.131l48.2,13.553V201.09l-48.2-13.553Z" transform="translate(-297.4 -167.775)" fill="#ccc"/>
              <path id="Path_38392" data-name="Path 38392" d="M297.4,192.017l48.2,13.552v-1.594l-48.2-13.552Z" transform="translate(-297.4 -165.72)" fill="#ccc"/>
              <path id="Path_38393" data-name="Path 38393" d="M297.4,194.9l48.2,13.552v-1.594l-48.2-13.552Z" transform="translate(-297.4 -163.665)" fill="#ccc"/>
              <path id="Path_38394" data-name="Path 38394" d="M297.4,197.788l48.2,13.553v-1.594l-48.2-13.553Z" transform="translate(-297.4 -161.61)" fill="#ccc"/>
              <path id="Path_38395" data-name="Path 38395" d="M297.4,200.674l48.2,13.552v-1.594L297.4,199.08Z" transform="translate(-297.4 -159.555)" fill="#ccc"/>
              <path id="Path_38396" data-name="Path 38396" d="M297.4,203.56l48.2,13.552v-1.594l-48.2-13.552Z" transform="translate(-297.4 -157.5)" fill="#ccc"/>
              <path id="Path_38397" data-name="Path 38397" d="M297.4,206.446,345.6,220V218.4l-48.2-13.553Z" transform="translate(-297.4 -155.445)" fill="#ccc"/>
              <path id="Path_38398" data-name="Path 38398" d="M297.4,209.331l48.2,13.552V221.29l-48.2-13.552Z" transform="translate(-297.4 -153.39)" fill="#ccc"/>
            </g>
            <g id="Group_35976" data-name="Group 35976" transform="translate(53.032 14.984)">
              <path id="Path_38399" data-name="Path 38399" d="M328.375,186.34l48.2,13.552V198.3l-48.2-13.552Z" transform="translate(-328.375 -184.746)" fill="#ccc"/>
              <path id="Path_38400" data-name="Path 38400" d="M328.375,189.226l48.2,13.552v-1.594l-48.2-13.553Z" transform="translate(-328.375 -182.691)" fill="#ccc"/>
              <path id="Path_38401" data-name="Path 38401" d="M328.375,192.111l48.2,13.552V204.07l-48.2-13.553Z" transform="translate(-328.375 -180.636)" fill="#ccc"/>
              <path id="Path_38402" data-name="Path 38402" d="M328.375,195l48.2,13.552v-1.594l-48.2-13.552Z" transform="translate(-328.375 -178.581)" fill="#ccc"/>
              <path id="Path_38403" data-name="Path 38403" d="M328.375,197.883l48.2,13.552v-1.594l-48.2-13.553Z" transform="translate(-328.375 -176.527)" fill="#ccc"/>
              <path id="Path_38404" data-name="Path 38404" d="M328.375,200.769l48.2,13.552v-1.593l-48.2-13.553Z" transform="translate(-328.375 -174.472)" fill="#ccc"/>
              <path id="Path_38405" data-name="Path 38405" d="M328.375,203.654l48.2,13.552v-1.594l-48.2-13.552Z" transform="translate(-328.375 -172.417)" fill="#ccc"/>
              <path id="Path_38406" data-name="Path 38406" d="M328.375,206.54l48.2,13.552V218.5l-48.2-13.553Z" transform="translate(-328.375 -170.362)" fill="#ccc"/>
              <path id="Path_38407" data-name="Path 38407" d="M328.375,209.426l48.2,13.553v-1.594l-48.2-13.553Z" transform="translate(-328.375 -168.307)" fill="#ccc"/>
              <path id="Path_38408" data-name="Path 38408" d="M328.375,212.312l48.2,13.552v-1.594l-48.2-13.552Z" transform="translate(-328.375 -166.252)" fill="#ccc"/>
              <path id="Path_38409" data-name="Path 38409" d="M328.375,215.2l48.2,13.552v-1.594l-48.2-13.552Z" transform="translate(-328.375 -164.197)" fill="#ccc"/>
              <path id="Path_38410" data-name="Path 38410" d="M328.375,218.083l48.2,13.553v-1.594l-48.2-13.553Z" transform="translate(-328.375 -162.142)" fill="#ccc"/>
            </g>
          </g>
        </g>
      </g>
      <g id="Group_35990" data-name="Group 35990" transform="translate(67.877 14.495)">
        <path id="Path_38411" data-name="Path 38411" d="M252.363,89.933l121.277,34.1a2.112,2.112,0,0,1,1.231,2.022l.144,236.145c0,.926-.546,1.524-1.224,1.332L252.514,329.433a2.114,2.114,0,0,1-1.226-2.022l-.144-236.145C251.142,90.34,251.688,89.743,252.363,89.933Z" transform="translate(-251.144 -89.897)" fill="#efefef"/>
        <g id="Group_35984" data-name="Group 35984" transform="translate(14.161 23.634)">
          <ellipse id="Ellipse_253" data-name="Ellipse 253" cx="31.751" cy="40.555" rx="31.751" ry="40.555" transform="translate(0 31.751) rotate(-30)" fill="#5760ff"/>
          <g id="Group_35983" data-name="Group 35983" transform="translate(0)">
            <g id="Group_35982" data-name="Group 35982" clip-path="url(#clip-path-2)">
              <g id="Group_35981" data-name="Group 35981" transform="translate(25.141 31.543)">
                <g id="Group_35980" data-name="Group 35980" transform="translate(0 21.875)">
                  <path id="Path_38412" data-name="Path 38412" d="M275.093,150.765c1.322-9.591.565-11.574,6.67-15.7-2.392,4.564-4.479,22.295-4.479,37.193H274.1S274.035,158.428,275.093,150.765Z" transform="translate(-274.1 -134.787)" fill="#fff"/>
                  <path id="Path_38413" data-name="Path 38413" d="M299.132,140.876c4.344,3.357,4.227,10.942,4.227,27.262h-12.2c.1-3.6.3-9.846.673-18.049C292.13,143.544,295.6,140.508,299.132,140.876Z" transform="translate(-261.952 -130.668)" fill="#fff"/>
                  <path id="Path_38414" data-name="Path 38414" d="M281.851,134.907c3.791.3,21.386,6.523,27,9.4a8.012,8.012,0,0,1,1.233.8c-3.532-.368-7,2.667-7.3,9.213-.373,8.2-.574,14.445-.673,18.049H276.086l-.3-9.1c0-14.9,2.39-23.529,4.782-28.094A2.706,2.706,0,0,1,281.851,134.907Z" transform="translate(-272.901 -134.902)" fill="#fff"/>
                </g>
                <path id="Path_38415" data-name="Path 38415" d="M292.616,134.419c-.443,4.571.517,5.677.517,5.677l-4.929,6.778a3.117,3.117,0,0,1-5.634-1.7l-.281-6.658Z" transform="translate(-268.268 -113.371)" fill="#efccb9"/>
                <path id="Path_38416" data-name="Path 38416" d="M292.3,126.774c1.289-.836-.228,1.517-.608,3.565a14.677,14.677,0,0,0,.259,4.421,1.024,1.024,0,0,0,1.8.478l.017-.024c.714-.959,1.031-1.765,2.092-1.69.623.045,1.323.647,1.154,2.258-.048.464-.253,2.6-1.676,3.07-.661.217-.471.493-.676.978-1.062,2.5-8.812,6.814-10.329,6.056a10.46,10.46,0,0,1-4.02-4.474c-.683-1.592-.834-8.115-.606-14.258,1.123.551.986,1.139,4.929,1.139S291.009,127.608,292.3,126.774Z" transform="translate(-270.176 -118.938)" fill="#f9d5bd"/>
                <path id="Path_38417" data-name="Path 38417" d="M283.486,124.726c3.164-1.745,5.092-2.433,7.425-2.577,4.039-.248,9.91,1.366,9.91,8.191,0,5.034-2.2,6.237-2.411,8.629.132-1.467-.438-2.207-1.154-2.258-1.062-.075-1.488.955-2.092,1.69l-.034.041a1.024,1.024,0,0,1-1.787-.5,14.664,14.664,0,0,1-.259-4.419c.38-2.048,1-3.018-.286-2.185s-3.018,1.212-6.961,1.212-8.221-.7-8.182-1.9C277.654,130.656,280.323,126.47,283.486,124.726Z" transform="translate(-271.569 -122.125)" fill="#2d1919"/>
              </g>
            </g>
          </g>
        </g>
        <g id="Group_35989" data-name="Group 35989" transform="translate(11.317 116.544)">
          <g id="Group_35985" data-name="Group 35985">
            <path id="Path_38418" data-name="Path 38418" d="M257.754,161.315l101.237,28.462v-3.347L257.754,157.969Z" transform="translate(-257.754 -157.969)" fill="#ccc"/>
            <path id="Path_38419" data-name="Path 38419" d="M257.754,167.217l101.237,28.462v-3.347L257.754,163.87Z" transform="translate(-257.754 -153.766)" fill="#ccc"/>
            <path id="Path_38420" data-name="Path 38420" d="M257.754,173.119l101.237,28.462v-3.347L257.754,169.772Z" transform="translate(-257.754 -149.564)" fill="#ccc"/>
            <path id="Path_38421" data-name="Path 38421" d="M257.754,179.02l101.237,28.462v-3.347L257.754,175.673Z" transform="translate(-257.754 -145.361)" fill="#ccc"/>
          </g>
          <g id="Group_35988" data-name="Group 35988" transform="translate(0 45.357)">
            <g id="Group_35986" data-name="Group 35986">
              <path id="Path_38422" data-name="Path 38422" d="M257.754,186.055l48.2,13.552v-1.594l-48.2-13.552Z" transform="translate(-257.754 -184.461)" fill="#ccc"/>
              <path id="Path_38423" data-name="Path 38423" d="M257.754,188.94l48.2,13.552V200.9l-48.2-13.552Z" transform="translate(-257.754 -182.406)" fill="#ccc"/>
              <path id="Path_38424" data-name="Path 38424" d="M257.754,191.826l48.2,13.553v-1.594l-48.2-13.553Z" transform="translate(-257.754 -180.351)" fill="#ccc"/>
              <path id="Path_38425" data-name="Path 38425" d="M257.754,194.712l48.2,13.552v-1.594l-48.2-13.552Z" transform="translate(-257.754 -178.296)" fill="#ccc"/>
              <path id="Path_38426" data-name="Path 38426" d="M257.754,197.6l48.2,13.552v-1.594L257.754,196Z" transform="translate(-257.754 -176.241)" fill="#ccc"/>
              <path id="Path_38427" data-name="Path 38427" d="M257.754,200.483l48.2,13.553v-1.594l-48.2-13.553Z" transform="translate(-257.754 -174.186)" fill="#ccc"/>
              <path id="Path_38428" data-name="Path 38428" d="M257.754,203.369l48.2,13.552v-1.594l-48.2-13.552Z" transform="translate(-257.754 -172.131)" fill="#ccc"/>
              <path id="Path_38429" data-name="Path 38429" d="M257.754,206.255l48.2,13.552v-1.594l-48.2-13.552Z" transform="translate(-257.754 -170.076)" fill="#ccc"/>
              <path id="Path_38430" data-name="Path 38430" d="M257.754,209.141l48.2,13.552V221.1l-48.2-13.553Z" transform="translate(-257.754 -168.022)" fill="#ccc"/>
              <path id="Path_38431" data-name="Path 38431" d="M257.754,212.026l48.2,13.552v-1.594l-48.2-13.552Z" transform="translate(-257.754 -165.967)" fill="#ccc"/>
              <path id="Path_38432" data-name="Path 38432" d="M257.754,214.912l48.2,13.552v-1.594l-48.2-13.552Z" transform="translate(-257.754 -163.912)" fill="#ccc"/>
              <path id="Path_38433" data-name="Path 38433" d="M257.754,217.8l48.2,13.552v-1.594l-48.2-13.553Z" transform="translate(-257.754 -161.857)" fill="#ccc"/>
            </g>
            <g id="Group_35987" data-name="Group 35987" transform="translate(53.032 14.984)">
              <path id="Path_38434" data-name="Path 38434" d="M288.729,194.806l48.205,13.552v-1.593l-48.205-13.553Z" transform="translate(-288.729 -193.213)" fill="#ccc"/>
              <path id="Path_38435" data-name="Path 38435" d="M288.729,197.692l48.205,13.552v-1.594L288.729,196.1Z" transform="translate(-288.729 -191.158)" fill="#ccc"/>
              <path id="Path_38436" data-name="Path 38436" d="M288.729,200.578l48.205,13.552v-1.594l-48.205-13.553Z" transform="translate(-288.729 -189.103)" fill="#ccc"/>
              <path id="Path_38437" data-name="Path 38437" d="M288.729,203.464l48.205,13.552v-1.593L288.729,201.87Z" transform="translate(-288.729 -187.048)" fill="#ccc"/>
              <path id="Path_38438" data-name="Path 38438" d="M288.729,206.35,336.934,219.9v-1.594l-48.205-13.552Z" transform="translate(-288.729 -184.993)" fill="#ccc"/>
              <path id="Path_38439" data-name="Path 38439" d="M288.729,209.235l48.205,13.552v-1.594l-48.205-13.553Z" transform="translate(-288.729 -182.938)" fill="#ccc"/>
              <path id="Path_38440" data-name="Path 38440" d="M288.729,212.121l48.205,13.553V224.08l-48.205-13.553Z" transform="translate(-288.729 -180.883)" fill="#ccc"/>
              <path id="Path_38441" data-name="Path 38441" d="M288.729,215.007l48.205,13.552v-1.594l-48.205-13.552Z" transform="translate(-288.729 -178.828)" fill="#ccc"/>
              <path id="Path_38442" data-name="Path 38442" d="M288.729,217.893l48.205,13.552v-1.594L288.729,216.3Z" transform="translate(-288.729 -176.773)" fill="#ccc"/>
              <path id="Path_38443" data-name="Path 38443" d="M288.729,220.778l48.205,13.553v-1.594l-48.205-13.553Z" transform="translate(-288.729 -174.719)" fill="#ccc"/>
              <path id="Path_38444" data-name="Path 38444" d="M288.729,223.664l48.205,13.552v-1.594l-48.205-13.552Z" transform="translate(-288.729 -172.664)" fill="#ccc"/>
              <path id="Path_38445" data-name="Path 38445" d="M288.729,226.55,336.934,240.1v-1.594l-48.205-13.552Z" transform="translate(-288.729 -170.609)" fill="#ccc"/>
            </g>
          </g>
        </g>
      </g>
      <g id="Group_36004" data-name="Group 36004" transform="translate(0 28.991)">
        <g id="Group_36001" data-name="Group 36001">
          <path id="Path_38446" data-name="Path 38446" d="M212.717,98.4l121.277,34.1a2.109,2.109,0,0,1,1.229,2.022l.144,236.145c0,.926-.544,1.524-1.222,1.332L212.868,337.9a2.113,2.113,0,0,1-1.226-2.02L211.5,99.732C211.5,98.807,212.042,98.21,212.717,98.4Z" transform="translate(-211.498 -98.364)" fill="#fff"/>
          <g id="Group_35995" data-name="Group 35995" transform="translate(14.161 23.633)">
            <ellipse id="Ellipse_255" data-name="Ellipse 255" cx="31.751" cy="40.555" rx="31.751" ry="40.555" transform="translate(0 31.751) rotate(-30)" fill="#ffb81a"/>
            <g id="Group_35994" data-name="Group 35994" transform="translate(0 0)">
              <g id="Group_35993" data-name="Group 35993" clip-path="url(#clip-path-2)">
                <g id="Group_35992" data-name="Group 35992" transform="translate(25.142 31.543)">
                  <g id="Group_35991" data-name="Group 35991" transform="translate(0 21.874)">
                    <path id="Path_38447" data-name="Path 38447" d="M234.872,163.3c0-6.9,3.616-18.174,7.244-19.766-2.39,4.566-4.477,22.3-4.477,37.2h-3.184S234.872,171.032,234.872,163.3Z" transform="translate(-234.454 -143.254)" fill="#3c4f5b"/>
                    <path id="Path_38448" data-name="Path 38448" d="M259.486,149.343c4.344,3.357,4.227,10.942,4.227,27.262h-12.2c.1-3.6.3-9.848.673-18.051C252.484,152.011,255.954,148.975,259.486,149.343Z" transform="translate(-222.307 -139.135)" fill="#3c4f5b"/>
                    <path id="Path_38449" data-name="Path 38449" d="M242.2,143.375c3.792.3,21.387,6.521,27,9.4a8.024,8.024,0,0,1,1.233.8c-3.532-.368-7,2.667-7.3,9.211-.373,8.2-.574,14.447-.673,18.051H236.44l-.3-9.1c0-14.9,2.39-23.528,4.78-28.094A2.692,2.692,0,0,1,242.2,143.375Z" transform="translate(-233.256 -143.368)" fill="#3c4f5b"/>
                  </g>
                  <path id="Path_38450" data-name="Path 38450" d="M252.969,142.886c-.442,4.571.519,5.677.519,5.677l-9.66,10.69-1.185-12.274Z" transform="translate(-228.623 -121.837)" fill="#efccb9"/>
                  <path id="Path_38451" data-name="Path 38451" d="M252.652,135.24c1.289-.834-.228,1.517-.608,3.565a14.684,14.684,0,0,0,.259,4.422,1.023,1.023,0,0,0,1.8.476l.017-.022c.714-.96,1.029-1.767,2.092-1.69.623.045,1.323.645,1.154,2.257-.048.466-.253,2.6-1.676,3.07-.661.219-.471.493-.676.979-1.061,2.5-8.812,6.814-10.329,6.056a10.455,10.455,0,0,1-4.02-4.475c-.683-1.592-.834-8.114-.606-14.257,1.121.55.984,1.137,4.929,1.137S251.363,136.075,252.652,135.24Z" transform="translate(-230.53 -127.405)" fill="#f9d5bd"/>
                  <path id="Path_38452" data-name="Path 38452" d="M242.441,133.193c3.162-1.745,5.092-2.433,7.425-2.577,4.039-.25,9.91,1.365,9.91,8.191,0,5.032-2.2,6.237-2.411,8.627.132-1.466-.438-2.205-1.154-2.257-1.063-.077-1.488.955-2.092,1.69l-.034.041a1.025,1.025,0,0,1-1.787-.5,14.672,14.672,0,0,1-.259-4.421c.38-2.048,1-3.018-.286-2.185s-3.018,1.214-6.961,1.214-4.773-1.02-4.734-2.214C240.057,138.807,239.278,134.937,242.441,133.193Z" transform="translate(-230.524 -130.592)" fill="#2d1919"/>
                </g>
              </g>
            </g>
          </g>
          <g id="Group_36000" data-name="Group 36000" transform="translate(11.317 116.543)">
            <g id="Group_35996" data-name="Group 35996">
              <path id="Path_38453" data-name="Path 38453" d="M218.108,169.782l101.237,28.462V194.9L218.108,166.435Z" transform="translate(-218.108 -166.435)" fill="#ccc"/>
              <path id="Path_38454" data-name="Path 38454" d="M218.108,175.684l101.237,28.462V200.8L218.108,172.337Z" transform="translate(-218.108 -162.233)" fill="#ccc"/>
              <path id="Path_38455" data-name="Path 38455" d="M218.108,181.585l101.237,28.462V206.7L218.108,178.238Z" transform="translate(-218.108 -158.03)" fill="#ccc"/>
              <path id="Path_38456" data-name="Path 38456" d="M218.108,187.487l101.237,28.462V212.6L218.108,184.14Z" transform="translate(-218.108 -153.828)" fill="#ccc"/>
            </g>
            <g id="Group_35999" data-name="Group 35999" transform="translate(0 45.357)">
              <g id="Group_35997" data-name="Group 35997">
                <path id="Path_38457" data-name="Path 38457" d="M218.108,194.521l48.2,13.553V206.48l-48.2-13.553Z" transform="translate(-218.108 -192.928)" fill="#ccc"/>
                <path id="Path_38458" data-name="Path 38458" d="M218.108,197.407l48.2,13.552v-1.594l-48.2-13.552Z" transform="translate(-218.108 -190.873)" fill="#ccc"/>
                <path id="Path_38459" data-name="Path 38459" d="M218.108,200.293l48.2,13.552v-1.594l-48.2-13.552Z" transform="translate(-218.108 -188.818)" fill="#ccc"/>
                <path id="Path_38460" data-name="Path 38460" d="M218.108,203.178l48.2,13.553v-1.594l-48.2-13.553Z" transform="translate(-218.108 -186.763)" fill="#ccc"/>
                <path id="Path_38461" data-name="Path 38461" d="M218.108,206.064l48.2,13.552v-1.594l-48.2-13.552Z" transform="translate(-218.108 -184.708)" fill="#ccc"/>
                <path id="Path_38462" data-name="Path 38462" d="M218.108,208.95l48.2,13.552v-1.594l-48.2-13.552Z" transform="translate(-218.108 -182.653)" fill="#ccc"/>
                <path id="Path_38463" data-name="Path 38463" d="M218.108,211.836l48.2,13.552v-1.594l-48.2-13.553Z" transform="translate(-218.108 -180.598)" fill="#ccc"/>
                <path id="Path_38464" data-name="Path 38464" d="M218.108,214.722l48.2,13.552V226.68l-48.2-13.552Z" transform="translate(-218.108 -178.543)" fill="#ccc"/>
                <path id="Path_38465" data-name="Path 38465" d="M218.108,217.607l48.2,13.552v-1.594l-48.2-13.552Z" transform="translate(-218.108 -176.488)" fill="#ccc"/>
                <path id="Path_38466" data-name="Path 38466" d="M218.108,220.493l48.2,13.552v-1.594l-48.2-13.553Z" transform="translate(-218.108 -174.433)" fill="#ccc"/>
                <path id="Path_38467" data-name="Path 38467" d="M218.108,223.379l48.2,13.552v-1.594l-48.2-13.552Z" transform="translate(-218.108 -172.378)" fill="#ccc"/>
                <path id="Path_38468" data-name="Path 38468" d="M218.108,226.265l48.2,13.552v-1.594l-48.2-13.552Z" transform="translate(-218.108 -170.323)" fill="#ccc"/>
              </g>
              <g id="Group_35998" data-name="Group 35998" transform="translate(53.032 14.984)">
                <path id="Path_38469" data-name="Path 38469" d="M249.083,203.273l48.2,13.552v-1.594l-48.2-13.553Z" transform="translate(-249.083 -201.679)" fill="#ccc"/>
                <path id="Path_38470" data-name="Path 38470" d="M249.083,206.159l48.2,13.552v-1.593l-48.2-13.553Z" transform="translate(-249.083 -199.624)" fill="#ccc"/>
                <path id="Path_38471" data-name="Path 38471" d="M249.083,209.045l48.2,13.552V221l-48.2-13.552Z" transform="translate(-249.083 -197.57)" fill="#ccc"/>
                <path id="Path_38472" data-name="Path 38472" d="M249.083,211.93l48.2,13.552v-1.594l-48.2-13.553Z" transform="translate(-249.083 -195.515)" fill="#ccc"/>
                <path id="Path_38473" data-name="Path 38473" d="M249.083,214.816l48.2,13.553v-1.594l-48.2-13.553Z" transform="translate(-249.083 -193.46)" fill="#ccc"/>
                <path id="Path_38474" data-name="Path 38474" d="M249.083,217.7l48.2,13.552v-1.594l-48.2-13.552Z" transform="translate(-249.083 -191.405)" fill="#ccc"/>
                <path id="Path_38475" data-name="Path 38475" d="M249.083,220.588l48.2,13.552v-1.594l-48.2-13.553Z" transform="translate(-249.083 -189.35)" fill="#ccc"/>
                <path id="Path_38476" data-name="Path 38476" d="M249.083,223.473l48.2,13.553v-1.594l-48.2-13.553Z" transform="translate(-249.083 -187.295)" fill="#ccc"/>
                <path id="Path_38477" data-name="Path 38477" d="M249.083,226.359l48.2,13.552v-1.594l-48.2-13.552Z" transform="translate(-249.083 -185.24)" fill="#ccc"/>
                <path id="Path_38478" data-name="Path 38478" d="M249.083,229.245l48.2,13.552V241.2l-48.2-13.552Z" transform="translate(-249.083 -183.185)" fill="#ccc"/>
                <path id="Path_38479" data-name="Path 38479" d="M249.083,232.131l48.2,13.553V244.09l-48.2-13.553Z" transform="translate(-249.083 -181.13)" fill="#ccc"/>
                <path id="Path_38480" data-name="Path 38480" d="M249.083,235.017l48.2,13.552v-1.594l-48.2-13.552Z" transform="translate(-249.083 -179.075)" fill="#ccc"/>
              </g>
            </g>
          </g>
        </g>
        <g id="Group_36002" data-name="Group 36002" transform="translate(95.202 99.864)">
          <path id="Path_38481" data-name="Path 38481" d="M275.4,167.4l1.476,18.011-2.5-2.65-2.753,2.39.747-17.9Z" transform="translate(-263.888 -149.179)" fill="#af1212"/>
          <path id="Path_38482" data-name="Path 38482" d="M274.387,166.228l.1,18.516L271.6,182.22l-2.885,2.523,2.338-18.516Z" transform="translate(-265.953 -149.904)" fill="#890b0b"/>
          <path id="Path_38483" data-name="Path 38483" d="M284.085,166.082c.676,5.71-2.554,10.788-7.22,11.341s-8.994-3.626-9.672-9.338,2.554-10.788,7.218-11.343S283.407,160.37,284.085,166.082Z" transform="translate(-267.104 -156.693)" fill="#d30b0b"/>
        </g>
        <g id="Group_36003" data-name="Group 36003" transform="translate(11.316 103.777)">
          <path id="Path_38484" data-name="Path 38484" d="M224.039,162.258c.238,1.995-.892,3.768-2.522,3.962s-3.142-1.267-3.378-3.262.892-3.77,2.522-3.962S223.8,160.263,224.039,162.258Z" transform="translate(-218.108 -158.979)" fill="#d30b0b"/>
          <path id="Path_38485" data-name="Path 38485" d="M228.164,163.445c.236,1.995-.892,3.768-2.522,3.962s-3.142-1.267-3.378-3.262.892-3.768,2.522-3.962S227.928,161.45,228.164,163.445Z" transform="translate(-215.17 -158.134)" fill="#d30b0b"/>
          <path id="Path_38486" data-name="Path 38486" d="M232.289,164.632c.236,1.995-.892,3.768-2.522,3.962s-3.142-1.267-3.378-3.262.892-3.768,2.522-3.962S232.053,162.637,232.289,164.632Z" transform="translate(-212.233 -157.288)" fill="#d30b0b"/>
        </g>
      </g>
    </g>
    <g id="Group_36012" data-name="Group 36012" transform="translate(107.147 563.796)">
      <g id="Group_36007" data-name="Group 36007">
        <g id="Group_36006" data-name="Group 36006">
          <path id="Path_38487" data-name="Path 38487" d="M241.637,363.422a10.3,10.3,0,0,1,4.405-.024L350.81,390.245v.005L216.329,427.173a7.875,7.875,0,0,1-3.8.454l-105.381-27.28Z" transform="translate(-107.147 -363.172)" fill="#edebe8"/>
        </g>
        <path id="Path_38488" data-name="Path 38488" d="M210.607,430.861c.068.017.139.033.212.046l.2.036h0l.185.029.181.024.178.021.029,0,.019,0,.128.014.178.014.181.01.1.005.029,0,.046,0c.06,0,.12.005.181.007s.12,0,.18,0h.228l.135,0c.065,0,.128,0,.193-.005s.14,0,.212-.009l.062,0,.06,0,.171-.01c.041,0,.075-.01.115-.014.226-.019.442-.044.651-.075.036-.005.077-.007.113-.014l.067-.012.132-.026c.068-.012.139-.024.2-.039.082-.017.163-.038.24-.058L349.967,394.7l.033-.009c.068-.019.135-.038.2-.058s.1-.036.151-.053l.039-.017.019-.007.065-.027c.036-.015.068-.031.1-.046s.06-.033.086-.048l.039-.026.01-.007.024-.015q.033-.023.062-.046a.5.5,0,0,0,.053-.05.512.512,0,0,0,.041-.048l.01-.017-.087-15.238c0,.111-135.729,36.731-135.729,36.731-.139.038-.289.069-.443.1l-.13.026c-.058.01-.122.017-.181.026-.209.031-.425.057-.649.075-.1.009-.188.019-.286.024l-.06,0c-.2.01-.4.017-.6.019h-.017c-.207,0-.414,0-.62-.012l-.024,0c-.2-.009-.4-.024-.594-.043l-.021,0a7.85,7.85,0,0,1-1.1-.185l-103.2-26.655.086,15.075,103.256,26.667Z" transform="translate(-107.147 -351.909)" fill="#fff"/>
        <path id="Path_38489" data-name="Path 38489" d="M350.861,387.919l-.01.017a.5.5,0,0,1-.041.048.494.494,0,0,1-.053.05q-.028.023-.062.046l-.024.015-.01.007-.039.026c-.026.015-.055.031-.086.048s-.065.031-.1.046l-.065.027-.019.007-.039.017c-.048.017-.1.036-.151.053s-.128.039-.2.058l-.033.009L215.182,424.5c-.077.021-.158.041-.24.058-.063.015-.134.027-.2.039l-.132.026-.067.012c-.036.007-.077.009-.113.014-.209.031-.425.057-.651.075-.039,0-.074.01-.115.014l-.171.01-.06,0-.062,0c-.072.005-.142.007-.212.009s-.128.005-.193.005l-.135,0H212.6c-.06,0-.12,0-.18,0s-.122,0-.181-.007l-.046,0-.029,0-.1-.005-.181-.01-.178-.014-.128-.014-.019,0-.029,0-.178-.021-.181-.024-.185-.029h0l-.2-.036c-.074-.014-.144-.029-.212-.046l-.118-.027L107.2,397.859l.022,3.7a.272.272,0,0,0,.06.161c.012.017.038.033.053.05a.674.674,0,0,0,.12.1c.029.021.072.038.108.058.055.029.11.058.178.087.048.019.106.038.159.056s.1.039.166.058c.043.012.087.024.132.034L210.453,428.37l.118.029c.068.015.139.031.212.045l.2.036h0l.185.029.181.024.178.021.029,0,.019,0,.128.012c.06.007.118.01.178.015l.181.01.1.005.029,0,.046,0c.06,0,.12.005.181.007s.12,0,.18,0,.12,0,.18,0h.048l.135,0c.065,0,.128,0,.193,0s.14-.007.212-.009l.062-.005.06,0,.171-.01c.041,0,.075-.01.115-.014.226-.019.442-.044.651-.075.036-.005.077-.007.113-.014l.067-.012.132-.026c.068-.012.139-.024.2-.039.082-.017.163-.038.24-.058l134.75-36.106.033-.009c.069-.019.135-.038.2-.058s.1-.036.151-.053l.039-.015.019-.009.065-.027c.036-.015.068-.031.1-.046s.06-.033.086-.048l.039-.026.01-.007.024-.015q.033-.023.062-.046c.021-.017.038-.033.053-.048s.029-.034.041-.05a.414.414,0,0,0,.031-.051.19.19,0,0,0,.021-.053.238.238,0,0,0,.009-.058v-.005l-.021-3.767Z" transform="translate(-107.111 -345.602)" fill="url(#linear-gradient)"/>
      </g>
      <g id="Group_36009" data-name="Group 36009" transform="translate(103.807 26.522)">
        <g id="Group_36008" data-name="Group 36008">
          <path id="Path_38490" data-name="Path 38490" d="M303.02,378.915a10.368,10.368,0,0,1,4.431-.024l105.353,27v.005L277.57,443.022a7.913,7.913,0,0,1-3.82.457L167.779,416.046Z" transform="translate(-167.779 -378.663)" fill="#dddbd9"/>
        </g>
        <path id="Path_38491" data-name="Path 38491" d="M271.817,446.731c.068.017.14.033.214.046l.2.036h0c.062.01.123.021.187.029s.12.017.181.024l.18.021.029,0,.021,0,.128.012c.06.005.12.01.18.014s.12.009.181.012l.1.005.029,0,.048,0c.06,0,.122.005.181.005l.181.005h.228l.137,0,.193-.005c.072,0,.142-.005.214-.009l.063,0,.06,0c.058,0,.115-.007.173-.012.039,0,.075-.009.115-.012.226-.021.443-.045.654-.077.036-.005.077-.007.113-.012l.067-.014.134-.026c.068-.012.139-.024.2-.039.082-.017.163-.038.24-.058l135.5-36.308.031-.009c.07-.019.135-.038.2-.058s.1-.036.152-.055l.039-.015.021-.009.063-.026c.036-.015.07-.033.1-.048s.06-.033.087-.048l.038-.026.01-.007.026-.015q.033-.023.062-.046c.019-.017.038-.033.053-.05a.367.367,0,0,0,.041-.05l.01-.017-.087-15.323c0,.113-136.488,36.938-136.488,36.938-.139.038-.291.068-.445.1l-.132.026c-.06.01-.123.017-.183.026-.209.031-.426.056-.651.075-.1.009-.192.019-.289.024l-.06.005c-.2.01-.4.017-.606.017l-.019,0c-.209,0-.416,0-.623-.014h-.024c-.2-.01-.4-.024-.6-.044l-.021,0a7.477,7.477,0,0,1-1.106-.187l-103.782-26.8.087,15.157L271.7,446.7Z" transform="translate(-167.779 -367.338)" fill="#f4f3f2"/>
        <path id="Path_38492" data-name="Path 38492" d="M412.855,403.547l-.01.017a.367.367,0,0,1-.041.05c-.015.017-.034.033-.053.05s-.039.031-.062.046l-.026.015-.01.007-.038.026c-.027.015-.057.032-.087.048s-.067.033-.1.048l-.063.026-.021.009-.039.015c-.048.019-.1.038-.152.055s-.127.039-.2.058l-.031.009-135.5,36.308c-.077.021-.157.041-.24.058-.065.015-.135.027-.2.039l-.134.026-.067.014c-.036.005-.077.007-.113.012-.211.033-.428.056-.654.077-.039,0-.075.01-.115.012-.058.005-.115.009-.173.012l-.06,0-.063,0c-.072,0-.142.007-.214.009l-.194.005-.137,0h-.228l-.181-.005c-.06,0-.122,0-.181-.005l-.048,0-.029,0-.1-.005c-.062,0-.122-.007-.181-.012s-.12-.009-.18-.014l-.128-.012-.021,0-.029,0-.18-.021c-.062-.007-.122-.015-.181-.024s-.125-.019-.187-.029h0l-.2-.036c-.074-.014-.146-.029-.214-.046l-.118-.027L167.83,413.542l.022,3.717a.273.273,0,0,0,.06.163c.012.017.038.034.053.051a.757.757,0,0,0,.12.1c.031.021.074.039.11.058a1.623,1.623,0,0,0,.18.087c.046.021.106.038.159.056s.1.041.168.058c.043.014.087.026.132.036l102.83,26.351.118.029.214.046.2.036h0l.187.029.181.024.18.021.029,0,.021,0,.128.012.18.014c.06.005.12.009.181.012l.1.005h.029l.048,0,.181.005c.06,0,.122,0,.181,0s.122,0,.181,0l.029,0h.017l.137,0c.065,0,.13,0,.194,0l.214-.008.063-.005.06,0c.058,0,.115-.005.173-.01.039,0,.075-.01.115-.014.226-.019.443-.044.654-.075.036-.005.077-.007.113-.014l.067-.012.134-.026c.068-.014.139-.026.2-.039.082-.019.163-.038.24-.058l135.5-36.308.031-.008c.07-.019.135-.039.2-.06s.1-.034.152-.053l.039-.015.021-.009.063-.027c.036-.015.07-.031.1-.048l.087-.046.038-.026.01-.007.026-.015c.022-.015.043-.033.062-.048s.038-.033.053-.048.029-.034.041-.05a.411.411,0,0,0,.033-.051.346.346,0,0,0,.021-.055.323.323,0,0,0,.009-.056v-.007l-.022-3.785Z" transform="translate(-167.743 -360.995)" fill="url(#linear-gradient)"/>
      </g>
      <g id="Group_36010" data-name="Group 36010" transform="translate(138.83 35.117)">
        <path id="Path_38493" data-name="Path 38493" d="M255.093,383.683l-3.427.941,67.263,17.236,3.427-.941Z" transform="translate(-143.066 -383.683)" fill="#dddbd9" style="mix-blend-mode: multiply;isolation: isolate"/>
        <path id="Path_38494" data-name="Path 38494" d="M250.864,384.773l-3.427.941L314.7,402.95l3.427-.941Z" transform="translate(-146.077 -382.907)" fill="#dddbd9" style="mix-blend-mode: multiply;isolation: isolate"/>
        <path id="Path_38495" data-name="Path 38495" d="M246.635,385.862l-3.427.941,67.263,17.237,3.427-.941Z" transform="translate(-149.089 -382.131)" fill="#dddbd9" style="mix-blend-mode: multiply;isolation: isolate"/>
        <path id="Path_38496" data-name="Path 38496" d="M242.407,386.952l-3.427.941,67.263,17.236,3.427-.941Z" transform="translate(-152.1 -381.355)" fill="#dddbd9" style="mix-blend-mode: multiply;isolation: isolate"/>
        <path id="Path_38497" data-name="Path 38497" d="M238.178,388.042l-3.427.941,67.263,17.236,3.427-.941Z" transform="translate(-155.111 -380.579)" fill="#dddbd9" style="mix-blend-mode: multiply;isolation: isolate"/>
        <path id="Path_38498" data-name="Path 38498" d="M233.949,389.132l-3.427.941,67.263,17.236,3.427-.941Z" transform="translate(-158.122 -379.803)" fill="#dddbd9" style="mix-blend-mode: multiply;isolation: isolate"/>
        <path id="Path_38499" data-name="Path 38499" d="M229.72,390.221l-3.427.941L293.556,408.4l3.427-.941Z" transform="translate(-161.134 -379.027)" fill="#dddbd9" style="mix-blend-mode: multiply;isolation: isolate"/>
        <path id="Path_38500" data-name="Path 38500" d="M225.492,391.311l-3.427.941,67.263,17.236,3.427-.941Z" transform="translate(-164.145 -378.251)" fill="#dddbd9" style="mix-blend-mode: multiply;isolation: isolate"/>
        <path id="Path_38501" data-name="Path 38501" d="M221.263,392.4l-3.427.941L285.1,410.578l3.427-.941Z" transform="translate(-167.156 -377.475)" fill="#dddbd9" style="mix-blend-mode: multiply;isolation: isolate"/>
        <path id="Path_38502" data-name="Path 38502" d="M217.034,393.491l-3.427.941,67.263,17.236,3.427-.941Z" transform="translate(-170.167 -376.699)" fill="#dddbd9" style="mix-blend-mode: multiply;isolation: isolate"/>
        <path id="Path_38503" data-name="Path 38503" d="M212.805,394.58l-3.427.941,67.263,17.236,3.427-.941Z" transform="translate(-173.179 -375.923)" fill="#dddbd9" style="mix-blend-mode: multiply;isolation: isolate"/>
        <path id="Path_38504" data-name="Path 38504" d="M208.577,395.67l-3.427.941,67.263,17.236,3.427-.941Z" transform="translate(-176.19 -375.147)" fill="#dddbd9" style="mix-blend-mode: multiply;isolation: isolate"/>
        <path id="Path_38505" data-name="Path 38505" d="M204.348,396.76l-3.427.941,67.263,17.236,3.427-.941Z" transform="translate(-179.201 -374.371)" fill="#dddbd9" style="mix-blend-mode: multiply;isolation: isolate"/>
        <path id="Path_38506" data-name="Path 38506" d="M200.119,397.849l-3.427.941,67.263,17.236,3.427-.941Z" transform="translate(-182.212 -373.595)" fill="#dddbd9" style="mix-blend-mode: multiply;isolation: isolate"/>
        <path id="Path_38507" data-name="Path 38507" d="M195.89,398.939l-3.427.941,67.263,17.236,3.427-.941Z" transform="translate(-185.224 -372.819)" fill="#dddbd9" style="mix-blend-mode: multiply;isolation: isolate"/>
        <path id="Path_38508" data-name="Path 38508" d="M191.662,400.029l-3.427.941L255.5,418.206l3.427-.941Z" transform="translate(-188.235 -372.043)" fill="#dddbd9" style="mix-blend-mode: multiply;isolation: isolate"/>
      </g>
      <g id="Group_36011" data-name="Group 36011" transform="translate(32.188 7.413)">
        <path id="Path_38509" data-name="Path 38509" d="M192.806,367.5l-3.427.941,67.263,17.237,3.427-.941Z" transform="translate(-80.779 -367.501)" fill="#dddbd9" style="mix-blend-mode: multiply;isolation: isolate"/>
        <path id="Path_38510" data-name="Path 38510" d="M188.577,368.591l-3.427.941,67.263,17.236,3.427-.941Z" transform="translate(-83.79 -366.725)" fill="#dddbd9" style="mix-blend-mode: multiply;isolation: isolate"/>
        <path id="Path_38511" data-name="Path 38511" d="M184.348,369.681l-3.427.941,67.263,17.236,3.427-.941Z" transform="translate(-86.801 -365.949)" fill="#dddbd9" style="mix-blend-mode: multiply;isolation: isolate"/>
        <path id="Path_38512" data-name="Path 38512" d="M180.12,370.771l-3.427.941,67.263,17.236,3.427-.941Z" transform="translate(-89.813 -365.173)" fill="#dddbd9" style="mix-blend-mode: multiply;isolation: isolate"/>
        <path id="Path_38513" data-name="Path 38513" d="M175.891,371.86l-3.427.941,67.263,17.236,3.427-.941Z" transform="translate(-92.824 -364.397)" fill="#dddbd9" style="mix-blend-mode: multiply;isolation: isolate"/>
        <path id="Path_38514" data-name="Path 38514" d="M171.662,372.95l-3.427.941L235.5,391.127l3.427-.941Z" transform="translate(-95.835 -363.621)" fill="#dddbd9" style="mix-blend-mode: multiply;isolation: isolate"/>
        <path id="Path_38515" data-name="Path 38515" d="M167.433,374.04l-3.427.941,67.263,17.236,3.427-.941Z" transform="translate(-98.847 -362.845)" fill="#dddbd9" style="mix-blend-mode: multiply;isolation: isolate"/>
        <path id="Path_38516" data-name="Path 38516" d="M163.2,375.13l-3.427.941,67.263,17.236,3.427-.941Z" transform="translate(-101.858 -362.069)" fill="#dddbd9" style="mix-blend-mode: multiply;isolation: isolate"/>
        <path id="Path_38517" data-name="Path 38517" d="M158.976,376.219l-3.427.941L222.812,394.4l3.427-.941Z" transform="translate(-104.869 -361.294)" fill="#dddbd9" style="mix-blend-mode: multiply;isolation: isolate"/>
        <path id="Path_38518" data-name="Path 38518" d="M154.747,377.309l-3.427.941,67.263,17.236,3.427-.941Z" transform="translate(-107.88 -360.518)" fill="#dddbd9" style="mix-blend-mode: multiply;isolation: isolate"/>
        <path id="Path_38519" data-name="Path 38519" d="M150.518,378.4l-3.427.941,67.263,17.236,3.427-.941Z" transform="translate(-110.891 -359.742)" fill="#dddbd9" style="mix-blend-mode: multiply;isolation: isolate"/>
        <path id="Path_38520" data-name="Path 38520" d="M146.289,379.488l-3.427.941,67.263,17.236,3.427-.941Z" transform="translate(-113.903 -358.966)" fill="#dddbd9" style="mix-blend-mode: multiply;isolation: isolate"/>
        <path id="Path_38521" data-name="Path 38521" d="M142.061,380.578l-3.427.941L205.9,398.756l3.427-.941Z" transform="translate(-116.914 -358.19)" fill="#dddbd9" style="mix-blend-mode: multiply;isolation: isolate"/>
        <path id="Path_38522" data-name="Path 38522" d="M137.832,381.668l-3.427.941,67.263,17.236,3.427-.941Z" transform="translate(-119.925 -357.414)" fill="#dddbd9" style="mix-blend-mode: multiply;isolation: isolate"/>
        <path id="Path_38523" data-name="Path 38523" d="M133.6,382.758l-3.427.941,67.263,17.236,3.427-.941Z" transform="translate(-122.936 -356.638)" fill="#dddbd9" style="mix-blend-mode: multiply;isolation: isolate"/>
        <path id="Path_38524" data-name="Path 38524" d="M129.374,383.848l-3.427.941,67.263,17.236,3.427-.941Z" transform="translate(-125.948 -355.862)" fill="#dddbd9" style="mix-blend-mode: multiply;isolation: isolate"/>
      </g>
    </g>
    <g id="Group_36021" data-name="Group 36021" transform="translate(372.485 304.385)">
      <g id="Group_36018" data-name="Group 36018" transform="translate(81.922 162.78)">
        <g id="Group_36013" data-name="Group 36013" transform="translate(1.203 119.034)">
          <path id="Path_38525" data-name="Path 38525" d="M322.864,384.189,310.678,380.5l7.266-4.238,12.186,3.693Z" transform="translate(-310.678 -376.257)" fill="#353e47"/>
        </g>
        <g id="Group_36014" data-name="Group 36014" transform="translate(7.266)">
          <path id="Path_38526" data-name="Path 38526" d="M327.608,429.458l-12.186-3.693-1.2-119.034,12.185,3.694Z" transform="translate(-314.22 -306.732)" fill="#4e5c6a"/>
        </g>
        <g id="Group_36015" data-name="Group 36015" transform="translate(0 0.001)">
          <path id="Path_38527" data-name="Path 38527" d="M322.161,314.664l-12.186-3.693,7.266-4.239,12.186,3.693Z" transform="translate(-309.976 -306.732)" fill="#095a8c"/>
        </g>
        <g id="Group_36016" data-name="Group 36016" transform="translate(0 4.239)">
          <path id="Path_38528" data-name="Path 38528" d="M323.364,431.935l-12.185-3.694-1.2-119.033,12.186,3.693Z" transform="translate(-309.976 -309.208)" fill="#9b9995"/>
        </g>
        <g id="Group_36017" data-name="Group 36017" transform="translate(12.186 3.694)">
          <path id="Path_38529" data-name="Path 38529" d="M325.562,427.922l-7.266,4.239-1.2-119.033,7.266-4.239Z" transform="translate(-317.093 -308.889)" fill="#848280"/>
        </g>
      </g>
      <g id="Group_36020" data-name="Group 36020">
        <g id="Group_36019" data-name="Group 36019" transform="translate(8.693)">
          <path id="Path_38530" data-name="Path 38530" d="M393.049,261.378c-21.786-37.734-61.147-56.846-93.013-47.281l-.057-.005-10.827,2.791c31.1-6.895,68.119,12.17,89,48.334,24.567,42.551,17.477,92.638-15.837,111.87a55.418,55.418,0,0,1-14.1,5.7l.009.021,13.06-3.419c1.382-.3,2.748-.668,4.1-1.073l.6-.158.055-.044a55.184,55.184,0,0,0,11.166-4.869C410.525,354.014,417.616,303.928,393.049,261.378Z" transform="translate(-251.573 -211.655)" fill="#9b9995"/>
          <path id="Path_38531" data-name="Path 38531" d="M294.507,322.313c-21.718-37.616-15.45-81.893,14-98.9a48.791,48.791,0,0,1,8.168-3.75,49.938,49.938,0,0,0-22.536,6.556c-29.45,17-35.718,61.281-14,98.9,19.775,34.252,55.934,51.159,84.478,41.073C339.157,367.526,311.078,351.018,294.507,322.313Z" transform="translate(-267.203 -205.949)" fill="#898785"/>
          <path id="Path_38532" data-name="Path 38532" d="M380.809,263.578c-16.571-28.7-44.648-45.213-70.11-43.879a48.789,48.789,0,0,0-8.168,3.749c-29.45,17-35.718,61.279-14,98.9,16.571,28.7,44.65,45.213,70.11,43.879a48.788,48.788,0,0,0,8.168-3.75C396.259,345.471,402.527,301.193,380.809,263.578Z" transform="translate(-261.228 -205.98)" fill="#f4f4f4" opacity="0.54" style="mix-blend-mode: overlay;isolation: isolate"/>
        </g>
        <path id="Path_38533" data-name="Path 38533" d="M397.4,263.622c-20.879-36.164-57.9-55.229-89-48.334l-3.621.933-.466.12.009.021A55.241,55.241,0,0,0,292.6,221.4c-33.314,19.232-40.4,69.319-15.837,111.87,21.262,36.829,59.267,55.919,90.7,47.923a55.419,55.419,0,0,0,14.1-5.7C414.873,356.26,421.963,306.173,397.4,263.622Zm-21,102.932a48.788,48.788,0,0,1-8.168,3.75c-28.544,10.086-64.7-6.821-84.478-41.073-21.718-37.615-15.45-81.893,14-98.9a49.939,49.939,0,0,1,22.538-6.556c25.46-1.334,53.537,15.174,70.108,43.879C412.119,305.274,405.851,349.552,376.4,366.555Z" transform="translate(-262.126 -210.061)" fill="#c6c2ba"/>
        <path id="Path_38534" data-name="Path 38534" d="M358.652,248.083c-1.341-2.323-2.784-4.537-4.268-6.7L306.712,344.626a66.975,66.975,0,0,0,21.7,5.9l38.632-83.668A99.337,99.337,0,0,0,358.652,248.083Z" transform="translate(-230.377 -190.484)" fill="#f4f4f4" style="mix-blend-mode: overlay;isolation: isolate"/>
        <path id="Path_38535" data-name="Path 38535" d="M335.454,224.105,286.978,329.089a96.942,96.942,0,0,0,7.6,8.987l50.08-108.459A81.709,81.709,0,0,0,335.454,224.105Z" transform="translate(-244.429 -202.789)" fill="#f4f4f4" style="mix-blend-mode: overlay;isolation: isolate"/>
      </g>
    </g>
    <g id="Group_36024" data-name="Group 36024" transform="translate(175.116 329.685)">
      <path id="Path_38536" data-name="Path 38536" d="M164.992,261.932l15.715,25.863s11.322-17.556,29.352-21.538a83.931,83.931,0,0,0,10.855-4.131,85.1,85.1,0,0,0,12.027-6.386c3.917-2.472,8.11-4.758,10.947-6.893L240.17,240.8s-24.115,8.9-34.536,13.267S172.167,252.536,164.992,261.932Z" transform="translate(-133.925 -216.2)" fill="#242f35"/>
      <g id="Group_36022" data-name="Group 36022" transform="translate(34.436 234.161)">
        <path id="Path_38537" data-name="Path 38537" d="M178.118,363.2v5.282c0,1.44,12.219,12.361,15.1,15.243s2.88,7.561-2.161,7.561-9.242-.12-15.123-5.04-8.281-8.042-8.762-9,0-13.322,0-13.322Z" transform="translate(-166.96 -363.201)" fill="#f7d5bf"/>
        <path id="Path_38538" data-name="Path 38538" d="M190.053,376.392c1.365,1.275,2.512,2.356,3.166,3.01,2.88,2.88,2.88,7.561-2.161,7.561s-9.242-.12-15.123-5.04-8.281-8.042-8.762-9a16.9,16.9,0,0,1-.212-3.647c3.654,3.647,12.1,10.233,15.325,10.692C185.033,380.359,190.744,378.6,190.053,376.392Z" transform="translate(-166.959 -358.877)" fill="#243238"/>
      </g>
      <g id="Group_36023" data-name="Group 36023" transform="translate(16.987 247.604)">
        <path id="Path_38539" data-name="Path 38539" d="M156.768,373.207v18.129c0,6.722,5.54,13.322,9.021,13.322s5.16-5.879,5.16-12-4.681-11.64-4.681-15.482v-6.121Z" transform="translate(-156.768 -371.053)" fill="#f7d5bf"/>
        <path id="Path_38540" data-name="Path 38540" d="M156.768,383.369v-1.128c1.649,2.782,4.551,8.108,8.03,8.108,3.094,0,4.986-3.08,6.152-5.6-.012,6.1-1.692,11.937-5.16,11.937S156.768,390.091,156.768,383.369Z" transform="translate(-156.768 -363.086)" fill="#243238"/>
      </g>
      <path id="Path_38541" data-name="Path 38541" d="M180.034,263.509c-.05,5.342-8.451,3.45-9.651,2.731s-8.942-14.493-8.942-14.493l10.142-1.2s5.16,3.09,6.782,5.7S180.034,263.509,180.034,263.509Z" transform="translate(-136.454 -209.26)" fill="#e8c5b1"/>
      <path id="Rectangle_1407" data-name="Rectangle 1407" d="M4.007,0h8.9a0,0,0,0,1,0,0V16.8a0,0,0,0,1,0,0H0a0,0,0,0,1,0,0V4.007A4.007,4.007,0,0,1,4.007,0Z" transform="translate(36.57 47.828) rotate(180)" fill="#e8c5b1"/>
      <path id="Path_38542" data-name="Path 38542" d="M184.906,285.318c.721,22.564,4.082,50.888,3.6,67.211s-8.881,71.673-8.881,71.673a17.805,17.805,0,0,1-8.4,2.642h-4.561V348.929c0-33.125,11.762-61.452,11.762-61.452Z" transform="translate(-132.734 -184.5)" fill="#242f35"/>
      <path id="Path_38543" data-name="Path 38543" d="M157.377,293.542c-8.162,23.524,0,57.129,0,66.73S155.564,394.6,155.564,409s-.322,27.476-.322,27.476a25.545,25.545,0,0,0,8.055,1.2c1.676-.115,9.8-1.378,9.8-1.378s.943-43.47,2.762-56.754c1.311-9.588,2.4-45.917,3.119-52.638s8.643-19.684,8.643-28.325v-12a115.675,115.675,0,0,1-16.938,5.282C161.217,294.021,157.377,293.542,157.377,293.542Z" transform="translate(-141.931 -183.602)" fill="#242f35"/>
      <path id="Path_38544" data-name="Path 38544" d="M181.482,231.732c1,11.7.146,29.314-4.9,29.674s-14.428.45-15.842-4.5c-.36-1.26.425-5.027.875-6.261,1.652-4.527,3.321-5.847,7.468-12.462A13.113,13.113,0,0,1,181.482,231.732Z" transform="translate(-137.016 -222.699)" fill="#f7d5bf"/>
      <path id="Path_38545" data-name="Path 38545" d="M175.8,258.28s-.005-.163-.015-.389c1.974,4.159,3.508,8.889,3.327,13.351-.241,5.914-1.151,21.773-1.995,36.086-1.337.526-4.287,1.637-8.16,2.823-.315-11.093-.454-23.288.132-30.146a48.556,48.556,0,0,0-1.707-18.549C170.069,262.173,175.761,262.676,175.8,258.28Z" transform="translate(-132.222 -204.03)" fill="#f9fafc"/>
      <path id="Path_38546" data-name="Path 38546" d="M182.036,252.379c10.322,7.441,12.361,17.763,9.721,29.525s2.688,55.449,2.688,55.449l-36.053,5.022s23.189-48.141,23.67-59.9-6.965-31.189-6.965-31.189S177.823,249.342,182.036,252.379Z" transform="translate(-138.625 -209.171)" fill="#242f35"/>
      <path id="Path_38547" data-name="Path 38547" d="M167.444,251.248c10.262,5.581,20.9,19.768,19.641,34.531s12.452,51.164,12.452,51.164-25.252,4.5-33.353,4.861a92.411,92.411,0,0,1-11.7,0s3.241-23.584,4.681-30.066,1.055-24.647,1.055-24.647,2.186-8.838-.875-15.318a22.375,22.375,0,0,0-8.1-9.362s4.893-5.34,8.643-7.562A46.105,46.105,0,0,1,167.444,251.248Z" transform="translate(-143.717 -208.761)" fill="#2d3c44"/>
      <path id="Path_38548" data-name="Path 38548" d="M154.37,257.768a22.375,22.375,0,0,1,8.1,9.362c3.061,6.48.875,15.318.875,15.318s-5.915,9.165-4.683,15.467c.567,2.89,1.414,10.252,2.166,17.374-.87,5.432-.315,11.964-.955,16.472h-8.384s-3.241-21.964-4.321-32.047S147.529,265.149,154.37,257.768Z" transform="translate(-146.846 -204.118)" fill="#3c4f5b"/>
      <path id="Path_38549" data-name="Path 38549" d="M172.042,226.432c14.762,0,15.116,9.182,15.116,9.182s-21.148,21.514-21.148,25.024-.06,13.623-.06,13.623l-12.7,2.688V245.695C153.254,229.762,163.4,226.432,172.042,226.432Z" transform="translate(-142.283 -226.432)" fill="#421e0c"/>
      <path id="Path_38550" data-name="Path 38550" d="M181.489,232.469c-4.765,6.3-20.273,15.623-20.273,15.623a151.232,151.232,0,0,0,6.069-13.89C169.569,227.855,181.489,232.469,181.489,232.469Z" transform="translate(-136.614 -223.287)" fill="#421e0c"/>
    </g>
    <g id="Group_36027" data-name="Group 36027" transform="translate(351.417 637.113)">
      <g id="Group_36025" data-name="Group 36025" transform="translate(0.001)">
        <path id="Path_38551" data-name="Path 38551" d="M397.053,406.269a11.251,11.251,0,0,1,4.821-.024l91.79,23.351c1.335.342,1.339.907.012,1.264L347.442,470.042a11.229,11.229,0,0,1-4.828.027l-91.788-23.351c-1.337-.342-1.339-.909-.005-1.267Z" transform="translate(-249.822 -405.995)" fill="#3c4f5b"/>
      </g>
      <path id="Path_38552" data-name="Path 38552" d="M494.67,420.146c0,.113-.082.228-.245.334l-.01.007a1.8,1.8,0,0,1-.294.149l-.019.009a3.887,3.887,0,0,1-.425.139L347.443,459.966a7.611,7.611,0,0,1-.974.175c-.106.015-.212.027-.322.038-.361.036-.734.062-1.113.063h-.007a11.918,11.918,0,0,1-1.275-.058h-.009a7.738,7.738,0,0,1-1.128-.19l-91.788-23.351c-.116-.031-.211-.063-.306-.1-.055-.021-.116-.039-.164-.058a1.689,1.689,0,0,1-.185-.091c-.036-.021-.079-.039-.11-.058a.784.784,0,0,1-.123-.108c-.017-.017-.041-.034-.055-.051a.284.284,0,0,1-.062-.164l.036,6.1a.294.294,0,0,0,.06.164.44.44,0,0,0,.058.053.677.677,0,0,0,.12.106c.031.021.074.039.111.06a1.835,1.835,0,0,0,.183.089c.05.021.11.039.166.058s.1.041.17.06l.135.036,91.79,23.351.12.029c.07.017.142.033.217.048l.2.036.19.029c.062.009.123.017.185.024s.122.015.181.022l.036,0,.007,0,.139.014.183.014.183.012c.062,0,.123.007.185.009s.123.005.185.005l.183.005h.226l.146,0,.2-.005c.074,0,.146-.005.217-.009.1-.005.2-.012.3-.019s.168-.021.255-.029c.11-.01.212-.024.318-.038s.221-.021.322-.038c.142-.022.279-.05.409-.077.084-.019.166-.039.245-.06l146.233-39.185.032-.009c.07-.019.135-.038.2-.058s.1-.036.152-.055l.041-.017.021-.007.063-.027c.036-.015.07-.031.1-.048s.06-.033.087-.048l.041-.026.01-.007.024-.015c.022-.015.043-.033.063-.048a.7.7,0,0,0,.051-.05.365.365,0,0,0,.043-.05v0a.284.284,0,0,0,.033-.051.3.3,0,0,0,.021-.055.218.218,0,0,0,.009-.058v-.005Z" transform="translate(-249.821 -395.919)" fill="#26333a"/>
      <g id="Group_36026" data-name="Group 36026" transform="translate(32.157 2.674)">
        <path id="Path_38553" data-name="Path 38553" d="M383.635,407.557l80.377,20.427-115.023,32L268.6,439.559Z" transform="translate(-268.603 -407.557)" fill="#fff"/>
      </g>
      <path id="Path_38554" data-name="Path 38554" d="M296.068,435.081c0,1.916-4.047,3.469-9.042,3.469s-9.04-1.553-9.04-3.469,4.047-3.469,9.04-3.469S296.068,433.165,296.068,435.081Z" transform="translate(-229.764 -387.754)" fill="#26333a"/>
    </g>
    <g id="Group_36029" data-name="Group 36029" transform="translate(462.131 595.529)">
      <g id="Group_36028" data-name="Group 36028" transform="translate(0)">
        <path id="Path_38555" data-name="Path 38555" d="M358.765,381.707l-2.74,39.512-25.23-4.925Z" transform="translate(-302.874 -381.707)" fill="#fff"/>
        <path id="Path_38556" data-name="Path 38556" d="M314.487,412.475l55.891-30.768L335.8,414.869Z" transform="translate(-314.487 -381.707)" fill="#fff"/>
        <path id="Path_38557" data-name="Path 38557" d="M333.89,434.067l-6.956-19.2,34.581-33.162-27.97,34.587Z" transform="translate(-305.624 -381.707)" fill="#e0e0e0"/>
      </g>
      <path id="Path_38558" data-name="Path 38558" d="M331.14,419.681l8.477-16.069-8.822-1.7Z" transform="translate(-302.874 -367.321)" fill="#b7b7b7"/>
    </g>
    <path id="Path_38559" data-name="Path 38559" d="M162.558,314.731a43.667,43.667,0,0,0-2.837-7.02c-.849-1.3-3.277-2.544-4.006-4.98a2.913,2.913,0,0,1,0-1.745H150.1l.508,1.791a3.006,3.006,0,0,1,.113,1c-.087,1.659-.36,6.881-.366,8.059-.005,1.406-.466,8.53-.135,9.834s.933.283,1.128-2.085c.164-2.024.337-3.441.373-2.811a51.916,51.916,0,0,0,1.214,7.347c.467,1.049,1.188,1.335,1.08-1.192-.08-1.931-.568-6.653-.175-5.826.075,1.108.647,7.66,1.137,7.727.524.072,1.067-2.185.734-4.987-.269-2.27.039-3.077.057-2.717s.734,6.686,1.315,6.758c1.2.151.969-4.195.774-7.853-.188-3.529.505-4.76.688-4.448s1.067,2.335,2.008,2.938S162.8,315.708,162.558,314.731Z" transform="translate(30.588 156.342)" fill="#f7d5bf"/>
    <g id="Group_36030" data-name="Group 36030" transform="translate(281.629 348.558)">
      <path id="Path_38560" data-name="Path 38560" d="M209.059,243.766c2.051-1.18,3.669-.772,4.765-1.447s3.041-2.863,4.41-3.672a7.605,7.605,0,0,1,3.042-1.192c.52,0,.575.271,1.014.3a8.739,8.739,0,0,1,1.644.33,2.564,2.564,0,0,0,1.315.284c.63-.067,1.205.413,1.479.337a16.565,16.565,0,0,1,3.1-.865c.877-.033,2.274-.329,3.287-.3s1.151.216,1.178.572-1.041,1.121-2.246,1.452a15.484,15.484,0,0,0-2.109.524,26.824,26.824,0,0,0-2.631,1.4,5.5,5.5,0,0,0-2.082,1.965,2.9,2.9,0,0,0-.274,2.5c.329.495.822.913,2.548.717s5.289.377,5.426,1.243-.438,1.71-4.219,1.6a21.841,21.841,0,0,0-4.878.26,16.77,16.77,0,0,1-4.96-.394,3.416,3.416,0,0,0-3.123-.5c-.919.219-2.423.724-3.765,1.2Z" transform="translate(-209.059 -237.455)" fill="#f7d5bf"/>
      <path id="Path_38561" data-name="Path 38561" d="M220.482,242.572c-.346.519-1.154,1.466-1.743,2.138a1.706,1.706,0,0,1-.325-.375,2.9,2.9,0,0,1,.274-2.5,5.5,5.5,0,0,1,2.082-1.965c.08-.053.164-.106.248-.158A3.154,3.154,0,0,1,220.482,242.572Z" transform="translate(-202.526 -235.845)" fill="#eac4b0"/>
    </g>
  </g>
</svg>
