<svg xmlns="http://www.w3.org/2000/svg" xmlns:xlink="http://www.w3.org/1999/xlink" viewBox="0 0 686.47 113.99"><defs><style>.cls-1{fill:none;}.cls-2{isolation:isolate;}.cls-3{clip-path:url(#clip-path);}.cls-4{fill:#0071be;}.cls-5{opacity:0.21;mix-blend-mode:multiply;}.cls-6{clip-path:url(#clip-path-4);}.cls-7{clip-path:url(#clip-path-5);}.cls-8{fill:#000508;}.cls-9{fill:#00a8f8;}.cls-10{font-size:79.46px;fill:#283140;font-family:ProximaNova-Bold, Proxima Nova;font-weight:700;letter-spacing:-0.04em;}</style><clipPath id="clip-path" transform="translate(0 0)"><rect class="cls-1" width="119.92" height="97.31"/></clipPath><clipPath id="clip-path-4" transform="translate(0 0)"><rect class="cls-1" x="20.83" width="99.1" height="97.31"/></clipPath><clipPath id="clip-path-5" transform="translate(0 0)"><path class="cls-1" d="M98,1.86,42,97.31H78.45a3.75,3.75,0,0,0,3.24-1.86l37.72-64.27a3.75,3.75,0,0,0,0-3.8l-15-25.52a3.75,3.75,0,0,0-6.48,0"/></clipPath></defs><g class="cls-2"><g id="Layer_2" data-name="Layer 2"><g id="Layer_1-2" data-name="Layer 1"><g class="cls-3"><g class="cls-3"><g class="cls-3"><path class="cls-4" d="M6.92,37a3.46,3.46,0,1,1-3.32-3.6A3.46,3.46,0,0,1,6.92,37" transform="translate(0 0)"/><path class="cls-4" d="M22.8,14.64a3.86,3.86,0,1,1-3.72-4,3.87,3.87,0,0,1,3.72,4" transform="translate(0 0)"/><rect class="cls-4" x="14.14" y="39.47" width="18.67" height="1" transform="translate(-11.82 9.92) rotate(-19.16)"/><path class="cls-4" d="M25.62,55.9C24.17,55.23,16.48,45.12,15,43.1l.8-.61C20.12,48.26,25.2,54.61,26,55Z" transform="translate(0 0)"/><rect class="cls-4" x="25.33" y="28.52" width="1" height="13.35" transform="translate(-14.79 51.19) rotate(-75.22)"/><path class="cls-4" d="M24,72.46,2.78,37,9.07,23.44l10-10,.32.58c5.37,9.59,14.41,25.08,15.79,25.8l.38.2-.13.41ZM3.91,37l19.9,33.17L34.34,40.46C31.66,37.84,21.61,20.1,18.81,15.11l-9,9Z" transform="translate(0 0)"/><path class="cls-4" d="M12.73,44.17a3,3,0,1,1,3.89,1.62,3,3,0,0,1-3.89-1.62" transform="translate(0 0)"/><path class="cls-4" d="M6.73,24.17a3,3,0,1,1,3.89,1.62,3,3,0,0,1-3.89-1.62" transform="translate(0 0)"/><path class="cls-4" d="M23.67,33.37a4.45,4.45,0,1,1-4.27-4.79,4.55,4.55,0,0,1,4.27,4.79" transform="translate(0 0)"/><path class="cls-4" d="M14.54,52.79A1.65,1.65,0,1,1,13,51.05a1.67,1.67,0,0,1,1.59,1.74" transform="translate(0 0)"/><path class="cls-4" d="M27.54,25.79A1.65,1.65,0,1,1,26,24.05a1.67,1.67,0,0,1,1.59,1.74" transform="translate(0 0)"/><path class="cls-4" d="M15.74,44.21,2.05,36.69l16.35-3.5L9.12,23.38l.73-.69,9,9.51-.41-16.69,1,0,.43,17.8.48.51-.6.13ZM4.88,37.1l10.35,5.68,3.35-8.61Z" transform="translate(0 0)"/><rect class="cls-4" x="9.39" y="47.61" width="9.59" height="1" transform="translate(-35.97 48.73) rotate(-74.28)"/><path class="cls-4" d="M98,1.86,42,97.31H78.45a3.75,3.75,0,0,0,3.24-1.86l37.72-64.27a3.75,3.75,0,0,0,0-3.8l-15-25.52a3.75,3.75,0,0,0-6.48,0" transform="translate(0 0)"/><g class="cls-5"><g class="cls-6"><g class="cls-7"><path class="cls-8" d="M69.28,88.78,62.39,71.24l-14-35.65c-1-2.47-4.57-2.47-6.52,0L21.8,61A3.9,3.9,0,0,0,21,64.77L33.81,97.3H77.56c-3.09-.32-4.54-.94-8.28-8.53" transform="translate(0 0)"/></g></g></g><path class="cls-9" d="M67.65,88.75,57.33,71.13l-21-35.82a3.75,3.75,0,0,0-6.48,0l-15,25.52a3.75,3.75,0,0,0,0,3.8L34,97.31H77.58c-3.14-.32-4.7-.94-9.93-8.56" transform="translate(0 0)"/><rect class="cls-4" x="17.57" y="29.11" width="10.13" height="1" transform="translate(-14.59 27.91) rotate(-49.99)"/></g></g></g><text class="cls-10" transform="translate(128.09 97.31) scale(1.02 1)">Verified Resume</text></g></g></g></svg>