<?xml version="1.0" encoding="utf-8"?>
<!-- Generator: Adobe Illustrator 25.1.0, SVG Export Plug-In . SVG Version: 6.00 Build 0)  -->
<svg version="1.1" id="Layer_1" xmlns="http://www.w3.org/2000/svg" xmlns:xlink="http://www.w3.org/1999/xlink" x="0px" y="0px"
	 viewBox="0 0 415.8 88.7" style="enable-background:new 0 0 415.8 88.7;" xml:space="preserve">
<style type="text/css">
	.st0{enable-background:new    ;}
	.st1{fill:#2A313F;}
	.st2{fill:#0071B9;}
	.st3{opacity:0.2;}
	.st4{clip-path:url(#SVGID_2_);fill:#000508;}
	.st5{fill:#33A8F2;}
</style>
<g>
	<g class="st0">
		<path class="st1" d="M98.4,67.2L87.5,39h6.8l7.8,21.7L110,39h6.8L106,67.2H98.4z"/>
		<path class="st1" d="M115.5,57c0-5.9,4.4-10.7,10.6-10.7c6.1,0,10.3,4.6,10.3,11.2v1.3h-15.2c0.4,2.5,2.4,4.6,5.9,4.6
			c1.7,0,4.1-0.7,5.4-2l2.4,3.6c-2,1.9-5.3,2.8-8.4,2.8C120.2,67.7,115.5,63.5,115.5,57z M126.1,50.7c-3.3,0-4.8,2.3-5,4.4h10.1
			C131,53.1,129.7,50.7,126.1,50.7z"/>
		<path class="st1" d="M140.2,67.2V46.8h5.4v2.8c1.5-1.8,4-3.3,6.5-3.3v5.3c-0.4-0.1-0.8-0.1-1.5-0.1c-1.8,0-4.2,1-5,2.3v13.5H140.2
			z"/>
		<path class="st1" d="M155,41.3c0-1.8,1.4-3.2,3.2-3.2c1.8,0,3.2,1.4,3.2,3.2s-1.4,3.2-3.2,3.2C156.4,44.5,155,43.1,155,41.3z
			 M155.5,67.2V46.8h5.4v20.5H155.5z"/>
		<path class="st1" d="M167.5,67.2V51.5h-3.4v-4.7h3.4v-0.8c0-4.8,2.9-7.4,6.9-7.4c1.6,0,2.9,0.3,3.9,0.8l-1.1,4
			c-0.4-0.3-1-0.4-1.7-0.4c-1.5,0-2.5,1-2.5,3v0.8h4.2v4.7h-4.2v15.8H167.5z M179.6,41.3c0-1.8,1.4-3.2,3.2-3.2
			c1.8,0,3.2,1.4,3.2,3.2s-1.4,3.2-3.2,3.2C181,44.5,179.6,43.1,179.6,41.3z M180.1,67.2V46.8h5.4v20.5H180.1z"/>
		<path class="st1" d="M189.5,57c0-5.9,4.4-10.7,10.6-10.7c6.1,0,10.3,4.6,10.3,11.2v1.3h-15.2c0.4,2.5,2.4,4.6,5.9,4.6
			c1.7,0,4.1-0.7,5.4-2l2.4,3.6c-2,1.9-5.3,2.8-8.4,2.8C194.2,67.7,189.5,63.5,189.5,57z M200.1,50.7c-3.3,0-4.8,2.3-5,4.4h10.1
			C205,53.1,203.7,50.7,200.1,50.7z"/>
		<path class="st1" d="M228.3,67.2v-2.6c-1.6,2-3.8,3.1-6.3,3.1c-5.1,0-9.1-3.9-9.1-10.8c0-6.7,3.9-10.7,9.1-10.7
			c2.4,0,4.7,1,6.3,3.1V39h5.4v28.3H228.3z M228.3,60.6v-7.2c-0.9-1.4-2.8-2.3-4.6-2.3c-3.1,0-5.2,2.4-5.2,5.9c0,3.6,2.1,6,5.2,6
			C225.5,62.9,227.4,62,228.3,60.6z"/>
		<path class="st1" d="M266.1,67.2l-5.6-10h-4.4v10h-6V39h13.2c5.9,0,9.5,3.9,9.5,9.1c0,5-3.2,7.7-6.2,8.4l6.4,10.8H266.1z
			 M266.7,48c0-2.3-1.8-3.8-4.2-3.8h-6.4v7.6h6.4C264.9,51.9,266.7,50.4,266.7,48z"/>
		<path class="st1" d="M274.7,57c0-5.9,4.4-10.7,10.6-10.7c6.1,0,10.3,4.6,10.3,11.2v1.3h-15.2c0.4,2.5,2.4,4.6,5.9,4.6
			c1.7,0,4.1-0.7,5.4-2l2.4,3.6c-2,1.9-5.3,2.8-8.4,2.8C279.4,67.7,274.7,63.5,274.7,57z M285.2,50.7c-3.3,0-4.8,2.3-5,4.4h10.1
			C290.2,53.1,288.8,50.7,285.2,50.7z"/>
		<path class="st1" d="M297.6,64.6l2.3-3.9c1.5,1.4,4.5,2.8,7.1,2.8c2.3,0,3.4-0.9,3.4-2.2c0-3.3-12.1-0.6-12.1-8.6
			c0-3.4,3-6.4,8.4-6.4c3.4,0,6.2,1.2,8.2,2.8l-2.2,3.8c-1.2-1.3-3.6-2.4-6.1-2.4c-2,0-3.2,0.8-3.2,2c0,3,12.2,0.5,12.2,8.7
			c0,3.8-3.2,6.5-8.9,6.5C303.2,67.7,299.8,66.5,297.6,64.6z"/>
		<path class="st1" d="M333.4,67.2v-2.6c-1.4,1.5-3.9,3.1-7.2,3.1c-4.5,0-6.6-2.5-6.6-6.4V46.8h5.4v12.4c0,2.8,1.5,3.8,3.8,3.8
			c2.1,0,3.7-1.1,4.7-2.3V46.8h5.4v20.5H333.4z"/>
		<path class="st1" d="M369.6,67.2V54.3c0-1.9-0.8-3.3-3.1-3.3c-1.9,0-3.5,1.3-4.2,2.4v13.8h-5.4V54.3c0-1.9-0.8-3.3-3.1-3.3
			c-1.9,0-3.4,1.3-4.2,2.4v13.8h-5.4V46.8h5.4v2.6c0.9-1.2,3.6-3.1,6.7-3.1c3,0,5,1.4,5.7,3.7c1.2-1.8,3.9-3.7,7-3.7
			c3.8,0,6,2,6,6.2v14.8H369.6z"/>
		<path class="st1" d="M379,57c0-5.9,4.4-10.7,10.6-10.7c6.1,0,10.3,4.6,10.3,11.2v1.3h-15.2c0.4,2.5,2.4,4.6,5.9,4.6
			c1.7,0,4.1-0.7,5.4-2l2.4,3.6c-2,1.9-5.3,2.8-8.4,2.8C383.7,67.7,379,63.5,379,57z M389.6,50.7c-3.3,0-4.8,2.3-5,4.4h10.1
			C394.5,53.1,393.2,50.7,389.6,50.7z"/>
	</g>
	<g>
		<g>
			<circle id="Ellipse_18" class="st2" cx="16.7" cy="33.2" r="1.9"/>
			<circle id="Ellipse_19" class="st2" cx="25.4" cy="20.6" r="2.2"/>
			
				<rect id="Rectangle_68" x="22.7" y="34.6" transform="matrix(0.9446 -0.3282 0.3282 0.9446 -9.916 11.0905)" class="st2" width="10.5" height="0.6"/>
			<path id="Path_325" class="st2" d="M29.1,43.9c-0.8-0.4-5.1-6-6-7.2l0.5-0.3c1.8,2.5,3.7,4.8,5.8,7L29.1,43.9z"/>
			
				<rect id="Rectangle_69" x="28.9" y="28.5" transform="matrix(0.2551 -0.9669 0.9669 0.2551 -9.4047 52.2784)" class="st2" width="0.6" height="7.5"/>
			<path id="Path_326" class="st2" d="M28.2,53.2L16.3,33.3l3.5-7.6l5.6-5.6l0.2,0.3c3,5.4,8.1,14.1,8.9,14.5l0.2,0.1l-0.1,0.2
				L28.2,53.2z M16.9,33.2l11.2,18.6L34,35.2c-1.5-1.5-7.1-11.4-8.7-14.2l-5,5L16.9,33.2z"/>
			<circle id="Ellipse_20" class="st2" cx="23.4" cy="36.7" r="1.7"/>
			
				<ellipse id="Ellipse_22" transform="matrix(3.809901e-02 -0.9993 0.9993 3.809901e-02 -6.5537 55.4419)" class="st2" cx="25.5" cy="31.1" rx="2.6" ry="2.5"/>
			<ellipse id="Ellipse_23" class="st2" cx="22" cy="42.1" rx="0.9" ry="0.9"/>
			<ellipse id="Ellipse_24" class="st2" cx="29.3" cy="26.9" rx="0.9" ry="0.9"/>
			<path id="Path_327" class="st2" d="M23.6,37.3l-7.7-4.2l9.2-2l-5.2-5.5l0.4-0.4l5,5.3l-0.2-9.4l0.6,0l0.2,10l0.3,0.3l-0.3,0.1
				L23.6,37.3z M17.5,33.3l5.8,3.2l1.9-4.8L17.5,33.3z"/>
			
				<rect id="Rectangle_70" x="20" y="39.2" transform="matrix(0.27 -0.9629 0.9629 0.27 -21.4652 50.6744)" class="st2" width="5.4" height="0.6"/>
			
				<rect id="Rectangle_71" x="24.6" y="28.8" transform="matrix(0.6429 -0.7659 0.7659 0.6429 -12.4991 31.4056)" class="st2" width="5.7" height="0.6"/>
		</g>
		<circle id="Ellipse_21" class="st2" cx="20" cy="25.4" r="1.7"/>
		<path id="Path_328" class="st2" d="M69.6,13.7L38.3,67.1h20.5c0.8,0,1.4-0.4,1.8-1l21.1-36c0.4-0.7,0.4-1.6,0-2.3l-8.2-14.1
			c-0.6-1.1-2-1.4-3.1-0.8C70.1,13.1,69.8,13.4,69.6,13.7z"/>
		<g class="st3">
			<g>
				<defs>
					<path id="SVGID_1_" d="M69.6,13.7L38.3,67.1h20.5c0.8,0,1.4-0.4,1.8-1l21.1-36c0.4-0.7,0.4-1.6,0-2.3l-8.2-14.1
						c-0.6-1.1-2-1.4-3.1-0.8C70.1,13.1,69.8,13.4,69.6,13.7z"/>
				</defs>
				<clipPath id="SVGID_2_">
					<use xlink:href="#SVGID_1_"  style="overflow:visible;"/>
				</clipPath>
				<path id="Path_329" class="st4" d="M53.6,62.3l-3.9-9.8l-7.9-20c-0.5-1.4-2.6-1.4-3.7,0L27,46.7c-0.5,0.6-0.7,1.4-0.4,2.1
					l7.2,18.3h24.6C56.5,66.9,55.7,66.6,53.6,62.3z"/>
			</g>
		</g>
		<path id="Path_331" class="st5" d="M52.7,62.3l-5.8-9.9L35.2,32.5c-0.6-1.1-2-1.4-3.1-0.8c-0.3,0.2-0.6,0.5-0.8,0.8l-8.2,14.1
			c-0.4,0.7-0.4,1.6,0,2.3l10.7,18.3h24.4C56.5,66.9,55.6,66.6,52.7,62.3z"/>
	</g>
</g>
</svg>
