<svg id="email" xmlns="http://www.w3.org/2000/svg" width="28.174" height="21.441" viewBox="0 0 28.174 21.441">
  <path id="Path_35926" data-name="Path 35926" d="M24.735,57.75H3.445A3.448,3.448,0,0,0,0,61.2v14.55a3.448,3.448,0,0,0,3.445,3.445H24.729a3.448,3.448,0,0,0,3.445-3.445V61.2A3.445,3.445,0,0,0,24.735,57.75Zm1.871,18a1.873,1.873,0,0,1-1.871,1.871H3.445a1.873,1.873,0,0,1-1.871-1.871V61.2A1.873,1.873,0,0,1,3.445,59.33H24.729A1.873,1.873,0,0,1,26.6,61.2V75.746Z" transform="translate(0 -57.75)" fill="#21b3ff"/>
  <path id="Path_35927" data-name="Path 35927" d="M70.271,116.46l6.89-6.179a.788.788,0,0,0-1.055-1.172l-9.5,8.529-1.854-1.656c-.006-.006-.012-.012-.012-.017a1.165,1.165,0,0,0-.128-.111L57.067,109.1a.789.789,0,1,0-1.049,1.178l6.972,6.232-6.943,6.5a.79.79,0,0,0-.035,1.113.805.805,0,0,0,.577.251.789.789,0,0,0,.536-.21l7.048-6.593,1.912,1.708a.785.785,0,0,0,1.049-.006l1.965-1.761,7.007,6.657a.789.789,0,0,0,1.113-.029.79.79,0,0,0-.029-1.113Z" transform="translate(-52.503 -105.921)" fill="#21b3ff"/>
</svg>
