<svg xmlns="http://www.w3.org/2000/svg" width="24.392" height="30.411" viewBox="0 0 24.392 30.411">
  <g id="location" transform="translate(-1342.491 -7476.604)">
    <path id="Path_427" data-name="Path 427" d="M59.39,0A12.206,12.206,0,0,0,47.2,12.19a12,12,0,0,0,.217,2.289c.006.045.032.179.083.408a12,12,0,0,0,.816,2.4c1.313,3.092,4.2,7.842,10.539,12.929a.863.863,0,0,0,1.084,0c6.331-5.088,9.225-9.837,10.539-12.929a11.871,11.871,0,0,0,.816-2.4c.051-.23.076-.363.083-.408a12.536,12.536,0,0,0,.217-2.289A12.225,12.225,0,0,0,59.39,0ZM69.667,14.179c0,.013-.006.026-.006.038-.006.032-.025.128-.057.274V14.5a10.122,10.122,0,0,1-.708,2.078c-.006.006-.006.019-.013.026-1.192,2.824-3.806,7.134-9.493,11.833-5.687-4.7-8.3-9.008-9.493-11.833-.006-.006-.006-.019-.013-.026a10.8,10.8,0,0,1-.708-2.078v-.013c-.038-.147-.051-.242-.057-.274,0-.013-.006-.026-.006-.045a10.468,10.468,0,1,1,20.554.006Z" transform="translate(1295.291 7476.604)" fill="#21b3ff"/>
    <path id="Path_428" data-name="Path 428" d="M124.74,71.9a7.74,7.74,0,1,0,7.74,7.74A7.752,7.752,0,0,0,124.74,71.9Zm0,13.758a6.018,6.018,0,1,1,6.018-6.018A6.025,6.025,0,0,1,124.74,85.658Z" transform="translate(1229.941 7409.288)" fill="#21b3ff"/>
  </g>
</svg>
