<svg id="phone" xmlns="http://www.w3.org/2000/svg" width="25.143" height="25.18" viewBox="0 0 25.143 25.18">
  <path id="Path_36467" data-name="Path 36467" d="M20.226,41.548a2.477,2.477,0,0,0-1.8-.824,2.561,2.561,0,0,0-1.818.818l-1.679,1.674c-.138-.074-.276-.143-.409-.213-.191-.1-.372-.186-.526-.282a18.252,18.252,0,0,1-4.374-3.986,10.768,10.768,0,0,1-1.435-2.264c.436-.4.84-.813,1.233-1.212.149-.149.3-.3.446-.452a2.438,2.438,0,0,0,0-3.678L8.418,29.681c-.165-.165-.335-.335-.494-.5-.319-.329-.654-.67-1-.988a2.516,2.516,0,0,0-1.78-.781,2.6,2.6,0,0,0-1.807.781l-.011.011L1.52,30.021A3.888,3.888,0,0,0,.366,32.492a9.316,9.316,0,0,0,.68,3.943,22.882,22.882,0,0,0,4.065,6.781,25.009,25.009,0,0,0,8.328,6.521,12.975,12.975,0,0,0,4.677,1.382c.112.005.229.011.335.011a4,4,0,0,0,3.066-1.318c.005-.011.016-.016.021-.027a12.082,12.082,0,0,1,.93-.962c.229-.218.462-.446.691-.686a2.651,2.651,0,0,0,.8-1.839,2.554,2.554,0,0,0-.818-1.823Zm1.9,5.6c-.005,0-.005.005,0,0-.207.223-.42.425-.648.648a13.974,13.974,0,0,0-1.026,1.063,2.562,2.562,0,0,1-2,.845c-.08,0-.165,0-.244-.005a11.526,11.526,0,0,1-4.145-1.244,23.607,23.607,0,0,1-7.844-6.143A21.575,21.575,0,0,1,2.4,35.936a7.588,7.588,0,0,1-.6-3.327,2.44,2.44,0,0,1,.733-1.578l1.812-1.812a1.208,1.208,0,0,1,.808-.377,1.137,1.137,0,0,1,.776.372l.016.016c.324.3.632.616.957.951.165.17.335.34.5.515l1.451,1.451a1.014,1.014,0,0,1,0,1.647c-.154.154-.3.308-.457.457-.446.457-.872.882-1.334,1.3-.011.011-.021.016-.027.027a1.084,1.084,0,0,0-.276,1.206l.016.048a11.648,11.648,0,0,0,1.717,2.8l.005.005a19.506,19.506,0,0,0,4.719,4.294,7.255,7.255,0,0,0,.654.356c.191.1.372.186.526.282.021.011.043.027.064.037a1.152,1.152,0,0,0,.526.133,1.136,1.136,0,0,0,.808-.367l1.818-1.818a1.2,1.2,0,0,1,.8-.4,1.082,1.082,0,0,1,.765.388l.011.011,2.928,2.928A1.051,1.051,0,0,1,22.129,47.144Z" transform="translate(-0.344 -25.95)" fill="#21b3ff"/>
  <path id="Path_36468" data-name="Path 36468" d="M245.534,87.348a6.84,6.84,0,0,1,5.569,5.569.713.713,0,0,0,.707.6.951.951,0,0,0,.122-.011.718.718,0,0,0,.59-.829,8.27,8.27,0,0,0-6.739-6.739.721.721,0,0,0-.829.585A.71.71,0,0,0,245.534,87.348Z" transform="translate(-231.945 -81.359)" fill="#21b3ff"/>
  <path id="Path_36469" data-name="Path 36469" d="M260.705,11.108a13.618,13.618,0,0,0-11.1-11.1.716.716,0,1,0-.234,1.414,12.164,12.164,0,0,1,9.917,9.917.713.713,0,0,0,.707.6.949.949,0,0,0,.122-.011A.7.7,0,0,0,260.705,11.108Z" transform="translate(-235.573 0)" fill="#21b3ff"/>
</svg>
