<svg xmlns="http://www.w3.org/2000/svg" width="41.96" height="42.019" viewBox="0 0 41.96 42.019">
  <g id="qr" transform="translate(0)">
    <path id="Path_37842" data-name="Path 37842" d="M-1769.981,758.3c.546.4,1.038.859.76,1.616-.288.785-.975.845-1.7.832-1.2-.021-2.4-.024-3.594,0a2.185,2.185,0,0,0-2.276,2.256c-.027,1.3-.008,2.6-.007,3.9,0,.822-.3,1.452-1.208,1.453s-1.21-.628-1.21-1.451c0-1.129,0-2.258,0-3.387a4.741,4.741,0,0,1,3.544-5.013,1.9,1.9,0,0,0,.34-.206Z" transform="translate(1779.226 -758.304)" fill="#fff"/>
    <path id="Path_37843" data-name="Path 37843" d="M-1614.986,767.558c-.4.546-.861,1.039-1.619.76-.788-.289-.843-.978-.83-1.7.021-1.2.025-2.4,0-3.6a2.188,2.188,0,0,0-2.269-2.268c-1.2-.025-2.4-.022-3.6,0-.723.013-1.413-.043-1.7-.83-.279-.758.213-1.215.76-1.618h5.35a5.594,5.594,0,0,1,3.909,3.907Z" transform="translate(1656.946 -758.304)" fill="#fff"/>
    <path id="Path_37844" data-name="Path 37844" d="M-1614.839,918.658c-.111.243-.236.48-.33.73a4.656,4.656,0,0,1-4.38,3.145c-1.3.031-2.6.006-3.9.007-.823,0-1.452-.3-1.45-1.21s.631-1.207,1.454-1.206c1.267,0,2.533.014,3.8,0a2.205,2.205,0,0,0,2.361-2.382c.016-1.163.02-2.327,0-3.489-.013-.723.046-1.41.833-1.7.758-.277,1.214.216,1.617.761Z" transform="translate(1656.799 -880.613)" fill="#fff"/>
    <path id="Path_37845" data-name="Path 37845" d="M-1736.659,835.475a27.5,27.5,0,0,1-4.552.9,8.122,8.122,0,0,1-8.257-8.361,8.214,8.214,0,0,1,8.47-8.083,8.221,8.221,0,0,1,8.029,8.518,8.9,8.9,0,0,1-1.547,4.6,1.331,1.331,0,0,0-.086,1.131c.387.727.705,1.421-.1,1.995s-1.41.128-1.884-.573C-1736.658,835.486-1736.725,835.366-1736.659,835.475Zm.22-3.972a5.732,5.732,0,0,0-1.025-7.837,5.8,5.8,0,0,0-7.985.44,5.78,5.78,0,0,0-.112,7.993c1.886,2.106,5.24,2.605,7.261,1.039-.368-.565-.763-1.12-1.1-1.706a1.111,1.111,0,0,1,.32-1.624,1.126,1.126,0,0,1,1.632.3C-1737.11,830.525-1736.813,830.983-1736.439,831.5Z" transform="translate(1755.626 -807.191)" fill="#fff"/>
    <path id="Path_37846" data-name="Path 37846" d="M-1663.073,830.726c0,1.446-.012,2.772,0,4.1.011.82-.229,1.436-1.151,1.5-.779.057-1.243-.5-1.245-1.532q-.018-6.677,0-13.353c0-1.208.4-1.586,1.613-1.595,1.679-.012,3.358-.018,5.036,0a5.419,5.419,0,0,1,5.483,4.212,5.429,5.429,0,0,1-2.837,6.029c-.143.082-.276.182-.484.321.812,1.346,1.61,2.651,2.388,3.968a1.165,1.165,0,0,1-.325,1.786,1.179,1.179,0,0,1-1.729-.562c-.108-.175-.218-.348-.325-.523-.747-1.228-1.458-2.48-2.262-3.669a1.685,1.685,0,0,0-1.1-.651C-1660.977,830.665-1661.967,830.726-1663.073,830.726Zm.009-8.363c0,1.821-.016,3.631.026,5.439,0,.175.367.483.57.488,1.4.035,2.815.069,4.215-.019a2.915,2.915,0,0,0,2.63-2.6c.147-1.536-.666-3.092-2.043-3.256A46.717,46.717,0,0,0-1663.064,822.363Z" transform="translate(1688.988 -807.12)" fill="#fff"/>
    <path id="Path_37847" data-name="Path 37847" d="M-1772.693,922.773a21.3,21.3,0,0,1-3.143-.339,4.516,4.516,0,0,1-3.408-4.369c-.04-1.333-.012-2.668-.009-4,0-.831.338-1.434,1.246-1.414.848.019,1.165.605,1.169,1.389.005,1.3-.014,2.6.008,3.9a2.192,2.192,0,0,0,2.318,2.32c1.266.022,2.533.012,3.8,0,.816-.005,1.431.259,1.5,1.168.061.776-.512,1.23-1.522,1.248-.65.011-1.3,0-1.951,0Z" transform="translate(1779.266 -880.754)" fill="#fff"/>
  </g>
</svg>
